<svg viewBox="0 0 24 24" fill="none" xmlns="http://www.w3.org/2000/svg">
<path fill-rule="evenodd" clip-rule="evenodd" d="M12.0001 0C5.3735 0 0 5.50847 0 12.3038C0 17.74 3.43839 22.3519 8.2064 23.9789C8.80613 24.0927 9.02631 23.7119 9.02631 23.387C9.02631 23.0936 9.01518 22.1244 9.01001 21.0963C5.67157 21.8405 4.96712 19.6446 4.96712 19.6446C4.42125 18.2224 3.63473 17.8443 3.63473 17.8443C2.54596 17.0806 3.7168 17.0963 3.7168 17.0963C4.92181 17.1831 5.55632 18.3642 5.55632 18.3642C6.6266 20.2452 8.36359 19.7014 9.04836 19.387C9.15607 18.5918 9.46706 18.049 9.81024 17.7418C7.14486 17.4307 4.34295 16.3757 4.34295 11.6612C4.34295 10.3179 4.81172 9.22032 5.57937 8.35867C5.45477 8.04878 5.04402 6.79737 5.69562 5.10261C5.69562 5.10261 6.70331 4.77193 8.9965 6.3638C9.95372 6.09119 10.9803 5.95447 12.0001 5.94979C13.0199 5.95447 14.0473 6.09119 15.0063 6.3638C17.2967 4.77193 18.303 5.10261 18.303 5.10261C18.9562 6.79737 18.5452 8.04878 18.4206 8.35867C19.1901 9.22032 19.6557 10.3179 19.6557 11.6612C19.6557 16.3869 16.8484 17.4274 14.1762 17.732C14.6067 18.1138 14.9902 18.8626 14.9902 20.0105C14.9902 21.6568 14.9763 22.9817 14.9763 23.387C14.9763 23.7144 15.1923 24.098 15.8006 23.9772C20.566 22.3485 24 17.7381 24 12.3038C24 5.50847 18.6273 0 12.0001 0Z" fill="#D7DEE6"/>
<path fill-rule="evenodd" clip-rule="evenodd" d="M4.58055 17.5816C4.55417 17.6421 4.46055 17.6603 4.37526 17.6187C4.28838 17.579 4.23959 17.4964 4.26775 17.4357C4.29354 17.3734 4.38736 17.356 4.47403 17.3978C4.56111 17.4375 4.6107 17.5209 4.58055 17.5816Z" fill="#D7DEE6"/>
<path fill-rule="evenodd" clip-rule="evenodd" d="M5.06589 18.1308C5.00877 18.1846 4.8971 18.1596 4.82133 18.0745C4.74298 17.9896 4.7283 17.876 4.78622 17.8213C4.84513 17.7674 4.95343 17.7927 5.03197 17.8776C5.11032 17.9635 5.12559 18.0763 5.06589 18.1308Z" fill="#D7DEE6"/>
<path fill-rule="evenodd" clip-rule="evenodd" d="M5.53726 18.8347C5.46387 18.8865 5.34387 18.8379 5.26969 18.7296C5.1963 18.6212 5.1963 18.4913 5.27128 18.4393C5.34566 18.3872 5.46387 18.434 5.53904 18.5416C5.61223 18.6517 5.61223 18.7816 5.53726 18.8347Z" fill="#D7DEE6"/>
<path fill-rule="evenodd" clip-rule="evenodd" d="M6.18439 19.5115C6.11874 19.5851 5.9789 19.5653 5.87656 19.4649C5.77183 19.3666 5.74267 19.2272 5.80852 19.1536C5.87497 19.0797 6.0156 19.1005 6.11874 19.2002C6.22267 19.2982 6.25441 19.4386 6.18439 19.5115Z" fill="#D7DEE6"/>
<path fill-rule="evenodd" clip-rule="evenodd" d="M7.0772 19.9028C7.04824 19.9982 6.91356 20.0416 6.77789 20.001C6.64242 19.9593 6.55376 19.8475 6.58113 19.7511C6.6093 19.6551 6.74457 19.6099 6.88123 19.6533C7.01651 19.6948 7.10537 19.8058 7.0772 19.9028Z" fill="#D7DEE6"/>
<path fill-rule="evenodd" clip-rule="evenodd" d="M8.05768 19.9786C8.06105 20.079 7.94601 20.1624 7.8036 20.1642C7.66039 20.1674 7.54456 20.0861 7.54297 19.9873C7.54297 19.8858 7.65543 19.8033 7.79864 19.8009C7.94105 19.798 8.05768 19.8787 8.05768 19.9786Z" fill="#D7DEE6"/>
<path fill-rule="evenodd" clip-rule="evenodd" d="M8.96967 19.819C8.98673 19.917 8.88775 20.0177 8.74633 20.0445C8.60729 20.0703 8.47856 20.0098 8.46091 19.9126C8.44365 19.8121 8.54441 19.7115 8.68326 19.6854C8.82488 19.6604 8.95162 19.7193 8.96967 19.819Z" fill="#D7DEE6"/>
</svg>
