<svg width="12" height="12" viewBox="0 0 12 12" fill="none" xmlns="http://www.w3.org/2000/svg">
<path d="M8.50009 7.99991C8.36748 7.99991 8.24031 7.94723 8.14654 7.85346C8.05277 7.75969 8.00009 7.63252 8.00009 7.49991V4.70491L3.85509 8.85491C3.76094 8.94906 3.63324 9.00195 3.50009 9.00195C3.36694 9.00195 3.23924 8.94906 3.14509 8.85491C3.05094 8.76076 2.99805 8.63306 2.99805 8.49991C2.99805 8.36676 3.05094 8.23906 3.14509 8.14491L7.29509 3.99991H4.50009C4.36748 3.99991 4.24031 3.94723 4.14654 3.85346C4.05277 3.75969 4.00009 3.63252 4.00009 3.49991C4.00009 3.3673 4.05277 3.24012 4.14654 3.14635C4.24031 3.05259 4.36748 2.99991 4.50009 2.99991H8.50009C8.6327 2.99991 8.75988 3.05259 8.85365 3.14635C8.94741 3.24012 9.00009 3.3673 9.00009 3.49991V7.49991C9.00009 7.63252 8.94741 7.75969 8.85365 7.85346C8.75988 7.94723 8.6327 7.99991 8.50009 7.99991Z" fill="#099616"/>
</svg>
