<svg viewBox="0 0 24 24" fill="none" xmlns="http://www.w3.org/2000/svg">
<path d="M1.58769 12C1.58769 16.1262 3.98769 19.68 7.45846 21.3692L2.49231 7.76308C1.89598 9.09599 1.58772 10.5398 1.58769 12ZM12 22.4123C13.2092 22.4123 14.3723 22.2 15.4615 21.8215L15.3877 21.6831L12.1846 12.9138L9.06462 21.9877C9.98769 22.2646 10.9754 22.4123 12 22.4123ZM13.4308 7.11692L17.1969 18.3138L18.24 14.8431C18.6831 13.4031 19.0246 12.3692 19.0246 11.4738C19.0246 10.1815 18.5631 9.29538 18.1754 8.61231C17.64 7.74462 17.1508 7.01539 17.1508 6.16615C17.1508 5.20615 17.8708 4.32 18.9046 4.32H19.0338C17.1153 2.55869 14.6044 1.58335 12 1.58769C10.2755 1.58737 8.57801 2.01575 7.06017 2.83428C5.54233 3.65282 4.25178 4.83584 3.30462 6.27692L3.96923 6.29538C5.05846 6.29538 6.73846 6.15692 6.73846 6.15692C7.31077 6.12923 7.37538 6.95077 6.81231 7.01539C6.81231 7.01539 6.24923 7.08923 5.61231 7.11692L9.41538 18.3969L11.6954 11.5662L10.0708 7.11692C9.70687 7.09684 9.34363 7.06606 8.98154 7.02462C8.41846 6.98769 8.48308 6.12923 9.04615 6.15692C9.04615 6.15692 10.7631 6.29538 11.7877 6.29538C12.8769 6.29538 14.5569 6.15692 14.5569 6.15692C15.12 6.12923 15.1938 6.95077 14.6308 7.01539C14.6308 7.01539 14.0677 7.08 13.4308 7.11692ZM17.2338 21C18.809 20.0841 20.1163 18.7709 21.025 17.1916C21.9337 15.6122 22.4121 13.8221 22.4123 12C22.4123 10.1908 21.9508 8.49231 21.1385 7.00615C21.3034 8.64118 21.0559 10.2915 20.4185 11.8062L17.2338 21ZM12 24C8.8174 24 5.76516 22.7357 3.51472 20.4853C1.26428 18.2348 0 15.1826 0 12C0 8.8174 1.26428 5.76516 3.51472 3.51472C5.76516 1.26428 8.8174 0 12 0C15.1826 0 18.2348 1.26428 20.4853 3.51472C22.7357 5.76516 24 8.8174 24 12C24 15.1826 22.7357 18.2348 20.4853 20.4853C18.2348 22.7357 15.1826 24 12 24Z" fill="#626673"/>
</svg>
