<svg width="33" height="33" viewBox="0 0 33 33" fill="none" xmlns="http://www.w3.org/2000/svg">
<path fill-rule="evenodd" clip-rule="evenodd" d="M10.5933 4.37982C16.5613 1.84349 23.4554 4.62538 25.9917 10.5933C27.7812 14.804 26.9233 19.4756 24.167 22.7526L31.8183 30.405C32.2088 30.7955 32.2087 31.4287 31.8182 31.8192C31.4276 32.2097 30.7945 32.2096 30.404 31.8191L22.7532 24.1672C21.8799 24.9025 20.8837 25.5219 19.7782 25.9917C13.8102 28.528 6.91614 25.7461 4.37982 19.7782C1.84349 13.8102 4.62538 6.91614 10.5933 4.37982ZM22.133 22.018C22.1126 22.0354 22.0927 22.0537 22.0734 22.073C22.0539 22.0925 22.0354 22.1126 22.0179 22.1332C21.1708 22.9667 20.1559 23.6581 18.9959 24.151C14.0445 26.2553 8.32477 23.9473 6.22048 18.9959C4.11619 14.0445 6.42422 8.32477 11.3756 6.22048C16.327 4.11619 22.0468 6.42422 24.151 11.3756C25.7398 15.114 24.8133 19.2904 22.133 22.018Z" fill="#D7DEE6"/>
</svg>
