<svg width="544" height="352" fill="none" xmlns="http://www.w3.org/2000/svg">
  <g style="mix-blend-mode:multiply">
    <path d="M157.662 120.35c-32.096 28.472-69.9074 51.706-78.5968 82.592-8.6895 30.886 11.8208 69.355 43.9168 87.28 32.096 17.925 75.778 15.305 124.314 19.51 48.536 4.206 101.847 15.305 134.334-2.619 32.488-17.925 44.152-64.875 35.854-104.516-8.298-39.641-36.558-71.975-69.046-100.448-32.487-28.5419-69.202-53.1541-100.75-48.6039-31.549 4.5501-57.93 38.2626-90.026 66.8049z" fill="#F2F9FD"/>
    <path d="M72.2328 219.749s-33.5088 20.228 28.2832 51.385c0 0 13.615-25.278-1.4367-45.89-2.9209-4.016-7.2133-6.822-12.0641-7.885-4.8508-1.063-9.9231-.31-14.256 2.116l-.5264.274z" fill="#14BC1F"/>
    <path d="M72.6338 219.328s28.6892 21.934 27.8882 51.79" stroke="#535461" stroke-miterlimit="10"/>
    <path d="M420.663 266.895h-35.231c.811-1.63 1.231-3.427 1.228-5.247V101.226c0-3.1278-1.242-6.1278-3.454-8.3398-2.212-2.2119-5.212-3.4546-8.34-3.4546H102.162c-3.1283 0-6.1284 1.2427-8.3403 3.4546-2.2119 2.212-3.4546 5.212-3.4546 8.3398v160.427c-.0028 1.821.4177 3.617 1.2283 5.248H55.1201c-.4111 0-.8182.081-1.1978.239-.3796.157-.7243.389-1.0143.68-.2899.292-.5194.638-.6752 1.018-.1558.38-.2349.788-.2328 1.199v2.517c0 4.627 1.8383 9.065 5.1105 12.338 3.2721 3.272 7.7101 5.11 12.3376 5.11H406.335c4.627 0 9.065-1.838 12.337-5.11 3.273-3.273 5.111-7.711 5.111-12.338v-2.517c.003-.412-.076-.82-.231-1.201-.156-.381-.385-.727-.675-1.019-.29-.292-.635-.524-1.015-.682-.38-.159-.788-.24-1.199-.24zm-217.081 9.98l-3.038-3.427h75.002l-3.345 3.432-68.619-.005z" fill="url(#paint0_linear)"/>
    <path d="M370.54 91.7031H106.461c-7.0437 0-12.754 5.7103-12.754 12.7539v154.341c0 7.044 5.7103 12.754 12.754 12.754H370.54c7.044 0 12.754-5.71 12.754-12.754V104.457c0-7.0436-5.71-12.7539-12.754-12.7539z" fill="#8A8E99"/>
    <path d="M376.588 117.918H99.8047v146.927H376.588V117.918zM238.199 107.554c1.348 0 2.44-1.092 2.44-2.44 0-1.348-1.092-2.44-2.44-2.44-1.348 0-2.44 1.092-2.44 2.44 0 1.348 1.092 2.44 2.44 2.44z" fill="#fff"/>
    <path d="M280.93 265.145H59.2597c-.8086 0-1.584.321-2.1558.892-.5718.572-.893 1.348-.893 2.156v2.457c0 4.523 1.7967 8.86 4.9948 12.058 3.1981 3.198 7.5357 4.995 12.0585 4.995H402.518c2.239 0 4.457-.441 6.526-1.298s3.949-2.113 5.532-3.697c1.584-1.583 2.84-3.463 3.697-5.532.857-2.069 1.298-4.287 1.298-6.526v-2.457c0-.808-.321-1.584-.893-2.156-.571-.571-1.347-.892-2.156-.892H280.93z" fill="#626673"/>
    <path d="M134.5 127.002v126H340" stroke="#D7DEE6" stroke-width="2" stroke-linecap="round"/>
    <path d="M163.5 195.002l37.5-34.5 36 31.5 37-38 36-15.5" stroke="#D7DEE6" stroke-width="2"/>
    <path opacity=".5" d="M174.79 214.244h-21.336v32.922h21.336v-32.922z" fill="#14BC1F"/>
    <path opacity=".7" d="M211.369 184.979h-21.336v62.186h21.336v-62.186z" fill="#14BC1F"/>
    <path opacity=".5" d="M247.948 202.66h-21.336v44.503h21.336V202.66z" fill="#14BC1F"/>
    <path opacity=".8" d="M284.527 175.225h-21.336v71.941h21.336v-71.941z" fill="#14BC1F"/>
    <path d="M321.107 149.617h-21.336v97.544h21.336v-97.544zM163.817 198.393c2.356 0 4.266-1.91 4.266-4.266s-1.91-4.266-4.266-4.266-4.266 1.91-4.266 4.266 1.91 4.266 4.266 4.266zM236.976 195.952c2.356 0 4.266-1.91 4.266-4.266s-1.91-4.266-4.266-4.266-4.266 1.91-4.266 4.266 1.91 4.266 4.266 4.266zM274.164 158.155c2.357 0 4.267-1.91 4.267-4.266s-1.91-4.266-4.267-4.266c-2.356 0-4.266 1.91-4.266 4.266s1.91 4.266 4.266 4.266zM201.005 164.249c2.356 0 4.266-1.91 4.266-4.266s-1.91-4.266-4.266-4.266-4.266 1.91-4.266 4.266 1.91 4.266 4.266 4.266zM310.135 142.913c2.356 0 4.266-1.91 4.266-4.266s-1.91-4.266-4.266-4.266-4.266 1.91-4.266 4.266 1.91 4.266 4.266 4.266z" fill="#14BC1F"/>
    <path d="M479.697 299.091c-2.606-.858-6.469-1.849-9.532-1.499-2.917-1.062-9.773-3.813-14.457-7.956.135-4.074.031-8.152-.311-12.214-2.396-27.242 2.993-45.2 2.993-45.2s4.232-13.701 3.768-25.069c.273.514.426.819.426.819.368-9.805 3.711-19.953 6.215-26.276.095-.027.189-.061.279-.102l2.796-6.634c.223-.387.4-.798.528-1.226l.451-1.049-.133-.057c.044-.172.088-.356.133-.54 1.786-7.556 3.177-25.476 3.177-25.476 4.792-18.86-6.583-30.502-6.583-30.502l-19.305-16.6109c.096.2162.16.4452.19.6799l-.159-.14c-.273-.7814-.572-1.7155-.864-2.7831.681-.489 1.319-1.0353 1.906-1.6332 2.195-2.0729 3.705-4.7666 4.328-7.7208.374-2.3102.47-4.657.286-6.9901l-.318-8.0132c-.014-1.5682-.174-3.1318-.476-4.6706-1.456-6.3546-7.969-10.8029-14.508-11.0952-2.081-.0121-4.16.0982-6.228.3305-1.69.1389-3.388.1749-5.083.108-.193.0102-.385-.0409-.547-.1462-.147-.1467-.231-.345-.235-.5528-.033-.3719.009-.7467.125-1.1018.116-.355.303-.6828.549-.9635.256-.2243.554-.395.877-.502l-.464.108c.228-.1803.486-.32.762-.413-1.695.298-3.325.8894-4.816 1.7475-.411.2701-.789.5879-1.125.9469-.889.7796-1.466 1.8536-1.627 3.0248-.796-.6722-1.39-1.5522-1.716-2.5419-.101-.4047-.101-.8281 0-1.2328-.114.1398-.224.2838-.33.4321v-.1334c-1.228 1.5095-2.097 3.2782-2.542 5.1726-.171-.2051-.3-.4422-.378-.6975-.079-.2553-.106-.5236-.08-.7894-.095.2986-.184.5973-.266.896-.029-.1981-.029-.3993 0-.5974-.749 2.291-1.086 4.6961-.998 7.1045 0 2.402 1.067 6.1449 3.641 6.9901.134.0444.267.0762.407.108-1.448 2.2484-2.314 4.8208-2.523 7.4866-.208 2.6658.248 5.3417 1.328 7.7878 1.08 2.4461 2.75 4.5859 4.861 6.2277 2.11 1.6418 4.595 2.7342 7.232 3.1792.042.2923.083.5995.121.9216h.101c.07.635.127 1.334.166 2.046-.65.636-1.361 1.207-2.123 1.703-2.16 1.277-4.57 2.075-7.066 2.339-2.981.233-5.877 1.1-8.496 2.541-3.082 1.723-6.482 4.233-7.55 7.283-1.779 5.083-11.578 12.995-18.148 13.98l-2.339-.133-.171-.051v.044l-.572-.032h-.185v.032l-.591-.032s-.057.274-.139.757c-3.305-1.138-10.327-4.29-19.465-12.583-10.167-9.233-23.925-7.415-29.231-6.252-.18.039-.344.133-.47.269-.126.135-.207.306-.234.489-.026.183.004.37.087.535.083.165.214.302.376.39 2.141 1.176 5.458 2.885 6.99 3.076 0 0-3.178 3.324.203 5.084.406.196.857.277 1.306.233.448-.044.876-.21 1.236-.481 1.639-1.201 6.196 1.519 12.798 2.936 0 0 18.632 19.28 27.884 22.241.213.421.449.83.706 1.226l.571-.044v.044h.242l.07.636s14.387-.756 19.064-5.98c.331-.296.635-.622.908-.972l-5.001 62.911h.045l-.045.597h3.68c.314 7.737-.019 15.487-.998 23.169v41.013s-.191 3.609 7.308 8.896c7.862 5.474 15.438 11.347 22.698 17.596l.909.788c-1.379 12.55-4.264 35.942-6.672 36.812l1.487.261c-2.542 3.222-9.761 12.074-11.96 12.309-2.694.298-4.492 4.492 0 5.388 8.971 1.553 18.195.644 26.69-2.63.847-.335 1.558-.943 2.019-1.729.46-.785.644-1.703.523-2.605l-.871-6.609c.165.092.298.231.381.4.598 1.799 0-2.395 0-2.395 2.462-7.913 4.396-15.98 5.789-24.148l8.897 7.689s.178-.222.489-.635c2.18 4.944 6.069 15.06 5.198 22.47-1.194 10.167 10.168 1.194 8.979-4.792-.966-4.842 3.356-25.367 5.04-33.044.181-.829.047-1.695-.376-2.431-.423-.735-1.105-1.287-1.912-1.547z" fill="url(#paint1_linear)"/>
    <path d="M386.722 133.027s-8.477-1.462-21.047-12.862c-9.945-9.017-23.359-7.244-28.532-6.106-.176.038-.337.129-.46.261s-.202.298-.228.476c-.025.179.004.361.085.522.081.161.209.294.368.38 2.091 1.144 5.331 2.815 6.85 3.006 0 0-3.133 3.241.197 4.975.399.196.844.277 1.286.235.442-.043.864-.208 1.218-.476 1.601-1.169 6.049 1.487 12.499 2.866 0 0 25.139 26.016 30.986 21.606l-3.222-14.883zM430.003 97.6554s2.338 9.9386 0 16.9536l10.523 1.462 9.354-4.677v-6.139s-4.384-9.3535-3.215-20.1691l-16.662 12.5695z" fill="#FDB797"/>
    <path d="M459.801 313.078s7.625 14.908 6.431 24.846c-1.195 9.939 9.938 1.17 8.769-4.677-.947-4.728 3.273-24.783 4.918-32.243.179-.806.051-1.65-.357-2.367-.409-.718-1.07-1.258-1.854-1.516-3.514-1.156-9.398-2.573-12.353-.406-4.366 3.209-5.554 16.363-5.554 16.363zM430.881 329.447s-9.939 12.862-12.57 13.154c-2.63.293-4.384 4.385 0 5.262 8.755 1.524 17.759.645 26.054-2.542.83-.324 1.528-.917 1.981-1.684.452-.768.634-1.665.517-2.548l-1.678-12.519-14.304.877z" fill="#F6FAFB"/>
    <path d="M414.511 192.943l-9.532 1.271c1.308 11.134 1.27 22.384-.114 33.508v40.034s-.185 3.527 7.136 8.655c7.676 5.337 15.074 11.064 22.165 17.158l26.524 22.978s10.523-12.862 9.062-20.462c0 0-17.539-5.554-19.878-14.615-1.34-5.186-8.14-9.532-13.706-12.265-3.5-1.699-6.313-4.545-7.971-8.063-1.659-3.519-2.064-7.5-1.148-11.28.325-1.314.827-2.578 1.493-3.756 4.677-8.185 11.4-26.6 11.4-26.6L427.08 194.99l-12.569-2.047z" fill="#4D4981"/>
    <path opacity=".05" d="M414.511 192.943l-9.532 1.271c1.308 11.134 1.27 22.384-.114 33.508v40.034s-.185 3.527 7.136 8.655c7.676 5.337 15.074 11.064 22.165 17.158l26.524 22.978s10.523-12.862 9.062-20.462c0 0-17.539-5.554-19.878-14.615-1.34-5.186-8.14-9.532-13.706-12.265-3.5-1.699-6.313-4.545-7.971-8.063-1.659-3.519-2.064-7.5-1.148-11.28.325-1.314.827-2.578 1.493-3.756 4.677-8.185 11.4-26.6 11.4-26.6L427.08 194.99l-12.569-2.047z" fill="#000"/>
    <path d="M428.541 330.342s17.247 2.923 17.832 4.677c.584 1.754 0-2.339 0-2.339s9.938-30.108 7.625-56.702c-2.313-26.594 2.923-44.139 2.923-44.139s6.139-19.877 2.631-31.277c-3.508-11.401-40.339-6.431-40.339-6.431s12.862 30.108 12.569 44.431c0 0 1.462 43.262 4.093 48.232-.026-.026-4.118 42.36-7.334 43.548z" fill="#4D4981"/>
    <path d="M430.567 105.258s1.754 10.803 19.293 6.138l-11.667 88.857s-33.908 1.169-33.616-2.923l6.99-53.779 19-38.293z" fill="#fff"/>
    <path opacity=".1" d="M431.026 104.672c-2.284 2.248-5.259 3.661-8.445 4.01-2.91.223-5.739 1.063-8.299 2.465-3.006 1.684-6.355 4.131-7.372 7.111-2.046 5.846-14.908 15.493-20.754 13.446l2.046 17.539s16.662-.877 19.585-7.308l-4.963 62.587h4.385s2.339-16.954 4.092-20.462c1.754-3.508 5.262-22.8 5.554-27.477.293-4.677 4.677-31.57 8.477-36.222l5.72-13.884-.026-1.805z" fill="#000"/>
    <path opacity=".1" d="M431.025 105.551c-2.612 2.043-5.736 3.329-9.03 3.717-2.908.228-5.735 1.073-8.292 2.479-3.006 1.684-6.355 4.13-7.372 7.11-2.046 5.847-14.908 15.493-20.754 13.447l2.046 17.538s16.662-.876 19.585-7.307l-4.969 62.548h4.385s2.338-16.954 4.092-20.462c1.754-3.507 5.262-22.8 5.554-27.477.292-4.677 4.677-31.57 8.477-36.221l6.278-13.625v-1.747z" fill="#000"/>
    <path d="M431.026 104.965c-2.612 2.043-5.736 3.329-9.03 3.717-2.91.223-5.739 1.064-8.299 2.466-3.006 1.684-6.355 4.13-7.372 7.111-2.046 5.846-14.907 15.492-20.754 13.446l2.046 17.539s16.662-.877 19.585-7.308l-4.963 62.587h4.385s2.339-16.955 4.093-20.462c1.753-3.508 5.261-22.801 5.553-27.478.293-4.677 4.677-31.569 8.478-36.221l6.284-13.592-.006-1.805z" fill="#F55F44"/>
    <path opacity=".1" d="M445.934 93.7111c-.381-2.7706.381-4.499.731-7.7463l-16.662 12.5695s.4 1.6967.705 4.1817c.841.135 1.691.203 2.542.203 5.783 0 9.945-4.5182 12.684-9.2079z" fill="#000"/>
    <path d="M433.218 102.048c8.718 0 15.785-7.0669 15.785-15.7846 0-8.7178-7.067-15.7849-15.785-15.7849-8.717 0-15.784 7.0671-15.784 15.7849 0 8.7177 7.067 15.7846 15.784 15.7846z" fill="#FDB797"/>
    <path opacity=".1" d="M415.991 70.7903c-.101-2.662.331-5.3173 1.271-7.8098-.261.3921-.372.8656-.311 1.3328.061.4672.289.8967.641 1.209.509-2.7165 1.904-5.188 3.966-7.0282-1.125.1843-1.703 1.576-1.424 2.6817.38 1.08 1.056 2.0313 1.951 2.7452-.095-1.6713 1.01-3.2345 2.408-4.1496 1.457-.8367 3.048-1.413 4.703-1.703-.567.2013-1.052.5849-1.379 1.0906-.326.5058-.476 1.1055-.426 1.7054.005.2038.089.3976.235.5401.159.1016.346.1505.534.1398 1.647.0635 3.295.0274 4.938-.108 2.019-.2272 4.049-.3354 6.081-.3241 6.355.2669 12.741 4.6071 14.164 10.8029.295 1.5033.451 3.0307.464 4.5626l.312 7.8225c.181 2.2822.087 4.5778-.28 6.8376-.44 2.0862-1.335 4.0495-2.621 5.7499-1.287 1.7004-2.932 3.0959-4.82 4.0873-2.294-3.3237-2.498-7.594-3.292-11.553-.125-.9136-.465-1.7846-.991-2.5418-.272-.3744-.653-.6551-1.092-.8031-.438-.148-.912-.156-1.355-.023-.858.3431-1.226 1.6522-.514 2.2368-.636.7499-1.824.1907-2.542-.4766-2.006-1.9023-3.386-4.3686-3.959-7.0727-.286-1.3598-.572-3.0375-1.907-3.5014-.459-.1261-.938-.1585-1.41-.0953-2.784.1907-7.137 1.3408-9.831.4576-2.472-.8071-3.514-4.4673-3.514-6.8122z" fill="#000"/>
    <path d="M416.283 70.4973c-.101-2.6619.331-5.3173 1.271-7.8098-.261.3922-.372.8656-.311 1.3328.061.4672.289.8967.641 1.2091.509-2.7166 1.904-5.188 3.966-7.0283-1.125.1843-1.703 1.576-1.424 2.6817.38 1.08 1.056 2.0313 1.951 2.7452-.095-1.6713 1.01-3.2345 2.408-4.1496 1.457-.8367 3.048-1.413 4.703-1.703-.567.2014-1.052.5849-1.379 1.0907-.326.5058-.476 1.1054-.426 1.7053.005.2038.089.3977.235.5402.159.1016.346.1505.534.1398 1.647.0634 3.295.0273 4.938-.1081 2.019-.2272 4.049-.3354 6.081-.3241 6.355.2669 12.741 4.6071 14.164 10.8029.295 1.5033.451 3.0307.464 4.5626l.312 7.8225c.181 2.2822.087 4.5778-.28 6.8376-.44 2.0862-1.335 4.0495-2.621 5.7499-1.287 1.7004-2.932 3.0959-4.82 4.0873-2.294-3.3237-2.498-7.594-3.292-11.5529-.125-.9136-.465-1.7846-.991-2.5419-.272-.3744-.653-.6551-1.092-.8031-.438-.148-.912-.156-1.355-.023-.858.3432-1.226 1.6522-.514 2.2368-.636.7499-1.824.1907-2.542-.4765-2.006-1.9024-3.386-4.3687-3.959-7.0727-.286-1.3599-.572-3.0375-1.907-3.5014-.459-.1262-.938-.1586-1.41-.0954-2.784.1907-7.137 1.3409-9.831.4576-2.472-.8134-3.514-4.4673-3.514-6.8122z" fill="#784F69"/>
    <path opacity=".1" d="M384.816 131.709s-2.338 10.803 2.046 17.539l2.485-.204-1.353-17.157-3.178-.178z" fill="#000"/>
    <path d="M385.451 131.709s-2.338 10.803 2.046 17.539l2.485-.204-1.354-17.157-3.177-.178z" fill="#BE4B37"/>
    <path opacity=".1" d="M448.273 102.211l18.854 16.223s11.108 11.4 6.431 29.816c0 0-2.046 26.893-4.384 28.062 0 0-8.185 16.37-8.77 31.862 0 0-10.962-22.069-15.931-8.623-4.969 13.446-16.522 15.346-16.522 15.346l6.431-79.534s16.23-28.208 13.891-33.152z" fill="#000"/>
    <path d="M448.856 102.211l18.854 16.223s11.108 11.4 6.431 29.816c0 0-2.046 26.893-4.384 28.062 0 0-8.185 16.37-8.77 31.862 0 0-11.546-23.239-16.522-9.792-4.975 13.446-15.931 16.522-15.931 16.522l6.431-79.503s16.23-28.246 13.891-33.19z" fill="#F55F44"/>
    <path d="M457.48 170.736s4.677-3.216 12.277 5.554l-18.708 33.908-6.284-9.488s13.3-26.174 12.715-29.974z" fill="#FDB797"/>
    <path opacity=".1" d="M452.95 172.633s10.346 11.617 14.381 9.755l3.736-8.7-14.024-6.024-4.093 4.969z" fill="#000"/>
    <path d="M452.95 172.049s10.346 11.617 14.381 9.755l3.736-8.7-14.024-6.024-4.093 4.969z" fill="#BE4B37"/>
    <path opacity=".1" d="M445.4 198.492s4.925 10.091 7.55 10.676l-3.813 4.385-5.554-10.524 1.817-4.537z" fill="#000"/>
    <path d="M445.108 198.803s4.925 10.091 7.55 10.675l-3.813 4.385-5.567-10.542 1.83-4.518z" fill="#4D4981"/>
    <path opacity=".1" d="M454.411 136.387s.585 21.046-1.754 28.939zM407.056 140.479s3.507-1.169 3.507-4.092z" fill="#000"/>
  </g>
  <defs>
    <linearGradient id="paint0_linear" x1="237.891" y1="289.98" x2="237.891" y2="89.4262" gradientUnits="userSpaceOnUse">
      <stop stop-color="gray" stop-opacity=".25"/>
      <stop offset=".54" stop-color="gray" stop-opacity=".12"/>
      <stop offset="1" stop-color="gray" stop-opacity=".1"/>
    </linearGradient>
    <linearGradient id="paint1_linear" x1="129549" y1="191791" x2="129549" y2="52196" gradientUnits="userSpaceOnUse">
      <stop stop-color="gray" stop-opacity=".25"/>
      <stop offset=".54" stop-color="gray" stop-opacity=".12"/>
      <stop offset="1" stop-color="gray" stop-opacity=".1"/>
    </linearGradient>
  </defs>
</svg>
