<svg viewBox="0 0 418 304" fill="none" xmlns="http://www.w3.org/2000/svg">
<path d="M371.856 84.8258C398.707 133.718 400.292 196.232 374.232 235.557C348.172 274.881 294.389 291.017 241.478 290.53C188.566 290.044 136.446 273.016 108.961 232.881C81.5546 192.746 78.7823 129.502 104.842 81.0961C130.902 32.7714 185.794 -0.796442 239.339 0.0143746C292.805 0.825191 344.925 36.0146 371.856 84.8258Z" fill="#F2F9FD"/>
<path d="M1.52278 281.809C2.05597 279.857 2.58919 277.878 3.65558 276.18C4.64478 274.738 5.82126 273.438 7.15335 272.314C11.019 268.761 15.7697 265.154 20.8937 266.054C22.4829 266.405 24.018 266.971 25.4579 267.736C26.2044 268.087 26.9562 268.437 27.724 268.734C29.8872 269.647 32.2778 269.859 34.5649 269.338C35.7379 269.019 36.8309 268.448 37.988 268.092C38.5393 267.926 39.1026 267.803 39.6729 267.725C38.5558 267.214 37.4698 266.636 36.4204 265.995C30.6672 262.398 26.0764 255.928 26.7216 249.081C26.9348 246.762 27.724 244.546 28.5024 242.363C29.1849 240.454 29.8692 238.544 30.5552 236.631C31.4403 234.146 32.3521 231.617 33.973 229.552C35.7752 227.255 38.3346 225.697 40.9792 224.532C46.6631 222.036 52.8748 221.157 59.0065 220.305L59.4331 220.246V153.258C59.4296 152.69 59.5373 152.126 59.7501 151.6C59.9629 151.073 60.2765 150.594 60.673 150.191C61.0694 149.788 61.5408 149.467 62.0601 149.249C62.5794 149.031 63.1362 148.918 63.6986 148.918H71.7659C72.1214 146.718 72.4768 144.52 72.8323 142.324C73.8507 136.064 74.901 129.68 77.7536 124.041C79.6198 120.347 82.5951 116.832 86.5994 116.104C87.3876 116.029 88.1624 115.848 88.9027 115.565C90.0758 114.982 90.7156 113.688 91.6221 112.729C93.9468 110.265 97.7271 110.227 100.846 108.954C103.598 107.849 105.848 105.762 108.354 104.161C110.86 102.56 113.979 101.417 116.757 102.463C116.757 102.668 116.794 102.867 116.815 103.072L118.596 102.263C120.516 101.368 122.478 100.441 124.019 98.9635C126.002 97.0709 127.058 94.5746 127.879 91.911C127.965 91.6307 128.045 91.3719 128.125 91.0753C124.717 87.5544 122.41 83.0971 121.492 78.2591C121.348 78.7282 121.198 79.2027 121.054 79.6771C120.923 80.1595 120.745 80.6273 120.521 81.0736C120.447 81.2211 120.363 81.3634 120.271 81.4996C120.095 81.7642 119.875 81.9959 119.62 82.1843C119.368 82.3702 119.072 82.4872 118.762 82.524C118.613 82.5452 118.462 82.5452 118.314 82.524C117.911 82.438 117.536 82.2512 117.223 81.9809C116.91 81.7106 116.669 81.3653 116.522 80.9766C116.437 80.7646 116.375 80.5441 116.336 80.3188C116.315 80.1831 116.303 80.0462 116.298 79.909C116.298 79.8659 116.298 79.8227 116.298 79.7796C116.298 79.7365 116.298 79.5909 116.298 79.4992C116.298 79.4076 116.298 79.3968 116.298 79.3483C116.298 79.2997 116.298 79.1649 116.298 79.0787V78.9385C116.298 78.8306 116.33 78.7228 116.352 78.6204C116.373 78.5179 116.352 78.5611 116.352 78.5341C116.378 78.3939 116.41 78.2591 116.437 78.1189C116.439 78.0884 116.439 78.0578 116.437 78.0273L116.517 77.6876L116.565 77.4827V77.4288C116.618 77.2185 116.666 77.0028 116.714 76.7872C117.102 74.9141 117.201 87.9488 117.007 86.0452C116.686 83.2527 116.177 80.4857 115.482 77.7634L115.371 77.2728L115.243 76.7013C115.157 76.3131 115.077 75.9249 114.997 75.5366C114.928 75.2078 114.864 74.8735 114.805 74.5392C114.747 74.2049 114.704 73.9515 114.661 73.6549C114.661 73.6172 114.661 73.5848 114.661 73.5471C114.336 71.5375 114.248 69.4958 114.4 67.4652C114.651 64.6453 115.514 61.9764 117.413 59.8466C118.751 58.3423 120.511 57.2316 121.753 55.6518C122.921 54.1691 123.576 52.3467 124.781 50.8963C128.114 46.8741 136.661 43.7738 141.908 43.2346C147.917 42.62 157.626 44.1728 162.468 47.7637C164.259 49.0901 159.978 42.1209 166.733 52.8158C173.489 63.5107 171.79 76.0195 167.709 84.2548C163.627 92.49 162.214 92.548 157.973 95.103C157.824 95.5451 157.68 95.9926 157.546 96.4455C156.848 98.888 156.512 101.449 157.722 103.584C158.586 105.099 160.042 106.037 161.663 106.684C161.896 106.368 162.196 106.108 162.542 105.924C163.95 105.212 165.635 106.081 166.808 107.143C168.941 109.095 170.679 111.893 173.489 112.534C174.502 112.772 175.622 112.723 176.469 113.349C177.028 113.88 177.494 114.501 177.85 115.187C178.46 116.071 179.279 116.787 180.233 117.267C181.187 117.748 182.245 117.978 183.31 117.937C184.286 117.889 185.443 117.662 186.11 118.385C186.605 118.924 186.643 119.781 187.176 120.293C187.896 121.005 189.063 120.654 190.066 120.611C190.79 120.613 191.506 120.764 192.171 121.055C192.836 121.347 193.435 121.771 193.931 122.304C193.994 120.129 194.818 118.047 196.256 116.427C197.696 114.928 199.695 114.157 201.402 112.982C205.667 110.049 207.8 104.894 210.023 100.171C212.247 95.448 215.179 90.4661 220.031 88.7461C221.146 88.3471 222.697 88.3147 223.199 89.4093C223.369 89.8661 223.397 90.3647 223.278 90.8381C222.809 93.3506 221.039 95.3671 219.509 97.3891C216.933 100.797 214.774 104.964 215.398 109.224C216.128 114.265 220.57 118.18 221.103 123.243C221.338 125.475 220.778 127.718 220.783 129.961C220.783 131.363 221.002 132.781 220.703 134.145C220.386 135.181 220.01 136.198 219.578 137.191C219.098 138.82 218.85 140.511 218.842 142.211C218.466 149.357 218.091 156.504 217.717 163.654C217.435 168.986 218.586 174.249 219.749 179.495C221.19 182.605 222.308 185.857 223.087 189.2C224.398 195.039 224.436 201.261 222.553 206.944C221.546 210.034 219.999 212.929 219.173 216.072C219.173 216.143 219.141 216.207 219.125 216.272C219.045 216.941 218.954 217.609 218.832 218.272C218.68 219.039 218.482 219.795 218.24 220.537C217.998 221.815 217.604 223.059 217.067 224.241C216.319 225.743 215.221 227.038 213.868 228.015C214.635 229.536 215.878 230.76 216.704 232.248C218.144 234.825 218.202 237.99 217.68 240.912C216.672 246.552 213.66 251.593 209.682 255.691C209.86 255.681 210.038 255.681 210.215 255.691C211.516 255.837 212.766 256.289 213.862 257.012C222.281 261.989 227.096 272.648 225.337 282.407C224.99 284.316 224.388 286.246 223.129 287.697C222.082 288.851 220.735 289.686 219.242 290.107C218.31 290.39 217.35 290.571 216.379 290.646C209.815 291.185 203.46 288.106 196.88 287.848C194.699 287.813 192.517 287.915 190.348 288.155C187.181 288.421 184.007 288.59 180.826 288.662C175.659 288.786 172.748 287.395 169.447 283.486C168.636 282.515 167.96 281.438 167.437 280.283C164.632 280.121 161.535 279.873 159.29 279.684L159.258 280.002C159.135 281.081 158.949 282.321 158.095 283.006C157.614 283.336 157.069 283.56 156.496 283.663C151.105 285.006 145.651 286.359 140.105 286.359C137.501 286.305 134.902 286.101 132.321 285.75L122.563 284.612C119.724 284.982 116.921 285.599 114.187 286.456C111.372 287.427 108.738 288.867 105.986 289.999C99.588 292.625 92.6991 293.563 85.8795 294.479C84.7172 294.636 83.3842 294.744 82.5204 293.94C81.4114 292.862 81.7846 291.056 82.0939 289.546C82.2218 288.931 82.3178 288.306 82.3978 287.68C77.7947 288.904 73.2918 290.485 68.9293 292.409L68.1615 292.749C67.9429 293.924 66.8658 294.868 65.8367 296.135C65.4989 296.668 65.1037 297.161 64.6584 297.607C64.151 297.945 63.5719 298.157 62.9682 298.227C55.7623 299.583 48.4046 299.919 41.1072 299.224C39.6143 299.019 38.1049 298.966 36.6017 299.068C35.498 299.219 34.4097 299.468 33.3492 299.812L27.1748 301.596C22.6266 302.917 17.9612 304.249 13.2424 303.953C12.2841 303.889 11.3322 303.75 10.3952 303.537C6.66278 302.664 3.18102 300.55 1.38948 297.154C-1.01523 292.533 0.152466 286.855 1.52278 281.809ZM182.628 197.476C182.818 199.814 183.421 202.099 184.409 204.221C185.07 205.575 185.923 206.82 186.541 208.179C187.128 209.408 187.565 211.732 187.826 214.282C188.146 214.228 188.472 214.18 188.791 214.142C188.317 212.46 187.96 210.735 187.485 209.047C186.36 205.036 184.51 201.245 182.628 197.476Z" fill="url(#paint0_linear)"/>
<path d="M174.41 280.402C175.535 277.814 176.602 274.837 175.477 272.249C174.742 270.725 173.481 269.526 171.931 268.88C170.397 268.247 168.781 267.844 167.132 267.683C161.958 266.996 156.722 266.924 151.531 267.467C151.152 270.497 151.952 273.57 152.64 276.498C153.264 279.194 153.621 279.593 156.372 279.733C158.153 279.83 173.989 281.356 174.41 280.402Z" fill="#FDB797"/>
<path d="M126.929 262.945C84.819 262.945 50.6821 253.289 50.6821 241.378C50.6821 229.466 84.819 219.811 126.929 219.811C169.039 219.811 203.176 229.466 203.176 241.378C203.176 253.289 169.039 262.945 126.929 262.945Z" fill="#3D414D"/>
<path d="M113.259 127.523C115.872 132.63 120.213 136.618 125.49 138.76C128.597 139.905 131.867 140.535 135.173 140.625C138.793 140.792 142.488 140.555 145.89 139.304C150.454 137.633 154.245 134.214 157.087 130.23C159.929 126.245 161.886 121.695 163.587 117.106C164.483 114.718 165.336 112.173 164.915 109.65C162.169 109.019 159.161 108.091 157.743 105.627C156.533 103.514 156.869 100.98 157.567 98.5642C157.764 97.8794 157.994 97.2 158.223 96.5476C158.756 94.984 160.596 92.0132 159.316 90.676C158.5 89.8295 155.082 89.3982 153.904 88.8482C150.273 87.1552 146.925 84.7073 142.936 83.904C139.487 83.2084 135.925 83.8608 132.48 84.5833C132.023 84.6505 131.585 84.81 131.19 85.0524C130.74 85.4358 130.407 85.9407 130.23 86.5082C129.249 88.9237 128.673 91.5926 127.884 94.1106C127.063 96.7471 126.007 99.2219 124.029 101.093C122.488 102.554 120.526 103.471 118.607 104.36L113.883 106.549C113.042 106.868 112.28 107.366 111.648 108.011C111.031 108.869 110.661 109.885 110.582 110.944C109.736 116.617 110.672 122.416 113.259 127.523Z" fill="#FDB797"/>
<path opacity="0.1" d="M127.905 94.1106C131.666 98.0662 136.617 100.649 141.985 101.455C147.352 102.261 152.832 101.244 157.567 98.5642C157.764 97.8794 157.993 97.2 158.223 96.5476C158.756 94.984 160.595 92.0132 159.316 90.676C158.5 89.8295 155.082 89.3982 153.904 88.8482C150.273 87.1552 146.924 84.7073 142.936 83.904C139.486 83.2084 135.924 83.8608 132.48 84.5833C132.023 84.6505 131.584 84.81 131.19 85.0524C130.74 85.4358 130.407 85.9407 130.23 86.5082C129.27 88.9237 128.694 91.5926 127.905 94.1106Z" fill="black"/>
<path d="M145.59 100.653C132.044 100.653 121.063 89.5487 121.063 75.8509C121.063 62.1531 132.044 51.0488 145.59 51.0488C159.136 51.0488 170.117 62.1531 170.117 75.8509C170.117 89.5487 159.136 100.653 145.59 100.653Z" fill="#FDB797"/>
<path d="M70.8635 156.342L72.8789 143.995C73.8973 137.8 74.9477 131.486 77.795 125.905C79.6665 122.25 82.6364 118.767 86.6407 118.044C87.4295 117.973 88.2047 117.792 88.9441 117.505C90.1171 116.933 90.757 115.65 91.6581 114.701C93.9828 112.264 97.7685 112.226 100.882 110.986C103.634 109.908 105.884 107.832 108.39 106.247C110.896 104.662 114.015 103.551 116.788 104.565C117.235 109.39 117.71 114.324 119.736 118.718C121.055 121.579 122.989 124.105 125.398 126.113C127.806 128.12 130.628 129.558 133.657 130.321C136.686 131.084 139.845 131.152 142.903 130.522C145.961 129.891 148.842 128.577 151.333 126.676C156.084 123.059 159.129 117.478 160.547 111.639C160.893 110.215 161.288 108.582 162.584 107.929C163.986 107.218 165.671 108.08 166.849 109.126C169.009 111.062 170.726 113.833 173.53 114.486C174.543 114.723 175.663 114.674 176.505 115.294C177.065 115.817 177.534 116.431 177.892 117.111C178.505 117.988 179.325 118.697 180.278 119.173C181.23 119.65 182.285 119.879 183.346 119.84C184.322 119.791 185.479 119.565 186.145 120.282C186.641 120.821 186.679 121.662 187.212 122.163C187.932 122.87 189.099 122.525 190.102 122.487C192 122.406 193.765 123.635 194.853 125.183C195.94 126.73 196.452 128.644 196.985 130.499C191.158 143.623 185.826 156.762 179.998 169.886C179.725 170.381 179.58 170.937 179.577 171.503C179.693 172.091 179.941 172.645 180.302 173.121C183.16 177.763 183.069 183.603 182.754 189.059C182.44 194.515 182.056 200.279 184.466 205.17C185.122 206.512 185.975 207.741 186.599 209.084C188.06 212.125 188.588 221.852 187.734 225.119H67.2324C69.5305 218.73 68.656 205.908 68.1761 199.125C67.8402 194.381 68.7094 189.641 69.0826 184.897C69.8664 175.208 69.2799 166.015 70.8635 156.342Z" fill="#F86D70"/>
<path d="M64.6952 221.346C62.9197 220.661 60.9629 220.909 59.0593 221.168C52.9329 222.014 46.7159 222.882 41.0374 225.357C38.3714 226.511 35.8334 228.053 34.0312 230.323C32.4316 232.366 31.4985 234.868 30.6134 237.332L28.5659 242.988C27.7875 245.145 26.9984 247.345 26.7798 249.636C26.1399 256.424 30.7307 262.824 36.5052 266.351C42.2797 269.877 49.0779 271.133 55.7002 272.449C62.3225 273.764 68.9715 275.22 75.5671 276.762C78.6434 277.569 81.7645 278.191 84.914 278.622C91.9734 279.431 99.3529 278.239 106.06 280.601C108.726 281.545 111.344 282.946 114.112 283.599C115.947 284.006 117.804 284.308 119.673 284.505L132.368 285.971C134.95 286.32 137.549 286.522 140.153 286.575C145.698 286.575 151.153 285.249 156.538 283.922C157.111 283.821 157.656 283.598 158.138 283.27C158.991 282.591 159.177 281.388 159.3 280.299C159.844 275.479 160.32 270.653 160.729 265.822C160.857 264.253 160.953 262.555 160.105 261.234C159.039 259.616 156.959 259.109 155.061 258.797C147.012 257.465 138.858 256.893 130.705 257.088C127.607 253.955 122.499 253.939 118.441 252.235C116.949 251.542 115.504 250.747 114.117 249.857C106.862 245.577 98.7546 242.985 90.3845 242.271C88.7447 242.22 87.1155 241.985 85.5271 241.57C82.3866 240.583 79.5234 237.898 76.2975 238.556C75.8976 237.44 75.6204 235.947 74.698 235.181C74.2394 234.787 73.6742 234.523 73.253 234.103C72.3626 233.191 72.2826 231.757 72.4159 230.485C72.5492 229.212 72.8478 227.907 72.5225 226.667C72.3872 226.198 72.188 225.75 71.9307 225.336C70.3258 222.499 67.9104 221.076 64.6952 221.346Z" fill="#595A68"/>
<path d="M169.505 283.733C172.805 287.599 175.711 288.98 180.878 288.856C184.056 288.78 187.23 288.613 190.401 288.354C192.568 288.117 194.747 288.015 196.927 288.047C203.506 288.306 209.857 291.352 216.42 290.818C217.391 290.741 218.351 290.56 219.284 290.279C220.764 289.862 222.102 289.039 223.149 287.901C224.408 286.462 225.01 284.553 225.357 282.666C227.111 272.993 222.302 262.458 213.882 257.535C212.784 256.817 211.535 256.369 210.235 256.225C208.961 256.219 207.701 256.499 206.546 257.044L206.466 257.077C203.045 258.5 199.939 260.596 197.327 263.245C196.93 263.704 196.458 264.089 195.93 264.382C195.403 264.584 194.845 264.689 194.282 264.695L187.276 265.143C186.089 265.178 184.909 265.343 183.757 265.633C182.487 266.082 181.25 266.622 180.057 267.251C176.287 268.955 172.107 269.408 168.033 270.065C167.64 270.087 167.266 270.239 166.967 270.497C166.804 270.701 166.691 270.941 166.636 271.198C166.067 273.365 166.031 275.641 166.531 277.826C167.031 280.011 168.052 282.039 169.505 283.733Z" fill="#ECF6F9"/>
<path opacity="0.1" d="M206.487 257.077C209.205 259.701 211.563 262.683 213.499 265.941C216.604 271.318 218.555 277.296 219.225 283.485C219.479 285.743 219.499 288.022 219.284 290.284C220.765 289.866 222.103 289.041 223.149 287.901C224.408 286.462 225.01 284.553 225.357 282.666C227.111 272.993 222.302 262.458 213.882 257.535C212.784 256.817 211.535 256.369 210.235 256.225C208.961 256.219 207.701 256.499 206.546 257.044L206.487 257.077Z" fill="black"/>
<path d="M70.794 270.485C66.875 270.377 62.4762 270.177 59.5969 272.846C56.851 275.37 56.4884 279.532 56.3071 283.279L56.0992 287.63C56.0352 288.957 55.9818 290.326 56.5097 291.556C57.4481 293.712 60.0234 294.753 62.3748 294.629C64.7262 294.505 66.8857 293.464 69.0345 292.526C74.8681 289.985 80.9422 288.05 87.1631 286.752C86.9605 283.743 86.6228 280.749 86.15 277.769C85.8248 275.704 85.7714 272.248 84.4064 270.533C82.9615 268.722 81.0793 269.703 79.1172 270.037C76.364 270.462 73.5762 270.612 70.794 270.485Z" fill="#FDB797"/>
<path d="M174.351 226.769C174.351 227.308 175.189 226.769 175.263 226.192C175.85 221.83 179.273 218.234 183.261 216.487C187.249 214.74 191.792 214.648 196.111 215.063C202.643 215.689 209.948 218.217 212.363 224.391C212.928 225.836 213.184 227.4 213.877 228.785C214.645 230.306 215.898 231.519 216.73 232.996C218.164 235.552 218.223 238.685 217.706 241.575C216.314 249.285 211.099 255.879 204.781 260.446C198.463 265.013 191.078 267.741 183.714 270.199C164.244 276.693 144.267 281.518 123.997 284.622C120.712 285.124 117.396 285.587 114.25 286.655C111.435 287.609 108.801 289.038 106.049 290.16C99.6509 292.758 92.7674 293.686 85.9478 294.597C84.7854 294.748 83.4525 294.856 82.594 294.058C81.485 293.017 81.8529 291.206 82.1675 289.712C83.3254 284.038 82.3582 278.132 79.4535 273.138C78.3125 271.197 76.8302 269.207 77.0434 266.959C77.2994 264.339 79.8801 262.484 82.4501 262.063C85.0201 261.643 87.6327 262.263 90.2134 262.602C91.1038 262.721 92.0742 262.796 92.8793 262.338C93.2629 262.076 93.6107 261.764 93.9137 261.411C95.6916 259.677 97.9669 258.556 100.413 258.21C102.86 257.865 105.352 258.311 107.532 259.486C108.486 260.025 109.931 258.823 110.923 258.37L122.125 253.232C135.007 247.338 147.953 241.418 161.582 237.687C162.669 237.471 163.702 237.036 164.621 236.409C165.298 235.87 165.783 235.137 166.407 234.538C167.767 233.239 169.659 232.721 171.291 231.799C172.923 230.877 174.735 228.618 174.351 226.769Z" fill="#535461"/>
<path d="M1.49432 297.235C3.28586 300.594 6.76226 302.686 10.4946 303.548C11.4313 303.762 12.3835 303.899 13.3419 303.958C18.0607 304.255 22.7208 302.934 27.2689 301.629L33.4433 299.86C34.5048 299.522 35.5929 299.277 36.6958 299.127C38.1973 299.026 39.705 299.078 41.196 299.283C48.4934 299.97 55.8497 299.636 63.057 298.291C63.6599 298.225 64.239 298.017 64.7472 297.682C65.1924 297.241 65.5876 296.751 65.9256 296.221C67.6051 294.177 69.4126 292.986 67.4238 290.29C66.2775 288.726 64.15 287.945 63.2596 286.149C62.3691 284.354 62.9397 281.803 63.4675 279.949C64.1874 277.387 66.5547 276.282 67.4025 273.931C68.037 272.157 66.9706 270.098 65.3657 269.133C63.7608 268.168 61.7773 268.092 59.9271 268.34C58.0769 268.588 56.2641 269.116 54.4032 269.262C48.9326 269.704 43.3394 266.852 38.0875 268.459C36.9304 268.815 35.8374 269.381 34.6643 269.693C32.3775 270.211 29.9885 270.002 27.8234 269.095C27.0556 268.804 26.3038 268.453 25.5574 268.108C24.1178 267.35 22.5847 266.79 20.9986 266.442C15.8746 265.553 11.1238 269.138 7.25813 272.637C5.93114 273.751 4.75669 275.038 3.76571 276.465C2.69932 278.148 2.13416 280.105 1.63296 282.035C0.219994 287.033 -0.947708 292.652 1.49432 297.235Z" fill="#ECF6F9"/>
<path opacity="0.1" d="M1.49538 297.235C3.28691 300.594 6.76331 302.686 10.4957 303.548C9.04382 300.696 8.38936 297.497 8.60284 294.296C8.92276 289.169 11.1515 284.337 13.9934 280.078C15.7418 277.456 17.7305 275.006 19.9332 272.761C21.6288 271.036 23.7136 269.667 25.5371 268.087C24.0975 267.329 22.5644 266.769 20.9783 266.421C15.8543 265.531 11.1035 269.117 7.23786 272.616C5.91088 273.73 4.73643 275.017 3.74544 276.444C2.67905 278.126 2.11387 280.083 1.61267 282.014C0.221027 287.033 -0.946653 292.652 1.49538 297.235Z" fill="black"/>
<path d="M122.056 73.0083C122.056 73.0083 119.387 68.9931 120.414 64.669C121.027 62.214 121.269 59.6805 121.132 57.1533C122.28 53.4074 123.721 49.7583 125.443 46.2402C127.598 42.3279 126.571 40.6806 133.345 39.4452C140.119 38.2097 137.348 29.3556 155.205 38.9304C155.808 39.7743 156.646 40.4202 157.614 40.7866C158.582 41.1531 159.637 41.2237 160.645 40.9895C164.339 40.2688 165.674 45.4165 165.674 45.4165C165.674 45.4165 168.137 43.9752 169.06 46.0343C169.984 48.0933 176.57 44.7984 176.57 58.6973C176.57 72.5962 169.075 85.0114 169.075 85.0114C169.075 85.0114 169.625 61.6319 157.412 59.2639C145.199 56.896 132.062 49.998 128.881 58.8521C127.163 63.8215 124.873 68.5725 122.056 73.0083Z" fill="#72351C"/>
<g opacity="0.1">
<path opacity="0.1" d="M178.244 70.7823C178.516 69.1378 179.844 67.86 180.563 66.3503C181.026 65.332 181.294 64.2343 181.352 63.1152C181.352 63.7191 181.406 64.323 181.411 64.9323C181.411 66.7008 181.337 68.5232 180.563 70.1299C179.972 71.3538 178.996 72.4322 178.505 73.6777C178.247 72.7363 178.158 71.7555 178.244 70.7823Z" fill="black"/>
<path opacity="0.1" d="M115.103 59.3081C116.073 64.0098 117.587 68.7976 117.118 73.51C116.814 70.0324 115.812 66.5331 115.103 63.0824C114.512 60.4637 114.303 57.7716 114.484 55.0918C114.6 56.5093 114.807 57.9177 115.103 59.3081Z" fill="black"/>
</g>
<path d="M176.142 180.175C176.787 190.883 184.556 199.731 187.515 210.029C188.251 212.607 188.693 215.281 189.749 217.734C191.882 222.668 196.27 226.248 200.946 228.771C202.652 229.768 204.518 230.454 206.459 230.798C208.593 231.051 210.752 230.639 212.649 229.619C214.545 228.599 216.089 227.019 217.075 225.089C218.296 222.581 218.467 219.697 219.208 217.001C220.034 213.89 221.581 211.021 222.588 207.964C224.444 202.341 224.407 196.183 223.122 190.403C221.904 185.377 219.977 180.554 217.4 176.083C217.027 175.42 216.649 174.762 216.259 174.109C215.159 172.223 213.924 170.421 212.564 168.718C209.365 164.819 205.254 161.822 201.186 158.867C200.875 158.608 200.511 158.424 200.12 158.328H200.056C199.597 158.311 199.142 158.419 198.739 158.641C193.097 161.107 187.681 164.073 182.556 167.505C180.722 168.739 177.827 170.12 176.867 172.222C175.907 174.325 176.003 177.889 176.142 180.175Z" fill="#FDB797"/>
<path d="M197.311 130.898C197.831 131.448 198.233 132.1 198.495 132.812C202.805 142.635 205.351 153.155 206.013 163.88C206.001 164.403 206.121 164.92 206.359 165.384C206.595 165.693 206.857 165.98 207.143 166.241C207.403 166.552 207.597 166.914 207.712 167.304C207.828 167.694 207.864 168.104 207.817 168.508C207.77 168.912 207.641 169.302 207.439 169.654C207.237 170.006 206.966 170.313 206.642 170.555C205.762 168.878 203.656 168.333 201.785 168.188C192.822 167.471 184.067 171.687 175.077 171.369C175.711 169.153 176.623 167.023 177.14 164.78C179.428 154.822 173.723 143.979 177.22 134.387C177.919 132.467 179.087 130.58 180.926 129.739C181.688 129.428 182.485 129.214 183.299 129.103C185.57 128.688 190.092 126.914 192.288 127.626C193.099 127.89 193.419 128.661 194.091 129.124C195.088 129.788 196.442 130.019 197.311 130.898Z" fill="#F86D70"/>
<path opacity="0.1" d="M193.637 220.051C195.008 222.403 196.954 224.358 199.289 225.728C201.623 227.098 204.268 227.837 206.967 227.875C208.428 227.913 209.88 227.643 211.232 227.082C214.639 225.562 216.564 221.798 217.279 218.099C217.993 214.401 217.769 210.583 218.276 206.847C218.681 203.871 219.545 200.981 219.993 198.01C221.091 190.661 218.926 183.403 217.385 176.087C217.012 175.424 216.634 174.766 216.244 174.113C215.144 172.227 213.909 170.425 212.549 168.722C209.35 164.824 205.239 161.826 201.171 158.871H205.436C205.333 158.795 205.212 158.747 205.085 158.733C204.958 158.719 204.829 158.739 204.712 158.79C204.595 158.842 204.493 158.924 204.418 159.028C204.342 159.132 204.294 159.255 204.279 159.383C203.858 163.157 198.596 166.932 197.449 170.598C196.74 172.852 195.887 175.062 195.316 177.359C194.867 179.316 194.525 181.296 194.293 183.29C193.536 188.873 192.782 194.444 192.032 200.005C191.088 206.793 190.278 214.131 193.637 220.051Z" fill="black"/>
<path d="M200.697 149.256L195.551 132.936C194.783 130.493 194.005 128.013 193.914 125.446C193.824 122.88 194.49 120.189 196.266 118.356C197.705 116.873 199.699 116.108 201.406 114.949C205.671 112.042 207.804 106.953 210.027 102.267C212.251 97.5818 215.178 92.6807 220.03 90.9445C221.15 90.5455 222.696 90.5132 223.197 91.5969C223.371 92.0475 223.399 92.5419 223.277 93.0096C222.808 95.5005 221.043 97.4901 219.508 99.4797C216.932 102.85 214.778 106.974 215.397 111.191C216.133 116.183 220.569 120.055 221.102 125.074C221.336 127.285 220.777 129.501 220.782 131.728C220.782 133.108 221.006 134.515 220.702 135.863C220.387 136.905 220.011 137.928 219.577 138.926C219.102 140.538 218.854 142.21 218.841 143.892L217.716 165.114C217.108 176.593 223.267 187.759 221.571 199.082C221.123 202.052 220.259 204.942 219.854 207.919C219.321 211.655 219.572 215.467 218.857 219.171C218.143 222.875 216.191 226.633 212.811 228.154C211.459 228.715 210.006 228.985 208.545 228.947C205.846 228.909 203.202 228.17 200.867 226.8C198.533 225.429 196.586 223.474 195.215 221.123C191.856 215.192 192.667 207.865 193.584 201.103L195.844 184.389C196.077 182.394 196.418 180.414 196.868 178.458C197.433 176.161 198.286 173.951 199.001 171.697C201.288 164.326 203 156.578 200.697 149.256Z" fill="#FDB797"/>
<path d="M63.729 150.525H174.132C176.479 150.525 178.382 152.449 178.382 154.823V222.791C178.382 225.164 176.479 227.088 174.132 227.088H63.729C61.382 227.088 59.4794 225.164 59.4794 222.791V154.823C59.4794 152.449 61.382 150.525 63.729 150.525Z" fill="#626673"/>
<path d="M119.197 192.042C117.43 192.042 115.998 190.594 115.998 188.807C115.998 187.021 117.43 185.572 119.197 185.572C120.964 185.572 122.396 187.021 122.396 188.807C122.396 190.594 120.964 192.042 119.197 192.042Z" fill="white"/>
<path d="M340.536 15.7285H220.034V63.176H340.536V15.7285Z" fill="#89E386"/>
<path d="M409.601 15.7285H224.583C221.049 15.7285 218.185 18.6253 218.185 22.1986V56.7059C218.185 60.2792 221.049 63.176 224.583 63.176H409.601C413.135 63.176 416 60.2792 416 56.7059V22.1986C416 18.6253 413.135 15.7285 409.601 15.7285Z" stroke="#099616" stroke-width="4" stroke-miterlimit="10"/>
<path d="M326.562 36.9109C326.172 34.9263 325.182 33.1133 323.729 31.7227C322.275 30.3321 320.43 29.4328 318.449 29.1491C316.468 28.8655 314.448 29.2115 312.67 30.1394C310.892 31.0673 309.443 32.5311 308.524 34.3282C306.555 34.5383 304.741 35.5051 303.457 37.0289C302.173 38.5528 301.517 40.5172 301.625 42.5162C301.732 44.5152 302.595 46.3962 304.035 47.7703C305.475 49.1444 307.381 49.9067 309.361 49.8996H326.114C327.826 49.8953 329.465 49.2041 330.673 47.9777C331.881 46.7513 332.558 45.0902 332.555 43.3594C332.562 41.7132 331.944 40.127 330.829 38.9274C329.714 37.7278 328.187 37.0061 326.562 36.9109ZM319.156 40.7552V45.7048H315.029V40.7552H310.651L317.092 34.2366L323.533 40.7552H319.156Z" fill="#099616"/>
<defs>
<linearGradient id="paint0_linear" x1="112.875" y1="303.996" x2="112.875" y2="28.1266" gradientUnits="userSpaceOnUse">
<stop stop-color="#808080" stop-opacity="0.25"/>
<stop offset="0.54" stop-color="#808080" stop-opacity="0.12"/>
<stop offset="1" stop-color="#808080" stop-opacity="0.1"/>
</linearGradient>
</defs>
</svg>
