<svg width="192" height="124" viewBox="0 0 192 124" fill="none" xmlns="http://www.w3.org/2000/svg">
<g clip-path="url(#clip0)">
<path d="M58.5399 11.2222C46.6619 18.4078 38.9082 32.1675 36.5161 46.5134C34.1515 60.8846 37.176 75.842 44.9847 88.1239C52.7934 100.38 65.3863 109.987 78.8865 112.458C92.4142 114.93 106.822 110.292 122.742 106.317C138.661 102.342 156.093 98.9788 165.194 88.9647C174.268 78.9507 174.983 62.2606 168.604 49.8514C162.225 37.4421 148.725 29.3392 136.489 22.2045C124.254 15.0698 113.311 8.92887 99.8379 6.15144C86.3652 3.39949 70.4179 4.01103 58.5399 11.2222Z" fill="#F2F9FD"/>
<path d="M135.303 76.585L135.948 78.4309L135.453 81.5311C135.453 81.5311 134.705 84.0041 134.78 85.2032C134.854 86.4022 134.78 88.0509 134.78 88.0509C134.78 88.0509 132.984 91.3483 134.48 92.6972C134.828 93.0105 135.119 92.9475 135.361 92.6668C135.604 92.8024 135.855 92.9247 136.111 93.0331L134.854 97.9431L133.658 100.341C133.658 100.341 131.115 102.514 130.142 107.086C130.142 107.086 129.172 110.131 128.554 111.04C128.526 111.083 128.495 111.124 128.462 111.163C128.366 111.008 128.277 110.848 128.197 110.683L127.075 113.681C127.075 113.681 129.319 114.955 130.89 115.479C132.461 116.004 134.256 115.404 134.78 114.73C135.303 114.055 133.732 113.306 132.61 112.856C132.066 112.638 131.769 112.12 131.606 111.645C131.592 111.498 131.58 111.333 131.575 111.155C131.551 110.305 131.682 109.156 132.386 108.285C133.658 106.711 135.602 102.814 135.602 102.814C135.602 102.814 137.547 100.716 137.996 99.8915L140.689 95.3655C142.183 97.0702 143.681 101.091 143.681 101.091L144.279 104.763C144.279 104.763 146.224 110.009 146.822 110.533C146.839 110.548 146.856 110.564 146.872 110.581C146.877 110.587 146.882 110.592 146.887 110.598C146.899 110.611 146.911 110.625 146.923 110.64C146.928 110.646 146.933 110.651 146.938 110.657C146.953 110.677 146.969 110.698 146.984 110.72C146.988 110.725 146.992 110.731 146.995 110.736C147.008 110.754 147.02 110.772 147.031 110.791C147.037 110.8 147.043 110.809 147.048 110.818C147.059 110.836 147.07 110.854 147.08 110.872C147.085 110.881 147.09 110.889 147.095 110.898C147.109 110.923 147.123 110.95 147.137 110.977C147.142 110.986 147.147 110.996 147.152 111.006C147.162 111.026 147.172 111.045 147.182 111.066C147.187 111.077 147.193 111.089 147.198 111.101C147.209 111.122 147.219 111.144 147.229 111.166C147.233 111.175 147.237 111.184 147.241 111.194C147.254 111.224 147.267 111.254 147.28 111.285C147.285 111.297 147.29 111.309 147.295 111.321C147.304 111.343 147.313 111.365 147.322 111.387C147.327 111.4 147.332 111.412 147.336 111.424C147.348 111.453 147.358 111.482 147.369 111.511C147.372 111.518 147.375 111.525 147.377 111.532C147.389 111.564 147.401 111.596 147.412 111.628C147.416 111.639 147.42 111.651 147.424 111.663C147.433 111.688 147.442 111.714 147.45 111.739C147.454 111.75 147.458 111.76 147.461 111.771C147.473 111.806 147.485 111.841 147.496 111.876C147.498 111.881 147.499 111.886 147.501 111.891C147.511 111.922 147.52 111.953 147.53 111.984C147.533 111.995 147.537 112.005 147.54 112.016C147.549 112.044 147.557 112.072 147.566 112.101C147.568 112.108 147.57 112.115 147.572 112.122C147.583 112.158 147.593 112.193 147.603 112.228C147.605 112.235 147.607 112.242 147.609 112.249C147.617 112.277 147.625 112.305 147.633 112.332C147.635 112.343 147.638 112.353 147.641 112.363C147.648 112.389 147.656 112.416 147.663 112.442C147.665 112.449 147.667 112.457 147.669 112.465C147.677 112.495 147.685 112.525 147.693 112.555C147.697 112.569 147.7 112.584 147.704 112.598C147.708 112.613 147.712 112.627 147.715 112.642C147.72 112.66 147.724 112.678 147.729 112.695L147.733 112.71C147.75 112.779 147.766 112.844 147.78 112.903C147.786 112.93 147.792 112.954 147.798 112.978C147.8 112.99 147.803 113.002 147.806 113.014L147.808 113.023C147.698 112.95 147.594 112.869 147.496 112.781C147.539 113.28 147.539 113.781 147.496 114.28C147.421 115.03 148.169 116.079 148.169 116.079C148.169 116.079 154.901 114.43 155.275 113.306C155.649 112.182 154.078 112.332 153.629 112.482C153.18 112.631 150.936 112.182 150.637 111.657C150.581 111.56 150.513 111.47 150.436 111.389C150.372 111.318 150.285 111.271 150.191 111.256C150.097 111.24 150 111.257 149.917 111.303C149.911 111.297 149.906 111.291 149.9 111.284C149.893 111.276 149.887 111.269 149.88 111.26C149.876 111.255 149.872 111.249 149.867 111.244C149.859 111.233 149.851 111.223 149.843 111.212L149.841 111.21C149.825 111.187 149.808 111.163 149.792 111.138C149.786 111.129 149.78 111.12 149.774 111.11C149.744 111.063 149.714 111.011 149.683 110.956L149.678 110.945C149.2 110.068 148.687 108.279 148.568 107.853L148.566 107.843C148.562 107.83 148.559 107.819 148.556 107.808L148.552 107.796L148.55 107.786L148.545 107.769L148.544 107.765L148.543 107.76L146.822 102.14C147.346 100.116 146.822 99.1421 146.822 99.1421L145.85 94.5708L145.301 92.5007C145.318 92.483 145.326 92.4724 145.326 92.4724C144.879 91.2127 144.528 88.5418 144.31 86.4772C144.296 86.3432 144.282 86.2121 144.269 86.0839L145.925 86.8519C145.925 86.8519 148.169 90.2991 149.59 88.6504C151.011 87.0017 146.748 85.5779 146.748 85.5779L144.061 83.7833C144.057 83.7322 144.055 83.7044 144.055 83.7044L143.756 81.4561C143.756 81.4561 142.933 78.7583 143.307 76.9597C143.625 75.4279 142.587 74.8745 142.273 74.7441C142.223 74.725 142.172 74.7098 142.12 74.6988C141.71 74.6014 141.253 74.1812 140.865 73.7305C140.529 73.3435 140.136 73.0113 139.7 72.7457C139.952 72.5771 140.128 72.3147 140.189 72.0158C140.251 71.6703 140.133 71.3269 140.028 70.9874C140.18 70.6119 140.357 70.2471 140.558 69.8951C140.562 69.8947 140.566 69.8945 140.57 69.8941C140.601 69.8407 140.631 69.79 140.661 69.7422C141.45 69.6502 142.178 69.2698 142.707 68.6732C143.236 68.0766 143.529 67.3053 143.531 66.5055C143.532 65.9554 143.393 65.4143 143.128 64.9333C143.463 64.8166 143.785 64.6682 143.664 64.3218C143.582 64.0875 143.363 63.935 143.193 63.7547C142.742 63.2776 142.604 62.5613 142.133 62.1048C141.997 61.9746 141.839 61.8693 141.667 61.7938C141.188 61.5208 140.575 61.4857 140.022 61.5878C139.337 61.7143 138.698 62.0181 138.029 62.2132C137.441 62.3849 136.826 62.4735 136.262 62.7148C135.301 63.1267 134.561 63.9641 134.117 64.9129C133.724 65.7514 133.542 66.6798 133.113 67.5C132.684 68.3203 131.896 69.0585 130.972 69.0267C130.734 69.0185 130.486 68.9604 130.263 69.0445C130.087 69.1215 129.942 69.2547 129.85 69.4234C129.343 70.2548 129.669 71.3747 129.266 72.2613C128.966 72.9209 128.319 73.3374 127.789 73.8311C127.26 74.3247 126.804 75.0621 127.054 75.7421C127.125 75.9132 127.23 76.0682 127.361 76.198C127.493 76.3279 127.649 76.43 127.82 76.4983C127.995 76.5957 128.183 76.6654 128.379 76.705C128.882 76.8075 129.401 76.7458 129.912 76.7095C131.296 76.6113 132.808 76.6639 133.907 75.8155C134.359 75.4658 134.707 74.9839 135.069 74.529C135.074 75.2208 135.152 75.9101 135.303 76.585ZM137.295 81.2977C137.407 81.4845 137.522 81.6701 137.64 81.8533C138.74 83.553 137.248 85.8776 137.248 85.8776C136.908 86.1582 136.616 86.4927 136.383 86.868C136.402 86.1524 136.485 85.3357 136.724 84.7535C137.097 83.8472 137.242 82.1832 137.295 81.2977Z" fill="url(#paint0_linear)"/>
<path d="M136.17 78.0391L135.585 81.6988C135.585 81.6988 134.855 84.1143 134.928 85.2854C135.001 86.4566 134.928 88.0669 134.928 88.0669C134.928 88.0669 133.174 91.2875 134.636 92.605C136.097 93.9225 136.535 88.4329 136.535 88.4329C136.535 88.4329 136.316 86.0906 136.827 84.8463C137.339 83.6019 137.412 80.8937 137.412 80.8937L136.17 78.0391Z" fill="#FDB797"/>
<path opacity="0.05" d="M136.17 78.0391L135.585 81.6988C135.585 81.6988 134.855 84.1143 134.928 85.2854C135.001 86.4566 134.928 88.0669 134.928 88.0669C134.928 88.0669 133.174 91.2875 134.636 92.605C136.097 93.9225 136.535 88.4329 136.535 88.4329C136.535 88.4329 136.316 86.0906 136.827 84.8463C137.339 83.6019 137.412 80.8937 137.412 80.8937L136.17 78.0391Z" fill="black"/>
<path d="M144.73 90.625L145.741 94.4358L146.691 98.9008C146.691 98.9008 147.202 99.8523 146.691 101.829L148.371 107.318C148.371 107.318 149.321 110.832 149.905 110.905C150.49 110.978 149.321 113.686 149.321 113.686L147.713 112.735C147.713 112.735 147.275 110.539 146.691 110.027C146.106 109.514 144.207 104.39 144.207 104.39L143.622 100.804C143.622 100.804 141.796 95.8997 140.188 94.7286C138.581 93.5575 138.07 91.6544 138.07 91.6544L144.73 90.625Z" fill="#FDB797"/>
<path opacity="0.05" d="M138.07 91.6541C138.07 91.6541 138.581 93.5572 140.188 94.7284C141.796 95.8995 143.622 100.804 143.622 100.804L144.207 104.39C144.207 104.39 146.106 109.514 146.691 110.026C147.119 110.402 147.47 111.686 147.626 112.341C147.683 112.579 147.713 112.734 147.713 112.734L149.321 113.686C149.321 113.686 150.49 110.978 149.905 110.905C149.815 110.894 149.715 110.799 149.611 110.648C149.049 109.827 148.371 107.318 148.371 107.318L146.691 101.828C147.202 99.852 146.691 98.9005 146.691 98.9005L145.741 94.4356L144.73 90.625L138.07 91.6541Z" fill="black"/>
<path d="M128.718 110.684L129.303 112.075L131.933 111.782C131.852 111.404 131.807 111.02 131.798 110.633C131.775 109.802 131.902 108.681 132.59 107.83C133.832 106.293 135.732 102.487 135.732 102.487C135.732 102.487 137.631 100.437 138.07 99.6319L141.727 93.4856L141.613 92.9345L142.599 92.0195H136.462L135.001 97.7288L133.832 100.071C133.832 100.071 131.348 102.194 130.399 106.659C130.399 106.659 129.451 109.633 128.848 110.521C128.81 110.58 128.767 110.634 128.718 110.684Z" fill="#FDB797"/>
<path opacity="0.1" d="M147.626 112.341C147.683 112.579 147.714 112.735 147.714 112.735L149.321 113.686C149.321 113.686 150.49 110.978 149.905 110.905C149.815 110.894 149.715 110.799 149.612 110.648C149.536 110.694 149.477 110.763 149.443 110.845C149.409 110.927 149.403 111.018 149.425 111.104C149.448 111.214 149.486 111.319 149.54 111.417C149.759 111.783 148.81 112.369 148.81 112.369C148.49 112.781 147.97 112.563 147.626 112.341Z" fill="black"/>
<path d="M149.497 111.253C149.477 111.161 149.486 111.066 149.525 110.98C149.564 110.895 149.629 110.825 149.711 110.781C149.793 110.737 149.888 110.721 149.98 110.736C150.072 110.751 150.156 110.796 150.22 110.864C150.295 110.944 150.361 111.032 150.416 111.126C150.709 111.639 152.9 112.078 153.339 111.931C153.777 111.785 155.311 111.639 154.946 112.737C154.581 113.835 148.005 115.445 148.005 115.445C148.005 115.445 147.275 114.42 147.348 113.688C147.39 113.201 147.39 112.711 147.348 112.224C147.348 112.224 148.371 113.176 148.882 112.517C148.882 112.517 149.832 111.931 149.613 111.565C149.559 111.468 149.52 111.362 149.497 111.253Z" fill="#ECF6F9"/>
<path opacity="0.1" d="M128.718 110.685L129.303 112.076L131.933 111.783C131.852 111.405 131.807 111.02 131.798 110.634C131.772 110.582 131.734 110.536 131.687 110.502C131.639 110.468 131.585 110.445 131.527 110.437C131.469 110.429 131.41 110.435 131.356 110.454C131.301 110.474 131.251 110.507 131.212 110.55C131.076 110.696 130.938 110.851 130.837 110.978C130.545 111.344 129.595 111.124 129.595 111.124C129.349 111.206 129.057 110.851 128.848 110.522C128.81 110.58 128.767 110.635 128.718 110.685Z" fill="black"/>
<path d="M131.138 110.695C131.182 110.648 131.238 110.613 131.299 110.594C131.361 110.575 131.426 110.574 131.489 110.589C131.551 110.605 131.608 110.637 131.654 110.682C131.7 110.728 131.733 110.785 131.75 110.847C131.883 111.368 132.175 112.04 132.81 112.295C133.905 112.734 135.44 113.466 134.928 114.124C134.417 114.783 132.663 115.369 131.129 114.856C129.595 114.344 127.403 113.1 127.403 113.1L128.499 110.172C128.499 110.172 129.084 111.416 129.522 111.27C129.522 111.27 130.472 111.489 130.764 111.123C130.866 110.996 131.003 110.842 131.138 110.695Z" fill="#ECF6F9"/>
<path d="M141.065 69.5487C141.065 69.5487 139.312 71.9641 139.75 73.6476C140.188 75.3311 136.243 72.5497 136.243 72.5497C136.87 71.926 137.347 71.1667 137.638 70.3296C137.929 69.4925 138.027 68.5996 137.923 67.7188L141.065 69.5487Z" fill="#FDB797"/>
<path d="M135.293 92.4585C138.216 94.2152 141.722 93.4832 141.722 93.4832L141.649 92.9708C141.701 92.976 141.752 92.9811 141.801 92.9855C144.594 93.2329 145.229 92.3853 145.229 92.3853C144.792 91.1549 144.45 88.5462 144.236 86.5296C144.206 86.2398 144.178 85.9624 144.152 85.7025C144.095 85.1148 144.052 84.6199 144.024 84.2854C144 83.9912 143.987 83.8214 143.987 83.8214L143.695 81.6255C143.695 81.6255 142.891 78.9905 143.257 77.2338C143.568 75.7376 142.554 75.1971 142.247 75.0697C142.198 75.0511 142.149 75.0363 142.098 75.0255C141.697 74.9304 141.251 74.5199 140.871 74.0798C140.318 73.4447 139.613 72.9625 138.822 72.6788C138.455 72.5449 138.143 72.4029 138.143 72.4029C137.631 71.8173 136.243 72.1833 136.243 72.1833C134.563 73.2812 135.44 76.8678 135.44 76.8678L136.138 78.8675C136.54 79.9758 137.071 81.032 137.722 82.0134C138.796 83.6735 137.339 85.9441 137.339 85.9441C135.074 87.7739 135.293 92.4585 135.293 92.4585Z" fill="#FF8AA1"/>
<path opacity="0.05" d="M141.54 89.0555L141.801 92.9861C144.594 93.2335 145.229 92.3859 145.229 92.3859C144.792 91.1555 144.449 88.5468 144.236 86.5302C144.205 86.2404 144.178 85.963 144.152 85.7031L141.54 89.0555Z" fill="black"/>
<path opacity="0.1" d="M136.901 78.7717C136.901 78.7717 138.216 81.2604 138.654 82.3583C139.093 83.4563 139.093 83.0903 139.312 83.4563C139.531 83.8222 141.869 85.4325 141.869 85.4325L144.237 86.5305C144.137 85.5848 144.064 84.7687 144.024 84.2863L141.796 82.7975C141.796 82.7975 140.262 81.846 140.189 80.6016C140.115 79.3573 139.166 77.0882 139.166 77.0882C139.166 77.0882 137.266 75.0388 136.463 75.9903C135.659 76.9419 136.901 78.7717 136.901 78.7717Z" fill="black"/>
<path d="M139.166 76.721C139.166 76.721 140.115 78.9901 140.188 80.2344C140.262 81.4788 141.796 82.4303 141.796 82.4303L146.618 85.6509C146.618 85.6509 150.782 87.0416 149.394 88.6519C148.006 90.2623 145.814 86.8953 145.814 86.8953L141.869 85.0654C141.869 85.0654 139.531 83.455 139.312 83.0891C139.093 82.7231 139.093 83.0891 138.654 81.9911C138.216 80.8932 136.901 78.4045 136.901 78.4045C136.901 78.4045 135.659 76.5747 136.463 75.6231C137.266 74.6716 139.166 76.721 139.166 76.721Z" fill="#FDB797"/>
<path opacity="0.1" d="M139.75 77.6735C139.75 77.6735 138.289 76.5756 137.996 76.2096C137.867 76.0481 137.667 76.072 137.484 76.149C137.142 76.2959 136.769 76.3575 136.398 76.3286C136.079 76.3011 135.768 76.3194 135.805 76.5024C135.878 76.8684 135.585 74.5993 135.585 74.5993L136.827 74.1602L138.435 75.0385L139.75 77.6735Z" fill="black"/>
<path d="M139.75 77.529C139.75 77.529 138.289 76.4311 137.996 76.0651C137.867 75.9035 137.667 75.9274 137.484 76.0045C137.142 76.1514 136.769 76.213 136.398 76.184C136.079 76.1566 135.768 76.1749 135.805 76.3579C135.878 76.7239 135.585 74.4548 135.585 74.4548L136.827 74.0156L138.435 74.894L139.75 77.529Z" fill="#FF8AA1"/>
<path opacity="0.1" d="M143.19 77.6723C142.926 77.7882 142.639 77.8387 142.352 77.8196C142.064 77.8005 141.786 77.7123 141.54 77.5625" fill="black"/>
<path opacity="0.1" d="M138.399 67.9044C138.453 67.4669 137.912 68.3756 137.851 67.8678L140.992 69.6977C140.992 69.6977 140.813 69.9451 140.583 70.3358C140.464 70.3494 140.345 70.3563 140.225 70.3565C139.28 70.3565 138.981 68.5606 138.399 67.9044Z" fill="black"/>
<path d="M140.298 70.2079C142.053 70.2079 143.476 68.7823 143.476 67.0239C143.476 65.2654 142.053 63.8398 140.298 63.8398C138.543 63.8398 137.12 65.2654 137.12 67.0239C137.12 68.7823 138.543 70.2079 140.298 70.2079Z" fill="#FDB797"/>
<path opacity="0.1" d="M141.724 67.0792C141.722 67.2809 141.683 67.4805 141.609 67.6679C141.476 67.9163 141.19 68.0293 140.95 68.1772C139.98 68.7764 139.692 70.1244 140.001 71.224C140.11 71.613 140.283 72.0079 140.211 72.4057C140.088 73.0894 139.311 73.4438 138.62 73.5045C137.929 73.5652 137.206 73.453 136.56 73.7055C135.475 74.1295 134.998 75.4044 134.075 76.1169C133.003 76.9455 131.525 76.8942 130.174 76.9901C129.674 77.0255 129.167 77.0858 128.677 76.9857C128.186 76.8856 127.702 76.5891 127.528 76.1184C127.284 75.4542 127.729 74.734 128.247 74.2519C128.764 73.7697 129.396 73.3629 129.689 72.7187C130.082 71.8527 129.764 70.7588 130.259 69.9469C130.349 69.7821 130.491 69.652 130.662 69.5767C130.881 69.4946 131.123 69.5513 131.355 69.5594C132.258 69.5904 133.027 68.8694 133.446 68.0683C133.865 67.2671 134.043 66.3603 134.427 65.5414C134.86 64.6146 135.583 63.7967 136.522 63.3944C137.073 63.1588 137.674 63.0722 138.248 62.9045C138.901 62.7139 139.525 62.4173 140.194 62.2937C140.863 62.1702 141.621 62.2517 142.11 62.7254C142.571 63.1713 142.705 63.8709 143.145 64.3369C143.311 64.513 143.525 64.662 143.605 64.8908C143.795 65.4329 142.875 65.4786 142.568 65.6957C142.34 65.855 142.147 66.0603 142.002 66.2984C141.856 66.5366 141.762 66.8024 141.724 67.0792Z" fill="black"/>
<path d="M141.578 67.005C141.576 67.2067 141.537 67.4063 141.463 67.5936C141.33 67.8421 141.044 67.9551 140.804 68.103C139.834 68.7021 139.546 70.0502 139.855 71.1497C139.964 71.5388 140.137 71.9337 140.065 72.3315C139.942 73.0151 139.165 73.3695 138.474 73.4303C137.783 73.491 137.06 73.3788 136.414 73.6313C135.329 74.0553 134.852 75.3302 133.929 76.0426C132.857 76.8713 131.379 76.82 130.028 76.9159C129.528 76.9513 129.021 77.0116 128.531 76.9115C128.04 76.8113 127.556 76.5149 127.382 76.0442C127.138 75.38 127.583 74.6598 128.101 74.1776C128.618 73.6955 129.25 73.2887 129.543 72.6445C129.936 71.7784 129.618 70.6846 130.113 69.8726C130.203 69.7079 130.345 69.5777 130.516 69.5025C130.735 69.4204 130.977 69.4771 131.209 69.4851C132.112 69.5162 132.881 68.7951 133.3 67.994C133.719 67.1929 133.897 66.2861 134.281 65.4672C134.714 64.5404 135.437 63.7225 136.376 63.3202C136.927 63.0846 137.528 62.998 138.102 62.8303C138.755 62.6397 139.379 62.343 140.048 62.2195C140.717 62.096 141.475 62.1775 141.964 62.6512C142.425 63.0971 142.559 63.7967 142.999 64.2627C143.165 64.4388 143.379 64.5878 143.459 64.8166C143.649 65.3587 142.729 65.4044 142.422 65.6214C142.194 65.7808 142.001 65.9861 141.856 66.2242C141.71 66.4623 141.616 66.7282 141.578 67.005Z" fill="#FFC533"/>
<path d="M68.9849 87.8281H65.7476V115.733C65.7476 115.733 86.6432 122.634 106.95 115.733V87.8281H68.9849Z" fill="#626673"/>
<path opacity="0.1" d="M86.307 91.1428C97.6829 91.1428 106.905 89.7301 106.905 87.9874C106.905 86.2447 97.6829 84.832 86.307 84.832C74.931 84.832 65.709 86.2447 65.709 87.9874C65.709 89.7301 74.931 91.1428 86.307 91.1428Z" fill="#3D414D"/>
<path d="M86.307 91.1428C97.6829 91.1428 106.905 89.7301 106.905 87.9874C106.905 86.2447 97.6829 84.832 86.307 84.832C74.931 84.832 65.709 86.2447 65.709 87.9874C65.709 89.7301 74.931 91.1428 86.307 91.1428Z" fill="#3F3D56"/>
<path d="M110.251 54.4458C105.055 73.7822 87.2567 85.7578 87.2567 85.7578C87.2567 85.7578 77.8832 66.3828 83.0794 47.0463C88.2756 27.7099 106.074 15.7344 106.074 15.7344C106.074 15.7344 115.447 35.1094 110.251 54.4458Z" fill="#099616"/>
<path d="M62.9798 54.4458C68.176 73.7822 85.9742 85.7578 85.9742 85.7578C85.9742 85.7578 95.3476 66.3828 90.1514 47.0463C84.9552 27.7099 67.1571 15.7344 67.1571 15.7344C67.1571 15.7344 57.7836 35.1094 62.9798 54.4458Z" fill="#14BC1F"/>
<path d="M70.6153 50.2921C84.8738 64.2647 86.6154 85.7439 86.6154 85.7439C86.6154 85.7439 65.2394 84.569 50.981 70.5963C36.7225 56.6237 34.981 35.1445 34.981 35.1445C34.981 35.1445 56.3569 36.3195 70.6153 50.2921Z" fill="#32D13C"/>
<path d="M102.615 50.2921C88.3568 64.2647 86.6152 85.7439 86.6152 85.7439C86.6152 85.7439 107.991 84.569 122.25 70.5963C136.508 56.6237 138.25 35.1445 138.25 35.1445C138.25 35.1445 116.874 36.3195 102.615 50.2921Z" fill="#89E386"/>
<path d="M44.2961 58.1663C44.7618 59.8673 46.3796 60.9021 46.3796 60.9021C46.3796 60.9021 47.2425 59.1791 46.7768 57.4781C46.3112 55.777 44.6933 54.7422 44.6933 54.7422C44.6933 54.7422 43.8305 56.4652 44.2961 58.1663Z" fill="#14BC1F"/>
<path d="M53.012 67.6402C52.5107 69.331 53.3373 71.072 53.3373 71.072C53.3373 71.072 54.9765 70.0717 55.4777 68.381C55.9789 66.6902 55.1524 64.9492 55.1524 64.9492C55.1524 64.9492 53.5132 65.9495 53.012 67.6402Z" fill="#14BC1F"/>
<path d="M37.5188 74.5413C37.9844 76.2423 39.6023 77.2771 39.6023 77.2771C39.6023 77.2771 40.4652 75.5541 39.9995 73.8531C39.5338 72.152 37.916 71.1172 37.916 71.1172C37.916 71.1172 37.0531 72.8402 37.5188 74.5413Z" fill="#14BC1F"/>
<path d="M51.6017 44.3788C53.3363 47.1725 52.5652 50.7619 49.9019 52.4017C47.2387 54.0414 43.6694 53.1243 41.9348 50.3307C40.2001 47.537 40.9713 43.9475 43.6346 42.3078C46.2978 40.6681 49.8671 41.5851 51.6017 44.3788Z" fill="white" stroke="#F1F1F1" stroke-width="0.352941"/>
<path d="M44.0123 47.9682L43.8119 47.7338C43.7462 47.7166 43.6908 47.7161 43.6195 47.7255C43.5481 47.7348 43.4792 47.7658 43.3995 47.815C43.24 47.9133 43.1488 48.0504 43.1388 48.2297C43.1367 48.4042 43.1953 48.5875 43.3144 48.7796L43.3558 48.8464C43.4801 49.0469 43.6183 49.181 43.7837 49.2522C43.9491 49.3235 44.1049 49.3082 44.2643 49.2099C44.336 49.1657 44.4026 49.1131 44.4429 49.0536C44.4911 48.9892 44.5154 48.9396 44.5294 48.8733L44.4087 48.5897L44.6877 48.4177L44.9259 48.802C44.9111 48.9381 44.8569 49.0639 44.7736 49.1961C44.6851 49.3199 44.5783 49.432 44.4348 49.5204C44.1877 49.6728 43.9235 49.7087 43.6553 49.6316C43.3819 49.5462 43.1624 49.3698 42.9863 49.0858L42.9449 49.019C42.7688 48.7349 42.7087 48.4603 42.7542 48.1782C42.7997 47.8961 42.942 47.6814 43.1971 47.5241C43.3406 47.4356 43.4837 47.382 43.6395 47.3668C43.7873 47.3564 43.9244 47.3643 44.0611 47.407L44.2993 47.7912L44.0123 47.9682Z" fill="#006799"/>
<path d="M44.0878 47.1481L43.9428 46.9142L44.5167 46.5603L45.6353 48.3645L45.8445 48.2932L45.9895 48.5271L45.2562 48.9793L45.1112 48.7454L45.2686 48.5906L44.3209 47.062L44.0878 47.1481Z" fill="#006799"/>
<path d="M45.6216 47.7379C45.487 47.5207 45.434 47.3109 45.4708 47.1035C45.4995 46.9011 45.6123 46.7276 45.8196 46.5998C46.0268 46.472 46.2277 46.4405 46.4273 46.5137C46.6218 46.5786 46.7943 46.7147 46.9289 46.9318L46.9445 46.9569C47.0791 47.1741 47.132 47.3839 47.0953 47.5913C47.0666 47.7937 46.9486 47.9588 46.7413 48.0866C46.5341 48.2144 46.3332 48.2459 46.1388 48.1811C45.9443 48.1162 45.7718 47.9802 45.6372 47.763L45.6216 47.7379ZM46.0038 47.5369C46.0867 47.6705 46.1728 47.756 46.2644 47.815C46.364 47.869 46.4485 47.8631 46.5521 47.7992C46.6478 47.7402 46.6936 47.6542 46.6869 47.5545C46.6829 47.4414 46.6367 47.3314 46.5539 47.1977L46.5383 47.1727C46.4606 47.0474 46.3694 46.9535 46.2829 46.9029C46.1833 46.8489 46.0857 46.8514 45.99 46.9103C45.8944 46.9693 45.8485 47.0553 45.8605 47.1634C45.8644 47.2765 45.9106 47.3865 45.9883 47.5118L46.0038 47.5369Z" fill="#006799"/>
<path d="M48.3866 46.795C48.3802 46.8913 48.3635 46.9709 48.3176 47.0569C48.2746 47.1297 48.2184 47.199 48.1307 47.253C47.9872 47.3415 47.8445 47.3602 47.6999 47.3224C47.558 47.2713 47.425 47.1455 47.3007 46.945L46.933 46.352L46.7556 46.4036L46.6106 46.1697L47.1367 45.8453L47.6753 46.714C47.7426 46.8226 47.8052 46.888 47.863 46.9101C47.9207 46.9322 47.9841 46.9277 48.0558 46.8835C48.1116 46.8491 48.1623 46.8063 48.1866 46.7567C48.2161 46.7154 48.2352 46.6574 48.2384 46.6093L47.7568 45.8325L47.5715 45.889L47.4265 45.6551L47.9606 45.3258L48.6856 46.4952L48.8789 46.4338L49.0239 46.6676L48.5296 46.9724L48.3866 46.795Z" fill="#006799"/>
<path d="M49.9461 45.8449C49.9477 45.9363 49.923 46.0209 49.8879 46.0887C49.8528 46.1565 49.7914 46.2174 49.7197 46.2617C49.5523 46.3649 49.3754 46.3816 49.202 46.3153C49.0235 46.2407 48.8721 46.1031 48.7375 45.8859L48.7219 45.8609C48.5821 45.6353 48.516 45.4221 48.5236 45.2211C48.5312 45.0201 48.6174 44.8746 48.7927 44.7665C48.8645 44.7223 48.9306 44.7046 49.0071 44.7036C49.0836 44.7026 49.1574 44.7148 49.2335 44.7487L48.9124 44.2309L48.6952 44.3071L48.5502 44.0732L49.1241 43.7193L50.2427 45.5235L50.444 45.4572L50.589 45.691L50.0868 46.0007L49.9461 45.8449ZM49.1121 45.6549C49.1898 45.7802 49.2759 45.8657 49.3623 45.9163C49.4488 45.9669 49.5333 45.961 49.6289 45.902C49.6847 45.8676 49.7274 45.8297 49.7517 45.7801C49.776 45.7305 49.7872 45.6774 49.7852 45.6209L49.4072 45.0111C49.3522 44.9758 49.2996 44.962 49.2442 44.9615C49.1888 44.961 49.1306 44.9738 49.0828 45.0033C48.9951 45.0574 48.9493 45.1434 48.9612 45.2515C48.9731 45.3596 49.0165 45.4829 49.1046 45.6249L49.1201 45.65L49.1121 45.6549Z" fill="#006799"/>
<path d="M44.1049 50.89C44.1475 50.8522 44.2141 50.7996 44.2938 50.7504C44.3974 50.6865 44.4927 50.6625 44.5612 50.6664C44.6218 50.6752 44.6848 50.7057 44.7262 50.7725C44.7676 50.8393 44.7748 50.9042 44.7608 50.9705C44.7361 51.055 44.6691 51.1425 44.5655 51.2064C44.5336 51.2261 44.5017 51.2457 44.4726 51.2521L44.6539 51.5445L44.5503 51.6084L44.1049 50.89ZM44.434 51.172C44.4631 51.1656 44.495 51.146 44.5269 51.1263C44.6544 51.0477 44.6979 50.9401 44.6409 50.8482C44.5788 50.7479 44.4731 50.7553 44.3616 50.8241C44.3137 50.8536 44.2818 50.8733 44.2631 50.8964L44.434 51.172Z" fill="#006799"/>
<path d="M45.3351 50.8126L45.3873 51.0922L45.2757 51.1611L45.1041 50.2623L45.2317 50.1837L45.9612 50.7384L45.8496 50.8072L45.6221 50.6357L45.3351 50.8126ZM45.5516 50.5753L45.3424 50.4156C45.2954 50.3753 45.2536 50.3434 45.2197 50.3065C45.2296 50.3581 45.2476 50.4048 45.2627 50.4647L45.3124 50.7227L45.5516 50.5753Z" fill="#006799"/>
<path d="M46.4155 50.4582L46.2239 50.1492L45.7019 49.8937L45.8215 49.82L46.0574 49.9516C46.1255 49.9905 46.1753 50.0175 46.2303 50.0528C46.2231 49.988 46.2212 49.9315 46.2168 49.8533L46.2121 49.5791L46.3317 49.5054L46.3196 50.0902L46.5112 50.3992L46.4155 50.4582Z" fill="#006799"/>
<path d="M47.6136 49.2807C47.5435 49.1854 47.4578 49.065 47.406 48.9815C47.4259 49.0847 47.451 49.1962 47.4733 49.321L47.5473 49.7603L47.4676 49.8095L47.1198 49.5506C47.0178 49.4749 46.9289 49.4027 46.8481 49.3255C46.905 49.4174 46.9695 49.5393 47.0289 49.6528L47.1966 49.9766L47.093 50.0405L46.6982 49.2794L46.8337 49.1958L47.1947 49.4582C47.2836 49.5304 47.3621 49.5859 47.4246 49.6513C47.4019 49.5613 47.3792 49.4714 47.3621 49.355L47.2881 48.9157L47.4236 48.8321L47.922 49.5293L47.8183 49.5932L47.6136 49.2807Z" fill="#006799"/>
<path d="M48.5469 48.6706L48.228 48.8672L48.3886 49.1262L48.7393 48.9099L48.7859 48.9851L48.3236 49.2701L47.873 48.5434L48.3194 48.2682L48.366 48.3434L48.0312 48.5498L48.1711 48.7753L48.4899 48.5787L48.5469 48.6706Z" fill="#006799"/>
<path d="M49.1816 48.7526L48.7311 48.0259L48.8506 47.9522L49.3415 48.1575C49.4491 48.2066 49.5515 48.2474 49.63 48.3029C49.5599 48.2076 49.5002 48.129 49.4277 48.012L49.2412 47.7113L49.3369 47.6523L49.7874 48.3791L49.6838 48.443L49.2009 48.2327C49.0933 48.1836 48.9857 48.1345 48.8992 48.0839C48.9642 48.1708 49.0159 48.2544 49.0936 48.3796L49.2852 48.6887L49.1816 48.7526Z" fill="#006799"/>
<path d="M49.7314 47.5245L49.6797 47.441L50.2855 47.0674L50.3373 47.151L50.0901 47.3033L50.4889 47.9465L50.3853 48.0104L49.9865 47.3672L49.7314 47.5245Z" fill="#006799"/>
<path d="M50.9742 47.4856C51.0376 47.4812 51.1169 47.4669 51.1966 47.4178C51.3082 47.3489 51.333 47.2644 51.2863 47.1892C51.2449 47.1224 51.1792 47.1052 51.0469 47.1406C50.8855 47.1824 50.7643 47.1647 50.7022 47.0645C50.6297 46.9476 50.6815 46.8001 50.8409 46.7018C50.9206 46.6527 50.9948 46.6301 51.045 46.6222L51.0597 46.717C51.0254 46.7151 50.9593 46.7328 50.8875 46.777C50.7759 46.8458 50.7723 46.9289 50.8034 46.979C50.8448 47.0458 50.9134 47.0497 51.0509 47.0227C51.2175 46.9893 51.3254 47.0035 51.3876 47.1037C51.4549 47.2123 51.4214 47.3715 51.2301 47.4895C51.1504 47.5386 51.0472 47.5677 50.9918 47.5672L50.9742 47.4856Z" fill="#006799"/>
<path d="M77.4977 33.6596C77.4977 36.8788 74.9056 39.4864 71.7106 39.4864C68.5156 39.4864 65.9235 36.8788 65.9235 33.6596C65.9235 30.4404 68.5156 27.8327 71.7106 27.8327C74.9056 27.8327 77.4977 30.4404 77.4977 33.6596Z" fill="white" stroke="#F1F1F1" stroke-width="0.352941"/>
<path d="M74.1067 34.7196C74.6834 34.7196 75.151 34.2489 75.151 33.6684C75.151 33.0878 74.6834 32.6172 74.1067 32.6172C73.53 32.6172 73.0625 33.0878 73.0625 33.6684C73.0625 34.2489 73.53 34.7196 74.1067 34.7196Z" fill="#00EEBC"/>
<path d="M73.5021 31.8325L71.4411 29.7578L69.0435 32.1576C68.6511 32.5537 68.4307 33.0902 68.4307 33.6497C68.4307 34.2091 68.6511 34.7457 69.0435 35.1418L69.6343 35.7365C69.6343 35.7365 73.533 31.8325 73.5021 31.8325Z" fill="#00EEBC"/>
<path d="M70.5655 32.5242L70.5071 32.4793L70.4453 32.417C70.2311 32.186 70.1142 31.8803 70.1194 31.5643C70.1245 31.2482 70.2512 30.9466 70.4728 30.7227L69.0438 32.1577L68.9614 32.2476C68.6054 32.6501 68.4157 33.1743 68.431 33.7129C68.4464 34.2516 68.6656 34.764 69.0438 35.1453L71.4277 37.5451L73.4887 35.4703C73.5024 35.4773 71.7162 33.6861 70.5655 32.5242Z" fill="url(#paint1_linear)"/>
<path d="M74.1204 34.7322C74.6952 34.7322 75.1612 34.2631 75.1612 33.6845C75.1612 33.1058 74.6952 32.6367 74.1204 32.6367C73.5456 32.6367 73.0796 33.1058 73.0796 33.6845C73.0796 34.2631 73.5456 34.7322 74.1204 34.7322Z" fill="#00EEBC"/>
<path d="M73.5164 31.8638L71.4555 29.7891L69.0647 32.1785C68.6725 32.5739 68.4521 33.11 68.4521 33.6688C68.4521 34.2277 68.6725 34.7637 69.0647 35.1592L69.6521 35.7505C69.6521 35.7505 73.5645 31.8638 73.5164 31.8638Z" fill="#00EEBC"/>
<path d="M70.5826 32.5541L70.5242 32.4953L70.4726 32.4331C70.2553 32.2119 70.1321 31.9143 70.1291 31.6032C70.1258 31.2817 70.2494 30.9721 70.4726 30.7422L69.0643 32.1772C69.034 32.2055 69.0053 32.2355 68.9784 32.2671C68.6207 32.6679 68.4294 33.1916 68.4441 33.7301C68.4588 34.2687 68.6784 34.781 69.0574 35.1614L71.4379 37.5612L73.4989 35.4864C73.516 35.4933 71.7333 33.7056 70.5826 32.5541Z" fill="url(#paint2_linear)"/>
<path d="M106.641 34.3493C105.848 37.5456 102.726 39.5659 99.6806 38.883C96.6355 38.2 94.7929 35.0662 95.5863 31.8699C96.3796 28.6736 99.5016 26.6533 102.547 27.3362C105.592 28.0192 107.434 31.153 106.641 34.3493Z" fill="white" stroke="#F1F1F1" stroke-width="0.352941"/>
<path d="M99.0457 36.1976L99.3542 35.4657L99.0999 35.4039L97.8779 35.1382L100.156 29.7379C100.163 29.7216 100.176 29.7077 100.191 29.6993C100.207 29.6909 100.224 29.6882 100.241 29.6918L102.302 30.1398C102.986 30.2885 103.42 30.5388 103.592 30.8838C103.672 31.0456 103.709 31.2045 103.705 31.3694C103.7 31.5425 103.65 31.7397 103.552 31.9721L103.545 31.9891L103.506 32.1431L103.604 32.2362C103.687 32.3109 103.749 32.389 103.79 32.472C103.859 32.6104 103.885 32.7728 103.867 32.9548C103.849 33.142 103.784 33.3556 103.676 33.5896C103.552 33.8589 103.404 34.0848 103.238 34.2598C103.084 34.4211 102.91 34.5447 102.72 34.6283C102.538 34.7076 102.335 34.7536 102.115 34.7636C101.903 34.7741 101.669 34.7519 101.42 34.6978L101.259 34.6629C101.145 34.638 101.022 34.6566 100.915 34.7144C100.808 34.7737 100.722 34.8682 100.675 34.9814L100.645 35.0469L100.101 36.3368L100.079 36.3837C100.073 36.3987 100.066 36.4055 100.059 36.4094C100.052 36.413 100.043 36.4145 100.036 36.4128L99.0457 36.1976Z" fill="#253B80"/>
<path d="M103.812 32.0557C103.795 32.0952 103.778 32.1354 103.759 32.1765C103.116 33.5653 102.058 33.8632 100.87 33.6049L100.265 33.4734C100.119 33.4418 99.9688 33.5246 99.9081 33.6683L99.0769 35.6382L98.8414 36.1966C98.8017 36.2909 98.8517 36.3947 98.9467 36.4153L100.02 36.6486C100.147 36.6762 100.279 36.6039 100.332 36.4783L100.358 36.4241L100.9 35.1385L100.932 35.0683C100.985 34.9422 101.117 34.87 101.244 34.8976L101.405 34.9325C102.445 35.1585 103.37 34.8977 103.932 33.6828C104.167 33.1752 104.229 32.7222 104.046 32.3544C103.99 32.2434 103.911 32.1442 103.812 32.0557Z" fill="#179BD7"/>
<path d="M103.532 31.8988C103.493 31.8771 103.452 31.8561 103.411 31.8361C103.369 31.8163 103.325 31.7973 103.28 31.7793C103.123 31.7158 102.945 31.6634 102.752 31.6214L101.12 31.2664C101.08 31.2577 101.039 31.2588 101.001 31.2685C100.916 31.2896 100.841 31.3514 100.805 31.439L99.8738 33.6448L99.8467 33.7092C99.908 33.564 100.06 33.4804 100.207 33.5123L100.818 33.6452C102.017 33.9061 103.086 33.6049 103.735 32.2022C103.754 32.1607 103.772 32.12 103.788 32.0802C103.729 32.0268 103.662 31.9777 103.588 31.9323C103.57 31.921 103.551 31.9098 103.532 31.8988Z" fill="#222D65"/>
<path d="M100.794 31.4218C100.83 31.3351 100.904 31.274 100.988 31.2532C101.027 31.2438 101.067 31.2426 101.106 31.2512L102.723 31.6026C102.914 31.6442 103.09 31.6961 103.246 31.7589C103.291 31.7768 103.334 31.7955 103.375 31.8152C103.417 31.835 103.456 31.8557 103.495 31.8773C103.514 31.8882 103.533 31.8992 103.551 31.9102C103.624 31.9552 103.69 32.004 103.749 32.0566C103.967 31.5391 103.979 31.157 103.784 30.7665C103.57 30.3364 103.055 30.0603 102.344 29.9058L100.282 29.4576C100.137 29.426 99.985 29.5085 99.9245 29.6525L97.6203 35.112C97.5747 35.22 97.6321 35.3388 97.7407 35.3625L99.0139 35.6392L99.8719 33.6055L100.794 31.4218Z" fill="#253B80"/>
<path d="M130.419 51.3584C128.312 53.8151 124.657 54.1116 122.256 52.0289C119.854 49.9462 119.609 46.2668 121.716 43.8101C123.823 41.3534 127.479 41.057 129.88 43.1397C132.282 45.2224 132.527 48.9017 130.419 51.3584Z" fill="white" stroke="#F1F1F1" stroke-width="0.352941"/>
<path d="M129.49 47.7992C129.501 47.6804 129.512 47.5616 129.523 47.4429L125.21 46.6196L124.513 44.6009C124.4 44.6686 124.307 44.7348 124.216 44.8206L124.949 46.9444L129.49 47.7992Z" fill="#1A9F29"/>
<path d="M124.682 47.2377L123.936 45.0696C123.881 45.1132 123.827 45.1762 123.782 45.2288C122.601 46.6055 122.736 48.6839 124.106 49.8717C125.465 51.0505 127.53 50.8993 128.72 49.5121C129.072 49.1022 129.312 48.6324 129.424 48.1431L124.682 47.2377Z" fill="#1A9F29"/>
<path d="M129.502 47.0654C129.492 46.9286 129.465 46.8128 129.446 46.6866L125.747 45.9922L125.149 44.2802C125.044 44.3179 124.931 44.366 124.817 44.4142L125.466 46.2991L129.502 47.0654Z" fill="#1A9F29"/>
<path d="M129.336 46.305C129.288 46.1713 129.24 46.0375 129.172 45.9052L126.284 45.3639L125.845 44.1208C125.729 44.1299 125.614 44.1585 125.488 44.1781L126.002 45.6707L129.336 46.305Z" fill="#1A9F29"/>
<path fill-rule="evenodd" clip-rule="evenodd" d="M87.9132 25.0938C92.0512 24.7477 95.0696 21.0324 94.6549 16.7954C94.2402 12.5585 90.5495 9.40432 86.4115 9.75044C82.2735 10.0966 79.2551 13.8119 79.6698 18.0488C80.0845 22.2858 83.7752 25.44 87.9132 25.0938ZM87.7015 12.9206C87.2577 12.9016 86.8886 13.2365 86.8772 13.6686C86.8657 14.1006 87.2162 14.4663 87.66 14.4853C88.1037 14.5044 88.4729 14.1695 88.4844 13.7374C88.4958 13.3054 88.1452 12.9396 87.7015 12.9206ZM88.3841 15.5996L86.7857 15.5314C86.6699 15.5264 86.5786 15.4306 86.5817 15.3174C86.5847 15.2043 86.6809 15.1166 86.7967 15.1216L88.3951 15.1898C88.511 15.1947 88.6024 15.2904 88.5994 15.4035C88.5964 15.5168 88.4999 15.6046 88.3841 15.5996ZM84.8857 17.2993C84.7314 17.2927 84.6093 17.1652 84.6134 17.0141C84.6175 16.8632 84.7461 16.7461 84.9004 16.7527C85.0548 16.7593 85.1766 16.8871 85.1726 17.038C85.1685 17.1891 85.0401 17.3059 84.8857 17.2993ZM82.6945 17.3562C82.6917 17.0003 82.8646 16.6811 83.0928 16.4289C83.156 16.3591 83.1199 16.328 83.0736 16.2882C83.0568 16.2737 83.0386 16.258 83.0234 16.2389C83.0102 16.2226 82.9982 16.2026 82.9863 16.1827C82.9511 16.1242 82.9164 16.0664 82.8558 16.1049C82.2113 16.5149 81.883 17.2924 82.1583 18.0783C82.4089 18.7933 83.1103 19.1094 83.7539 19.0308C84.2276 18.9725 84.578 18.9396 84.8366 19.4095L85.4275 20.4854C85.4823 20.5846 85.516 20.6078 85.6034 20.6115L86.5533 20.6521C86.6256 20.6552 86.6456 20.6031 86.6654 20.5127C86.7442 20.1528 87.0772 19.8919 87.4681 19.9086C87.8637 19.9255 88.1847 20.2205 88.2388 20.5921C88.2537 20.696 88.2789 20.7257 88.3536 20.7289L89.2926 20.769C89.3586 20.7718 89.4 20.7736 89.4597 20.6789L91.0168 18.22L91.02 18.2144C91.1345 18.3929 91.3424 18.4753 91.4997 18.4789C91.5361 18.4796 91.5499 18.4402 91.5198 18.4093C91.3803 18.2657 91.2837 18.067 91.2757 17.8012C91.2724 17.6887 91.2909 17.5818 91.3128 17.4556C91.4607 16.6094 91.0808 15.7129 90.2846 15.2218C89.9399 15.0094 89.5601 14.8992 89.1831 14.8834L86.0272 14.7487C85.6502 14.7323 85.2654 14.8099 84.9101 14.9923C84.057 15.4309 83.6309 16.3443 83.7806 17.2338C83.8389 17.5786 83.8253 17.9826 83.5 18.1162C83.1392 18.2642 82.7001 18.0473 82.6945 17.3562ZM83.3105 14.7904C83.5279 14.7742 83.723 14.9252 83.747 15.1361C83.7727 15.3654 83.6509 15.8095 83.2701 16.044C83.2456 16.0592 83.2288 16.0464 83.2392 16.0056C83.2652 15.9033 83.2552 15.7806 83.2096 15.6604C83.1714 15.5596 83.122 15.4974 83.0769 15.4406C83.0236 15.3735 82.9763 15.314 82.9608 15.2073C82.9302 14.9973 83.0884 14.807 83.3105 14.7904Z" fill="#14BC1F"/>
</g>
<defs>
<linearGradient id="paint0_linear" x1="141.158" y1="116.079" x2="141.158" y2="61.5352" gradientUnits="userSpaceOnUse">
<stop stop-color="#808080" stop-opacity="0.25"/>
<stop offset="0.53514" stop-color="#808080" stop-opacity="0.12"/>
<stop offset="1" stop-color="#808080" stop-opacity="0.1"/>
</linearGradient>
<linearGradient id="paint1_linear" x1="69.0266" y1="32.2165" x2="72.9028" y2="36.067" gradientUnits="userSpaceOnUse">
<stop stop-color="#00A9F9"/>
<stop offset="0.99" stop-color="#0B89EA"/>
</linearGradient>
<linearGradient id="paint2_linear" x1="77.7963" y1="79.6342" x2="150.808" y2="133.765" gradientUnits="userSpaceOnUse">
<stop stop-color="#00A9F9"/>
<stop offset="0.99" stop-color="#0B89EA"/>
</linearGradient>
<clipPath id="clip0">
<rect width="192" height="124" fill="white"/>
</clipPath>
</defs>
</svg>
