<svg width="192" height="124" viewBox="0 0 192 124" fill="none" xmlns="http://www.w3.org/2000/svg">
<g clip-path="url(#clip0)">
<path d="M148.919 88.572C146.227 99.1129 138.903 110.581 128.82 114.882C118.737 119.184 105.877 116.359 93.456 112.849C81.0352 109.34 69.0536 105.147 59.1091 95.3618C49.2051 85.5879 41.3159 70.1724 45.6278 55.6419C49.9396 41.1114 66.4303 27.4163 84.9771 19.0866C103.513 10.7321 124.094 7.7182 134.877 15.2555C145.678 22.7544 146.64 40.7933 148.132 54.6311C149.613 68.4441 151.582 78.0447 148.919 88.572Z" fill="#F2F9FD"/>
<path d="M137.981 52.2682L138.756 58.6411C137.805 60.5342 136.798 62.6864 135.838 65.0079L134.013 55.3983L133.921 55.4839C135.255 54.1109 136.658 52.9933 138.075 52.1914L137.981 52.2682Z" fill="#14BC1F"/>
<path d="M138.923 58.311L138.173 52.1377C139.767 51.2525 141.377 50.7688 142.926 50.7775C143.006 50.7779 143.086 50.7807 143.166 50.7838C142.854 51.2675 141.048 54.1189 138.923 58.311Z" fill="#14BC1F"/>
<path d="M126.526 68.2536L126.443 68.3682C126.72 67.5106 127.026 66.6704 127.359 65.8477L132.064 76.5696L132.104 76.5187C131.985 77.0463 131.875 77.5687 131.775 78.086L126.526 68.2536Z" fill="#14BC1F"/>
<path d="M129.711 61.1292L129.622 61.2313C130.8 59.1859 132.212 57.2896 133.829 55.582L135.688 65.3748C134.798 67.5548 134.03 69.6828 133.386 71.7588L129.711 61.1292Z" fill="#14BC1F"/>
<path d="M150.553 60.625C150.676 62.3089 150.632 64.0012 150.422 65.6761L134.015 70.3634C134.609 68.5741 135.249 66.881 135.885 65.3286L150.533 60.7661L150.553 60.625Z" fill="#14BC1F"/>
<path d="M150.125 67.6208L150.147 67.4795L133.5 71.9783C133.636 71.5359 133.774 71.0986 133.916 70.6662L150.383 65.9616L150.405 65.8203C150.331 66.4106 150.238 67.0108 150.125 67.6208Z" fill="#14BC1F"/>
<path d="M127.51 65.579L127.424 65.688C128.034 64.1995 128.743 62.7547 129.545 61.3633L133.269 72.1367C132.847 73.5235 132.483 74.8818 132.175 76.2116L127.51 65.579Z" fill="#14BC1F"/>
<path d="M131.014 84.0542C130.844 87.1303 131.064 89.9721 131.674 92.5475C130.381 90.6641 125.344 82.8052 125.345 74.6562L131.014 84.0542Z" fill="#14BC1F"/>
<path d="M148.039 74.1445C147.352 75.5276 146.575 76.8624 145.713 78.1398L145.729 77.9844L131.224 83.7739C131.335 82.0533 131.547 80.3411 131.86 78.6464L148.039 74.1445Z" fill="#14BC1F"/>
<path d="M139.071 58.3885C141.37 53.8536 143.292 50.9051 143.319 50.8629L143.266 50.7852C145.616 50.9103 147.479 52.1953 148.742 54.307L139.071 58.3885Z" fill="#14BC1F"/>
<path d="M131.699 78.4887C131.669 78.6493 131.638 78.8105 131.61 78.9701C131.338 80.5004 131.148 82.0447 131.041 83.596L125.427 74.2871L125.347 74.4016C125.359 72.9669 125.55 71.5396 125.915 70.1537C126.06 69.6098 126.218 69.0716 126.388 68.5391L131.699 78.4887Z" fill="#14BC1F"/>
<path d="M136.013 65.0195C136.964 62.7251 137.96 60.5986 138.9 58.7276L148.794 54.5524L148.806 54.4141C149.741 56.0231 150.335 58.0973 150.542 60.4942L136.013 65.0195Z" fill="#14BC1F"/>
<path d="M131.207 84.0479L145.606 78.3008C140.44 85.962 132.508 92.5348 132.001 92.9512C131.249 90.1077 131.042 87.0877 131.207 84.0479Z" fill="#14BC1F"/>
<path d="M131.92 78.3577L131.915 78.3483C132.306 76.2969 132.805 74.2683 133.41 72.2715L150.099 67.7617C149.942 68.5875 149.75 69.4281 149.522 70.2837C149.185 71.5045 148.74 72.6916 148.191 73.8301L131.92 78.3577Z" fill="#14BC1F"/>
<path d="M109.85 79.1355L114.442 83.5412C114.896 85.6163 115.47 87.9274 116.186 90.3386L108.756 84.1211L108.739 84.2468C108.905 82.324 109.285 80.5528 109.874 79.0156L109.85 79.1355Z" fill="#14BC1F"/>
<path d="M114.363 83.1791L109.915 78.9115C110.588 77.1952 111.525 75.7777 112.723 74.7795C112.785 74.7276 112.848 74.6781 112.911 74.6289C112.975 75.2033 113.371 78.5719 114.363 83.1791Z" fill="#14BC1F"/>
<path d="M111.048 98.878L111.055 99.0205C110.731 98.1801 110.44 97.3347 110.181 96.4844L120.526 101.69L120.525 101.624C120.764 102.108 121.007 102.581 121.254 103.045L111.048 98.878Z" fill="#14BC1F"/>
<path d="M109.035 91.3232L109.03 91.4596C108.655 89.1197 108.554 86.743 108.728 84.3789L116.299 90.7148C116.98 92.9717 117.723 95.1086 118.529 97.1255L109.035 91.3232Z" fill="#14BC1F"/>
<path d="M124.772 77.4141C125.923 78.6307 126.95 79.9626 127.837 81.3893L118.139 95.6461C117.475 93.8823 116.907 92.1632 116.424 90.5545L124.845 77.5356L124.772 77.4141Z" fill="#14BC1F"/>
<path d="M128.826 83.076L128.755 82.9527L118.754 97.22C118.581 96.7916 118.413 96.3649 118.251 95.94L127.985 81.6305L127.913 81.5078C128.226 82.0104 128.53 82.5331 128.826 83.076Z" fill="#14BC1F"/>
<path d="M110.13 96.1806L110.132 96.3205C109.669 94.7779 109.309 93.2052 109.054 91.6133L118.677 97.494C119.221 98.8359 119.792 100.119 120.389 101.342L110.13 96.1806Z" fill="#14BC1F"/>
<path d="M124.41 108.138C126.207 110.618 128.158 112.664 130.243 114.251C128.066 113.64 119.26 110.855 114.152 104.578L124.41 108.138Z" fill="#14BC1F"/>
<path d="M131.31 89.457C131.648 90.9678 131.886 92.4999 132.023 94.0431L131.938 93.9133L124.396 107.784C123.403 106.387 122.493 104.931 121.671 103.423L131.31 89.457Z" fill="#14BC1F"/>
<path d="M114.527 83.1426C113.455 78.1576 113.086 74.6399 113.081 74.5894L112.992 74.564C114.88 73.1353 117.12 72.9163 119.417 73.723L114.527 83.1426Z" fill="#14BC1F"/>
<path d="M121.448 103.404C121.526 103.547 121.603 103.691 121.682 103.833C122.431 105.188 123.253 106.501 124.143 107.765L113.983 104.239L113.994 104.378C113.104 103.265 112.356 102.042 111.768 100.738C111.539 100.225 111.323 99.7079 111.12 99.1875L121.448 103.404Z" fill="#14BC1F"/>
<path d="M116.328 90.2353C115.622 87.851 115.056 85.5669 114.607 83.516L119.61 73.8802L119.532 73.7656C121.261 74.3982 123.019 75.6103 124.681 77.3225L116.328 90.2353Z" fill="#14BC1F"/>
<path d="M124.555 108.004L132.042 94.2344C132.866 103.487 130.877 113.697 130.748 114.346C128.386 112.644 126.334 110.453 124.555 108.004Z" fill="#14BC1F"/>
<path d="M121.537 103.161L121.528 103.157C120.543 101.323 119.656 99.4364 118.87 97.5056L128.896 83.2031C129.293 83.9405 129.672 84.7127 130.033 85.5197C130.539 86.6786 130.94 87.8819 131.231 89.1149L121.537 103.161Z" fill="#14BC1F"/>
<path d="M148.217 79.3561L147.018 85.6605C145.538 87.1619 143.927 88.892 142.308 90.7978L143.493 81.0851L143.379 81.1375C145.064 80.2512 146.738 79.6295 148.33 79.3125L148.217 79.3561Z" fill="#14BC1F"/>
<path d="M147.278 85.397L148.44 79.2901C150.225 78.9495 151.903 78.9959 153.373 79.4912C153.45 79.517 153.524 79.5447 153.599 79.5726C153.156 79.9348 150.572 82.0783 147.278 85.397Z" fill="#14BC1F"/>
<path d="M132.466 90.9519L132.352 91.0347C132.876 90.3062 133.422 89.6032 133.99 88.9258L135.206 100.602L135.26 100.566C134.986 101.031 134.723 101.493 134.471 101.953L132.466 90.9519Z" fill="#14BC1F"/>
<path d="M137.661 85.1799L137.545 85.249C139.287 83.6742 141.206 82.3148 143.262 81.1992L142.055 91.097C140.546 92.8903 139.17 94.6728 137.926 96.4446L137.661 85.1799Z" fill="#14BC1F"/>
<path d="M157.633 91.2564C157.239 92.8968 156.684 94.4924 155.974 96.0191L138.946 95.3172C140.055 93.8025 141.178 92.3935 142.255 91.1172L157.572 91.3844L157.633 91.2564Z" fill="#14BC1F"/>
<path d="M155.103 97.7714L155.167 97.6441L137.968 96.6875C138.231 96.3093 138.496 95.9369 138.762 95.5703L155.853 96.2747L155.916 96.1471C155.666 96.6853 155.395 97.2267 155.103 97.7714Z" fill="#14BC1F"/>
<path d="M134.214 88.7209L134.099 88.7975C135.132 87.5739 136.245 86.4227 137.43 85.3516L137.699 96.7686C136.877 97.9549 136.117 99.1319 135.421 100.3L134.214 88.7209Z" fill="#14BC1F"/>
<path d="M131.934 107.392C130.837 110.264 130.183 113.036 129.981 115.677C129.323 113.479 126.921 104.421 129.398 96.6719L131.934 107.392Z" fill="#14BC1F"/>
<path d="M151.136 103.322C150.063 104.421 148.919 105.447 147.711 106.39L147.773 106.248L132.22 107.192C132.848 105.591 133.57 104.029 134.382 102.516L151.136 103.322Z" fill="#14BC1F"/>
<path d="M147.393 85.517C150.958 81.9274 153.681 79.7275 153.721 79.6961L153.694 79.6055C155.891 80.4636 157.272 82.2714 157.832 84.6769L147.393 85.517Z" fill="#14BC1F"/>
<path d="M134.277 102.312C134.2 102.456 134.122 102.599 134.047 102.742C133.323 104.112 132.673 105.521 132.1 106.962L129.588 96.3439L129.478 96.4279C129.926 95.0673 130.54 93.7697 131.308 92.5664C131.612 92.0949 131.926 91.6327 132.249 91.1797L134.277 102.312Z" fill="#14BC1F"/>
<path d="M142.471 90.8638C144.073 88.9808 145.666 87.2717 147.128 85.7879L157.806 84.9284L157.86 84.8008C158.26 86.6251 158.195 88.7845 157.663 91.1289L142.471 90.8638Z" fill="#14BC1F"/>
<path d="M132.12 107.445L147.56 106.508C140.319 112.169 130.779 115.926 130.17 116.162C130.319 113.222 131.04 110.284 132.12 107.445Z" fill="#14BC1F"/>
<path d="M134.527 102.261L134.525 102.25C135.52 100.422 136.611 98.65 137.794 96.9414L155.035 97.9004C154.635 98.6366 154.197 99.3756 153.72 100.117C153.029 101.173 152.244 102.161 151.377 103.072L134.527 102.261Z" fill="#14BC1F"/>
<path d="M152.503 118.235C152.503 118.235 116.33 103.653 72.649 118.235Z" fill="#3D414D"/>
<path d="M126.204 107.045C126.176 107.435 126.129 107.824 126.062 108.209C126.062 108.209 122.949 110.362 122.7 107.956C122.538 106.387 122.904 105.679 123.181 105.376L123.185 105.372C123.351 105.193 123.445 104.957 123.447 104.711V101.875L126.187 102.762L126.062 105.169C126.246 105.669 126.249 106.416 126.204 107.045Z" fill="#FDB797"/>
<path opacity="0.05" d="M126.205 107.048C126.177 107.438 126.129 107.827 126.063 108.212C126.063 108.212 122.95 110.366 122.701 107.959C122.539 106.39 122.905 105.682 123.181 105.379C123.289 105.296 123.418 105.245 123.553 105.231C123.687 105.216 123.823 105.24 123.946 105.298C124.444 105.073 124.992 105.449 125.445 105.936C125.752 106.265 126.008 106.64 126.205 107.048Z" fill="black"/>
<path d="M123.946 105.552C123.946 105.552 122.576 104.792 122.327 108.213C122.078 111.633 121.953 111.253 121.953 111.253C121.953 111.253 120.708 114.293 123.323 113.913C125.938 113.533 127.183 113.28 127.058 111.76C126.983 110.843 126.773 109.513 126.617 108.601C126.469 107.697 126.061 106.858 125.445 106.189C124.991 105.703 124.444 105.327 123.946 105.552Z" fill="#2F2E41"/>
<path d="M109.318 109.9L107.89 110.601C107.89 110.601 103.431 111.297 104.845 108.714C105.255 107.942 105.567 107.12 105.775 106.269C106.073 105.084 106.239 103.868 106.269 102.645L110.042 103.18C108.812 104.847 108.968 107.551 109.158 108.967C109.235 109.538 109.318 109.9 109.318 109.9Z" fill="#FDB797"/>
<path opacity="0.05" d="M109.318 109.901L107.89 110.601C107.89 110.601 103.431 111.298 104.845 108.714C105.255 107.942 105.567 107.121 105.775 106.27C106.642 106.439 107.301 107.708 107.301 107.708C108 110.176 108.628 109.559 109.158 108.968C109.235 109.538 109.318 109.901 109.318 109.901Z" fill="black"/>
<path d="M107.218 107.947C107.218 107.947 106.106 105.807 104.873 106.711C103.64 107.614 104.252 108.905 100.257 110.169C96.2617 111.434 98.9018 114.116 101.346 113.911C103.791 113.706 109.002 112.74 109.002 112.74C109.002 112.74 110.357 108.794 109.728 108.704C109.099 108.615 108.231 111.527 107.218 107.947Z" fill="#2F2E41"/>
<path opacity="0.3" d="M101.511 113.433C99.9236 113.566 98.2549 112.482 98.3721 111.359C97.6138 112.627 99.5334 114.063 101.346 113.911C103.791 113.707 109.002 112.741 109.002 112.741C109.002 112.741 109.066 112.555 109.159 112.263C109.007 112.292 103.918 113.231 101.511 113.433Z" fill="white"/>
<path opacity="0.3" d="M127.052 111.688C126.908 112.827 125.666 113.067 123.323 113.407C122.131 113.58 121.743 113.043 121.671 112.407C121.593 113.222 121.82 114.132 123.323 113.914C125.938 113.534 127.183 113.281 127.058 111.76C127.056 111.737 127.054 111.712 127.052 111.688Z" fill="white"/>
<path d="M132.748 62.2431L133.161 68.5508C133.161 68.5508 133.492 74.9426 130.929 75.4472C128.366 75.9518 130.929 67.2893 130.929 67.2893V61.5703L132.748 62.2431Z" fill="#FDB797"/>
<path d="M130.598 39.2812L130.929 40.0382C130.929 40.0382 130.846 45.3366 130.929 45.7571C131.011 46.1776 132.086 49.4576 132.086 49.794C132.086 50.1305 132.913 59.8863 133.078 60.4751C133.243 61.0638 133.987 62.914 133.326 63.1663C132.665 63.4186 131.425 62.4094 130.929 63.1663C130.433 63.9233 130.019 63.1663 130.019 62.914C130.019 62.6617 129.854 57.8679 128.862 56.5222C127.87 55.1766 126.961 52.1489 126.795 51.5602C126.63 50.9715 126.382 42.4771 126.299 42.3089C126.217 42.1407 126.63 39.87 126.63 39.87L130.598 39.2812Z" fill="#626673"/>
<path d="M125.886 48.1953C125.886 48.1953 126.878 52.1481 127.54 52.905C128.201 53.662 131.507 59.2968 130.516 66.7819C129.524 74.267 127.788 84.0229 127.788 84.0229C127.788 84.0229 127.54 87.4711 127.87 88.3962C128.201 89.3214 126.382 104.039 126.382 104.039C126.382 104.039 123.82 106.058 122.414 103.535C122.414 103.535 122.745 98.068 122.414 97.5634C122.084 97.0588 122.414 87.9757 122.414 87.9757C122.414 87.9757 122.166 65.3522 120.844 66.2773C119.521 67.2025 115.47 82.9296 115.47 82.9296C115.47 82.9296 113.735 88.985 113.817 89.4896C113.9 89.9942 112.329 96.3019 112.329 96.3019C112.329 96.3019 110.841 105.049 110.263 105.217C109.684 105.385 106.129 105.469 105.799 104.544L106.791 96.6383C106.791 96.6383 107.783 87.6393 108.279 86.3778C108.775 85.1163 109.601 67.2025 111.999 61.904C111.999 61.904 112.908 53.4097 113.569 52.1481C113.569 52.1481 113.957 50.415 113.478 48.7971C113.478 48.7971 124.977 48.8681 125.886 48.1953Z" fill="#3D414D"/>
<path d="M120.968 32.4255C117.133 32.4255 114.024 28.4154 114.024 23.4686C114.024 18.5219 117.133 14.5117 120.968 14.5117C124.803 14.5117 127.912 18.5219 127.912 23.4686C127.912 28.4154 124.803 32.4255 120.968 32.4255Z" fill="#2F2E41"/>
<path d="M106.708 33.9824L107.783 36.3373L120.513 40.1219C120.513 40.1219 129.358 42.7291 130.267 38.5239C131.177 34.3188 126.795 33.8983 126.795 33.8983C126.795 33.8983 125.142 32.7209 123.076 31.5434C122.384 31.149 122.155 30.5107 122.157 29.8353C122.159 29.6345 122.177 29.4341 122.213 29.2365C122.252 29.0081 122.308 28.7827 122.378 28.562C122.553 28.0173 122.787 27.494 123.076 27.0019C123.076 27.0019 117.62 24.8152 117.702 25.9927C117.737 26.4168 117.692 26.8438 117.57 27.2508C117.457 27.6073 117.305 27.9495 117.116 28.271C117.024 28.4333 116.92 28.6015 116.805 28.7798C116.657 29.0111 116.487 29.2575 116.297 29.525C115.222 31.0388 111.668 31.0388 111.668 31.0388C108.857 30.7024 106.708 33.9824 106.708 33.9824Z" fill="#FDB797"/>
<path d="M93.5643 47.4375C93.5643 47.4375 87.6125 51.8949 86.4552 51.8108C85.2978 51.7267 78.5193 51.3062 80.09 52.9042C81.6606 54.5021 88.7698 53.4929 88.7698 53.4929L95.3003 49.2878L93.5643 47.4375Z" fill="#FDB797"/>
<path opacity="0.1" d="M117.57 27.2509C118.171 27.9039 118.94 28.3728 119.79 28.6045C120.639 28.8362 121.536 28.8215 122.378 28.562C122.553 28.0173 122.787 27.494 123.075 27.0019C123.075 27.0019 117.619 24.8152 117.702 25.9927C117.737 26.4168 117.692 26.8438 117.57 27.2509Z" fill="black"/>
<path d="M121.009 28.1775C118.406 28.1775 116.297 26.0312 116.297 23.3837C116.297 20.7361 118.406 18.5898 121.009 18.5898C123.611 18.5898 125.721 20.7361 125.721 23.3837C125.721 26.0312 123.611 28.1775 121.009 28.1775Z" fill="#FDB797"/>
<path d="M126.878 37.3449C126.878 37.3449 106.377 32.6352 106.294 33.308C106.212 33.9808 105.385 35.3264 105.385 35.3264L110.179 40.8772C110.179 40.8772 109.601 43.5685 110.758 44.1572C111.915 44.7459 112.081 49.2033 113.155 49.2874C114.23 49.3715 126.795 49.2033 126.878 48.5305C126.96 47.8577 126.547 47.4372 126.878 47.269C127.208 47.1008 127.704 47.1008 127.291 46.2597C126.878 45.4187 126.878 41.8864 126.878 41.8864L130.763 40.0362C130.763 40.0362 131.296 38.469 130.327 38.2013C129.358 37.9336 126.878 37.3449 126.878 37.3449Z" fill="#626673"/>
<path d="M106.129 35.1602H105.385C105.385 35.1602 103.153 36.674 102.575 38.0196C101.996 39.3653 99.9296 41.1314 99.4336 41.636C98.9376 42.1406 92.159 46.9345 92.2417 47.6073C92.3244 48.2801 94.2257 48.9529 94.3083 49.7099C94.391 50.4668 93.4817 50.8032 94.0603 50.8032C94.639 50.8032 98.1936 48.7006 99.5162 47.9437C100.839 47.1868 103.567 45.0001 103.897 44.4114C104.228 43.8227 106.46 42.8135 106.708 42.393C106.956 41.9724 110.841 40.0381 110.841 40.0381L106.129 35.1602Z" fill="#626673"/>
<path d="M127.912 20.7341C126.451 20.7341 125.267 19.5292 125.267 18.0428C125.267 16.5565 126.451 15.3516 127.912 15.3516C129.373 15.3516 130.557 16.5565 130.557 18.0428C130.557 19.5292 129.373 20.7341 127.912 20.7341Z" fill="#2F2E41"/>
<path d="M116.256 17.2029C114.795 17.2029 113.61 15.9979 113.61 14.5116C113.61 13.0252 114.795 11.8203 116.256 11.8203C117.717 11.8203 118.901 13.0252 118.901 14.5116C118.901 15.9979 117.717 17.2029 116.256 17.2029Z" fill="#2F2E41"/>
<path d="M120.348 23.3426C117.631 23.3426 115.429 21.9682 115.429 20.2729C115.429 18.5775 117.631 17.2031 120.348 17.2031C123.064 17.2031 125.266 18.5775 125.266 20.2729C125.266 21.9682 123.064 23.3426 120.348 23.3426Z" fill="#2F2E41"/>
<path d="M117.117 28.2695C119.383 29.177 121.175 29.2846 122.213 29.235C122.178 29.4327 122.159 29.633 122.158 29.8338C122.037 29.8389 121.907 29.8414 121.769 29.8414C120.622 29.8414 118.91 29.6387 116.806 28.7783L117.117 28.2695Z" fill="#2F2E41"/>
<path d="M26.0452 53.707H87.0394C88.9487 53.707 90.4966 55.2818 90.4966 57.2244V91.5449C90.4966 93.4875 88.9487 95.0623 87.0394 95.0623H26.0452C24.1358 95.0623 22.588 93.4875 22.588 91.5449V57.2244C22.588 55.2818 24.1358 53.707 26.0452 53.707Z" fill="#0291CF"/>
<path opacity="0.3" d="M29.9443 82.7148H83.1743V84.6841H29.9443V82.7148Z" fill="#F2F9FD"/>
<path opacity="0.3" d="M29.9101 77.543H83.1401V79.5123H29.9101V77.543Z" fill="#F2F9FD"/>
<path opacity="0.3" d="M29.9099 70.4883H39.4268V72.4576H29.9099V70.4883Z" fill="#F2F9FD"/>
<path opacity="0.3" d="M29.91 65.2344H64.7515V67.2037H29.91V65.2344Z" fill="#F2F9FD"/>
<path opacity="0.3" d="M56.5249 87.9648H83.1743V89.9341H56.5249V87.9648Z" fill="#F2F9FD"/>
<path d="M71.3917 58.8359H81.5004C82.406 58.8359 83.1401 59.5828 83.1401 60.5042V70.7887C83.1401 71.71 82.406 72.4569 81.5004 72.4569H71.3917C70.4861 72.4569 69.752 71.71 69.752 70.7887V60.5042C69.752 59.5828 70.4861 58.8359 71.3917 58.8359Z" fill="#F2F9FD"/>
</g>
<defs>
<clipPath id="clip0">
<rect width="192" height="124" fill="white"/>
</clipPath>
</defs>
</svg>
