<svg width="192" height="124" viewBox="0 0 192 124" fill="none" xmlns="http://www.w3.org/2000/svg">
<g clip-path="url(#clip0)">
<path d="M140.82 86.8357C137.919 96.7574 130.028 107.551 119.165 111.6C108.302 115.649 94.4467 112.99 81.0647 109.687C67.6827 106.384 54.7738 102.437 44.0597 93.2266C33.3893 84.0268 24.8896 69.517 29.5351 55.8401C34.1807 42.1632 51.9475 29.2727 71.9297 21.4323C91.8999 13.5686 114.073 10.7318 125.691 17.8263C137.328 24.8846 138.365 41.8638 139.972 54.8887C141.567 67.8902 143.689 76.9268 140.82 86.8357Z" fill="#F2F9FD"/>
<path d="M72.4523 60.5202C72.4523 63.5256 71.7366 66.4879 70.3645 69.1619C68.9924 71.8359 67.0034 74.1447 64.5618 75.8973C63.8951 76.3785 63.1972 76.815 62.4728 77.204C58.5047 79.3281 53.9109 79.9729 49.5114 79.0233C48.5747 78.8223 47.655 78.549 46.7606 78.2058C43.5376 76.9738 40.7126 74.8844 38.5908 72.1634C36.4691 69.4424 35.1313 66.1933 34.722 62.7672C34.3128 59.3411 34.8476 55.8684 36.2688 52.7242C37.69 49.58 39.9434 46.884 42.7855 44.9275C45.6277 42.971 48.9505 41.8285 52.3948 41.6233C55.8392 41.4182 59.2741 42.1583 62.3284 43.7636C65.3826 45.3689 67.9401 47.7784 69.7244 50.7317C71.5087 53.685 72.452 57.0697 72.4523 60.5202Z" fill="white"/>
<path d="M50.6274 58.2668C50.6274 58.2668 51.1717 60.8518 51.1717 61.124C51.1717 61.3961 53.7567 62.6206 53.7567 62.6206L56.0696 62.2124L56.886 59.7634C56.886 59.7634 55.5254 57.7226 55.5254 56.9062L50.6274 58.2668Z" fill="#FDB797"/>
<path d="M52.4954 59.4536C54.8999 59.4536 56.8491 57.5044 56.8491 55.0999C56.8491 52.6953 54.8999 50.7461 52.4954 50.7461C50.0908 50.7461 48.1416 52.6953 48.1416 55.0999C48.1416 57.5044 50.0908 59.4536 52.4954 59.4536Z" fill="#69280A" fill-opacity="0.05"/>
<path d="M52.3279 59.2856C54.7324 59.2856 56.6816 57.3364 56.6816 54.9319C56.6816 52.5274 54.7324 50.5781 52.3279 50.5781C49.9234 50.5781 47.9741 52.5274 47.9741 54.9319C47.9741 57.3364 49.9234 59.2856 52.3279 59.2856Z" fill="#FDB797"/>
<path d="M53.5216 79.4537C52.1734 79.4544 50.8289 79.3112 49.5111 79.0265C49.4458 77.6947 49.4022 76.2271 49.4022 76.2271L48.0754 72.3774L45.3213 64.3915L50.992 60.0626C50.992 60.0626 52.3959 62.3494 54.4363 61.6692C55.0038 61.497 55.5023 61.15 55.8609 60.6777C56.2195 60.2054 56.4198 59.6319 56.4332 59.0391L63.1443 61.3978L61.985 70.8043L61.9197 71.3304L62.4725 77.2072C59.7213 78.6866 56.6454 79.4586 53.5216 79.4537Z" fill="#D7DEE6"/>
<path d="M48.5523 51.4269C48.5523 51.4269 49.9346 48.4319 52.584 49.1231C55.2334 49.8142 56.7309 50.851 56.8461 51.8877C56.9613 52.9244 56.7885 54.4795 56.7885 54.4795C56.7885 54.4795 56.5005 52.3485 54.6574 52.8092C52.8144 53.27 49.9346 52.9244 49.9346 52.9244L49.4738 57.0713C49.4738 57.0713 48.9554 56.3226 48.3795 56.7833C47.8035 57.2441 46.7092 52.3485 48.5523 51.4269Z" fill="#72351C"/>
<path d="M42.812 76.1325L43.6882 68.7446C43.5525 65.8866 45.3215 64.3906 45.3215 64.3906H47.362L48.858 69.4248L48.0756 72.3765L47.0906 76.0906L46.8175 76.4993C46.8175 76.4993 47.0906 76.9064 46.9532 77.0438C46.8175 77.1795 46.6818 77.7239 46.6818 77.7239C46.6818 77.7239 46.7103 77.9183 46.7606 78.2081C45.3665 77.6757 44.041 76.9789 42.812 76.1325Z" fill="#D7DEE6"/>
<path d="M67.9077 72.8273C66.9201 73.9822 65.7968 75.0137 64.5622 75.8997C64.3763 75.5698 64.2205 75.2239 64.0965 74.8661L61.9857 70.8036L60.5601 68.0629L60.8314 60.9883L63.145 61.397C63.145 61.397 64.5053 62.7573 65.0497 64.3907L66.1386 69.2875L67.906 72.8256L67.9077 72.8273Z" fill="#D7DEE6"/>
<path d="M65.751 51.6426C68.8042 51.6426 71.2793 49.1675 71.2793 46.1143C71.2793 43.0611 68.8042 40.5859 65.751 40.5859C62.6978 40.5859 60.2227 43.0611 60.2227 46.1143C60.2227 49.1675 62.6978 51.6426 65.751 51.6426Z" fill="#14BC1F"/>
<path d="M65.9725 43.3618C66.0174 43.0201 66.3341 42.7798 66.6796 42.8253C67.0252 42.8707 67.269 43.1847 67.2241 43.5264C67.1791 43.8681 66.8625 44.1082 66.5169 44.0628C66.1713 44.0173 65.9275 43.7034 65.9725 43.3618Z" fill="white"/>
<path d="M67.0325 44.9749L65.7809 44.8103C65.6902 44.7984 65.6264 44.716 65.6382 44.6264C65.65 44.5368 65.7329 44.4739 65.8236 44.4858L67.0752 44.6504C67.1659 44.6624 67.2299 44.7446 67.2181 44.8342C67.2063 44.9238 67.1232 44.9868 67.0325 44.9749ZM64.1397 46.0819C64.0189 46.066 63.9335 45.9564 63.9492 45.8367C63.9649 45.7173 64.0758 45.6332 64.1966 45.6491C64.3176 45.665 64.4028 45.7748 64.387 45.8943C64.3713 46.0139 64.2606 46.0978 64.1397 46.0819ZM62.4114 45.9756C62.4388 45.693 62.6013 45.4516 62.8017 45.2672C62.8774 45.1977 62.8018 45.1725 62.7629 45.1117C62.7276 45.0571 62.7103 44.9584 62.6422 44.9938C62.1012 45.2746 61.7785 45.8689 61.9298 46.5115C62.0676 47.0962 62.5931 47.3955 63.1058 47.3776C63.4833 47.3641 63.7616 47.3622 63.926 47.753C64.0352 48.0133 64.219 48.4509 64.3015 48.6476C64.3364 48.7301 64.3609 48.7508 64.4294 48.7598C64.6343 48.7867 65.1405 48.8533 65.1732 48.8576C65.2298 48.8651 65.2498 48.8251 65.2729 48.7547C65.3647 48.4746 65.6483 48.2906 65.9545 48.3309C66.2642 48.3716 66.4922 48.6279 66.5039 48.9265C66.507 49.01 66.5244 49.0353 66.5828 49.043C66.6067 49.0461 67.114 49.1129 67.3181 49.1397C67.3698 49.1465 67.4022 49.1508 67.457 49.0798C67.4834 49.0457 68.8858 47.2362 68.8858 47.2362L68.8888 47.232C68.964 47.3815 69.1208 47.4613 69.2442 47.475C69.2728 47.478 69.2868 47.4478 69.2658 47.4212C69.168 47.2976 69.1085 47.1332 69.1242 46.9217C69.131 46.8322 69.1544 46.7487 69.1821 46.65C69.3686 45.9888 69.1442 45.2511 68.5587 44.8064C68.3052 44.614 68.0156 44.5003 67.7204 44.4618L65.2492 44.1368C64.9541 44.0977 64.645 44.1327 64.3504 44.2529C63.6429 44.542 63.232 45.2373 63.2759 45.9535C63.2931 46.2311 63.2489 46.5508 62.982 46.6343C62.6859 46.7268 62.3585 46.5244 62.4114 45.9756Z" fill="white"/>
<path d="M63.3643 44.2883C63.3631 44.1197 63.2242 43.9868 63.054 43.9848C62.8802 43.9826 62.7416 44.1224 62.748 44.2907C62.754 44.4485 62.8572 44.4866 62.9037 44.6664C62.9292 44.7646 62.9269 44.8624 62.8982 44.9416C62.8868 44.9732 62.8988 44.9845 62.919 44.9741C63.234 44.8146 63.3653 44.4715 63.3643 44.2883Z" fill="white"/>
<path d="M103.765 89.8407C103.765 92.7632 102.941 95.6266 101.387 98.1017C99.8333 100.577 97.6123 102.563 94.9798 103.832C94.9784 103.832 94.9784 103.832 94.977 103.834C94.5051 104.062 94.0217 104.265 93.5287 104.443C93.4503 104.473 93.3706 104.5 93.2896 104.526C93.1247 104.586 92.957 104.639 92.788 104.69C92.4403 104.797 92.0876 104.892 91.7299 104.974H91.7285L91.7189 104.977L91.6969 104.981C91.6502 104.992 91.6021 105.003 91.554 105.013C91.2874 105.072 91.018 105.123 90.746 105.165C89.9165 105.302 89.0773 105.37 88.2367 105.369C87.786 105.369 87.338 105.35 86.8969 105.311C86.873 105.31 86.8491 105.308 86.8254 105.304C85.6159 105.195 84.4233 104.944 83.2718 104.558C83.1014 104.5 82.931 104.44 82.7634 104.375C80.1115 103.377 77.7834 101.672 76.0311 99.4449C74.2789 97.218 73.1694 94.5541 72.8227 91.7417C72.4761 88.9294 72.9055 86.0758 74.0645 83.49C75.2235 80.9043 77.0679 78.6849 79.398 77.0724C81.728 75.4598 84.4549 74.5155 87.2832 74.3417C90.1114 74.168 92.9334 74.7714 95.4433 76.0866C97.9532 77.4018 100.055 79.3786 101.522 81.8031C102.989 84.2275 103.765 87.007 103.765 89.8407Z" fill="white"/>
<path d="M86.3916 90.0155C86.3916 90.0155 90.0337 88.4285 91.7444 90.1049C93.4551 91.7814 87.1642 91.2295 86.3916 90.0155Z" fill="#3F3D56"/>
<path d="M92.6804 82.4926C91.4564 80.4245 89.0349 80.3281 89.0349 80.3281C89.0349 80.3281 86.6753 80.0264 85.1617 83.1761C83.7508 86.1119 81.8036 88.9465 84.8482 89.6338L85.3981 87.9221L85.7387 89.7612C86.1722 89.7924 86.607 89.7998 87.0413 89.7834C90.3018 89.6782 93.4069 89.8142 93.3069 88.6443C93.174 87.0889 93.858 84.4825 92.6804 82.4926Z" fill="#2F2E41"/>
<path d="M93.2895 104.53C93.3706 104.504 93.4503 104.477 93.5286 104.446L93.5108 104.422L93.2895 104.409L91.8576 104.332H91.8563L91.6158 104.32L90.4766 104.258L87.9962 104.123L86.6674 104.052L86.6001 104.048H86.5836L85.6477 103.997L85.3427 103.98L85.0527 105.044C85.6379 105.167 86.2298 105.255 86.8254 105.308C86.8491 105.312 86.8729 105.314 86.8969 105.315C87.338 105.353 87.786 105.373 88.2367 105.373C89.0773 105.373 89.9165 105.305 90.7459 105.169C91.018 105.127 91.2874 105.076 91.5539 105.017C91.602 105.007 91.6501 104.996 91.6969 104.985L91.7188 104.981L91.7285 104.978H91.7298C92.0871 104.896 92.4398 104.801 92.788 104.694L93.2895 104.53Z" fill="#2F2E41"/>
<path d="M86.9983 86.9823C86.9983 86.9823 87.5501 90.6244 86.4464 91.0659C85.3428 91.5074 88.6538 93.3836 88.6538 93.3836H90.53L91.744 90.8452C91.744 90.8452 90.6404 88.8586 91.3026 86.9823C91.9648 85.1061 86.9983 86.9823 86.9983 86.9823Z" fill="#FDD4CE"/>
<path d="M93.2893 104.531V91.6188C93.2893 91.6188 93.1491 90.2927 92.0374 90.6376C91.9237 90.674 91.8134 90.7199 91.7076 90.7751C91.5235 90.8745 91.3479 90.989 91.1827 91.1172C91.1194 91.1653 91.0549 91.2175 90.9875 91.2739C90.982 91.278 90.9765 91.2835 90.971 91.2876C88.8741 93.0534 87.8819 91.84 87.6607 91.6188C87.5796 91.5391 87.368 91.3124 87.1302 91.0568V91.0554C87.0272 90.9454 86.92 90.83 86.8183 90.7173C86.5036 90.3779 86.226 90.0742 86.226 90.0742L85.1226 90.9564L85.3919 97.6459L85.4551 99.2235V99.2248L85.4757 99.7154V99.7182L85.6475 103.997L85.6736 104.643C86.0472 104.762 86.4265 104.862 86.81 104.943C86.9227 104.966 87.0423 104.989 87.1646 105.011C88.121 105.185 89.3248 105.274 90.0888 104.863C90.2432 104.78 90.4051 104.713 90.5725 104.661C90.9049 104.561 91.2507 104.513 91.5977 104.52C91.6719 104.521 91.7447 104.524 91.8175 104.528H91.8189C92.1465 104.551 92.4711 104.607 92.7877 104.694L93.2893 104.531Z" fill="#3F3D56"/>
<path d="M87.9961 104.123C87.7464 104.443 87.4681 104.74 87.1647 105.011C87.0713 105.096 86.9778 105.178 86.883 105.259C86.8638 105.276 86.8445 105.291 86.8253 105.307C85.6157 105.198 84.4231 104.948 83.2717 104.561C83.1013 104.504 82.9309 104.443 82.7632 104.379C82.8693 104.11 82.9525 103.833 83.012 103.55C83.7719 99.988 81.5622 94.582 81.3698 93.7149C81.2998 93.403 81.5581 92.9701 81.9717 92.5098C82.8745 91.508 84.5167 90.3757 85.1227 90.0734C85.5822 89.8678 86.0969 89.8204 86.5862 89.9387H86.5876C86.741 89.9702 86.8914 90.0152 87.0369 90.0734V90.0747C87.0383 90.0953 87.0534 90.252 87.0795 90.52C87.0933 90.667 87.1097 90.8456 87.1304 91.0545V91.0559C87.1675 91.4462 87.2142 91.9326 87.2692 92.4878V92.4892C87.6003 95.9095 88.1995 101.862 88.4331 102.875C88.5197 103.25 88.3273 103.685 87.9961 104.123Z" fill="#D7DEE6"/>
<path d="M93.2894 104.531C93.3704 104.504 93.4501 104.477 93.5285 104.447C94.0215 104.269 94.5049 104.066 94.9768 103.838C94.2705 101.774 96.3579 95.2123 96.9556 93.1812V93.1785C97.0257 92.9407 97.0752 92.7648 97.0972 92.6673C97.3184 91.6738 93.9517 90.7366 93.8418 90.5153C93.7566 90.3477 92.3893 90.1787 91.7448 90.1086C91.5455 90.0866 91.415 90.0742 91.415 90.0742C91.2446 90.2061 91.114 90.5854 91.0123 91.1365C91.0027 91.1804 90.9945 91.2272 90.9876 91.2739C90.9148 91.6999 90.8584 92.2152 90.8131 92.7937C90.563 95.9488 90.6482 100.934 90.4201 102.987C90.3739 103.411 90.3929 103.84 90.4764 104.258C90.5015 104.394 90.5336 104.529 90.5726 104.661C90.6206 104.834 90.6784 105.003 90.7458 105.17C91.0178 105.127 91.2872 105.076 91.5538 105.017C91.6019 105.007 91.65 104.996 91.6967 104.985L91.7187 104.981L91.7283 104.979H91.7297C92.087 104.896 92.4397 104.801 92.7878 104.694L93.2894 104.531Z" fill="#D7DEE6"/>
<path d="M92.4615 85.9337C92.5834 85.9337 92.6822 85.7361 92.6822 85.4923C92.6822 85.2484 92.5834 85.0508 92.4615 85.0508C92.3396 85.0508 92.2407 85.2484 92.2407 85.4923C92.2407 85.7361 92.3396 85.9337 92.4615 85.9337Z" fill="#F5CBC5"/>
<path d="M85.9502 85.9337C86.0721 85.9337 86.171 85.7361 86.171 85.4923C86.171 85.2484 86.0721 85.0508 85.9502 85.0508C85.8283 85.0508 85.7295 85.2484 85.7295 85.4923C85.7295 85.7361 85.8283 85.9337 85.9502 85.9337Z" fill="#F5CBC5"/>
<path d="M93.2896 104.529C93.3707 104.503 93.4504 104.476 93.5287 104.446C94.0217 104.268 94.5051 104.065 94.9771 103.837C94.977 103.838 94.977 103.838 94.9773 103.839C94.9775 103.84 94.9779 103.84 94.9784 103.841C94.9782 103.839 94.9787 103.837 94.9798 103.836C95.8043 99.4821 96.6783 94.8251 96.9559 93.1802V93.1774C97.004 92.8916 97.0342 92.6979 97.0424 92.6113C97.1524 91.5078 94.393 91.5078 94.393 91.5078L93.9533 93.7299L93.2896 97.087L93.0615 98.2399L91.8563 104.332L91.8178 104.527L91.7285 104.977H91.7299C92.0872 104.895 92.4399 104.8 92.788 104.693L93.2896 104.529Z" fill="#D7DEE6"/>
<path d="M86.8258 105.308C85.6162 105.199 84.4236 104.948 83.2722 104.562C83.1856 104.228 83.099 103.89 83.0124 103.551C81.9392 99.3387 80.9292 94.8823 80.9292 94.0468C80.9292 93.3556 81.4115 92.8567 81.9722 92.5104C82.5058 92.1987 83.0849 91.9724 83.6885 91.8398C83.6885 91.8398 84.0403 93.3033 84.546 95.4141C84.8167 96.5409 85.13 97.8518 85.4557 99.2233V99.2246C85.835 100.816 86.2321 102.487 86.6004 104.048C86.6595 104.301 86.7181 104.55 86.7763 104.796V104.801C86.7771 104.803 86.7776 104.805 86.7777 104.807C86.7887 104.852 86.7997 104.897 86.8107 104.943C86.8354 105.05 86.8601 105.156 86.8835 105.26C86.889 105.278 86.8931 105.296 86.8972 105.315C86.8733 105.314 86.8494 105.312 86.8258 105.308Z" fill="#D7DEE6"/>
<path opacity="0.2" d="M84.2949 95.0938L86.7782 104.805C86.7782 104.805 85.6193 96.3078 84.2949 95.0938Z" fill="black"/>
<path opacity="0.2" d="M90.7461 105.168L91.5541 105.012V105.016C91.2875 105.075 91.0182 105.126 90.7461 105.168Z" fill="black"/>
<path opacity="0.2" d="M93.953 93.7305L93.2893 97.0876L93.0612 98.2405L91.8574 104.332H91.856L91.8189 104.527H91.8175L91.7296 104.978H91.7282L91.7186 104.981L91.6966 104.985L91.5537 105.012C91.5661 104.859 91.5812 104.694 91.5977 104.519C91.6032 104.455 91.6087 104.389 91.6155 104.32C91.8739 101.512 92.4249 96.663 93.2893 94.6319C93.4927 94.1537 93.7139 93.8322 93.953 93.7305Z" fill="black"/>
<path d="M89.206 89.0224C90.9737 89.0224 92.4066 87.5894 92.4066 85.8217C92.4066 84.0541 90.9737 82.6211 89.206 82.6211C87.4383 82.6211 86.0054 84.0541 86.0054 85.8217C86.0054 87.5894 87.4383 89.0224 89.206 89.0224Z" fill="#510F06" fill-opacity="0.05"/>
<path d="M89.206 88.7489C90.9737 88.7489 92.4066 87.316 92.4066 85.5483C92.4066 83.7806 90.9737 82.3477 89.206 82.3477C87.4383 82.3477 86.0054 83.7806 86.0054 85.5483C86.0054 87.316 87.4383 88.7489 89.206 88.7489Z" fill="#FDD4CE"/>
<path d="M92.1392 82.2922L89.7469 81.0391L86.4433 81.5516L85.7598 84.5706L87.4613 84.5051L87.9366 83.396V84.4869L88.7217 84.4566L89.1773 82.6908L89.4622 84.5706L92.2531 84.5137L92.1392 82.2922Z" fill="#2F2E41"/>
<path d="M98.9552 82.8352C101.46 82.8352 103.49 80.8049 103.49 78.3004C103.49 75.7959 101.46 73.7656 98.9552 73.7656C96.4507 73.7656 94.4204 75.7959 94.4204 78.3004C94.4204 80.8049 96.4507 82.8352 98.9552 82.8352Z" fill="#14BC1F"/>
<path d="M99.6447 77.1471L98.6422 77.4067C98.5696 77.4255 98.4958 77.3825 98.4772 77.3107C98.4586 77.239 98.5023 77.1657 98.575 77.1469L99.5774 76.8873C99.65 76.8685 99.724 76.9113 99.7426 76.9831C99.7612 77.0549 99.7173 77.1283 99.6447 77.1471ZM97.785 78.8783C97.6883 78.9033 97.5896 78.8462 97.5648 78.7504C97.54 78.6547 97.5985 78.5567 97.6953 78.5317C97.7921 78.5066 97.8907 78.5639 97.9155 78.6596C97.9403 78.7554 97.8819 78.8532 97.785 78.8783ZM96.438 79.3287C96.372 79.1054 96.4213 78.8719 96.5171 78.6701C96.5532 78.5939 96.488 78.598 96.4397 78.5637C96.3961 78.533 96.3526 78.4633 96.3117 78.5112C95.9866 78.891 95.9238 79.4422 96.2365 79.8843C96.521 80.2867 97.0127 80.3528 97.3971 80.1815C97.68 80.0552 97.8911 79.9682 98.1363 80.2148C98.2993 80.3792 98.5736 80.6556 98.6968 80.7797C98.7487 80.8318 98.7737 80.84 98.8286 80.8258C98.9926 80.7833 99.3981 80.6783 99.4243 80.6715C99.4696 80.6598 99.4726 80.6233 99.4685 80.5626C99.4522 80.3214 99.6114 80.0943 99.8565 80.0308C100.105 79.9665 100.357 80.0914 100.457 80.3148C100.485 80.3774 100.507 80.3913 100.553 80.3792C100.572 80.3742 100.979 80.269 101.142 80.2267C101.184 80.2159 101.21 80.2092 101.229 80.1384C101.239 80.1044 101.749 78.2971 101.749 78.2971L101.75 78.293C101.853 78.3836 101.997 78.3961 102.095 78.3685C102.118 78.3621 102.119 78.3347 102.095 78.321C101.983 78.2571 101.887 78.1504 101.834 77.9847C101.812 77.9145 101.804 77.8438 101.794 77.7603C101.733 77.2 101.336 76.708 100.754 76.5498C100.502 76.4815 100.246 76.484 100.01 76.5455L98.0309 77.058C97.7944 77.119 97.5701 77.2406 97.383 77.4226C96.9339 77.8599 96.8351 78.515 97.0887 79.0462C97.1871 79.252 97.2518 79.5087 97.0744 79.6543C96.8777 79.8156 96.5665 79.7623 96.438 79.3287Z" fill="white"/>
<path d="M144.767 26.1133H144.767C140.671 26.1133 137.35 29.7987 137.35 34.3449V40.1208H139.127L140.155 37.9808L139.898 40.1208H151.316L152.251 38.1753L152.017 40.1208H153.303V35.5857C153.303 30.3542 149.481 26.1133 144.767 26.1133Z" fill="#2F2E41"/>
<path d="M141.187 36.4943C141.187 36.4943 143.502 41.8962 140.416 42.9766L143.502 53.163L148.75 52.8543L150.139 49.4589L149.83 44.3656L149.367 40.9701C149.367 40.9701 146.126 41.7418 146.435 36.0312L141.187 36.4943Z" fill="#FDB797"/>
<path d="M139.952 42.8193C139.952 42.8193 134.859 42.3563 135.322 46.0604C135.785 49.7646 136.248 50.5363 136.248 50.5363L136.711 56.0926L133.933 57.7903H131.309C131.309 57.7903 123.284 59.6424 127.296 61.6488C131.309 63.6552 132.698 60.1054 132.698 60.1054C132.698 60.1054 140.107 60.1054 140.57 58.8707C141.033 57.636 139.952 42.8193 139.952 42.8193Z" fill="#FDB797"/>
<path d="M149.83 41.279C149.83 41.279 154.615 39.5812 154.923 43.2854C155.232 46.9895 155.232 47.2982 155.232 47.2982L156.158 52.5458C156.158 52.5458 158.01 57.176 158.01 58.5651C158.01 59.9541 159.399 64.2757 159.399 64.2757C159.399 64.2757 161.251 70.2949 159.245 70.1406C157.238 69.9863 156.93 63.6583 156.93 63.6583L152.763 55.3239L151.528 50.2307L149.83 41.279Z" fill="#FDB797"/>
<path d="M140.724 42.2017H139.489L139.335 48.6839C139.335 48.6839 137.328 51.4621 139.798 53.9315L140.415 57.9444L151.682 57.4813L152.454 53.3142C152.454 53.3142 153.997 49.9187 151.836 46.8319L149.83 40.5039H148.75C148.75 40.5039 151.252 49.7301 145.971 49.9187C141.65 50.073 140.724 42.2017 140.724 42.2017Z" fill="#14BC1F"/>
<path d="M141.033 57.172L140.107 60.2588C140.107 60.2588 120.814 114.587 126.679 115.976C132.544 117.365 140.724 119.217 141.496 117.828C142.267 116.439 146.28 75.8471 146.28 75.8471C146.28 75.8471 145.663 118.291 147.669 118.291C149.676 118.291 162.949 118.599 163.721 116.593C164.492 114.587 156.775 60.8761 152.3 59.6414L151.065 56.8633L141.033 57.172Z" fill="#626673"/>
<path d="M152.145 55.6328L139.952 56.0958C139.952 56.0958 139.396 60.263 139.952 60.263C140.107 60.263 152.763 61.3434 152.608 59.4913C152.454 57.6392 152.145 55.6328 152.145 55.6328Z" fill="#3D414D"/>
<path opacity="0.2" d="M143.572 38.5717C145.968 38.5717 147.909 36.6301 147.909 34.2351C147.909 31.84 145.968 29.8984 143.572 29.8984C141.177 29.8984 139.236 31.84 139.236 34.2351C139.236 36.6301 141.177 38.5717 143.572 38.5717Z" fill="#795240"/>
<path d="M143.572 38.2592C145.968 38.2592 147.909 36.3176 147.909 33.9226C147.909 31.5275 145.968 29.5859 143.572 29.5859C141.177 29.5859 139.236 31.5275 139.236 33.9226C139.236 36.3176 141.177 38.2592 143.572 38.2592Z" fill="#FDB797"/>
<path d="M146.876 28.3788C146.519 27.8995 146.056 27.5089 145.524 27.2373C144.992 26.9656 144.404 26.8203 143.807 26.8125H143.661C140.853 26.8125 138.577 29.3532 138.577 32.4872V32.4873H139.518L139.67 31.3308L139.893 32.4873H145.472L145.94 31.5089L145.823 32.4873H146.921C147.433 35.0311 146.697 37.575 144.713 40.1188H146.583L147.518 38.162L147.284 40.1188H150.848L151.55 35.6181C151.55 32.2475 149.591 29.3894 146.876 28.3788Z" fill="#2F2E41"/>
<path d="M147.901 28.8531C149.435 28.8531 150.679 27.6093 150.679 26.075C150.679 24.5407 149.435 23.2969 147.901 23.2969C146.367 23.2969 145.123 24.5407 145.123 26.075C145.123 27.6093 146.367 28.8531 147.901 28.8531Z" fill="#2F2E41"/>
<path d="M125.55 37.9174C125.556 37.5999 125.821 37.3473 126.142 37.3533C126.463 37.3593 126.719 37.6216 126.713 37.9391C126.707 38.2565 126.442 38.509 126.121 38.503C125.8 38.497 125.544 38.2348 125.55 37.9174Z" fill="white"/>
<path d="M119.092 44.8717C119.094 47.6066 118.391 50.2958 117.051 52.6799C115.71 55.0639 113.779 57.0626 111.442 58.483C111.16 58.655 110.872 58.8171 110.579 58.9722C110.142 59.2034 109.692 59.4149 109.233 59.6024V59.6038C109.086 59.6644 108.939 59.7222 108.791 59.7772C108.722 59.804 108.652 59.8307 108.581 59.8561C106.843 60.4826 105.01 60.8026 103.162 60.8021C101.949 60.803 100.74 60.6658 99.5573 60.3932C98.9433 60.2511 98.3384 60.0722 97.7458 59.8575H97.7444C96.9922 59.5851 96.2618 59.2561 95.5593 58.8735C95.376 58.7748 95.1955 58.6719 95.0179 58.5648C94.8939 58.4915 94.7726 58.4168 94.6514 58.3406C92.3101 56.8613 90.3949 54.7971 89.0947 52.3517C87.7945 49.9063 87.1543 47.1643 87.2371 44.396C87.32 41.6277 88.1231 38.9288 89.5672 36.5656C91.0113 34.2024 93.0465 32.2565 95.4721 30.9198C97.8977 29.5831 100.63 28.9018 103.399 28.9432C106.168 28.9845 108.879 29.7471 111.264 31.1556C113.648 32.5641 115.624 34.57 116.997 36.9753C118.37 39.3806 119.092 42.1022 119.092 44.8717Z" fill="white"/>
<path d="M101.326 42.5469C101.326 42.5469 101.42 44.9987 100.854 45.5645C100.288 46.1303 103.683 48.1106 103.683 48.1106L105.663 44.9987C105.663 44.9987 104.909 43.6785 105.098 42.5469L101.326 42.5469Z" fill="#D8B3B8"/>
<path d="M102.976 44.2115C104.851 44.2115 106.371 42.6916 106.371 40.8167C106.371 38.9418 104.851 37.4219 102.976 37.4219C101.101 37.4219 99.5811 38.9418 99.5811 40.8167C99.5811 42.6916 101.101 44.2115 102.976 44.2115Z" fill="#43030C" fill-opacity="0.05"/>
<path d="M102.976 43.9146C104.851 43.9146 106.371 42.3947 106.371 40.5198C106.371 38.6449 104.851 37.125 102.976 37.125C101.101 37.125 99.5811 38.6449 99.5811 40.5198C99.5811 42.3947 101.101 43.9146 102.976 43.9146Z" fill="#D8B3B8"/>
<path d="M108.729 58.988C108.75 59.2502 108.771 59.5125 108.791 59.7747C108.722 59.8015 108.651 59.8282 108.581 59.8536C106.843 60.4801 105.009 60.8001 103.162 60.7996C101.948 60.8005 100.739 60.6633 99.5569 60.3907C98.9428 60.2486 98.3379 60.0697 97.7453 59.855L97.7439 59.8677C97.7425 59.8636 97.7425 59.8591 97.7439 59.855C97.7655 59.5675 97.8194 59.2833 97.9046 59.0078V59.0064C97.9836 58.7159 98.0907 58.3804 98.2134 58.0096C98.3459 57.6135 98.3543 56.7479 98.3261 55.9345C98.3233 55.8724 98.3219 55.809 98.3191 55.7484C98.3078 55.4848 98.2937 55.2324 98.2796 55.0083C98.2472 54.5022 98.2134 54.1427 98.2134 54.1427L96.1382 48.5783L101.15 44.9186C101.446 45.8786 102.08 45.8448 102.08 45.8448C104.77 46.0295 105.265 44.1714 105.281 44.1108V44.1094L110.095 47.2588L108.116 52.0675C108.116 52.0675 108.196 52.8823 108.31 54.1258C108.327 54.309 108.344 54.5022 108.364 54.7038C108.474 55.9246 108.608 57.4457 108.729 58.988Z" fill="#D7DEE6"/>
<path d="M98.4489 55.0412L98.3503 55.7573L98.3263 55.9378L97.9076 58.997L97.9048 59.0097V59.0111L97.7455 59.8583L97.7441 59.871C97.7426 59.8669 97.7426 59.8624 97.7441 59.8583C96.9919 59.5859 96.2615 59.2569 95.5589 58.8743C95.3757 58.7756 95.1952 58.6727 95.0176 58.5656C95.1347 58.2007 95.2731 57.8429 95.432 57.4942L95.7196 55.2555L95.8085 54.5703L98.2798 55.0116L98.4489 55.0412Z" fill="#D8B3B8"/>
<path d="M97.5063 48.4414L96.1389 48.5829C96.1389 48.5829 95.243 55.231 95.5259 55.231C95.8088 55.231 99.0151 55.9855 99.1094 55.7969C99.2037 55.6083 97.5063 48.4414 97.5063 48.4414Z" fill="#D7DEE6"/>
<path d="M100.357 37.0373L99.7445 36.8147C99.7445 36.8147 101.024 35.5352 102.804 35.6464L102.304 35.1457C102.304 35.1457 103.528 34.7007 104.64 35.869C105.225 36.4831 105.902 37.205 106.324 38.0182H106.979L106.706 38.5653L107.663 39.1124L106.68 39.0141C106.774 39.4864 106.741 39.9748 106.587 40.4309L106.365 41.0429C106.365 41.0429 105.475 39.2626 105.475 39.0401V39.5964C105.475 39.5964 104.863 39.0957 104.863 38.7619L104.529 39.1514L104.362 38.5394L102.304 39.1514L102.637 38.6507L101.358 38.8176L101.859 38.2056C101.859 38.2056 100.412 38.9288 100.357 39.5408C100.301 40.1528 99.5776 40.9316 99.5776 40.9316L99.2439 40.3753C99.2439 40.3753 98.7431 37.8718 100.357 37.0373Z" fill="#2F2E41"/>
<path d="M111.442 58.4823C111.16 58.6543 110.872 58.8165 110.579 58.9715C110.142 59.2027 109.692 59.4142 109.233 59.6017V59.6031C109.086 59.6637 108.939 59.7215 108.791 59.7765C108.722 59.8033 108.652 59.8301 108.581 59.8555L108.729 58.9899L108.058 54.7253L107.974 54.191L108.311 54.1276L111.463 53.5312V57.3982C111.463 57.3982 111.471 57.8169 111.442 58.4823Z" fill="#D8B3B8"/>
<path d="M108.256 47.0273L110.095 47.2631C110.095 47.2631 112.311 54.0056 111.745 54.2885C111.18 54.5714 107.502 54.76 107.502 54.76L108.256 47.0273Z" fill="#D7DEE6"/>
<path d="M114.722 38.2458C117.291 38.2458 119.374 36.163 119.374 33.5936C119.374 31.0243 117.291 28.9414 114.722 28.9414C112.153 28.9414 110.07 31.0243 110.07 33.5936C110.07 36.163 112.153 38.2458 114.722 38.2458Z" fill="#14BC1F"/>
<path d="M115.787 32.4082L114.725 32.3883C114.648 32.3869 114.587 32.3241 114.588 32.248C114.59 32.172 114.653 32.1116 114.73 32.113L115.792 32.1328C115.869 32.1343 115.931 32.197 115.929 32.273C115.928 32.3491 115.864 32.4096 115.787 32.4082ZM113.472 33.6062C113.37 33.6043 113.288 33.5207 113.29 33.4192C113.292 33.3178 113.377 33.237 113.479 33.239C113.582 33.2409 113.663 33.3247 113.662 33.4261C113.66 33.5276 113.575 33.6081 113.472 33.6062ZM112.017 33.6801C112.013 33.4412 112.127 33.224 112.277 33.051C112.334 32.9857 112.268 32.9717 112.23 32.9246C112.195 32.8822 112.171 32.8014 112.118 32.8373C111.692 33.1231 111.478 33.6504 111.665 34.1736C111.835 34.6495 112.303 34.8504 112.73 34.7871C113.044 34.7403 113.277 34.7125 113.451 35.0238C113.567 35.2312 113.762 35.5799 113.849 35.7365C113.886 35.8022 113.909 35.8172 113.967 35.8183C114.141 35.8216 114.57 35.8296 114.598 35.8301C114.646 35.831 114.659 35.7957 114.672 35.7347C114.722 35.4918 114.942 35.3112 115.202 35.3161C115.465 35.321 115.679 35.5138 115.717 35.7624C115.728 35.8319 115.745 35.8515 115.794 35.8524C115.814 35.8528 116.245 35.8608 116.418 35.8641C116.462 35.8649 116.49 35.8654 116.529 35.8009C116.548 35.7699 117.55 34.1247 117.55 34.1247L117.552 34.1209C117.629 34.2388 117.768 34.2908 117.872 34.2906C117.896 34.2905 117.905 34.2638 117.885 34.2435C117.792 34.1494 117.726 34.0176 117.72 33.8392C117.717 33.7637 117.729 33.6917 117.743 33.6066C117.836 33.036 117.579 32.4403 117.048 32.1235C116.818 31.9866 116.565 31.9187 116.314 31.9143L114.217 31.8752C113.967 31.8703 113.711 31.9286 113.476 32.0569C112.912 32.3653 112.634 32.9854 112.738 33.5802C112.779 33.8107 112.772 34.0822 112.556 34.1772C112.317 34.2824 112.025 34.144 112.017 33.6801Z" fill="white"/>
<path d="M112.655 32.1809C112.638 32.0401 112.509 31.942 112.367 31.9563C112.221 31.9709 112.119 32.1008 112.14 32.241C112.16 32.3723 112.25 32.3945 112.305 32.5405C112.336 32.6202 112.343 32.7022 112.327 32.7711C112.32 32.7986 112.331 32.8069 112.347 32.7964C112.596 32.6333 112.673 32.334 112.655 32.1809Z" fill="white"/>
<path d="M38.2604 114.723C38.2219 114.66 37.3154 113.146 37.0012 110.003C36.7129 107.12 36.8983 102.259 39.419 95.4792C44.1944 82.6349 38.3185 72.2714 38.2584 72.1682L38.5483 72C38.5635 72.0262 40.0798 74.6685 40.9755 78.8759C42.159 84.4541 41.728 90.254 39.7331 95.596C34.9658 108.418 38.51 114.488 38.5464 114.548L38.2604 114.723Z" fill="#099616"/>
<path d="M36.3932 71.4142C37.5959 71.4142 38.571 70.4392 38.571 69.2364C38.571 68.0336 37.5959 67.0586 36.3932 67.0586C35.1904 67.0586 34.2153 68.0336 34.2153 69.2364C34.2153 70.4392 35.1904 71.4142 36.3932 71.4142Z" fill="#14BC1F"/>
<path d="M43.2618 79.4572C44.4646 79.4572 45.4396 78.4822 45.4396 77.2794C45.4396 76.0766 44.4646 75.1016 43.2618 75.1016C42.059 75.1016 41.084 76.0766 41.084 77.2794C41.084 78.4822 42.059 79.4572 43.2618 79.4572Z" fill="#099616"/>
<path d="M38.5714 84.8166C39.7742 84.8166 40.7492 83.8415 40.7492 82.6388C40.7492 81.436 39.7742 80.4609 38.5714 80.4609C37.3686 80.4609 36.3936 81.436 36.3936 82.6388C36.3936 83.8415 37.3686 84.8166 38.5714 84.8166Z" fill="#14BC1F"/>
<path d="M44.2672 89.34C45.47 89.34 46.445 88.365 46.445 87.1622C46.445 85.9594 45.47 84.9844 44.2672 84.9844C43.0644 84.9844 42.0894 85.9594 42.0894 87.1622C42.0894 88.365 43.0644 89.34 44.2672 89.34Z" fill="#14BC1F"/>
<path d="M36.8956 96.3752C38.0984 96.3752 39.0734 95.4001 39.0734 94.1974C39.0734 92.9946 38.0984 92.0195 36.8956 92.0195C35.6928 92.0195 34.7178 92.9946 34.7178 94.1974C34.7178 95.4001 35.6928 96.3752 36.8956 96.3752Z" fill="#099616"/>
<path d="M39.576 114.803C39.576 114.803 37.3982 109.442 43.9316 105.422L39.576 114.803Z" fill="#099616"/>
<path d="M36.8978 114.707C36.8978 114.707 35.9067 109.006 28.2354 109.055L36.8978 114.707Z" fill="#099616"/>
</g>
<defs>
<clipPath id="clip0">
<rect width="192" height="124" fill="white"/>
</clipPath>
</defs>
</svg>
