<svg width="192" height="124" viewBox="0 0 192 124" fill="none" xmlns="http://www.w3.org/2000/svg">
<g clip-path="url(#clip0)">
<path d="M153.478 41.5831C162.955 58.8391 163.514 80.9029 154.317 94.7822C145.119 108.661 126.137 114.356 107.462 114.185C88.7874 114.013 70.3923 108.003 60.6915 93.8378C51.0187 79.6724 50.0402 57.3511 59.2378 40.2667C68.4353 23.2109 87.8089 11.3634 106.707 11.6496C125.578 11.9358 143.973 24.3556 153.478 41.5831Z" fill="#F2F9FD"/>
<path d="M22.7722 111.104C22.9604 110.415 23.1485 109.717 23.5249 109.118C23.874 108.609 24.2893 108.15 24.7594 107.753C26.1238 106.499 27.8005 105.226 29.609 105.544C30.1698 105.668 30.7117 105.868 31.2199 106.138C31.4833 106.261 31.7487 106.385 32.0196 106.49C32.7831 106.812 33.6269 106.887 34.4341 106.703C34.8481 106.591 35.2339 106.389 35.6422 106.263C35.8368 106.204 36.0357 106.161 36.2369 106.134C35.8427 105.953 35.4593 105.749 35.089 105.523C33.0584 104.254 31.4382 101.97 31.6659 99.5533C31.7411 98.7351 32.0197 97.9529 32.2944 97.1822C32.5353 96.5086 32.7768 95.8343 33.0189 95.1594C33.3313 94.2821 33.6531 93.3896 34.2252 92.6608C34.8613 91.8501 35.7646 91.3001 36.698 90.8891C38.704 90.008 40.8964 89.6978 43.0606 89.3972L43.2111 89.3762V65.7337C43.2099 65.533 43.2479 65.334 43.323 65.1482C43.3981 64.9624 43.5088 64.7934 43.6487 64.651C43.7886 64.5087 43.955 64.3957 44.1383 64.3186C44.3216 64.2415 44.5181 64.2018 44.7166 64.2018H47.5639C47.6893 63.4254 47.8148 62.6496 47.9402 61.8745C48.2997 59.6651 48.6704 57.412 49.6772 55.4215C50.3358 54.1179 51.3859 52.8772 52.7992 52.6203C53.0774 52.594 53.3508 52.53 53.6122 52.43C54.0262 52.2245 54.252 51.7678 54.5719 51.429C55.3924 50.5594 56.7266 50.5461 57.8275 50.0969C58.7986 49.7068 59.5927 48.9704 60.4772 48.4052C61.3617 47.84 62.4626 47.4366 63.443 47.8058C63.443 47.8781 63.4562 47.9485 63.4637 48.0208L64.0923 47.7354C64.7697 47.4195 65.4623 47.0922 66.0061 46.5707C66.7062 45.9028 67.0788 45.0217 67.3686 44.0817C67.3987 43.9827 67.4269 43.8914 67.4552 43.7867C66.2525 42.544 65.4384 40.9708 65.1141 39.2633C65.0633 39.4289 65.0106 39.5963 64.9598 39.7638C64.9135 39.934 64.8505 40.0992 64.7716 40.2567C64.7455 40.3087 64.7159 40.359 64.6832 40.407C64.6211 40.5004 64.5434 40.5822 64.4536 40.6487C64.3644 40.7143 64.2601 40.7556 64.1506 40.7686C64.0982 40.7761 64.0449 40.7761 63.9925 40.7686C63.8504 40.7382 63.7181 40.6723 63.6076 40.5769C63.4971 40.4815 63.4121 40.3596 63.3602 40.2224C63.3302 40.1476 63.3081 40.0698 63.2943 39.9903C63.2871 39.9424 63.2827 39.8941 63.2812 39.8456C63.2812 39.8304 63.2812 39.8152 63.2812 39.8C63.2812 39.7847 63.2812 39.7334 63.2812 39.701C63.2812 39.6687 63.2812 39.6649 63.2812 39.6477C63.2812 39.6306 63.2812 39.583 63.2812 39.5526V39.5031C63.2812 39.465 63.2925 39.427 63.3 39.3908C63.3075 39.3547 63.3 39.3699 63.3 39.3604C63.3094 39.3109 63.3207 39.2633 63.3301 39.2139C63.331 39.2031 63.331 39.1923 63.3301 39.1815L63.3583 39.0616L63.3753 38.9893V38.9703C63.3941 38.8961 63.411 38.8199 63.428 38.7438C63.5648 38.0827 63.5997 42.6832 63.5315 42.0113C63.4181 41.0258 63.2383 40.0492 62.9932 39.0884L62.9537 38.9152L62.9086 38.7135C62.8785 38.5765 62.8502 38.4395 62.822 38.3025C62.7975 38.1864 62.775 38.0684 62.7542 37.9504C62.7336 37.8324 62.7185 37.743 62.7034 37.6383C62.7034 37.625 62.7034 37.6136 62.7034 37.6003C62.5885 36.891 62.5575 36.1704 62.6112 35.4537C62.6997 34.4584 63.0045 33.5165 63.6745 32.7648C64.1468 32.2339 64.7678 31.8419 65.2063 31.2843C65.6185 30.761 65.8499 30.1178 66.2752 29.6059C67.4514 28.1862 70.468 27.092 72.3198 26.9017C74.4406 26.6848 77.8675 27.2329 79.5762 28.5002C80.2085 28.9684 78.6974 26.5087 81.0817 30.2833C83.466 34.058 82.8667 38.4729 81.4261 41.3794C79.9856 44.286 79.4867 44.3065 77.9898 45.2082C77.9371 45.3643 77.8863 45.5222 77.8393 45.6821C77.5928 46.5441 77.4742 47.448 77.9014 48.2016C78.2062 48.7363 78.72 49.0674 79.2921 49.2958C79.3744 49.184 79.4805 49.0923 79.6026 49.0275C80.0994 48.7763 80.6941 49.0827 81.1081 49.4575C81.8608 50.1464 82.4743 51.1341 83.466 51.3605C83.8236 51.4443 84.2188 51.4271 84.518 51.6479C84.715 51.8353 84.8798 52.0546 85.0054 52.2968C85.2205 52.6089 85.5097 52.8613 85.8464 53.0308C86.1831 53.2004 86.5566 53.2817 86.9324 53.2673C87.2768 53.2502 87.6852 53.1702 87.9204 53.4252C88.0954 53.6155 88.1086 53.9181 88.2968 54.0989C88.5509 54.3501 88.963 54.2264 89.3168 54.2112C89.5724 54.2118 89.8252 54.2652 90.0598 54.3679C90.2943 54.4706 90.5058 54.6206 90.6811 54.8087C90.7033 54.0409 90.9941 53.306 91.5016 52.7345C92.0097 52.2054 92.7154 51.9333 93.3176 51.5185C94.8231 50.4833 95.5758 48.664 96.3606 46.997C97.1453 45.33 98.1803 43.5717 99.8928 42.9646C100.286 42.8238 100.834 42.8124 101.011 43.1987C101.071 43.3599 101.081 43.5359 101.039 43.703C100.873 44.5898 100.249 45.3015 99.7084 46.0151C98.7995 47.2178 98.0373 48.6888 98.2575 50.1921C98.5153 51.9714 100.083 53.3529 100.271 55.1398C100.354 55.9277 100.156 56.7193 100.158 57.5109C100.158 58.0057 100.235 58.5062 100.13 58.9876C100.018 59.3534 99.8854 59.7124 99.7329 60.0628C99.5633 60.6378 99.4758 61.2344 99.4732 61.8345C99.3402 64.3566 99.2078 66.8793 99.0761 69.4026C98.9764 71.2847 99.3829 73.142 99.7931 74.9936C100.302 76.0911 100.697 77.239 100.971 78.4189C101.434 80.4798 101.447 82.6759 100.783 84.6816C100.427 85.772 99.8815 86.7939 99.5899 87.9033C99.5899 87.9281 99.5786 87.9509 99.5729 87.9737C99.5447 88.2097 99.5127 88.4457 99.4694 88.6797C99.4159 88.9502 99.3462 89.2171 99.2605 89.479C99.1752 89.9301 99.0362 90.369 98.8465 90.7863C98.5826 91.3164 98.1951 91.7736 97.7174 92.1184C97.9884 92.6551 98.4269 93.087 98.7186 93.6123C99.2267 94.5219 99.2474 95.6389 99.0629 96.6703C98.7073 98.6609 97.644 100.44 96.2401 101.886C96.3028 101.883 96.3657 101.883 96.4283 101.886C96.8876 101.938 97.3285 102.097 97.7155 102.353C100.687 104.109 102.386 107.871 101.765 111.316C101.643 111.989 101.43 112.671 100.986 113.182C100.616 113.59 100.141 113.885 99.6143 114.033C99.2852 114.133 98.9464 114.197 98.6038 114.223C96.2872 114.414 94.044 113.327 91.7218 113.236C90.9519 113.223 90.182 113.26 89.4165 113.344C88.2987 113.438 87.1783 113.498 86.0555 113.523C84.232 113.567 83.2045 113.076 82.0396 111.696C81.7533 111.354 81.5146 110.974 81.3301 110.566C80.3403 110.509 79.2469 110.421 78.4546 110.355L78.4433 110.467C78.4001 110.847 78.3342 111.285 78.0331 111.527C77.8631 111.643 77.6707 111.722 77.4685 111.759C75.566 112.233 73.6408 112.71 71.6837 112.71C70.7646 112.691 69.8473 112.619 68.9362 112.495L65.4924 112.094C64.4902 112.224 63.5011 112.442 62.536 112.745C61.5423 113.087 60.6127 113.595 59.6417 113.995C57.3834 114.922 54.952 115.253 52.5451 115.576C52.1349 115.632 51.6644 115.67 51.3596 115.386C50.9681 115.005 51.0999 114.368 51.209 113.835C51.2542 113.618 51.2881 113.397 51.3163 113.177C49.6917 113.609 48.1024 114.166 46.5627 114.846L46.2917 114.965C46.2146 115.38 45.8344 115.713 45.4712 116.161C45.352 116.349 45.2125 116.523 45.0553 116.68C44.8762 116.799 44.6719 116.874 44.4588 116.899C41.9155 117.378 39.3187 117.496 36.7431 117.251C36.2163 117.179 35.6835 117.16 35.153 117.196C34.7634 117.249 34.3793 117.337 34.005 117.458L31.8258 118.088C30.2206 118.555 28.574 119.025 26.9085 118.92C26.5703 118.897 26.2343 118.848 25.9036 118.773C24.5863 118.465 23.3574 117.719 22.7251 116.52C21.8764 114.889 22.2885 112.886 22.7722 111.104ZM86.6916 81.34C86.7587 82.1651 86.9715 82.9714 87.3201 83.7206C87.5535 84.1982 87.8546 84.6378 88.0729 85.1174C88.2799 85.5513 88.4342 86.3714 88.5264 87.2715C88.6393 87.2525 88.7541 87.2354 88.867 87.2221C88.6995 86.6283 88.5734 86.0194 88.4059 85.4238C88.0089 84.0079 87.3559 82.6702 86.6916 81.34Z" fill="url(#paint0_linear)"/>
<path d="M83.7917 110.61C84.1888 109.697 84.5651 108.646 84.1681 107.733C83.9089 107.195 83.4636 106.772 82.9166 106.543C82.3753 106.32 81.8048 106.178 81.2229 106.121C79.3967 105.879 77.5487 105.853 75.7166 106.045C75.583 107.114 75.8653 108.199 76.108 109.232C76.3282 110.184 76.4543 110.325 77.4253 110.374C78.0539 110.408 83.643 110.947 83.7917 110.61Z" fill="#FDB797"/>
<path d="M67.0337 104.45C52.1713 104.45 40.123 101.042 40.123 96.8385C40.123 92.6345 52.1713 89.2266 67.0337 89.2266C81.896 89.2266 93.9443 92.6345 93.9443 96.8385C93.9443 101.042 81.896 104.45 67.0337 104.45Z" fill="#3D414D"/>
<path d="M62.2084 56.6521C63.1308 58.4545 64.6629 59.8619 66.5254 60.6179C67.6221 61.022 68.7761 61.2444 69.9429 61.2763C71.2206 61.3353 72.5248 61.2515 73.7254 60.8101C75.3363 60.2201 76.6743 59.0136 77.6773 57.6073C78.6804 56.2011 79.371 54.5949 79.9713 52.9755C80.2875 52.1325 80.5886 51.2343 80.4399 50.3437C79.4707 50.1211 78.4094 49.7937 77.9088 48.9241C77.4816 48.1781 77.6002 47.2837 77.8467 46.4312C77.9163 46.1895 77.9972 45.9497 78.0782 45.7195C78.2663 45.1676 78.9156 44.1191 78.4639 43.6471C78.176 43.3484 76.9697 43.1961 76.5539 43.002C75.2723 42.4045 74.0905 41.5406 72.6829 41.257C71.4653 41.0115 70.2082 41.2418 68.9925 41.4968C68.8313 41.5205 68.6764 41.5768 68.5371 41.6623C68.3783 41.7977 68.2608 41.9759 68.1984 42.1761C67.8521 43.0287 67.6489 43.9706 67.3704 44.8593C67.0806 45.7899 66.7079 46.6633 66.0098 47.3237C65.4659 47.8394 64.7734 48.1629 64.0959 48.4769L62.4286 49.2495C62.132 49.3618 61.863 49.5377 61.6401 49.7652C61.422 50.0683 61.2917 50.4267 61.2637 50.8004C60.965 52.8029 61.2954 54.8496 62.2084 56.6521Z" fill="#FDB797"/>
<path opacity="0.1" d="M67.3778 44.8593C68.7051 46.2554 70.4526 47.1671 72.347 47.4515C74.2413 47.7359 76.1755 47.3771 77.8466 46.4312C77.9163 46.1895 77.9972 45.9497 78.0781 45.7195C78.2663 45.1676 78.9155 44.1191 78.4639 43.6471C78.176 43.3484 76.9697 43.1961 76.5538 43.002C75.2722 42.4045 74.0904 41.5406 72.6828 41.257C71.4652 41.0115 70.2081 41.2418 68.9925 41.4968C68.8312 41.5205 68.6763 41.5768 68.5371 41.6623C68.3783 41.7977 68.2608 41.9759 68.1983 42.1761C67.8596 43.0287 67.6563 43.9706 67.3778 44.8593Z" fill="black"/>
<path d="M73.6198 47.1675C68.8389 47.1675 64.9632 43.2484 64.9632 38.4138C64.9632 33.5793 68.8389 29.6602 73.6198 29.6602C78.4007 29.6602 82.2764 33.5793 82.2764 38.4138C82.2764 43.2484 78.4007 47.1675 73.6198 47.1675Z" fill="#FDB797"/>
<path d="M47.2457 66.8256L47.957 62.4678C48.3164 60.2813 48.6872 58.0529 49.6921 56.0833C50.3526 54.7931 51.4008 53.5638 52.8141 53.3088C53.0925 53.2837 53.3661 53.2197 53.6271 53.1185C54.0411 52.9168 54.2669 52.4639 54.5849 52.129C55.4054 51.2688 56.7416 51.2555 57.8406 50.8178C58.8116 50.4372 59.6058 49.7046 60.4902 49.1451C61.3747 48.5856 62.4756 48.1936 63.4542 48.5514C63.6122 50.2545 63.7797 51.9957 64.4948 53.5467C64.9603 54.5563 65.643 55.448 66.4931 56.1566C67.3432 56.8651 68.3391 57.3725 69.4081 57.6417C70.477 57.911 71.592 57.9352 72.6714 57.7127C73.7508 57.4901 74.7674 57.0264 75.6468 56.3555C77.3235 55.0786 78.3981 53.109 78.8986 51.0481C79.0209 50.5457 79.1602 49.9691 79.6175 49.7388C80.1124 49.4876 80.7071 49.7921 81.123 50.1613C81.8851 50.8444 82.4911 51.8226 83.481 52.0528C83.8385 52.1366 84.2337 52.1194 84.531 52.3383C84.7287 52.5227 84.8941 52.7395 85.0203 52.9796C85.2369 53.2891 85.5263 53.5392 85.8624 53.7073C86.1985 53.8754 86.5707 53.9562 86.9455 53.9425C87.2898 53.9254 87.6982 53.8454 87.9334 54.0985C88.1085 54.2888 88.1216 54.5857 88.3098 54.7627C88.5639 55.012 88.976 54.8902 89.3298 54.8768C89.9997 54.8483 90.6226 55.2822 91.0065 55.8283C91.3904 56.3745 91.5711 57.05 91.7593 57.7047C89.7024 62.3365 87.8205 66.974 85.7637 71.6059C85.6673 71.7805 85.6162 71.9768 85.615 72.1768C85.6562 72.3843 85.7438 72.5795 85.8709 72.7477C86.8796 74.3861 86.8476 76.447 86.7366 78.3729C86.6256 80.2987 86.4901 82.3329 87.3407 84.0589C87.5721 84.5328 87.8732 84.9667 88.0934 85.4405C88.609 86.5138 88.7953 89.9467 88.4942 91.0999H45.9641C46.7752 88.8449 46.4666 84.3197 46.2972 81.9257C46.1786 80.2511 46.4854 78.5784 46.6171 76.9038C46.8938 73.4841 46.6868 70.2395 47.2457 66.8256Z" fill="#F86D70"/>
<path d="M45.0684 89.7658C44.4418 89.5241 43.7511 89.6117 43.0793 89.703C40.917 90.0018 38.7228 90.3082 36.7186 91.1816C35.7777 91.5889 34.8819 92.1331 34.2458 92.9343C33.6813 93.6555 33.352 94.5385 33.0396 95.4081L32.3169 97.4044C32.0422 98.1655 31.7637 98.942 31.6865 99.7507C31.4607 102.147 33.081 104.405 35.119 105.65C37.1571 106.894 39.5565 107.338 41.8937 107.802C44.231 108.267 46.5777 108.78 48.9056 109.325C49.9913 109.61 51.0929 109.829 52.2045 109.981C54.6961 110.267 57.3006 109.846 59.6679 110.679C60.6089 111.013 61.5329 111.507 62.5096 111.738C63.1574 111.881 63.8127 111.988 64.4723 112.057L68.953 112.575C69.8642 112.698 70.7815 112.769 71.7006 112.788C73.6577 112.788 75.5829 112.32 77.4835 111.852C77.6856 111.816 77.878 111.737 78.0481 111.621C78.3492 111.382 78.4151 110.957 78.4583 110.573C78.6503 108.872 78.8184 107.169 78.9627 105.463C79.0078 104.91 79.0417 104.31 78.7425 103.844C78.3661 103.273 77.6322 103.094 76.9623 102.984C74.1215 102.514 71.2437 102.312 68.3659 102.381C67.2725 101.275 65.4697 101.269 64.0376 100.668C63.5108 100.423 63.0009 100.143 62.5114 99.8287C59.9508 98.3179 57.0894 97.4033 54.1353 97.1513C53.5565 97.1334 52.9815 97.0504 52.4209 96.9039C51.3125 96.5556 50.3019 95.608 49.1634 95.8401C49.0222 95.4462 48.9244 94.9191 48.5988 94.6489C48.437 94.5099 48.2375 94.4167 48.0888 94.2683C47.7746 93.9467 47.7463 93.4405 47.7934 92.9914C47.8404 92.5423 47.9458 92.0817 47.831 91.6441C47.7833 91.4783 47.713 91.3202 47.6221 91.174C47.0557 90.1731 46.2032 89.6707 45.0684 89.7658Z" fill="#595A68"/>
<path d="M82.0602 111.787C83.2251 113.152 84.2507 113.639 86.0742 113.595C87.1958 113.568 88.3161 113.509 89.4352 113.418C90.2001 113.334 90.9693 113.298 91.7386 113.31C94.0608 113.401 96.3021 114.476 98.6187 114.288C98.9612 114.26 99.3 114.197 99.6293 114.097C100.152 113.95 100.624 113.66 100.994 113.258C101.438 112.75 101.65 112.076 101.773 111.41C102.392 107.996 100.694 104.278 97.7229 102.541C97.3352 102.287 96.8945 102.129 96.4357 102.078C95.9859 102.076 95.5412 102.175 95.1335 102.367L95.1053 102.379C93.898 102.881 92.8016 103.621 91.8797 104.556C91.7399 104.718 91.573 104.854 91.3867 104.957C91.2008 105.028 91.0039 105.066 90.8052 105.068L88.3324 105.226C87.9135 105.238 87.4971 105.296 87.0904 105.399C86.642 105.557 86.2056 105.748 85.7844 105.97C84.4539 106.571 82.9785 106.731 81.5408 106.963C81.4022 106.971 81.27 107.024 81.1644 107.115C81.107 107.187 81.0671 107.272 81.0477 107.363C80.847 108.128 80.8343 108.931 81.0108 109.702C81.1872 110.473 81.5475 111.189 82.0602 111.787Z" fill="#ECF6F9"/>
<path opacity="0.1" d="M95.1128 102.379C96.0722 103.305 96.9045 104.357 97.5874 105.507C98.6834 107.405 99.3721 109.515 99.6086 111.7C99.6982 112.497 99.7052 113.301 99.6293 114.099C100.152 113.952 100.624 113.66 100.994 113.258C101.438 112.75 101.65 112.076 101.773 111.41C102.392 107.996 100.694 104.278 97.7229 102.541C97.3352 102.287 96.8945 102.129 96.4357 102.078C95.9859 102.076 95.5412 102.175 95.1335 102.367L95.1128 102.379Z" fill="black"/>
<path d="M47.2212 107.108C45.838 107.07 44.2855 106.999 43.2693 107.941C42.3001 108.832 42.1722 110.301 42.1082 111.624L42.0348 113.159C42.0122 113.627 41.9934 114.111 42.1797 114.545C42.5109 115.306 43.4198 115.673 44.2497 115.629C45.0796 115.586 45.8418 115.218 46.6002 114.887C48.6591 113.99 50.8029 113.307 52.9985 112.849C52.927 111.787 52.8078 110.73 52.641 109.679C52.5262 108.95 52.5074 107.73 52.0256 107.125C51.5156 106.486 50.8513 106.832 50.1588 106.95C49.1871 107.1 48.2032 107.153 47.2212 107.108Z" fill="#FDB797"/>
<path d="M83.7709 91.6806C83.7709 91.8709 84.0663 91.6806 84.0927 91.4769C84.2997 89.9374 85.5078 88.6682 86.9155 88.0516C88.3231 87.435 89.9264 87.4027 91.4507 87.5492C93.756 87.77 96.3342 88.6625 97.1867 90.8414C97.3861 91.3514 97.4765 91.9032 97.7211 92.3923C97.9921 92.9289 98.4343 93.3571 98.7279 93.8785C99.2341 94.7805 99.2548 95.8861 99.0723 96.9061C98.5811 99.6274 96.7407 101.955 94.5107 103.567C92.2806 105.178 89.6743 106.141 87.0754 107.009C80.2035 109.301 73.153 111.004 65.9985 112.099C64.8393 112.276 63.6688 112.44 62.5585 112.817C61.5649 113.154 60.6352 113.658 59.6642 114.054C57.4059 114.971 54.9765 115.298 52.5696 115.62C52.1593 115.673 51.6889 115.711 51.3859 115.43C50.9944 115.062 51.1243 114.423 51.2353 113.896C51.644 111.893 51.3026 109.809 50.2774 108.046C49.8747 107.361 49.3516 106.659 49.4268 105.865C49.5172 104.94 50.428 104.286 51.3351 104.137C52.2421 103.989 53.1642 104.208 54.075 104.328C54.3893 104.37 54.7318 104.396 55.016 104.234C55.1514 104.142 55.2741 104.032 55.3811 103.907C56.0085 103.295 56.8116 102.9 57.675 102.778C58.5385 102.656 59.4179 102.813 60.1873 103.228C60.5242 103.418 61.0342 102.994 61.3842 102.834L65.338 101.02C69.8846 98.9404 74.4538 96.8509 79.2638 95.5341C79.6476 95.4578 80.0123 95.3044 80.3365 95.0831C80.5755 94.8928 80.7467 94.634 80.9669 94.4228C81.4468 93.9641 82.1148 93.7815 82.6907 93.456C83.2665 93.1306 83.9064 92.3333 83.7709 91.6806Z" fill="#535461"/>
<path d="M22.7628 116.549C23.3951 117.735 24.6221 118.473 25.9394 118.778C26.27 118.853 26.606 118.901 26.9443 118.922C28.6098 119.027 30.2545 118.561 31.8597 118.1L34.0389 117.476C34.4136 117.357 34.7976 117.27 35.1869 117.217C35.7168 117.181 36.2489 117.2 36.7752 117.272C39.3507 117.515 41.9471 117.397 44.4908 116.922C44.7036 116.899 44.908 116.825 45.0874 116.707C45.2445 116.551 45.384 116.378 45.5033 116.191C46.096 115.47 46.734 115.05 46.0321 114.098C45.6275 113.546 44.8766 113.27 44.5623 112.637C44.248 112.003 44.4494 111.103 44.6357 110.448C44.8898 109.544 45.7253 109.154 46.0245 108.325C46.2485 107.698 45.8721 106.972 45.3057 106.631C44.7392 106.29 44.0392 106.264 43.3862 106.351C42.7331 106.439 42.0933 106.625 41.4365 106.677C39.5058 106.833 37.5317 105.826 35.678 106.393C35.2697 106.519 34.8839 106.718 34.4699 106.829C33.6628 107.011 32.8196 106.938 32.0554 106.618C31.7845 106.515 31.5191 106.391 31.2557 106.269C30.7476 106.002 30.2065 105.804 29.6467 105.681C27.8382 105.367 26.1615 106.633 24.7971 107.868C24.3288 108.261 23.9142 108.715 23.5645 109.219C23.1881 109.813 22.9886 110.503 22.8117 111.185C22.3131 112.949 21.9009 114.932 22.7628 116.549Z" fill="#ECF6F9"/>
<path opacity="0.1" d="M22.7627 116.549C23.395 117.735 24.622 118.473 25.9393 118.777C25.4269 117.771 25.1959 116.642 25.2712 115.512C25.3842 113.702 26.1708 111.997 27.1738 110.494C27.7909 109.568 28.4928 108.704 29.2702 107.911C29.8686 107.302 30.6044 106.819 31.248 106.262C30.74 105.994 30.1989 105.796 29.6391 105.674C27.8306 105.36 26.1538 106.625 24.7895 107.86C24.3211 108.253 23.9066 108.707 23.5569 109.211C23.1805 109.805 22.981 110.496 22.8041 111.177C22.313 112.949 21.9008 114.931 22.7627 116.549Z" fill="black"/>
<path d="M65.3134 37.4122C65.3134 37.4122 64.3716 35.995 64.7338 34.4689C64.9502 33.6024 65.0357 32.7082 64.9874 31.8163C65.3925 30.4942 65.9012 29.2063 66.5087 27.9646C67.2694 26.5838 66.9071 26.0024 69.2978 25.5664C71.6885 25.1303 70.7105 22.0053 77.0132 25.3847C77.2258 25.6825 77.5217 25.9105 77.8633 26.0398C78.205 26.1692 78.5772 26.1941 78.933 26.1114C80.237 25.857 80.7079 27.6739 80.7079 27.6739C80.7079 27.6739 81.5772 27.1652 81.9032 27.8919C82.2292 28.6187 84.5537 27.4557 84.5537 32.3612C84.5537 37.2667 81.9085 41.6486 81.9085 41.6486C81.9085 41.6486 82.1025 33.397 77.792 32.5612C73.4815 31.7255 68.8451 29.2909 67.7222 32.4159C67.116 34.1698 66.3076 35.8466 65.3134 37.4122Z" fill="#72351C"/>
<g opacity="0.1">
<path opacity="0.1" d="M85.1449 36.6279C85.2409 36.0475 85.7094 35.5965 85.9635 35.0637C86.1268 34.7043 86.2213 34.3168 86.242 33.9219C86.242 34.135 86.2608 34.3481 86.2627 34.5632C86.2627 35.1874 86.2364 35.8306 85.9635 36.3976C85.7546 36.8296 85.4102 37.2102 85.2371 37.6498C85.1458 37.3176 85.1146 36.9714 85.1449 36.6279Z" fill="black"/>
<path opacity="0.1" d="M62.8596 32.578C63.2021 34.2374 63.7366 35.9272 63.571 37.5904C63.4637 36.363 63.1099 35.1279 62.8596 33.91C62.6511 32.9858 62.5775 32.0356 62.6414 31.0898C62.6823 31.5901 62.7552 32.0872 62.8596 32.578Z" fill="black"/>
</g>
<path d="M84.4028 75.2349C84.6305 79.0142 87.3724 82.1369 88.4168 85.7716C88.6765 86.6812 88.8327 87.6251 89.2053 88.491C89.9581 90.2322 91.5069 91.4958 93.1573 92.3863C93.7594 92.7383 94.4181 92.9805 95.1031 93.1019C95.8562 93.1909 96.6182 93.0457 97.2876 92.6856C97.957 92.3256 98.5019 91.7678 98.8499 91.0866C99.2808 90.2017 99.3411 89.1836 99.6026 88.2322C99.8943 87.1341 100.44 86.1218 100.796 85.0428C101.451 83.058 101.437 80.8848 100.984 78.8448C100.554 77.0708 99.8741 75.3685 98.9647 73.7905C98.833 73.5564 98.6994 73.3243 98.562 73.094C98.1738 72.4283 97.7379 71.7923 97.2578 71.191C96.1287 69.8152 94.6778 68.7571 93.2419 67.7143C93.1323 67.623 93.0036 67.5579 92.8656 67.524H92.843C92.6811 67.5183 92.5206 67.5564 92.3782 67.6344C90.3869 68.5049 88.4756 69.5518 86.6667 70.7629C86.0194 71.1986 84.9975 71.6858 84.6588 72.428C84.32 73.1701 84.3539 74.428 84.4028 75.2349Z" fill="#FDB797"/>
<path d="M91.8744 57.8428C92.0577 58.0368 92.1999 58.2667 92.2922 58.5184C93.8133 61.9851 94.7118 65.698 94.9456 69.4833C94.9415 69.6679 94.9836 69.8505 95.0679 70.0142C95.1511 70.1232 95.2436 70.2244 95.3445 70.3168C95.4361 70.4266 95.5045 70.5542 95.5454 70.6918C95.5863 70.8294 95.5988 70.974 95.5823 71.1167C95.5657 71.2594 95.5203 71.3972 95.449 71.5214C95.3777 71.6457 95.2819 71.7538 95.1676 71.8392C94.8571 71.2473 94.1138 71.0551 93.4533 71.0038C90.2898 70.7507 87.1998 72.2388 84.027 72.1265C84.251 71.3444 84.5728 70.5927 84.7553 69.8011C85.5626 66.2863 83.549 62.4594 84.7835 59.074C85.03 58.3966 85.4422 57.7305 86.0914 57.4337C86.3602 57.3239 86.6415 57.2484 86.9288 57.2091C87.7305 57.0626 89.3263 56.4365 90.1017 56.6877C90.3877 56.7809 90.5006 57.0531 90.7377 57.2167C91.0896 57.4508 91.5676 57.5326 91.8744 57.8428Z" fill="#F86D70"/>
<path opacity="0.1" d="M90.5777 89.3074C91.0615 90.1373 91.7485 90.8273 92.5725 91.3109C93.3965 91.7945 94.3297 92.0554 95.2823 92.0686C95.7979 92.0823 96.3107 91.987 96.7878 91.7889C97.9903 91.2522 98.6697 89.924 98.9218 88.6185C99.174 87.3131 99.095 85.9658 99.2737 84.647C99.4168 83.5966 99.7216 82.5766 99.8797 81.528C100.267 78.9343 99.5033 76.3729 98.9595 73.7905C98.8277 73.5565 98.6941 73.3243 98.5567 73.0941C98.1686 72.4284 97.7327 71.7924 97.2526 71.1911C96.1235 69.8152 94.6726 68.7572 93.2367 67.7143H94.7422C94.7058 67.6874 94.663 67.6706 94.6182 67.6656C94.5733 67.6606 94.5279 67.6676 94.4866 67.6859C94.4453 67.7042 94.4094 67.7332 94.3826 67.7699C94.3558 67.8066 94.339 67.8498 94.3338 67.8951C94.1852 69.2272 92.3278 70.5593 91.9232 71.8533C91.6729 72.6488 91.3718 73.429 91.1704 74.2397C91.0117 74.9301 90.8911 75.6289 90.8091 76.3329C90.5419 78.3031 90.2759 80.2695 90.0112 82.2321C89.6781 84.628 89.3921 87.2179 90.5777 89.3074Z" fill="black"/>
<path d="M93.069 64.323L91.253 58.5627C90.9821 57.7007 90.7073 56.8253 90.6753 55.9195C90.6433 55.0137 90.8786 54.0641 91.5052 53.4171C92.0133 52.8938 92.7171 52.6235 93.3193 52.2144C94.8248 51.1887 95.5776 49.3923 96.3623 47.7386C97.147 46.0849 98.1802 44.3551 99.8927 43.7424C100.288 43.6015 100.834 43.5901 101.011 43.9726C101.072 44.1316 101.082 44.3062 101.039 44.4712C100.873 45.3504 100.25 46.0526 99.7083 46.7548C98.7993 47.9441 98.0391 49.3999 98.2573 50.888C98.517 52.6502 100.083 54.0165 100.271 55.7882C100.354 56.5684 100.156 57.3505 100.158 58.1365C100.158 58.6236 100.237 59.1203 100.13 59.596C100.018 59.9639 99.8859 60.3248 99.7327 60.6769C99.5651 61.2459 99.4777 61.8359 99.473 62.4296L99.076 69.9197C98.8614 73.9711 101.035 77.9121 100.437 81.9084C100.278 82.9569 99.9736 83.9769 99.8306 85.0274C99.6424 86.3461 99.7308 87.6915 99.4787 88.9989C99.2265 90.3062 98.5377 91.6326 97.3446 92.1692C96.8675 92.3674 96.3548 92.4626 95.8391 92.449C94.8865 92.4358 93.9533 92.1748 93.1293 91.6912C92.3053 91.2076 91.6183 90.5176 91.1345 89.6877C89.9489 87.5945 90.235 85.0083 90.5586 82.622L91.3565 76.7228C91.4385 76.0188 91.5592 75.32 91.7179 74.6295C91.9173 73.8189 92.2184 73.0386 92.4706 72.2432C93.2779 69.6418 93.882 66.9072 93.069 64.323Z" fill="#FDB797"/>
<path d="M44.7277 64.7695H83.6935C84.5219 64.7695 85.1934 65.4486 85.1934 66.2862V90.2751C85.1934 91.1127 84.5219 91.7917 83.6935 91.7917H44.7277C43.8993 91.7917 43.2278 91.1127 43.2278 90.2751V66.2862C43.2278 65.4486 43.8993 64.7695 44.7277 64.7695Z" fill="#626673"/>
<path d="M64.3045 79.4242C63.6809 79.4242 63.1754 78.913 63.1754 78.2824C63.1754 77.6518 63.6809 77.1406 64.3045 77.1406C64.9281 77.1406 65.4336 77.6518 65.4336 78.2824C65.4336 78.913 64.9281 79.4242 64.3045 79.4242Z" fill="white"/>
<path d="M142.424 17.1953H99.894V33.9415H142.424V17.1953Z" fill="#89E386"/>
<path d="M166.8 17.1953H101.499C100.252 17.1953 99.2412 18.2177 99.2412 19.4789V31.6579C99.2412 32.9191 100.252 33.9415 101.499 33.9415H166.8C168.047 33.9415 169.058 32.9191 169.058 31.6579V19.4789C169.058 18.2177 168.047 17.1953 166.8 17.1953Z" stroke="#099616" stroke-width="1.41176" stroke-miterlimit="10"/>
<path d="M137.492 24.6719C137.355 23.9715 137.005 23.3316 136.492 22.8408C135.979 22.35 135.328 22.0326 134.629 21.9325C133.93 21.8323 133.217 21.9545 132.589 22.282C131.962 22.6094 131.451 23.1261 131.126 23.7604C130.431 23.8345 129.791 24.1757 129.338 24.7136C128.885 25.2514 128.653 25.9447 128.691 26.6503C128.729 27.3558 129.033 28.0196 129.542 28.5046C130.05 28.9896 130.723 29.2586 131.422 29.2562H137.334C137.938 29.2547 138.517 29.0107 138.943 28.5778C139.37 28.145 139.609 27.5587 139.608 26.9479C139.61 26.3668 139.392 25.807 138.999 25.3836C138.605 24.9602 138.066 24.7055 137.492 24.6719ZM134.879 26.0287V27.7757H133.422V26.0287H131.877L134.15 23.728L136.424 26.0287H134.879Z" fill="#099616"/>
</g>
<defs>
<linearGradient id="paint0_linear" x1="62.073" y1="118.935" x2="62.073" y2="21.5695" gradientUnits="userSpaceOnUse">
<stop stop-color="#808080" stop-opacity="0.25"/>
<stop offset="0.54" stop-color="#808080" stop-opacity="0.12"/>
<stop offset="1" stop-color="#808080" stop-opacity="0.1"/>
</linearGradient>
<clipPath id="clip0">
<rect width="192" height="124" fill="white"/>
</clipPath>
</defs>
</svg>
