<svg width="192" height="124" viewBox="0 0 192 124" fill="none" xmlns="http://www.w3.org/2000/svg">
<g clip-path="url(#clip0)">
<path d="M55.6454 42.4736C44.3173 52.5228 30.9723 60.7228 27.9055 71.6237C24.8386 82.5246 32.0775 96.1021 43.4056 102.428C54.7336 108.755 70.1508 107.83 87.2811 109.315C104.411 110.799 123.227 114.716 134.693 108.39C146.159 102.063 150.276 85.4932 147.347 71.5021C144.419 57.511 134.445 46.0991 122.978 36.0498C111.512 25.9762 98.5539 17.2896 87.4192 18.8955C76.2846 20.5014 66.9735 32.4 55.6454 42.4736Z" fill="#F2F9FD"/>
<path d="M25.4939 77.5565C25.4939 77.5565 13.6673 84.6958 35.4762 95.6922C35.4762 95.6922 40.2816 86.7705 34.9691 79.4957C33.9382 78.0782 32.4233 77.0881 30.7112 76.7129C28.9992 76.3377 27.2089 76.6034 25.6797 77.4597L25.4939 77.5565Z" fill="#14BC1F"/>
<path d="M25.6353 77.4102C25.6353 77.4102 35.7608 85.1514 35.4782 95.6891" stroke="#535461" stroke-width="0.352941" stroke-miterlimit="10"/>
<path d="M148.469 94.1967H136.035C136.321 93.6212 136.469 92.9872 136.468 92.3446V35.7253C136.468 34.6213 136.03 33.5624 135.249 32.7818C134.469 32.0011 133.41 31.5625 132.306 31.5625H36.0572C34.9531 31.5625 33.8943 32.0011 33.1136 32.7818C32.3329 33.5624 31.8944 34.6213 31.8944 35.7253V92.3465C31.8934 92.9891 32.0418 93.6232 32.3279 94.1986H19.4542C19.3091 94.1986 19.1655 94.2273 19.0315 94.283C18.8975 94.3387 18.7758 94.4203 18.6735 94.5232C18.5712 94.626 18.4902 94.7481 18.4352 94.8824C18.3802 95.0167 18.3523 95.1605 18.353 95.3056V96.1939C18.353 97.8271 19.0018 99.3935 20.1567 100.548C21.3116 101.703 22.8779 102.352 24.5112 102.352H143.412C145.046 102.352 146.612 101.703 147.767 100.548C148.922 99.3935 149.57 97.8271 149.57 96.1939V95.3056C149.572 95.1603 149.544 95.0163 149.489 94.8818C149.434 94.7473 149.353 94.625 149.251 94.5219C149.148 94.4188 149.027 94.337 148.893 94.2812C148.758 94.2254 148.615 94.1967 148.469 94.1967ZM71.8526 97.7189L70.7804 96.5093H97.2515L96.071 97.7208L71.8526 97.7189Z" fill="url(#paint0_linear)"/>
<path d="M130.779 32.3672H37.5748C35.0886 32.3672 33.0732 34.3826 33.0732 36.8687V91.3417C33.0732 93.8278 35.0886 95.8432 37.5748 95.8432H130.779C133.265 95.8432 135.28 93.8278 135.28 91.3417V36.8687C135.28 34.3826 133.265 32.3672 130.779 32.3672Z" fill="#8A8E99"/>
<path d="M132.913 41.6172H35.2251V93.4736H132.913V41.6172Z" fill="white"/>
<path d="M84.0702 37.9607C84.5458 37.9607 84.9314 37.5751 84.9314 37.0995C84.9314 36.6239 84.5458 36.2383 84.0702 36.2383C83.5946 36.2383 83.209 36.6239 83.209 37.0995C83.209 37.5751 83.5946 37.9607 84.0702 37.9607Z" fill="white"/>
<path d="M99.152 93.5781L69.1025 93.5781L20.9154 93.5781C20.63 93.5781 20.3563 93.6915 20.1545 93.8933C19.9527 94.0951 19.8394 94.3688 19.8394 94.6542V95.5212C19.8394 97.1174 20.4735 98.6484 21.6022 99.7771C22.731 100.906 24.2619 101.54 25.8582 101.54H142.065C142.856 101.54 143.638 101.384 144.369 101.082C145.099 100.779 145.762 100.336 146.321 99.7771C146.88 99.2182 147.324 98.5547 147.626 97.8245C147.928 97.0942 148.084 96.3116 148.084 95.5212V94.6542C148.084 94.3688 147.971 94.0951 147.769 93.8933C147.567 93.6915 147.294 93.5781 147.008 93.5781H99.152Z" fill="#626673"/>
<path d="M47.4707 44.8242V89.2948H120" stroke="#D7DEE6" stroke-width="0.705882" stroke-linecap="round"/>
<path d="M57.7061 68.824L70.9413 56.6475L83.6472 67.7652L96.7061 54.3534L109.412 48.8828" stroke="#D7DEE6" stroke-width="0.705882"/>
<path opacity="0.5" d="M61.6904 75.6133H54.1602V87.2328H61.6904V75.6133Z" fill="#14BC1F"/>
<path opacity="0.7" d="M74.6006 65.2852H67.0703V87.2334H74.6006V65.2852Z" fill="#14BC1F"/>
<path opacity="0.5" d="M87.5112 71.5273H79.981V87.2343H87.5112V71.5273Z" fill="#14BC1F"/>
<path opacity="0.8" d="M100.421 61.8438H92.8911V87.2349H100.421V61.8438Z" fill="#14BC1F"/>
<path d="M113.332 52.8047H105.802V87.2318H113.332V52.8047Z" fill="#14BC1F"/>
<path d="M57.8177 70.0191C58.6492 70.0191 59.3233 69.345 59.3233 68.5135C59.3233 67.6819 58.6492 67.0078 57.8177 67.0078C56.9861 67.0078 56.312 67.6819 56.312 68.5135C56.312 69.345 56.9861 70.0191 57.8177 70.0191Z" fill="#14BC1F"/>
<path d="M83.6385 69.1598C84.47 69.1598 85.1441 68.4857 85.1441 67.6541C85.1441 66.8225 84.47 66.1484 83.6385 66.1484C82.8069 66.1484 82.1328 66.8225 82.1328 67.6541C82.1328 68.4857 82.8069 69.1598 83.6385 69.1598Z" fill="#14BC1F"/>
<path d="M96.764 55.8199C97.5955 55.8199 98.2696 55.1458 98.2696 54.3143C98.2696 53.4827 97.5955 52.8086 96.764 52.8086C95.9324 52.8086 95.2583 53.4827 95.2583 54.3143C95.2583 55.1458 95.9324 55.8199 96.764 55.8199Z" fill="#14BC1F"/>
<path d="M70.9432 57.9684C71.7747 57.9684 72.4488 57.2943 72.4488 56.4627C72.4488 55.6311 71.7747 54.957 70.9432 54.957C70.1116 54.957 69.4375 55.6311 69.4375 56.4627C69.4375 57.2943 70.1116 57.9684 70.9432 57.9684Z" fill="#14BC1F"/>
<path d="M109.459 50.441C110.291 50.441 110.965 49.7669 110.965 48.9354C110.965 48.1038 110.291 47.4297 109.459 47.4297C108.628 47.4297 107.954 48.1038 107.954 48.9354C107.954 49.7669 108.628 50.441 109.459 50.441Z" fill="#14BC1F"/>
<path d="M169.305 105.557C168.385 105.255 167.022 104.905 165.941 105.028C164.911 104.654 162.491 103.682 160.838 102.22C160.886 100.782 160.849 99.343 160.728 97.9095C159.883 88.2946 161.785 81.9564 161.785 81.9564C161.785 81.9564 163.278 77.1209 163.115 73.1086C163.211 73.2902 163.265 73.3979 163.265 73.3979C163.395 69.9372 164.575 66.3555 165.458 64.1239C165.492 64.1143 165.525 64.1023 165.557 64.088L166.544 61.7465C166.623 61.6099 166.685 61.4647 166.73 61.3136L166.889 60.9436L166.842 60.9234C166.858 60.8628 166.874 60.7978 166.889 60.7328C167.52 58.0661 168.011 51.7413 168.011 51.7413C169.702 45.0847 165.687 40.9759 165.687 40.9759L158.874 35.1132C158.907 35.1895 158.93 35.2703 158.941 35.3532L158.885 35.3038C158.788 35.028 158.683 34.6983 158.58 34.3215C158.82 34.1489 159.045 33.9561 159.253 33.7451C160.027 33.0134 160.56 32.0627 160.78 31.0201C160.912 30.2047 160.946 29.3764 160.881 28.553L160.769 25.7248C160.764 25.1713 160.707 24.6195 160.601 24.0763C160.087 21.8335 157.788 20.2636 155.48 20.1604C154.746 20.1561 154.012 20.1951 153.282 20.277C152.685 20.326 152.086 20.3388 151.488 20.3151C151.42 20.3188 151.352 20.3007 151.295 20.2636C151.243 20.2118 151.213 20.1418 151.212 20.0684C151.2 19.9372 151.215 19.8049 151.256 19.6796C151.297 19.5543 151.363 19.4386 151.45 19.3395C151.54 19.2603 151.645 19.2001 151.759 19.1623L151.596 19.2005C151.676 19.1368 151.767 19.0875 151.865 19.0547C151.267 19.1599 150.691 19.3686 150.165 19.6715C150.02 19.7668 149.886 19.8789 149.768 20.0056C149.454 20.2808 149.25 20.6599 149.194 21.0732C148.913 20.836 148.703 20.5254 148.588 20.1761C148.552 20.0333 148.552 19.8838 148.588 19.741C148.548 19.7903 148.509 19.8412 148.471 19.8935C148.471 19.8778 148.471 19.8621 148.471 19.8464C148.038 20.3792 147.731 21.0034 147.574 21.672C147.514 21.5996 147.469 21.516 147.441 21.4259C147.413 21.3358 147.404 21.241 147.413 21.1472C147.379 21.2526 147.348 21.358 147.319 21.4635C147.308 21.3936 147.308 21.3225 147.319 21.2526C147.055 22.0612 146.935 22.9101 146.966 23.7601C146.966 24.6079 147.343 25.9289 148.252 26.2272C148.299 26.2429 148.346 26.2541 148.395 26.2653C147.884 27.0589 147.578 27.9668 147.505 28.9076C147.431 29.8485 147.592 30.7929 147.973 31.6563C148.355 32.5196 148.944 33.2748 149.689 33.8543C150.434 34.4337 151.311 34.8193 152.242 34.9764C152.257 35.0795 152.271 35.1879 152.284 35.3016H152.32C152.345 35.5259 152.365 35.7726 152.378 36.0238C152.149 36.2484 151.898 36.4497 151.629 36.6248C150.867 37.0756 150.016 37.3571 149.135 37.4502C148.083 37.5327 147.061 37.8386 146.137 38.3473C145.049 38.9551 143.849 39.841 143.472 40.9176C142.844 42.7118 139.386 45.5041 137.067 45.8517L136.241 45.8046L136.181 45.7867V45.8024L135.979 45.7912H135.968H135.914V45.8024L135.705 45.7912C135.705 45.7912 135.685 45.8876 135.656 46.0581C134.49 45.6566 132.011 44.5442 128.786 41.6173C125.198 38.3585 120.342 39 118.469 39.4104C118.406 39.4245 118.348 39.4576 118.303 39.5054C118.259 39.5533 118.23 39.6135 118.221 39.6781C118.212 39.7426 118.222 39.8085 118.252 39.8669C118.281 39.9253 118.327 39.9733 118.384 40.0047C119.14 40.4197 120.311 41.023 120.851 41.0903C120.851 41.0903 119.73 42.2632 120.923 42.8845C121.066 42.9537 121.226 42.9822 121.384 42.9667C121.542 42.9513 121.693 42.8926 121.82 42.797C122.399 42.3731 124.007 43.3331 126.337 43.8332C126.337 43.8332 132.913 50.6379 136.179 51.683C136.254 51.8316 136.337 51.9761 136.428 52.1159L136.629 52.1002V52.1159H136.715L136.739 52.3402C136.739 52.3402 141.817 52.0733 143.468 50.2297C143.585 50.1251 143.692 50.0102 143.788 49.8865L142.023 72.0903H142.039L142.023 72.3012H143.322C143.433 75.032 143.315 77.7673 142.97 80.4784V94.9535C142.97 94.9535 142.903 96.2274 145.549 98.0934C148.324 100.025 150.998 102.098 153.56 104.304L153.881 104.582C153.394 109.011 152.376 117.267 151.526 117.574L152.051 117.666C151.154 118.803 148.606 121.928 147.83 122.011C146.879 122.116 146.244 123.596 147.83 123.913C150.996 124.461 154.252 124.14 157.25 122.984C157.549 122.866 157.8 122.651 157.962 122.374C158.125 122.097 158.19 121.773 158.147 121.454L157.84 119.122C157.898 119.154 157.945 119.204 157.974 119.263C158.185 119.898 157.974 118.418 157.974 118.418C158.843 115.625 159.526 112.778 160.017 109.895L163.157 112.609C163.157 112.609 163.22 112.53 163.33 112.385C164.099 114.129 165.472 117.7 165.165 120.315C164.743 123.904 168.753 120.737 168.334 118.624C167.993 116.915 169.518 109.671 170.112 106.961C170.176 106.669 170.129 106.363 169.98 106.103C169.83 105.844 169.59 105.649 169.305 105.557Z" fill="url(#paint1_linear)"/>
<path d="M136.49 46.9464C136.49 46.9464 133.498 46.4305 129.062 42.4069C125.552 39.2244 120.817 39.8501 118.991 40.2516C118.929 40.265 118.873 40.2972 118.829 40.3438C118.786 40.3903 118.758 40.449 118.749 40.512C118.74 40.575 118.75 40.6393 118.779 40.6962C118.807 40.7531 118.853 40.7998 118.909 40.8302C119.646 41.2339 120.79 41.8238 121.326 41.8911C121.326 41.8911 120.221 43.0349 121.396 43.6472C121.537 43.7163 121.694 43.7449 121.85 43.7299C122.006 43.7148 122.155 43.6567 122.279 43.562C122.845 43.1493 124.415 44.0868 126.691 44.5735C126.691 44.5735 135.564 53.7555 137.627 52.199L136.49 46.9464Z" fill="#FDB797"/>
<path d="M151.766 34.4636C151.766 34.4636 152.591 37.9714 151.766 40.4474L155.48 40.9633L158.781 39.3126V37.146C158.781 37.146 157.234 33.8446 157.646 30.0273L151.766 34.4636Z" fill="#FDB797"/>
<path d="M162.282 110.494C162.282 110.494 164.974 115.756 164.552 119.263C164.13 122.771 168.06 119.676 167.647 117.613C167.313 115.944 168.802 108.866 169.383 106.233C169.446 105.948 169.401 105.65 169.257 105.397C169.112 105.144 168.879 104.953 168.602 104.862C167.362 104.454 165.285 103.954 164.242 104.719C162.702 105.851 162.282 110.494 162.282 110.494Z" fill="#F6FAFB"/>
<path d="M152.075 116.27C152.075 116.27 148.567 120.81 147.639 120.913C146.71 121.016 146.091 122.461 147.639 122.77C150.729 123.308 153.907 122.998 156.834 121.873C157.127 121.759 157.374 121.549 157.533 121.278C157.693 121.008 157.757 120.691 157.716 120.379L157.124 115.961L152.075 116.27Z" fill="#F6FAFB"/>
<path d="M146.298 68.0938L142.934 68.5423C143.395 72.4717 143.382 76.4425 142.893 80.3686V94.4983C142.893 94.4983 142.828 95.7431 145.412 97.553C148.121 99.4366 150.732 101.458 153.235 103.609L162.596 111.719C162.596 111.719 166.31 107.179 165.795 104.497C165.795 104.497 159.604 102.537 158.779 99.3383C158.306 97.5082 155.906 95.9741 153.941 95.0097C152.706 94.4099 151.714 93.4056 151.128 92.1637C150.543 90.9218 150.4 89.517 150.723 88.1826C150.838 87.7189 151.015 87.2729 151.25 86.8571C152.901 83.9683 155.274 77.4687 155.274 77.4687L150.734 68.8159L146.298 68.0938Z" fill="#4D4981"/>
<path opacity="0.05" d="M146.298 68.0938L142.934 68.5423C143.395 72.4717 143.382 76.4425 142.893 80.3686V94.4983C142.893 94.4983 142.828 95.7431 145.412 97.553C148.121 99.4366 150.732 101.458 153.235 103.609L162.596 111.719C162.596 111.719 166.31 107.179 165.795 104.497C165.795 104.497 159.604 102.537 158.779 99.3383C158.306 97.5082 155.906 95.9741 153.941 95.0097C152.706 94.4099 151.714 93.4056 151.128 92.1637C150.543 90.9218 150.4 89.517 150.723 88.1826C150.838 87.7189 151.015 87.2729 151.25 86.8571C152.901 83.9683 155.274 77.4687 155.274 77.4687L150.734 68.8159L146.298 68.0938Z" fill="black"/>
<path d="M151.25 116.588C151.25 116.588 157.337 117.62 157.543 118.239C157.75 118.858 157.543 117.413 157.543 117.413C157.543 117.413 161.051 106.787 160.235 97.4006C159.418 88.0145 161.266 81.8221 161.266 81.8221C161.266 81.8221 163.433 74.8066 162.195 70.783C160.957 66.7594 147.958 68.5133 147.958 68.5133C147.958 68.5133 152.497 79.1397 152.394 84.195C152.394 84.195 152.91 99.464 153.838 101.218C153.829 101.209 152.385 116.168 151.25 116.588Z" fill="#4D4981"/>
<path d="M151.965 37.1445C151.965 37.1445 152.584 40.9573 158.774 39.3111L154.656 70.6722C154.656 70.6722 142.689 71.0849 142.792 69.6405L145.259 50.6597L151.965 37.1445Z" fill="white"/>
<path opacity="0.1" d="M152.127 36.9375C151.321 37.7311 150.271 38.2297 149.146 38.3527C148.119 38.4314 147.121 38.7281 146.217 39.2229C145.156 39.8173 143.974 40.6807 143.616 41.7326C142.893 43.796 138.354 47.2006 136.291 46.4784L137.013 52.6685C137.013 52.6685 142.893 52.359 143.925 50.0893L142.173 72.1787H143.721C143.721 72.1787 144.546 66.1949 145.165 64.9569C145.784 63.7188 147.022 56.9097 147.126 55.259C147.229 53.6083 148.776 44.1167 150.117 42.475L152.136 37.5745L152.127 36.9375Z" fill="black"/>
<path opacity="0.1" d="M152.126 37.25C151.204 37.9712 150.102 38.4251 148.939 38.562C147.913 38.6425 146.915 38.9406 146.013 39.4367C144.952 40.0311 143.77 40.8946 143.411 41.9464C142.689 44.0098 138.149 47.4144 136.086 46.6922L136.808 52.8824C136.808 52.8824 142.689 52.5729 143.72 50.3031L141.967 72.3791H143.514C143.514 72.3791 144.339 66.3953 144.958 65.1572C145.577 63.9192 146.816 57.11 146.919 55.4593C147.022 53.8086 148.569 44.3171 149.911 42.6753L152.126 37.8668V37.25Z" fill="black"/>
<path d="M152.127 37.043C151.205 37.7642 150.102 38.2181 148.94 38.355C147.913 38.4337 146.914 38.7304 146.011 39.2252C144.95 39.8196 143.768 40.683 143.409 41.7349C142.687 43.7983 138.147 47.2029 136.084 46.4807L136.806 52.6708C136.806 52.6708 142.687 52.3613 143.718 50.0916L141.967 72.181H143.514C143.514 72.181 144.34 66.1972 144.959 64.9592C145.578 63.7211 146.816 56.912 146.919 55.2613C147.022 53.6106 148.57 44.119 149.911 42.4773L152.129 37.6799L152.127 37.043Z" fill="#F55F44"/>
<path opacity="0.1" d="M157.388 33.0699C157.254 32.0921 157.523 31.482 157.646 30.3359L151.766 34.7722C151.766 34.7722 151.907 35.371 152.015 36.248C152.311 36.2959 152.611 36.3199 152.912 36.3197C154.953 36.3197 156.422 34.7251 157.388 33.0699Z" fill="black"/>
<path d="M152.901 36.0134C155.978 36.0134 158.472 33.5191 158.472 30.4422C158.472 27.3654 155.978 24.8711 152.901 24.8711C149.824 24.8711 147.33 27.3654 147.33 30.4422C147.33 33.5191 149.824 36.0134 152.901 36.0134Z" fill="#FDB797"/>
<path opacity="0.1" d="M146.821 24.9784C146.785 24.0389 146.937 23.1017 147.269 22.222C147.177 22.3604 147.138 22.5275 147.159 22.6924C147.181 22.8573 147.261 23.0088 147.386 23.1191C147.565 22.1603 148.057 21.288 148.785 20.6385C148.388 20.7036 148.184 21.1948 148.283 21.585C148.417 21.9662 148.656 22.3019 148.971 22.5539C148.938 21.964 149.328 21.4123 149.821 21.0894C150.335 20.7941 150.897 20.5907 151.481 20.4883C151.281 20.5594 151.11 20.6947 150.995 20.8732C150.879 21.0517 150.826 21.2634 150.844 21.4751C150.846 21.5471 150.876 21.6155 150.927 21.6658C150.983 21.7016 151.049 21.7189 151.116 21.7151C151.697 21.7375 152.279 21.7248 152.858 21.677C153.571 21.5968 154.287 21.5586 155.005 21.5626C157.247 21.6568 159.501 23.1886 160.004 25.3754C160.108 25.9059 160.163 26.445 160.167 26.9857L160.277 29.7466C160.341 30.5521 160.308 31.3623 160.179 32.1598C160.023 32.8961 159.707 33.5891 159.253 34.1892C158.799 34.7894 158.219 35.2819 157.552 35.6317C156.743 34.4587 156.671 32.9516 156.391 31.5543C156.346 31.2318 156.226 30.9244 156.041 30.6572C155.945 30.525 155.81 30.426 155.655 30.3737C155.501 30.3215 155.334 30.3186 155.177 30.3656C154.874 30.4867 154.744 30.9487 154.996 31.1551C154.771 31.4197 154.352 31.2224 154.098 30.9869C153.391 30.3154 152.903 29.445 152.701 28.4906C152.6 28.0107 152.499 27.4186 152.028 27.2548C151.866 27.2103 151.697 27.1989 151.53 27.2212C150.548 27.2885 149.012 27.6944 148.061 27.3827C147.188 27.0978 146.821 25.806 146.821 24.9784Z" fill="black"/>
<path d="M146.924 24.8768C146.888 23.9373 147.04 23.0001 147.372 22.1204C147.28 22.2588 147.241 22.4259 147.262 22.5908C147.284 22.7557 147.364 22.9073 147.489 23.0175C147.668 22.0588 148.16 21.1865 148.888 20.537C148.491 20.602 148.287 21.0932 148.386 21.4835C148.52 21.8646 148.759 22.2004 149.074 22.4523C149.041 21.8625 149.431 21.3108 149.924 20.9878C150.439 20.6925 151 20.4891 151.584 20.3867C151.384 20.4578 151.213 20.5932 151.098 20.7717C150.982 20.9502 150.929 21.1618 150.947 21.3736C150.949 21.4455 150.979 21.5139 151.03 21.5642C151.086 21.6 151.152 21.6173 151.219 21.6135C151.8 21.6359 152.382 21.6232 152.961 21.5754C153.674 21.4952 154.39 21.457 155.108 21.461C157.35 21.5552 159.604 23.0871 160.107 25.2738C160.211 25.8044 160.266 26.3434 160.27 26.8841L160.38 29.645C160.444 30.4505 160.411 31.2607 160.282 32.0583C160.126 32.7946 159.81 33.4875 159.356 34.0876C158.902 34.6878 158.322 35.1803 157.655 35.5301C156.846 34.3572 156.774 32.85 156.494 31.4527C156.449 31.1303 156.329 30.8229 156.144 30.5556C156.048 30.4234 155.913 30.3244 155.758 30.2722C155.604 30.2199 155.437 30.2171 155.28 30.264C154.977 30.3851 154.847 30.8472 155.099 31.0535C154.874 31.3182 154.455 31.1208 154.201 30.8853C153.494 30.2139 153.006 29.3434 152.804 28.389C152.703 27.9091 152.602 27.317 152.131 27.1533C151.969 27.1087 151.8 27.0973 151.633 27.1196C150.651 27.1869 149.115 27.5929 148.164 27.2811C147.291 26.994 146.924 25.7044 146.924 24.8768Z" fill="#784F69"/>
<path opacity="0.1" d="M135.818 46.4805C135.818 46.4805 134.992 50.2932 136.54 52.6706L137.417 52.5988L136.939 46.5433L135.818 46.4805Z" fill="black"/>
<path d="M136.041 46.4805C136.041 46.4805 135.216 50.2932 136.763 52.6706L137.64 52.5988L137.163 46.5433L136.041 46.4805Z" fill="#BE4B37"/>
<path opacity="0.1" d="M158.214 36.0703L164.868 41.7962C164.868 41.7962 168.789 45.8198 167.138 52.3194C167.138 52.3194 166.416 61.811 165.591 62.2237C165.591 62.2237 162.702 68.0011 162.496 73.4691C162.496 73.4691 158.627 65.6798 156.873 70.4256C155.119 75.1714 151.042 75.842 151.042 75.842L153.311 47.771C153.311 47.771 159.039 37.8152 158.214 36.0703Z" fill="black"/>
<path d="M158.42 36.0703L165.074 41.7962C165.074 41.7962 168.995 45.8198 167.344 52.3194C167.344 52.3194 166.622 61.811 165.797 62.2237C165.797 62.2237 162.908 68.0011 162.702 73.4691C162.702 73.4691 158.626 65.2672 156.87 70.0129C155.114 74.7587 151.248 75.8442 151.248 75.8442L153.517 47.7845C153.517 47.7845 159.245 37.8152 158.42 36.0703Z" fill="#F55F44"/>
<path d="M161.463 60.2539C161.463 60.2539 163.114 59.1191 165.797 62.2141L159.194 74.1817L156.976 70.8332C156.976 70.8332 161.67 61.5951 161.463 60.2539Z" fill="#FDB797"/>
<path opacity="0.1" d="M159.865 60.9258C159.865 60.9258 163.516 65.0256 164.94 64.3685L166.259 61.2981L161.309 59.1719L159.865 60.9258Z" fill="black"/>
<path d="M159.865 60.7187C159.865 60.7187 163.516 64.8186 164.94 64.1614L166.259 61.091L161.309 58.9648L159.865 60.7187Z" fill="#BE4B37"/>
<path opacity="0.1" d="M157.2 70.0508C157.2 70.0508 158.938 73.6124 159.864 73.8187L158.519 75.3662L156.559 71.6521L157.2 70.0508Z" fill="black"/>
<path d="M157.097 70.1602C157.097 70.1602 158.835 73.7217 159.762 73.9281L158.416 75.4756L156.451 71.7548L157.097 70.1602Z" fill="#4D4981"/>
<path opacity="0.1" d="M160.38 48.1328C160.38 48.1328 160.587 55.561 159.761 58.3466L160.38 48.1328Z" fill="black"/>
<path opacity="0.1" d="M143.667 49.5772C143.667 49.5772 144.905 49.1645 144.905 48.1328L143.667 49.5772Z" fill="black"/>
</g>
<defs>
<linearGradient id="paint0_linear" x1="83.9618" y1="102.344" x2="83.9618" y2="31.5606" gradientUnits="userSpaceOnUse">
<stop stop-color="#808080" stop-opacity="0.25"/>
<stop offset="0.54" stop-color="#808080" stop-opacity="0.12"/>
<stop offset="1" stop-color="#808080" stop-opacity="0.1"/>
</linearGradient>
<linearGradient id="paint1_linear" x1="45723.2" y1="67691" x2="45723.2" y2="18422.1" gradientUnits="userSpaceOnUse">
<stop stop-color="#808080" stop-opacity="0.25"/>
<stop offset="0.54" stop-color="#808080" stop-opacity="0.12"/>
<stop offset="1" stop-color="#808080" stop-opacity="0.1"/>
</linearGradient>
<clipPath id="clip0">
<rect width="192" height="124" fill="white"/>
</clipPath>
</defs>
</svg>
