<svg width="12" height="12" viewBox="0 0 12 12" fill="none" xmlns="http://www.w3.org/2000/svg">
<path fill-rule="evenodd" clip-rule="evenodd" d="M4.77258 3.27188C4.64705 3.3974 4.64705 3.60092 4.77258 3.72645L7.04529 5.99916L4.77258 8.27188C4.64705 8.3974 4.64705 8.60092 4.77258 8.72645C4.8981 8.85197 5.10162 8.85197 5.22714 8.72645L7.72714 6.22645C7.78742 6.16617 7.82129 6.08441 7.82129 5.99916C7.82129 5.91391 7.78742 5.83216 7.72714 5.77188L5.22714 3.27188C5.10162 3.14635 4.8981 3.14635 4.77258 3.27188Z" fill="#14BC1F"/>
<path fill-rule="evenodd" clip-rule="evenodd" d="M0 6C0 2.68629 2.68629 0 6 0C9.31371 0 12 2.68629 12 6C12 9.31371 9.31371 12 6 12C2.68629 12 0 9.31371 0 6ZM6 0.75C3.10051 0.75 0.75 3.10051 0.75 6C0.75 8.8995 3.10051 11.25 6 11.25C8.8995 11.25 11.25 8.8995 11.25 6C11.25 3.10051 8.8995 0.75 6 0.75Z" fill="#14BC1F"/>
</svg>
