<svg width="32" height="32" viewBox="0 0 32 32" fill="none" xmlns="http://www.w3.org/2000/svg">
<path fill-rule="evenodd" clip-rule="evenodd" d="M14.7144 24.0056C14.7144 23.5322 15.0981 23.1484 15.5715 23.1484H29.0001C29.4735 23.1484 29.8572 23.5322 29.8572 24.0056C29.8572 24.479 29.4735 24.8627 29.0001 24.8627H15.5715C15.0981 24.8627 14.7144 24.479 14.7144 24.0056Z" fill="#626673"/>
<path fill-rule="evenodd" clip-rule="evenodd" d="M2.14307 16.0056C2.14307 15.5322 2.52682 15.1484 3.00021 15.1484H29.0002C29.4736 15.1484 29.8574 15.5322 29.8574 16.0056C29.8574 16.479 29.4736 16.8627 29.0002 16.8627H3.00021C2.52682 16.8627 2.14307 16.479 2.14307 16.0056Z" fill="#626673"/>
<path fill-rule="evenodd" clip-rule="evenodd" d="M6.71436 8.00558C6.71436 7.53219 7.09811 7.14844 7.5715 7.14844H29.0001C29.4735 7.14844 29.8572 7.53219 29.8572 8.00558C29.8572 8.47897 29.4735 8.86272 29.0001 8.86272H7.5715C7.09811 8.86272 6.71436 8.47897 6.71436 8.00558Z" fill="#626673"/>
</svg>
