<svg width="32" height="32" viewBox="0 0 32 32" fill="none" xmlns="http://www.w3.org/2000/svg">
<path fill-rule="evenodd" clip-rule="evenodd" d="M23 15C14.5936 15 18.023 15 9 15C8.448 15 8 15.447 8 16C8 16.553 8.448 17 9 17C18.023 17 14.5936 17 23 17C23.552 17 24 16.553 24 16C24 15.447 23.552 15 23 15Z" fill="white"/>
<path fill-rule="evenodd" clip-rule="evenodd" d="M15 9C15 17.4064 15 13.977 15 23C15 23.552 15.447 24 16 24C16.553 24 17 23.552 17 23C17 13.977 17 17.4064 17 9C17 8.448 16.553 8 16 8C15.447 8 15 8.448 15 9Z" fill="white"/>
</svg>
