<svg width="24" height="24" viewBox="0 0 24 24" fill="none" xmlns="http://www.w3.org/2000/svg">
<path fill-rule="evenodd" clip-rule="evenodd" d="M8.98543 0.107587H2.25028C1.06681 0.107587 0.107422 1.06698 0.107422 2.25044V6.00045C0.107422 6.35549 0.395239 6.6433 0.750279 6.6433H7.48607C7.49578 6.64352 7.50547 6.64352 7.51512 6.6433H14.9861C14.9958 6.64352 15.0055 6.64352 15.0151 6.6433H23.2503C23.6053 6.6433 23.8931 6.35549 23.8931 6.00045V2.25044C23.8931 1.06698 22.9337 0.107587 21.7503 0.107587H16.5145C16.5048 0.107366 16.4951 0.107367 16.4854 0.107587H9.01449C9.00478 0.107366 8.99509 0.107367 8.98543 0.107587ZM15.648 1.3933H9.48519L8.35253 5.35759H14.5154L15.648 1.3933ZM16.9852 1.3933L15.8525 5.35759H22.6074V2.25044C22.6074 1.77706 22.2237 1.3933 21.7503 1.3933H16.9852ZM7.01537 5.35759L8.14802 1.3933H2.25028C1.77689 1.3933 1.39314 1.77706 1.39314 2.25044V5.35759H7.01537ZM0.750279 8.35759C1.10532 8.35759 1.39314 8.64541 1.39314 9.00045V21.7504C1.39314 22.2238 1.77689 22.6076 2.25028 22.6076H21.7503C22.2237 22.6076 22.6074 22.2238 22.6074 21.7504V9.00045C22.6074 8.64541 22.8952 8.35759 23.2503 8.35759C23.6053 8.35759 23.8931 8.64541 23.8931 9.00045V21.7504C23.8931 22.9339 22.9337 23.8933 21.7503 23.8933H2.25028C1.06681 23.8933 0.107422 22.9339 0.107422 21.7504V9.00045C0.107422 8.64541 0.395239 8.35759 0.750279 8.35759ZM9.20105 11.9155C9.13505 11.8828 9.0568 11.8864 8.99413 11.9252C8.93136 11.9641 8.89315 12.0326 8.89314 12.1064M9.20105 11.9155C9.20094 11.9155 9.20117 11.9156 9.20105 11.9155V11.9155ZM8.31763 10.8319C8.75913 10.5587 9.31055 10.5334 9.77516 10.7651L9.77581 10.7655L15.5644 13.6602C16.0723 13.9138 16.3933 14.4327 16.3933 15.0004C16.3933 15.5681 16.0723 16.0871 15.5644 16.3406L9.77581 19.2354L9.77516 19.2357C9.31055 19.4674 8.75913 19.4422 8.31763 19.169C7.87613 18.8958 7.60744 18.4136 7.60742 17.8945V12.1064C7.60744 11.5872 7.87613 11.105 8.31763 10.8319ZM9.20105 11.9155L14.9897 14.8104L9.20105 11.9155ZM8.89314 12.1064V17.8944C8.89314 17.8944 8.89314 17.8944 8.89314 17.8944C8.89315 17.9682 8.93136 18.0368 8.99413 18.0756C9.0568 18.1144 9.13505 18.1181 9.20105 18.0853C9.20117 18.0852 9.20094 18.0854 9.20105 18.0853L14.9902 15.1902C15.0621 15.1543 15.1076 15.0808 15.1076 15.0004C15.1076 14.92 15.0621 14.8465 14.9902 14.8106L14.9897 14.8104" fill="#14BC1F"/>
</svg>
