<svg width="34" height="32" viewBox="0 0 34 32" fill="none" xmlns="http://www.w3.org/2000/svg">
<path fill-rule="evenodd" clip-rule="evenodd" d="M16.6634 2.27358C16.6633 2.27361 16.6634 2.27355 16.6634 2.27358L2.2728 16.6642C1.93807 16.9989 1.39536 16.9989 1.06062 16.6642C0.725887 16.3294 0.725887 15.7867 1.06062 15.452L15.4513 1.06131C16.3067 0.206187 17.6933 0.206096 18.5487 1.06122L32.9395 15.452C33.2742 15.7867 33.2742 16.3294 32.9395 16.6642C32.6047 16.9989 32.062 16.9989 31.7273 16.6642L17.3367 2.27358C17.3367 2.27355 17.3367 2.27361 17.3367 2.27358C17.1508 2.08781 16.8493 2.08781 16.6634 2.27358ZM21.4762 2.058C21.4762 1.58461 21.86 1.20085 22.3334 1.20085H26.3334C27.175 1.20085 27.8572 1.88309 27.8572 2.72466V6.72466C27.8572 7.19805 27.4734 7.58181 27 7.58181C26.5267 7.58181 26.1429 7.19805 26.1429 6.72466V2.91514H22.3334C21.86 2.91514 21.4762 2.53138 21.4762 2.058ZM13.1429 12.3913C13.1429 10.2611 14.8698 8.53419 17 8.53419C19.1303 8.53419 20.8572 10.2611 20.8572 12.3913C20.8572 14.0763 19.7768 15.5089 18.271 16.0342C20.3371 16.5928 21.8572 18.4806 21.8572 20.7233V24.0567C21.8572 24.5301 21.4734 24.9138 21 24.9138H19.7672L19.2909 29.2008H27.4762V17.3913C27.4762 16.9179 27.86 16.5342 28.3334 16.5342C28.8068 16.5342 29.1905 16.9179 29.1905 17.3913V29.2008H31C31.4734 29.2008 31.8572 29.5846 31.8572 30.058C31.8572 30.5314 31.4734 30.9151 31 30.9151H3.00005C2.52666 30.9151 2.1429 30.5314 2.1429 30.058C2.1429 29.5846 2.52666 29.2008 3.00005 29.2008H4.80957V16.7247C4.80957 16.2513 5.19333 15.8675 5.66671 15.8675C6.1401 15.8675 6.52386 16.2513 6.52386 16.7247V29.2008H14.7092L14.2329 24.9138H13C12.5267 24.9138 12.1429 24.5301 12.1429 24.0567V20.7233C12.1429 18.4806 13.663 16.5928 15.7291 16.0342C14.2233 15.5089 13.1429 14.0763 13.1429 12.3913ZM17.5662 29.1995L18.1481 23.962C18.1964 23.5279 18.5633 23.1995 19 23.1995H20.1429V20.7233C20.1429 18.9876 18.7358 17.5805 17 17.5805C15.2643 17.5805 13.8572 18.9876 13.8572 20.7233V23.1995H15C15.4368 23.1995 15.8037 23.5279 15.8519 23.962L16.4339 29.1995H17.5662ZM17 10.2485C15.8166 10.2485 14.8572 11.2079 14.8572 12.3913C14.8572 13.5748 15.8166 14.5342 17 14.5342C18.1835 14.5342 19.1429 13.5748 19.1429 12.3913C19.1429 11.2079 18.1835 10.2485 17 10.2485Z" fill="#89E386"/>
</svg>
