<svg width="32" height="32" viewBox="0 0 32 32" fill="none" xmlns="http://www.w3.org/2000/svg">
<path fill-rule="evenodd" clip-rule="evenodd" d="M11.9925 5.17681C16.6989 3.48678 21.9597 4.93115 25.1434 8.78741C25.4448 9.15247 25.3931 9.69272 25.0281 9.9941C24.663 10.2955 24.1228 10.2439 23.8214 9.87882C21.098 6.58008 16.5978 5.34454 12.5718 6.79022C8.54587 8.2359 5.85965 12.052 5.85686 16.3297V17.2598L8.39363 14.7231C8.72836 14.3883 9.27108 14.3883 9.60581 14.7231C9.94055 15.0578 9.94055 15.6005 9.60581 15.9352L5.65291 19.8881C5.49569 20.073 5.2614 20.1903 4.99972 20.1903C4.73804 20.1903 4.50375 20.073 4.34653 19.8881L0.393629 15.9352C0.0588943 15.6005 0.0588944 15.0578 0.39363 14.7231C0.728365 14.3883 1.27108 14.3883 1.60581 14.7231L4.14258 17.2598V16.3291C4.14584 11.3285 7.28606 6.86683 11.9925 5.17681ZM26.9997 13.472C27.227 13.472 27.4451 13.5623 27.6058 13.7231L31.6058 17.7231C31.9405 18.0578 31.9405 18.6005 31.6058 18.9353C31.2711 19.27 30.7284 19.27 30.3936 18.9352L27.8567 16.3983C27.8279 21.2285 24.8707 25.5617 20.3773 27.3468C15.8626 29.1403 10.7106 27.9985 7.37634 24.4655C7.05144 24.1212 7.06714 23.5787 7.41142 23.2538C7.7557 22.9289 8.29819 22.9446 8.6231 23.2889C11.4753 26.3111 15.8824 27.2878 19.7444 25.7536C23.5848 24.228 26.1135 20.5263 26.1423 16.3987L23.6058 18.9352C23.2711 19.27 22.7284 19.27 22.3936 18.9353C22.0589 18.6005 22.0589 18.0578 22.3936 17.7231L26.3936 13.7231C26.5544 13.5623 26.7724 13.472 26.9997 13.472Z" fill="#89E386"/>
</svg>
