<svg width="32" height="32" viewBox="0 0 32 32" fill="none" xmlns="http://www.w3.org/2000/svg">
<path fill-rule="evenodd" clip-rule="evenodd" d="M4.99972 1.87249C4.36854 1.87249 3.85686 2.38416 3.85686 3.01535V29.0153C3.85686 29.6465 4.36854 30.1582 4.99972 30.1582H26.9997C27.6309 30.1582 28.1426 29.6465 28.1426 29.0153V11.8725H20.9997C19.4218 11.8725 18.1426 10.5933 18.1426 9.01535V1.87249H4.99972ZM4.99972 0.158203C3.42176 0.158203 2.14258 1.43739 2.14258 3.01535V29.0153C2.14258 30.5933 3.42176 31.8725 4.99972 31.8725H26.9997C28.5777 31.8725 29.8569 30.5933 29.8569 29.0153V10.8433C29.8567 10.0861 29.5559 9.35973 29.0207 8.82411L21.1911 0.994588C20.6555 0.459315 19.9291 0.158365 19.1719 0.158203H4.99972ZM19.8569 2.10095C19.8998 2.13317 19.9407 2.16856 19.9792 2.20696L27.8081 10.0359C27.808 10.0358 27.8082 10.036 27.8081 10.0359C27.8464 10.0743 27.882 10.1153 27.9141 10.1582H20.9997C20.3685 10.1582 19.8569 9.64653 19.8569 9.01535V2.10095ZM13.4061 12.1403C13.7848 12.4244 13.8615 12.9616 13.5774 13.3403L10.7347 17.1296C10.4116 17.5599 9.91738 17.8293 9.38058 17.8673C8.84389 17.9053 8.3171 17.7086 7.93656 17.3283C7.93649 17.3282 7.93663 17.3284 7.93656 17.3283L6.39389 15.787C6.05901 15.4524 6.05878 14.9097 6.39337 14.5748C6.72796 14.2399 7.27067 14.2397 7.60555 14.5743L9.14822 16.1156C9.17749 16.1449 9.21823 16.1602 9.25952 16.1573C9.30081 16.1544 9.33881 16.1337 9.36366 16.1006L12.2061 12.3116C12.4901 11.9329 13.0274 11.8562 13.4061 12.1403ZM16.1426 17.0153C16.1426 16.542 16.5263 16.1582 16.9997 16.1582H22.9997C23.4731 16.1582 23.8569 16.542 23.8569 17.0153C23.8569 17.4887 23.4731 17.8725 22.9997 17.8725H16.9997C16.5263 17.8725 16.1426 17.4887 16.1426 17.0153ZM13.4061 21.1403C13.7848 21.4244 13.8615 21.9616 13.5774 22.3403L10.7347 26.1296C10.4116 26.5599 9.91737 26.8293 9.38058 26.8673C8.84379 26.9053 8.31691 26.7086 7.93635 26.3281L6.39363 24.7854C6.05889 24.4506 6.05889 23.9079 6.39363 23.5732C6.72836 23.2384 7.27108 23.2384 7.60581 23.5732L9.14843 25.1158C9.14844 25.1158 9.14841 25.1158 9.14843 25.1158C9.17769 25.145 9.21825 25.1602 9.25952 25.1573C9.30073 25.1544 9.33865 25.1337 9.3635 25.1008C9.36356 25.1007 9.36345 25.1008 9.3635 25.1008L12.2061 21.3116C12.4901 20.9329 13.0274 20.8562 13.4061 21.1403ZM16.1426 25.0153C16.1426 24.542 16.5263 24.1582 16.9997 24.1582H22.9997C23.4731 24.1582 23.8569 24.542 23.8569 25.0153C23.8569 25.4887 23.4731 25.8725 22.9997 25.8725H16.9997C16.5263 25.8725 16.1426 25.4887 16.1426 25.0153Z" fill="#89E386"/>
</svg>
