<svg width="32" height="32" viewBox="0 0 32 32" fill="none" xmlns="http://www.w3.org/2000/svg">
<path fill-rule="evenodd" clip-rule="evenodd" d="M9.39172 2.42857C9.32223 2.42857 9.26589 2.48491 9.26589 2.5544V3.52037H13.5923C13.9868 3.52037 14.3066 3.84016 14.3066 4.23465C14.3066 4.62914 13.9868 4.94894 13.5923 4.94894H9.26589V6.04074H11.9121C12.3066 6.04074 12.6264 6.36053 12.6264 6.75502C12.6264 7.14951 12.3066 7.46931 11.9121 7.46931H9.26589V7.72111H9.39156C10.25 7.72111 10.946 8.41704 10.946 9.27551V21.0372C10.946 21.4317 10.6262 21.7515 10.2317 21.7515H2.25056C1.62407 21.7515 1.11621 21.2436 1.11621 20.6171V9.27551C1.11621 8.41704 1.81214 7.72111 2.67061 7.72111H7.83732V2.5544C7.83732 1.69593 8.53325 1 9.39172 1H16.1127C16.9711 1 17.6671 1.69593 17.6671 2.5544V14.064C17.6671 14.4585 17.3473 14.7783 16.9528 14.7783C16.5583 14.7783 16.2385 14.4585 16.2385 14.064V2.5544C16.2385 2.48491 16.1822 2.42857 16.1127 2.42857H9.39172ZM2.54478 11.6699H5.19097C5.58546 11.6699 5.90525 11.3501 5.90525 10.9556C5.90525 10.5611 5.58546 10.2414 5.19097 10.2414H2.54478V9.27551C2.54478 9.20602 2.60112 9.14968 2.67061 9.14968H9.39156C9.46105 9.14968 9.51739 9.20602 9.51739 9.27551V20.3229H6.74526V18.9367C6.74526 18.3102 6.23739 17.8023 5.61091 17.8023H3.93068C3.30419 17.8023 2.79633 18.3102 2.79633 18.9367V20.3229H2.54478V14.1903H3.51073C3.90522 14.1903 4.22502 13.8705 4.22502 13.476C4.22502 13.0815 3.90522 12.7617 3.51073 12.7617H2.54478V11.6699ZM4.2249 20.3229H5.31669V19.2309H4.2249V20.3229ZM29.068 6.66954C29.3469 6.94849 29.3469 7.40075 29.068 7.67969L6.72745 30.0202C6.4485 30.2992 5.99624 30.2992 5.7173 30.0202C5.43835 29.7413 5.43835 29.289 5.7173 29.0101L28.0578 6.66954C28.3368 6.3906 28.789 6.3906 29.068 6.66954ZM20.0691 21.2487C20.0691 18.797 22.0566 16.8096 24.5082 16.8096C26.9599 16.8096 28.9474 18.797 28.9474 21.2487C28.9474 23.7004 26.9599 25.6879 24.5082 25.6879C22.0566 25.6879 20.0691 23.7004 20.0691 21.2487ZM24.5082 18.2381C22.8455 18.2381 21.4976 19.586 21.4976 21.2487C21.4976 22.9114 22.8455 24.2593 24.5082 24.2593C26.1709 24.2593 27.5188 22.9114 27.5188 21.2487C27.5188 19.586 26.1709 18.2381 24.5082 18.2381ZM18.3556 29.193C19.8512 27.2569 22.1103 26.1217 24.5082 26.1217C26.9061 26.1217 29.1652 27.2569 30.6608 29.193C30.9019 29.5052 30.8443 29.9538 30.5321 30.195C30.2199 30.4361 29.7714 30.3785 29.5302 30.0663C28.2959 28.4684 26.4486 27.5503 24.5082 27.5503C22.5678 27.5503 20.7205 28.4684 19.4862 30.0663C19.245 30.3785 18.7964 30.4361 18.4842 30.195C18.1721 29.9538 18.1145 29.5052 18.3556 29.193Z" fill="#89E386"/>
</svg>
