<svg width="32" height="32" viewBox="0 0 32 32" fill="none" xmlns="http://www.w3.org/2000/svg">
<path fill-rule="evenodd" clip-rule="evenodd" d="M18.1426 6.99972C18.1426 3.21263 21.2126 0.142578 24.9997 0.142578C28.7868 0.142578 31.8569 3.21263 31.8569 6.99972C31.8569 10.7868 28.7868 13.8569 24.9997 13.8569C21.2126 13.8569 18.1426 10.7868 18.1426 6.99972ZM24.9997 1.85686C22.1594 1.85686 19.8569 4.1594 19.8569 6.99972C19.8569 9.84004 22.1594 12.1426 24.9997 12.1426C27.84 12.1426 30.1426 9.84004 30.1426 6.99972C30.1426 4.1594 27.84 1.85686 24.9997 1.85686ZM18.5667 13.7116C18.9217 14.0247 18.9557 14.5664 18.6426 14.9214C17.7178 15.97 17.5969 17.5035 18.346 18.684C19.0951 19.8646 20.534 20.4084 21.8766 20.0183C23.2192 19.6282 24.1427 18.3981 24.1426 16.9999C24.1425 16.5265 24.5263 16.1427 24.9997 16.1427C25.473 16.1426 25.8568 16.5263 25.8569 16.9997C25.8571 19.1605 24.4299 21.0616 22.3549 21.6645C20.2799 22.2674 18.0562 21.427 16.8985 19.6025C15.7409 17.778 15.9277 15.4081 17.3569 13.7875C17.67 13.4325 18.2116 13.3985 18.5667 13.7116ZM0.999721 18.1426C1.47311 18.1426 1.85686 18.5263 1.85686 18.9997V20.1426H9.99972C12.3898 20.1426 14.3766 21.8689 14.7815 24.1426H18.9997C21.6822 24.1426 23.8569 26.3172 23.8569 28.9997C23.8569 29.4731 23.4731 29.8569 22.9997 29.8569H1.85686V30.9997C1.85686 31.4731 1.47311 31.8569 0.999721 31.8569C0.526334 31.8569 0.142578 31.4731 0.142578 30.9997V18.9997C0.142578 18.5263 0.526334 18.1426 0.999721 18.1426ZM1.85686 21.8569V28.1426H22.0243C21.6512 26.8234 20.4383 25.8569 18.9997 25.8569H8.99972C8.52633 25.8569 8.14258 25.4731 8.14258 24.9997C8.14258 24.5263 8.52633 24.1426 8.99972 24.1426H13.0243C12.6512 22.8234 11.4383 21.8569 9.99972 21.8569H1.85686Z" fill="#89E386"/>
</svg>
