<svg viewBox="0 0 384 304" fill="none" xmlns="http://www.w3.org/2000/svg">
<path d="M357.936 219.953C350.309 249.819 329.557 282.311 300.989 294.499C272.421 306.688 235.984 298.682 200.792 288.739C165.599 278.796 131.652 266.915 103.475 239.191C75.4142 211.498 53.0615 167.821 65.2785 126.651C77.4954 85.4816 124.219 46.6789 176.768 23.078C229.286 -0.59303 287.598 -9.13242 318.15 12.2233C348.753 33.47 351.48 84.5804 355.707 123.787C359.902 162.924 365.481 190.126 357.936 219.953Z" fill="#F2F9FD"/>
<path d="M326.947 117.093L329.142 135.149C326.448 140.513 323.594 146.611 320.873 153.188L315.705 125.961L315.443 126.204C319.222 122.314 323.197 119.147 327.212 116.875L326.947 117.093Z" fill="#14BC1F"/>
<path d="M329.616 134.209L327.49 116.718C332.006 114.209 336.569 112.839 340.957 112.864C341.185 112.865 341.411 112.873 341.636 112.882C340.754 114.252 335.635 122.331 329.616 134.209Z" fill="#14BC1F"/>
<path d="M294.491 162.379L294.254 162.704C295.039 160.274 295.905 157.894 296.851 155.562L310.18 185.941L310.294 185.797C309.957 187.292 309.646 188.772 309.362 190.238L294.491 162.379Z" fill="#14BC1F"/>
<path d="M303.516 142.194L303.264 142.483C306.602 136.687 310.603 131.315 315.183 126.477L320.45 154.223C317.927 160.399 315.753 166.429 313.928 172.311L303.516 142.194Z" fill="#14BC1F"/>
<path d="M362.566 140.77C362.916 145.541 362.792 150.335 362.195 155.081L315.708 168.362C317.392 163.292 319.205 158.495 321.008 154.096L362.51 141.169L362.566 140.77Z" fill="#14BC1F"/>
<path d="M361.355 160.582L361.418 160.182L314.251 172.928C314.635 171.675 315.027 170.436 315.428 169.211L362.087 155.881L362.147 155.48C361.938 157.153 361.674 158.853 361.355 160.582Z" fill="#14BC1F"/>
<path d="M297.278 154.806L297.034 155.115C298.764 150.897 300.771 146.804 303.043 142.861L313.596 173.386C312.401 177.315 311.367 181.164 310.496 184.931L297.278 154.806Z" fill="#14BC1F"/>
<path d="M307.204 207.149C306.723 215.865 307.347 223.916 309.075 231.213C305.411 225.877 291.141 203.61 291.145 180.521L307.204 207.149Z" fill="#14BC1F"/>
<path d="M355.442 179.07C353.497 182.989 351.296 186.771 348.854 190.39L348.898 189.95L307.801 206.353C308.116 201.479 308.717 196.627 309.602 191.826L355.442 179.07Z" fill="#14BC1F"/>
<path d="M330.034 134.435C336.549 121.586 341.993 113.232 342.071 113.113L341.921 112.893C348.58 113.247 353.857 116.888 357.437 122.871L330.034 134.435Z" fill="#14BC1F"/>
<path d="M309.148 191.374C309.064 191.829 308.976 192.286 308.897 192.738C308.125 197.074 307.587 201.449 307.283 205.845L291.376 179.47L291.152 179.794C291.185 175.729 291.725 171.685 292.759 167.758C293.171 166.217 293.619 164.692 294.1 163.184L309.148 191.374Z" fill="#14BC1F"/>
<path d="M321.37 153.219C324.065 146.718 326.886 140.693 329.55 135.392L357.581 123.562L357.617 123.17C360.266 127.729 361.949 133.606 362.533 140.397L321.37 153.219Z" fill="#14BC1F"/>
<path d="M307.755 207.127L348.551 190.844C333.913 212.55 311.439 231.173 310.003 232.353C307.873 224.297 307.286 215.74 307.755 207.127Z" fill="#14BC1F"/>
<path d="M309.772 191.01L309.758 190.984C310.866 185.171 312.281 179.424 313.996 173.766L361.279 160.988C360.837 163.328 360.292 165.71 359.645 168.134C358.691 171.593 357.429 174.956 355.874 178.182L309.772 191.01Z" fill="#14BC1F"/>
<path d="M247.242 193.209L260.253 205.692C261.54 211.571 263.166 218.119 265.193 224.951L244.143 207.335L244.094 207.691C244.566 202.243 245.642 197.225 247.31 192.869L247.242 193.209Z" fill="#14BC1F"/>
<path d="M260.027 204.663L247.425 192.572C249.331 187.709 251.986 183.692 255.381 180.864C255.557 180.717 255.736 180.577 255.915 180.438C256.095 182.065 257.217 191.609 260.027 204.663Z" fill="#14BC1F"/>
<path d="M250.636 249.153L250.658 249.557C249.739 247.176 248.913 244.78 248.181 242.371L277.491 257.119L277.489 256.934C278.166 258.304 278.855 259.646 279.555 260.96L250.636 249.153Z" fill="#14BC1F"/>
<path d="M244.931 227.748L244.918 228.134C243.856 221.505 243.569 214.77 244.063 208.072L265.515 226.024C267.444 232.418 269.549 238.473 271.831 244.188L244.931 227.748Z" fill="#14BC1F"/>
<path d="M289.52 188.336C292.781 191.783 295.691 195.557 298.206 199.599L270.728 239.993C268.847 234.996 267.236 230.125 265.867 225.567L289.727 188.68L289.52 188.336Z" fill="#14BC1F"/>
<path d="M301.008 204.377L300.806 204.027L272.469 244.452C271.978 243.238 271.504 242.029 271.045 240.825L298.624 200.281L298.42 199.934C299.307 201.358 300.17 202.839 301.008 204.377Z" fill="#14BC1F"/>
<path d="M248.034 241.511L248.04 241.907C246.728 237.537 245.708 233.081 244.986 228.57L272.25 245.232C273.793 249.034 275.41 252.669 277.101 256.136L248.034 241.511Z" fill="#14BC1F"/>
<path d="M288.494 275.384C293.588 282.409 299.115 288.206 305.021 292.704C298.854 290.972 273.904 283.082 259.432 265.297L288.494 275.384Z" fill="#14BC1F"/>
<path d="M308.044 222.453C309.003 226.734 309.678 231.075 310.066 235.447L309.825 235.079L288.456 274.381C285.642 270.422 283.063 266.296 280.735 262.023L308.044 222.453Z" fill="#14BC1F"/>
<path d="M260.493 204.567C257.456 190.443 256.412 180.477 256.397 180.333L256.143 180.262C261.494 176.213 267.841 175.593 274.349 177.879L260.493 204.567Z" fill="#14BC1F"/>
<path d="M280.103 261.972C280.323 262.378 280.542 262.786 280.764 263.186C282.888 267.026 285.217 270.746 287.738 274.328L258.952 264.337L258.982 264.732C256.46 261.579 254.341 258.114 252.675 254.419C252.027 252.964 251.415 251.5 250.84 250.025L280.103 261.972Z" fill="#14BC1F"/>
<path d="M265.595 224.654C263.595 217.899 261.991 211.427 260.719 205.616L274.893 178.315L274.674 177.99C279.573 179.783 284.553 183.217 289.261 188.068L265.595 224.654Z" fill="#14BC1F"/>
<path d="M288.906 275.008L310.118 235.994C312.452 262.211 306.818 291.138 306.452 292.978C299.76 288.156 293.944 281.946 288.906 275.008Z" fill="#14BC1F"/>
<path d="M280.356 261.284L280.328 261.273C277.538 256.077 275.024 250.733 272.799 245.262L301.205 204.738C302.331 206.827 303.405 209.015 304.427 211.302C305.86 214.585 306.996 217.995 307.821 221.488L280.356 261.284Z" fill="#14BC1F"/>
<path d="M355.948 193.832L352.55 211.695C348.358 215.949 343.792 220.851 339.205 226.251L342.562 198.731L342.24 198.88C347.015 196.369 351.758 194.607 356.267 193.709L355.948 193.832Z" fill="#14BC1F"/>
<path d="M353.286 210.949L356.577 193.646C361.635 192.681 366.391 192.813 370.556 194.216C370.773 194.289 370.985 194.367 371.196 194.447C369.942 195.473 362.619 201.546 353.286 210.949Z" fill="#14BC1F"/>
<path d="M311.321 226.696L310.998 226.93C312.483 224.866 314.03 222.874 315.638 220.955L319.084 254.038L319.236 253.937C318.461 255.252 317.716 256.562 317.001 257.867L311.321 226.696Z" fill="#14BC1F"/>
<path d="M326.039 210.337L325.711 210.533C330.646 206.071 336.084 202.219 341.909 199.059L338.489 227.102C334.213 232.183 330.314 237.234 326.791 242.254L326.039 210.337Z" fill="#14BC1F"/>
<path d="M382.628 227.555C381.512 232.202 379.937 236.723 377.927 241.049L329.682 239.06C332.824 234.769 336.005 230.776 339.057 227.16L382.453 227.917L382.628 227.555Z" fill="#14BC1F"/>
<path d="M375.458 246.014L375.64 245.653L326.91 242.943C327.655 241.871 328.405 240.816 329.159 239.777L377.582 241.773L377.762 241.412C377.055 242.936 376.287 244.47 375.458 246.014Z" fill="#14BC1F"/>
<path d="M316.273 220.369L315.947 220.586C318.874 217.119 322.027 213.857 325.385 210.822L326.147 243.171C323.817 246.532 321.665 249.867 319.691 253.176L316.273 220.369Z" fill="#14BC1F"/>
<path d="M309.812 273.27C306.706 281.408 304.853 289.261 304.28 296.745C302.416 290.517 295.61 264.853 302.628 242.896L309.812 273.27Z" fill="#14BC1F"/>
<path d="M364.219 261.738C361.178 264.853 357.936 267.757 354.514 270.432L354.69 270.027L310.622 272.703C312.402 268.166 314.448 263.741 316.748 259.453L364.219 261.738Z" fill="#14BC1F"/>
<path d="M353.614 211.296C363.714 201.126 371.43 194.893 371.541 194.804L371.464 194.547C377.69 196.978 381.602 202.1 383.188 208.916L353.614 211.296Z" fill="#14BC1F"/>
<path d="M316.452 258.88C316.233 259.287 316.011 259.693 315.798 260.099C313.748 263.979 311.906 267.971 310.282 272.056L303.167 241.97L302.855 242.208C304.122 238.353 305.864 234.676 308.04 231.267C308.901 229.931 309.789 228.621 310.705 227.338L316.452 258.88Z" fill="#14BC1F"/>
<path d="M339.668 226.438C344.206 221.103 348.72 216.261 352.863 212.057L383.116 209.621L383.269 209.26C384.403 214.429 384.218 220.547 382.711 227.189L339.668 226.438Z" fill="#14BC1F"/>
<path d="M310.342 273.422L354.088 270.766C333.572 286.806 306.541 297.45 304.817 298.12C305.238 289.788 307.28 281.466 310.342 273.422Z" fill="#14BC1F"/>
<path d="M317.158 258.73L317.152 258.7C319.972 253.52 323.063 248.499 326.414 243.658L375.264 246.375C374.132 248.461 372.89 250.555 371.539 252.657C369.58 255.647 367.358 258.448 364.899 261.027L317.158 258.73Z" fill="#14BC1F"/>
<path d="M368.093 303.999C368.093 303.999 265.602 262.683 141.839 303.999H368.093Z" fill="#3D414D"/>
<path d="M293.578 272.298C293.499 273.404 293.365 274.505 293.176 275.597C293.176 275.597 284.356 281.698 283.651 274.879C283.192 270.435 284.229 268.429 285.013 267.571L285.025 267.557C285.496 267.051 285.761 266.383 285.767 265.686V257.65L293.529 260.163L293.176 266.982C293.698 268.4 293.705 270.518 293.578 272.298Z" fill="#FDB797"/>
<path opacity="0.05" d="M293.579 272.303C293.5 273.408 293.366 274.509 293.177 275.601C293.177 275.601 284.357 281.703 283.652 274.883C283.193 270.44 284.23 268.434 285.013 267.576C285.32 267.34 285.683 267.195 286.065 267.154C286.447 267.114 286.832 267.18 287.18 267.346C288.591 266.707 290.143 267.773 291.427 269.151C292.297 270.085 293.023 271.147 293.579 272.303Z" fill="black"/>
<path d="M287.179 268.061C287.179 268.061 283.298 265.908 282.592 275.599C281.887 285.29 281.534 284.213 281.534 284.213C281.534 284.213 278.006 292.827 285.415 291.75C292.823 290.673 296.351 289.956 295.998 285.649C295.786 283.053 295.189 279.283 294.748 276.698C294.328 274.137 293.173 271.76 291.428 269.865C290.14 268.487 288.59 267.423 287.179 268.061Z" fill="#2F2E41"/>
<path d="M245.733 280.384L241.689 282.368C241.689 282.368 229.053 284.342 233.061 277.022C234.221 274.834 235.106 272.507 235.696 270.096C236.54 266.737 237.01 263.292 237.095 259.826L247.785 261.343C244.299 266.066 244.741 273.728 245.28 277.74C245.499 279.358 245.733 280.384 245.733 280.384Z" fill="#FDB797"/>
<path opacity="0.05" d="M245.734 280.382L241.69 282.366C241.69 282.366 229.055 284.34 233.062 277.02C234.222 274.832 235.107 272.505 235.698 270.094C238.152 270.574 240.02 274.169 240.02 274.169C241.999 281.161 243.78 279.413 245.282 277.738C245.5 279.356 245.734 280.382 245.734 280.382Z" fill="black"/>
<path d="M239.786 274.847C239.786 274.847 236.635 268.785 233.141 271.345C229.646 273.906 231.38 277.563 220.061 281.145C208.742 284.727 216.222 292.327 223.148 291.746C230.073 291.166 244.839 288.429 244.839 288.429C244.839 288.429 248.678 277.246 246.896 276.994C245.115 276.741 242.656 284.992 239.786 274.847Z" fill="#2F2E41"/>
<path opacity="0.3" d="M223.613 290.391C219.117 290.768 214.389 287.697 214.721 284.516C212.572 288.108 218.011 292.177 223.148 291.747C230.073 291.166 244.839 288.429 244.839 288.429C244.839 288.429 245.02 287.903 245.284 287.077C244.854 287.157 230.435 289.819 223.613 290.391Z" fill="white"/>
<path opacity="0.3" d="M295.98 285.443C295.573 288.672 292.053 289.351 285.415 290.316C282.039 290.807 280.937 289.284 280.734 287.482C280.513 289.79 281.158 292.37 285.415 291.752C292.823 290.675 296.351 289.957 295.998 285.65C295.993 285.583 295.986 285.512 295.98 285.443Z" fill="white"/>
<path d="M312.118 145.35L313.289 163.221C313.289 163.221 314.226 181.331 306.965 182.761C299.704 184.191 306.965 159.647 306.965 159.647V143.443L312.118 145.35Z" fill="#FDB797"/>
<path d="M306.027 80.293L306.964 82.4376C306.964 82.4376 306.73 97.4499 306.964 98.6413C307.198 99.8328 310.243 109.126 310.243 110.079C310.243 111.032 312.585 138.674 313.054 140.342C313.522 142.01 315.63 147.252 313.756 147.967C311.883 148.682 308.369 145.823 306.964 147.967C305.559 150.112 304.388 147.967 304.388 147.252C304.388 146.538 303.919 132.955 301.109 129.142C298.298 125.33 295.722 116.751 295.253 115.083C294.785 113.415 294.082 89.348 293.848 88.8714C293.614 88.3948 294.785 81.961 294.785 81.961L306.027 80.293Z" fill="#626673"/>
<path d="M292.677 105.553C292.677 105.553 295.488 116.752 297.362 118.897C299.235 121.042 308.604 137.007 305.794 158.215C302.983 179.423 298.064 207.064 298.064 207.064C298.064 207.064 297.362 216.834 298.299 219.455C299.235 222.077 294.083 263.777 294.083 263.777C294.083 263.777 286.822 269.496 282.84 262.348C282.84 262.348 283.777 246.859 282.84 245.429C281.903 243.999 282.84 218.264 282.84 218.264C282.84 218.264 282.138 154.164 278.39 156.785C274.643 159.406 263.166 203.967 263.166 203.967C263.166 203.967 258.247 221.123 258.482 222.553C258.716 223.983 254.266 241.855 254.266 241.855C254.266 241.855 250.05 266.637 248.41 267.113C246.771 267.59 236.7 267.828 235.763 265.207L238.573 242.808C238.573 242.808 241.384 217.311 242.789 213.736C244.194 210.162 246.537 159.406 253.329 144.394C253.329 144.394 255.905 120.327 257.779 116.752C257.779 116.752 258.878 111.842 257.522 107.258C257.522 107.258 290.101 107.459 292.677 105.553Z" fill="#3D414D"/>
<path d="M278.741 60.873C267.875 60.873 259.067 49.5109 259.067 35.4951C259.067 21.4793 267.875 10.1172 278.741 10.1172C289.607 10.1172 298.415 21.4793 298.415 35.4951C298.415 49.5109 289.607 60.873 278.741 60.873Z" fill="#2F2E41"/>
<path d="M238.34 65.2802L241.384 71.9524L277.454 82.6754C277.454 82.6754 302.515 90.0624 305.091 78.1479C307.668 66.2333 295.254 65.0419 295.254 65.0419C295.254 65.0419 290.57 61.7059 284.715 58.3698C282.756 57.2522 282.108 55.4436 282.112 53.5301C282.117 52.9611 282.17 52.3935 282.269 51.8335C282.382 51.1863 282.539 50.5478 282.738 49.9224C283.234 48.379 283.897 46.8965 284.715 45.5021C284.715 45.5021 269.256 39.3066 269.49 42.6427C269.589 43.8444 269.462 45.0543 269.116 46.2075C268.796 47.2173 268.364 48.187 267.83 49.0979C267.568 49.5578 267.275 50.0344 266.949 50.5396C266.528 51.1949 266.047 51.8931 265.509 52.6508C262.464 56.9401 252.393 56.9401 252.393 56.9401C244.429 55.9869 238.34 65.2802 238.34 65.2802Z" fill="#FDB797"/>
<path d="M201.099 103.408C201.099 103.408 184.235 116.038 180.956 115.799C177.677 115.561 158.472 114.37 162.922 118.897C167.372 123.425 187.514 120.565 187.514 120.565L206.018 108.651L201.099 103.408Z" fill="#FDB797"/>
<path opacity="0.1" d="M269.114 46.2075C270.818 48.0578 272.997 49.3863 275.404 50.0428C277.811 50.6993 280.351 50.6576 282.736 49.9224C283.232 48.379 283.895 46.8965 284.713 45.5022C284.713 45.5022 269.255 39.3066 269.489 42.6427C269.588 43.8444 269.461 45.0543 269.114 46.2075Z" fill="black"/>
<path d="M278.859 48.8408C271.485 48.8408 265.508 42.7597 265.508 35.2583C265.508 27.7569 271.485 21.6758 278.859 21.6758C286.232 21.6758 292.209 27.7569 292.209 35.2583C292.209 42.7597 286.232 48.8408 278.859 48.8408Z" fill="#FDB797"/>
<path d="M295.487 74.8138C295.487 74.8138 237.401 61.4695 237.167 63.3758C236.933 65.2822 234.59 69.0948 234.59 69.0948L248.175 84.822C248.175 84.822 246.536 92.4472 249.815 94.1153C253.094 95.7833 253.562 108.413 256.607 108.651C259.652 108.889 295.253 108.413 295.487 106.506C295.721 104.6 294.55 103.409 295.487 102.932C296.424 102.455 297.829 102.455 296.658 100.073C295.487 97.6896 295.487 87.6814 295.487 87.6814L306.495 82.4391C306.495 82.4391 308.005 77.9988 305.259 77.2403C302.513 76.4818 295.487 74.8138 295.487 74.8138Z" fill="#626673"/>
<path d="M236.7 68.6172H234.592C234.592 68.6172 228.269 72.9064 226.629 76.719C224.99 80.5317 219.134 85.5358 217.729 86.9655C216.324 88.3952 197.118 101.978 197.352 103.884C197.586 105.79 202.973 107.697 203.207 109.841C203.442 111.986 200.865 112.939 202.505 112.939C204.144 112.939 214.216 106.982 217.963 104.837C221.711 102.693 229.44 96.4971 230.377 94.8291C231.313 93.1611 237.637 90.3016 238.34 89.1101C239.043 87.9187 250.051 82.438 250.051 82.438L236.7 68.6172Z" fill="#626673"/>
<path d="M298.416 27.7525C294.277 27.7525 290.921 24.3386 290.921 20.1272C290.921 15.9159 294.277 12.502 298.416 12.502C302.556 12.502 305.911 15.9159 305.911 20.1272C305.911 24.3386 302.556 27.7525 298.416 27.7525Z" fill="#2F2E41"/>
<path d="M265.391 17.7428C261.251 17.7428 257.896 14.3288 257.896 10.1175C257.896 5.90614 261.251 2.49219 265.391 2.49219C269.53 2.49219 272.886 5.90614 272.886 10.1175C272.886 14.3288 269.53 17.7428 265.391 17.7428Z" fill="#2F2E41"/>
<path d="M276.985 35.1374C269.288 35.1374 263.049 31.2433 263.049 26.4398C263.049 21.6362 269.288 17.7422 276.985 17.7422C284.682 17.7422 290.921 21.6362 290.921 26.4398C290.921 31.2433 284.682 35.1374 276.985 35.1374Z" fill="#2F2E41"/>
<path d="M267.831 49.0996C274.253 51.6708 279.329 51.9758 282.271 51.8352C282.171 52.3951 282.118 52.9627 282.114 53.5318C281.772 53.5461 281.404 53.5532 281.013 53.5532C277.764 53.5532 272.911 52.979 266.95 50.5413L267.831 49.0996Z" fill="#2F2E41"/>
<path d="M9.79602 121.162H182.613C188.023 121.162 192.408 125.624 192.408 131.128V228.369C192.408 233.873 188.023 238.335 182.613 238.335H9.79602C4.38614 238.335 0.000549316 233.873 0.000549316 228.369V131.128C0.000549316 125.624 4.38614 121.162 9.79602 121.162Z" fill="#0291CF"/>
<path opacity="0.3" d="M20.8438 203.348H171.662V208.927H20.8438V203.348Z" fill="#F2F9FD"/>
<path opacity="0.3" d="M20.7471 188.697H171.565V194.277H20.7471V188.697Z" fill="#F2F9FD"/>
<path opacity="0.3" d="M20.7455 168.705H47.71V174.285H20.7455V168.705Z" fill="#F2F9FD"/>
<path opacity="0.3" d="M20.7464 153.824H119.464V159.404H20.7464V153.824Z" fill="#F2F9FD"/>
<path opacity="0.3" d="M96.1554 218.225H171.662V223.804H96.1554V218.225Z" fill="#F2F9FD"/>
<path d="M138.278 135.691H166.92C169.485 135.691 171.565 137.808 171.565 140.418V169.558C171.565 172.168 169.485 174.284 166.92 174.284H138.278C135.712 174.284 133.632 172.168 133.632 169.558V140.418C133.632 137.808 135.712 135.691 138.278 135.691Z" fill="#F2F9FD"/>
</svg>
