<svg viewBox="0 0 129 42" fill="none" xmlns="http://www.w3.org/2000/svg">
<path d="M25.0498 4.22482C25.0498 1.89187 26.97 4.673e-05 29.3385 4.673e-05C31.7067 4.673e-05 33.6273 1.89187 33.6273 4.22482C33.6273 6.55777 31.7067 8.44922 29.3385 8.44922C26.97 8.44922 25.0498 6.55777 25.0498 4.22482Z" fill="url(#paint0_linear)"/>
<path d="M33.6239 14.1078H25.0464C24.4249 14.1078 23.922 13.6116 23.922 12.9995C23.922 12.3879 24.4249 11.8926 25.0464 11.8926H33.6239C34.2455 11.8926 34.7497 12.3879 34.7497 12.9995C34.7497 13.6116 34.2455 14.1078 33.6239 14.1078ZM15.1168 24.091C14.2887 24.091 13.6163 23.4307 13.6163 22.6139C13.6163 21.7981 14.2887 21.1361 15.1168 21.1361C15.9456 21.1361 16.6169 21.7981 16.6169 22.6139C16.6169 23.4307 15.9456 24.091 15.1168 24.091ZM3.37979 24.9032C3.31386 22.9823 4.19439 21.2189 5.38131 19.8046C5.82949 19.2712 5.2982 19.1684 4.98182 18.795C4.6956 18.4594 4.49208 17.8127 4.06419 18.1101C0.668954 20.4722 -0.978897 24.7459 0.610227 28.9251C2.05623 32.7279 5.86145 34.2732 9.29955 33.7002C11.8307 33.2763 13.7042 33.018 15.1579 35.4956C16.1244 37.1464 17.7502 39.9213 18.4802 41.1683C18.7883 41.6913 18.9718 41.8086 19.4409 41.8086C20.845 41.8086 24.3145 41.8086 24.5385 41.8086C24.9263 41.8086 25.026 41.523 25.1193 41.03C25.4896 39.0691 27.2371 37.5838 29.335 37.5838C31.4579 37.5838 33.2206 39.1027 33.5641 41.0964C33.659 41.654 33.7986 41.8086 34.1992 41.8086C34.3626 41.8086 37.8391 41.8086 39.238 41.8086C39.5926 41.8086 39.8144 41.8086 40.1208 41.2838C40.2685 41.0319 48.1128 27.649 48.1128 27.649L48.1294 27.6181C48.7685 28.555 49.8951 28.9524 50.7386 28.9352C50.9338 28.9306 51.0019 28.715 50.8364 28.555C50.0682 27.8119 49.5217 26.7614 49.4403 25.328C49.4063 24.7213 49.49 24.1401 49.5893 23.4534C50.2601 18.8505 48.0949 14.0978 43.7563 11.6297C41.8781 10.5625 39.8264 10.055 37.8033 10.0568H20.8681C18.845 10.055 16.7936 10.5625 14.9156 11.6297C10.4059 14.1943 8.25355 19.2239 9.1841 23.9918C9.54605 25.84 9.53149 28.0247 7.80698 28.8206C5.89469 29.7028 3.50962 28.6332 3.37979 24.9032Z" fill="url(#paint1_linear)"/>
<path d="M8.30188 12.7478C8.14468 11.6176 7.09074 10.8482 5.94244 10.9846C4.76998 11.1238 3.96017 12.1839 4.15223 13.3081C4.33265 14.3617 5.06121 14.5263 5.53435 15.6919C5.79286 16.329 5.86396 16.9871 5.74081 17.5441C5.69188 17.766 5.78269 17.8312 5.90977 17.7438C7.89076 16.3954 8.47122 13.9766 8.30188 12.7478Z" fill="url(#paint2_linear)"/>
<path d="M69.3948 18.899C69.3948 17.4716 68.3551 16.2241 66.8222 16.2241C65.2348 16.2241 64.2858 17.4353 64.2858 18.899C64.2858 20.3267 65.3259 21.5735 66.8588 21.5735C68.4458 21.5735 69.3948 20.363 69.3948 18.899ZM61.5488 18.899C61.5488 16.1159 63.8115 13.8563 66.8588 13.8563C69.8876 13.8563 72.1318 16.0796 72.1318 18.899C72.1318 21.6822 69.8695 23.9414 66.8222 23.9414C63.793 23.9414 61.5488 21.718 61.5488 18.899Z" fill="#14BC1F"/>
<path d="M83.1644 23.7227H80.3912V20.0176H76.9784V23.7227H74.2051V14.0362H76.9784V17.759H80.3912V14.0362H83.1644V23.7227Z" fill="#14BC1F"/>
<path d="M94.8251 14.0374V23.7238H92.0514V16.3865H89.5699C89.5699 22.8027 88.4569 23.832 86.012 23.832C85.6469 23.832 84.9715 23.7604 84.6064 23.6693L84.7894 21.4469C84.8986 21.4641 85.2455 21.5007 85.3733 21.5007C86.4138 21.5007 86.9602 20.9046 86.9602 14.0374H94.8251Z" fill="#14BC1F"/>
<path d="M103.172 20.3095V19.822C102.698 19.6047 102.077 19.4614 101.402 19.4614C100.216 19.4614 99.4859 19.9303 99.4859 20.8343C99.4859 21.5749 100.106 22.0087 101 22.0087C102.296 22.0087 103.172 21.3039 103.172 20.3095ZM96.8037 20.9065C96.8037 18.7922 98.4281 17.8157 100.745 17.8157C101.73 17.8157 102.442 17.9784 103.136 18.2136V18.0516C103.136 16.9124 102.424 16.2803 101.037 16.2803C99.9784 16.2803 99.2304 16.4789 98.3359 16.8037L97.6427 14.7073C98.7199 14.237 99.7781 13.9306 101.438 13.9306C102.953 13.9306 104.047 14.3278 104.741 15.0146C105.471 15.7376 105.799 16.8037 105.799 18.1046V23.7256H103.117V22.6776C102.442 23.4186 101.511 23.9062 100.161 23.9062C98.3181 23.9062 96.8037 22.8579 96.8037 20.9065Z" fill="#14BC1F"/>
<path d="M109.893 10.3676L111.516 10.078C111.754 10.8193 112.191 11.2886 112.958 11.2886C113.724 11.2886 114.163 10.8193 114.399 10.078L116.023 10.3676C115.768 12.1023 114.637 13.1142 112.958 13.1142C111.279 13.1142 110.148 12.1023 109.893 10.3676ZM117.428 23.7227H114.746V18.0837L110.933 23.7227H108.323V14.0362H111.005V19.6921L114.819 14.0362H117.428V23.7227Z" fill="#14BC1F"/>
<path d="M129 23.7227H126.226V20.0176H122.814V23.7227H120.041V14.0362H122.814V17.759H126.226V14.0362H129V23.7227Z" fill="#14BC1F"/>
<path d="M71.7675 30.4115V40.0988H68.9938V32.7609H66.5123C66.5123 39.1768 65.3992 40.207 62.9544 40.207C62.5893 40.207 61.9139 40.1346 61.5488 40.0443L61.7318 37.821C61.841 37.8397 62.1879 37.8748 62.3157 37.8748C63.3561 37.8748 63.903 37.279 63.903 30.4115H71.7675Z" fill="#14BC1F"/>
<path d="M80.7317 34.497C80.5677 33.2682 79.8375 32.4365 78.6697 32.4365C77.52 32.4365 76.7725 33.2503 76.5529 34.497H80.7317ZM73.834 35.2742C73.834 32.5089 75.8235 30.2312 78.6697 30.2312C81.9362 30.2312 83.4324 32.7441 83.4324 35.4907C83.4324 35.7087 83.4139 35.961 83.3958 36.2141H76.5891C76.8635 37.4608 77.7396 38.1118 78.98 38.1118C79.9108 38.1118 80.5858 37.8222 81.3523 37.1174L82.9396 38.5082C82.0277 39.6303 80.7132 40.3164 78.9437 40.3164C76.0048 40.3164 73.834 38.2746 73.834 35.2742Z" fill="#14BC1F"/>
<path d="M87.102 26.7457L88.726 26.456C88.9637 27.1973 89.401 27.6677 90.1678 27.6677C90.9343 27.6677 91.3723 27.1973 91.6089 26.456L93.2325 26.7457C92.9774 28.4807 91.8466 29.4922 90.1678 29.4922C88.4894 29.4922 87.3575 28.4807 87.102 26.7457ZM94.6381 40.1016H91.9559V34.4628L88.1425 40.1016H85.5332V30.4142H88.2154V36.0709L92.0296 30.4142H94.6381V40.1016Z" fill="#14BC1F"/>
<path d="M97.249 30.4142H100.022V34.3904L103.526 30.4142H106.719L103.124 34.3904L107.176 40.1016H103.89L101.281 36.4143L100.022 37.7701V40.1016H97.249V30.4142Z" fill="#14BC1F"/>
<path d="M114.086 36.6851V36.1968C113.612 35.9803 112.991 35.8355 112.316 35.8355C111.13 35.8355 110.4 36.3058 110.4 37.2099C110.4 37.9505 111.021 38.3835 111.914 38.3835C113.21 38.3835 114.086 37.6795 114.086 36.6851ZM107.718 37.2816C107.718 35.1673 109.341 34.1908 111.659 34.1908C112.645 34.1908 113.356 34.3536 114.05 34.5895V34.4268C114.05 33.2875 113.338 32.6552 111.951 32.6552C110.893 32.6552 110.144 32.8537 109.25 33.1785L108.557 31.0822C109.634 30.6126 110.692 30.3057 112.353 30.3057C113.867 30.3057 114.962 30.7037 115.656 31.3898C116.385 32.1132 116.713 33.1785 116.713 34.4797V40.1013H114.032V39.0524C113.356 39.7937 112.426 40.2812 111.075 40.2812C109.232 40.2812 107.718 39.2338 107.718 37.2816Z" fill="#14BC1F"/>
<defs>
<linearGradient id="paint0_linear" x1="36.4077" y1="11.188" x2="55.7651" y2="30.84" gradientUnits="userSpaceOnUse">
<stop stop-color="#14BC1F"/>
<stop offset="1" stop-color="#2F8084"/>
</linearGradient>
<linearGradient id="paint1_linear" x1="24.5745" y1="22.8399" x2="43.9332" y2="42.4933" gradientUnits="userSpaceOnUse">
<stop stop-color="#14BC1F"/>
<stop offset="1" stop-color="#2F8084"/>
</linearGradient>
<linearGradient id="paint2_linear" x1="19.8031" y1="27.5401" x2="39.1615" y2="47.1932" gradientUnits="userSpaceOnUse">
<stop stop-color="#5AC147"/>
<stop offset="1" stop-color="#2F8084"/>
</linearGradient>
</defs>
</svg>
