<svg viewBox="0 0 289 230" fill="none" xmlns="http://www.w3.org/2000/svg">
<g style="mix-blend-mode:multiply" opacity="0.5">
<path d="M144.395 230C224.142 230 288.789 216.609 288.789 200.09C288.789 183.571 224.142 170.18 144.395 170.18C64.6477 170.18 0 183.571 0 200.09C0 216.609 64.6477 230 144.395 230Z" fill="#D7DEE6"/>
</g>
<path d="M218.543 214.74C218.543 214.74 231.315 198.488 230.282 182.363C229.806 175.602 231.535 168.869 235.211 163.175C236.977 160.486 238.986 157.964 241.212 155.641" stroke="#535461" stroke-width="2" stroke-miterlimit="10"/>
<path d="M240.621 145.47C239.721 147.727 241.196 155.902 241.196 155.902C241.196 155.902 247.894 150.988 248.795 148.731C249.226 147.647 249.21 146.437 248.749 145.365C248.288 144.293 247.421 143.449 246.338 143.016C245.254 142.584 244.043 142.6 242.972 143.06C241.9 143.52 241.054 144.387 240.621 145.47Z" fill="#14BC1F"/>
<path d="M228.879 155.278C229.35 157.662 235.032 163.723 235.032 163.723C235.032 163.723 237.983 155.957 237.513 153.573C237.401 153.006 237.178 152.467 236.858 151.986C236.537 151.505 236.125 151.092 235.646 150.77C235.166 150.449 234.627 150.225 234.06 150.111C233.494 149.998 232.91 149.997 232.344 150.109C231.777 150.221 231.237 150.443 230.756 150.764C230.276 151.084 229.863 151.496 229.541 151.976C229.219 152.456 228.995 152.994 228.882 153.561C228.768 154.128 228.767 154.711 228.879 155.278Z" fill="#14BC1F"/>
<path d="M220.649 176.761C222.259 178.581 230.223 180.945 230.223 180.945C230.223 180.945 228.851 172.752 227.241 170.931C226.858 170.498 226.394 170.145 225.874 169.891C225.355 169.638 224.791 169.489 224.214 169.454C223.637 169.418 223.059 169.497 222.513 169.685C221.966 169.873 221.462 170.167 221.029 170.549C220.596 170.932 220.243 171.397 219.989 171.916C219.736 172.435 219.587 173 219.552 173.576C219.517 174.153 219.595 174.731 219.784 175.278C219.972 175.824 220.266 176.328 220.649 176.761Z" fill="#14BC1F"/>
<path d="M218.082 194.417C219.361 196.483 226.811 200.159 226.811 200.159C226.811 200.159 226.843 191.851 225.564 189.785C225.26 189.294 224.862 188.867 224.393 188.529C223.924 188.191 223.393 187.949 222.831 187.816C222.268 187.684 221.685 187.664 221.114 187.756C220.544 187.849 219.997 188.054 219.506 188.358C219.014 188.662 218.588 189.06 218.25 189.53C217.913 189.999 217.671 190.53 217.539 191.093C217.406 191.655 217.386 192.239 217.48 192.809C217.573 193.379 217.777 193.926 218.082 194.417Z" fill="#14BC1F"/>
<path d="M243.437 167.587C241.19 168.513 232.998 167.133 232.998 167.133C232.998 167.133 237.834 160.378 240.081 159.452C241.16 159.007 242.371 159.008 243.448 159.456C244.526 159.905 245.381 160.762 245.826 161.841C246.271 162.92 246.27 164.131 245.821 165.209C245.373 166.286 244.516 167.142 243.437 167.587Z" fill="#14BC1F"/>
<path d="M240.174 188.198C237.754 188.41 230.35 184.642 230.35 184.642C230.35 184.642 236.986 179.643 239.406 179.431C239.982 179.38 240.563 179.443 241.114 179.617C241.666 179.79 242.178 180.07 242.621 180.442C243.064 180.813 243.43 181.268 243.697 181.781C243.964 182.294 244.127 182.854 244.178 183.43C244.228 184.006 244.165 184.586 243.991 185.138C243.817 185.689 243.536 186.201 243.164 186.644C242.793 187.086 242.337 187.452 241.824 187.718C241.311 187.985 240.75 188.148 240.174 188.198Z" fill="#14BC1F"/>
<path d="M234.253 207.794C231.903 208.412 223.969 205.949 223.969 205.949C223.969 205.949 229.665 199.902 232.015 199.283C233.143 198.987 234.344 199.15 235.351 199.738C236.359 200.326 237.092 201.291 237.389 202.419C237.686 203.548 237.522 204.748 236.934 205.756C236.346 206.764 235.382 207.497 234.253 207.794Z" fill="#14BC1F"/>
<path opacity="0.25" d="M240.621 145.47C239.721 147.727 241.196 155.902 241.196 155.902C241.196 155.902 247.894 150.988 248.795 148.731C249.226 147.647 249.21 146.437 248.749 145.365C248.288 144.293 247.421 143.449 246.338 143.016C245.254 142.584 244.043 142.6 242.972 143.06C241.9 143.52 241.054 144.387 240.621 145.47Z" fill="black"/>
<path opacity="0.25" d="M228.879 155.278C229.35 157.662 235.032 163.723 235.032 163.723C235.032 163.723 237.983 155.957 237.513 153.573C237.401 153.006 237.178 152.467 236.858 151.986C236.537 151.505 236.125 151.092 235.646 150.77C235.166 150.449 234.627 150.225 234.06 150.111C233.494 149.998 232.91 149.997 232.344 150.109C231.777 150.221 231.237 150.443 230.756 150.764C230.276 151.084 229.863 151.496 229.541 151.976C229.219 152.456 228.995 152.994 228.882 153.561C228.768 154.128 228.767 154.711 228.879 155.278Z" fill="black"/>
<path opacity="0.25" d="M220.649 176.761C222.259 178.581 230.223 180.945 230.223 180.945C230.223 180.945 228.851 172.752 227.241 170.931C226.858 170.498 226.394 170.145 225.874 169.891C225.355 169.638 224.791 169.489 224.214 169.454C223.637 169.418 223.059 169.497 222.513 169.685C221.966 169.873 221.462 170.167 221.029 170.549C220.596 170.932 220.243 171.397 219.989 171.916C219.736 172.435 219.587 173 219.552 173.576C219.517 174.153 219.595 174.731 219.784 175.278C219.972 175.824 220.266 176.328 220.649 176.761Z" fill="black"/>
<path opacity="0.25" d="M218.082 194.417C219.361 196.483 226.811 200.159 226.811 200.159C226.811 200.159 226.843 191.851 225.564 189.785C225.26 189.294 224.862 188.867 224.393 188.529C223.924 188.191 223.393 187.949 222.831 187.816C222.268 187.684 221.685 187.664 221.114 187.756C220.544 187.849 219.997 188.054 219.506 188.358C219.014 188.662 218.588 189.06 218.25 189.53C217.913 189.999 217.671 190.53 217.539 191.093C217.406 191.655 217.386 192.239 217.48 192.809C217.573 193.379 217.777 193.926 218.082 194.417Z" fill="black"/>
<path opacity="0.25" d="M243.437 167.587C241.19 168.513 232.998 167.133 232.998 167.133C232.998 167.133 237.834 160.378 240.081 159.452C241.16 159.007 242.371 159.008 243.448 159.456C244.526 159.905 245.381 160.762 245.826 161.841C246.271 162.92 246.27 164.131 245.821 165.209C245.373 166.286 244.516 167.142 243.437 167.587Z" fill="black"/>
<path opacity="0.25" d="M240.174 188.198C237.754 188.41 230.35 184.642 230.35 184.642C230.35 184.642 236.986 179.643 239.406 179.431C239.982 179.38 240.563 179.443 241.114 179.617C241.666 179.79 242.178 180.07 242.621 180.442C243.064 180.813 243.43 181.268 243.697 181.781C243.964 182.294 244.127 182.854 244.178 183.43C244.228 184.006 244.165 184.586 243.991 185.138C243.817 185.689 243.536 186.201 243.164 186.644C242.793 187.086 242.337 187.452 241.824 187.718C241.311 187.985 240.75 188.148 240.174 188.198Z" fill="black"/>
<path opacity="0.25" d="M234.253 207.794C231.903 208.412 223.969 205.949 223.969 205.949C223.969 205.949 229.665 199.902 232.015 199.283C233.143 198.987 234.344 199.15 235.351 199.738C236.359 200.326 237.092 201.291 237.389 202.419C237.686 203.548 237.522 204.748 236.934 205.756C236.346 206.764 235.382 207.497 234.253 207.794Z" fill="black"/>
<path d="M218.65 214.062C218.65 214.062 236.913 204.38 242.503 189.22C244.807 182.846 249.116 177.391 254.784 173.675C257.488 171.932 260.347 170.44 263.324 169.219" stroke="#535461" stroke-width="2" stroke-miterlimit="10"/>
<path d="M266.904 159.685C265.166 161.383 263.202 169.456 263.202 169.456C263.202 169.456 271.317 167.677 273.055 165.978C273.89 165.163 274.366 164.049 274.379 162.882C274.393 161.715 273.942 160.591 273.126 159.756C272.311 158.922 271.197 158.445 270.03 158.432C268.863 158.419 267.739 158.869 266.904 159.685Z" fill="#14BC1F"/>
<path d="M252.194 163.891C251.659 166.261 254.397 174.105 254.397 174.105C254.397 174.105 260.242 168.201 260.778 165.831C260.905 165.267 260.921 164.684 260.823 164.115C260.724 163.545 260.515 163.001 260.207 162.512C259.898 162.023 259.497 161.6 259.025 161.267C258.553 160.934 258.02 160.697 257.456 160.569C256.893 160.442 256.309 160.427 255.74 160.525C255.171 160.623 254.626 160.832 254.137 161.14C253.649 161.449 253.226 161.851 252.892 162.322C252.559 162.794 252.322 163.327 252.194 163.891Z" fill="#14BC1F"/>
<path d="M235.965 180.198C236.699 182.515 243.023 187.903 243.023 187.903C243.023 187.903 245.088 179.856 244.354 177.54C244.18 176.989 243.898 176.478 243.526 176.036C243.154 175.593 242.699 175.229 242.186 174.963C241.673 174.697 241.113 174.534 240.537 174.485C239.961 174.435 239.381 174.5 238.831 174.674C238.28 174.849 237.769 175.13 237.327 175.502C236.884 175.874 236.52 176.33 236.254 176.843C235.988 177.356 235.825 177.916 235.776 178.492C235.726 179.067 235.791 179.647 235.965 180.198Z" fill="#14BC1F"/>
<path d="M226.465 195.298C226.797 197.705 232.119 204.085 232.119 204.085C232.119 204.085 235.515 196.503 235.183 194.096C235.104 193.523 234.913 192.972 234.621 192.473C234.329 191.975 233.941 191.539 233.481 191.19C233.02 190.841 232.495 190.586 231.936 190.44C231.377 190.294 230.795 190.259 230.223 190.338C229.65 190.417 229.099 190.608 228.6 190.9C228.102 191.192 227.665 191.579 227.317 192.04C226.968 192.501 226.713 193.025 226.567 193.584C226.421 194.143 226.386 194.726 226.465 195.298Z" fill="#14BC1F"/>
<path d="M260.518 181.042C258.089 180.979 251.158 176.397 251.158 176.397C251.158 176.397 258.317 172.182 260.746 172.245C261.913 172.275 263.02 172.768 263.823 173.614C264.626 174.46 265.061 175.591 265.03 176.758C265 177.924 264.508 179.031 263.661 179.834C262.815 180.638 261.684 181.072 260.518 181.042H260.518Z" fill="#14BC1F"/>
<path d="M249.183 198.559C246.884 197.772 241.642 191.327 241.642 191.327C241.642 191.327 249.734 189.446 252.033 190.234C253.137 190.611 254.046 191.413 254.559 192.46C255.072 193.508 255.149 194.717 254.771 195.821C254.393 196.925 253.592 197.834 252.544 198.348C251.496 198.861 250.287 198.937 249.183 198.559V198.559Z" fill="#14BC1F"/>
<path d="M235.827 214.079C233.428 213.692 227.172 208.225 227.172 208.225C227.172 208.225 234.83 205.004 237.229 205.392C238.381 205.578 239.412 206.214 240.095 207.16C240.778 208.106 241.058 209.284 240.872 210.437C240.686 211.589 240.05 212.62 239.104 213.303C238.157 213.986 236.979 214.265 235.827 214.079Z" fill="#14BC1F"/>
<path d="M37.2081 186.798C46.2949 186.798 53.6612 178.979 53.6612 169.334C53.6612 159.688 46.2949 151.869 37.2081 151.869C28.1212 151.869 20.7549 159.688 20.7549 169.334C20.7549 178.979 28.1212 186.798 37.2081 186.798Z" fill="#FBD56F"/>
<path opacity="0.1" d="M37.2081 186.798C46.2949 186.798 53.6612 178.979 53.6612 169.334C53.6612 159.688 46.2949 151.869 37.2081 151.869C28.1212 151.869 20.7549 159.688 20.7549 169.334C20.7549 178.979 28.1212 186.798 37.2081 186.798Z" fill="black"/>
<path d="M40.0479 186.796C49.1347 186.796 56.5011 179.151 56.5011 169.72C56.5011 160.29 49.1347 152.645 40.0479 152.645C30.9611 152.645 23.5947 160.29 23.5947 169.72C23.5947 179.151 30.9611 186.796 40.0479 186.796Z" fill="#FBD56F"/>
<path d="M46.712 185.197L45.0006 184.244C45.0006 184.244 44.2001 187.584 44.4617 189.965C44.4875 190.206 44.5868 190.434 44.7462 190.617C44.9056 190.8 45.1173 190.93 45.3529 190.989C49.29 191.967 68.0548 196.133 80.9585 190.265C81.1456 190.18 81.3072 190.047 81.4275 189.881C81.5478 189.714 81.6225 189.518 81.6443 189.314C81.8026 187.851 81.2423 184.832 81.0186 184.244C80.5373 182.978 46.712 185.197 46.712 185.197Z" fill="#FBD56F"/>
<path opacity="0.1" d="M46.712 185.197L45.0006 184.244C45.0006 184.244 44.2001 187.584 44.4617 189.965C44.4875 190.206 44.5868 190.434 44.7462 190.617C44.9056 190.8 45.1173 190.93 45.3529 190.989C49.29 191.967 68.0548 196.133 80.9585 190.265C81.1456 190.18 81.3072 190.047 81.4275 189.881C81.5478 189.714 81.6225 189.518 81.6443 189.314C81.8026 187.851 81.2423 184.832 81.0186 184.244C80.5373 182.978 46.712 185.197 46.712 185.197Z" fill="black"/>
<path d="M63.01 188.301C72.9561 188.301 81.019 186.483 81.019 184.241C81.019 181.999 72.9561 180.182 63.01 180.182C53.0639 180.182 45.001 181.999 45.001 184.241C45.001 186.483 53.0639 188.301 63.01 188.301Z" fill="#FBD56F"/>
<path d="M53.5919 179.206L51.8805 178.254C51.8805 178.254 51.08 181.594 51.3416 183.975C51.3674 184.216 51.4667 184.444 51.6261 184.627C51.7854 184.81 51.9973 184.94 52.2328 184.999C56.1699 185.977 74.9347 190.142 87.8384 184.275C88.0255 184.19 88.1871 184.057 88.3074 183.89C88.4276 183.723 88.5024 183.528 88.5242 183.324C88.6825 181.861 88.1222 178.842 87.8985 178.254C87.4172 176.988 53.5919 179.206 53.5919 179.206Z" fill="#FBD56F"/>
<path opacity="0.1" d="M53.5919 179.206L51.8805 178.254C51.8805 178.254 51.08 181.594 51.3416 183.975C51.3674 184.216 51.4667 184.444 51.6261 184.627C51.7854 184.81 51.9973 184.94 52.2328 184.999C56.1699 185.977 74.9347 190.142 87.8384 184.275C88.0255 184.19 88.1871 184.057 88.3074 183.89C88.4276 183.723 88.5024 183.528 88.5242 183.324C88.6825 181.861 88.1222 178.842 87.8985 178.254C87.4172 176.988 53.5919 179.206 53.5919 179.206Z" fill="black"/>
<path d="M69.8899 182.314C79.836 182.314 87.8989 180.497 87.8989 178.255C87.8989 176.013 79.836 174.195 69.8899 174.195C59.9438 174.195 51.8809 176.013 51.8809 178.255C51.8809 180.497 59.9438 182.314 69.8899 182.314Z" fill="#FBD56F"/>
<path d="M59.6759 171.335L57.9644 170.382C57.9644 170.382 57.1639 173.723 57.4256 176.103C57.4514 176.345 57.5507 176.573 57.71 176.756C57.8694 176.939 58.0812 177.069 58.3168 177.128C62.2539 178.106 81.0186 182.271 93.9224 176.404C94.1095 176.319 94.2711 176.186 94.3914 176.019C94.5116 175.852 94.5863 175.657 94.6082 175.453C94.7664 173.99 94.2061 170.971 93.9825 170.382C93.5011 169.117 59.6759 171.335 59.6759 171.335Z" fill="#FBD56F"/>
<path opacity="0.1" d="M59.6759 171.335L57.9644 170.382C57.9644 170.382 57.1639 173.723 57.4256 176.103C57.4514 176.345 57.5507 176.573 57.71 176.756C57.8694 176.939 58.0812 177.069 58.3168 177.128C62.2539 178.106 81.0186 182.271 93.9224 176.404C94.1095 176.319 94.2711 176.186 94.3914 176.019C94.5116 175.852 94.5863 175.657 94.6082 175.453C94.7664 173.99 94.2061 170.971 93.9825 170.382C93.5011 169.117 59.6759 171.335 59.6759 171.335Z" fill="black"/>
<path d="M75.9719 174.441C85.918 174.441 93.981 172.624 93.981 170.382C93.981 168.14 85.918 166.322 75.9719 166.322C66.0258 166.322 57.9629 168.14 57.9629 170.382C57.9629 172.624 66.0258 174.441 75.9719 174.441Z" fill="#FBD56F"/>
<path d="M52.9386 163.138L51.2272 162.185C51.2272 162.185 50.4266 165.526 50.6883 167.906C50.7141 168.148 50.8134 168.375 50.9728 168.559C51.1321 168.742 51.3439 168.872 51.5795 168.931C55.5166 169.908 74.2813 174.074 87.1851 168.207C87.3722 168.121 87.5338 167.989 87.6541 167.822C87.7743 167.655 87.849 167.46 87.8709 167.255C88.0291 165.792 87.4688 162.773 87.2452 162.185C86.7639 160.919 52.9386 163.138 52.9386 163.138Z" fill="#FBD56F"/>
<path opacity="0.1" d="M52.9386 163.138L51.2272 162.185C51.2272 162.185 50.4266 165.526 50.6883 167.906C50.7141 168.148 50.8134 168.375 50.9728 168.559C51.1321 168.742 51.3439 168.872 51.5795 168.931C55.5166 169.908 74.2813 174.074 87.1851 168.207C87.3722 168.121 87.5338 167.989 87.6541 167.822C87.7743 167.655 87.849 167.46 87.8709 167.255C88.0291 165.792 87.4688 162.773 87.2452 162.185C86.7639 160.919 52.9386 163.138 52.9386 163.138Z" fill="black"/>
<path d="M69.2375 166.246C79.1836 166.246 87.2465 164.428 87.2465 162.186C87.2465 159.944 79.1836 158.127 69.2375 158.127C59.2914 158.127 51.2285 159.944 51.2285 162.186C51.2285 164.428 59.2914 166.246 69.2375 166.246Z" fill="#FBD56F"/>
<path d="M68.0929 156.562L66.3814 155.609C66.3814 155.609 65.5809 158.95 65.8426 161.33C65.8684 161.572 65.9677 161.799 66.127 161.982C66.2864 162.166 66.4982 162.296 66.7338 162.355C70.6708 163.332 89.4356 167.498 102.339 161.631C102.526 161.545 102.688 161.413 102.808 161.246C102.929 161.079 103.003 160.884 103.025 160.679C103.183 159.216 102.623 156.197 102.399 155.609C101.918 154.343 68.0929 156.562 68.0929 156.562Z" fill="#FBD56F"/>
<path opacity="0.1" d="M68.0929 156.562L66.3814 155.609C66.3814 155.609 65.5809 158.95 65.8426 161.33C65.8684 161.572 65.9677 161.799 66.127 161.982C66.2864 162.166 66.4982 162.296 66.7338 162.355C70.6708 163.332 89.4356 167.498 102.339 161.631C102.526 161.545 102.688 161.413 102.808 161.246C102.929 161.079 103.003 160.884 103.025 160.679C103.183 159.216 102.623 156.197 102.399 155.609C101.918 154.343 68.0929 156.562 68.0929 156.562Z" fill="black"/>
<path d="M84.3899 159.668C94.336 159.668 102.399 157.85 102.399 155.608C102.399 153.366 94.336 151.549 84.3899 151.549C74.4438 151.549 66.3809 153.366 66.3809 155.608C66.3809 157.85 74.4438 159.668 84.3899 159.668Z" fill="#FBD56F"/>
<path d="M57.8536 152.144L56.1422 151.191C56.1422 151.191 55.3417 154.532 55.6033 156.912C55.6291 157.154 55.7284 157.381 55.8878 157.564C56.0472 157.748 56.259 157.878 56.4945 157.937C60.4316 158.914 79.1964 163.08 92.1001 157.213C92.2872 157.127 92.4489 156.995 92.5691 156.828C92.6894 156.661 92.7641 156.466 92.7859 156.261C92.9442 154.798 92.3839 151.779 92.1602 151.191C91.6789 149.925 57.8536 152.144 57.8536 152.144Z" fill="#FBD56F"/>
<path opacity="0.1" d="M57.8536 152.144L56.1422 151.191C56.1422 151.191 55.3417 154.532 55.6033 156.912C55.6291 157.154 55.7284 157.381 55.8878 157.564C56.0472 157.748 56.259 157.878 56.4945 157.937C60.4316 158.914 79.1964 163.08 92.1001 157.213C92.2872 157.127 92.4489 156.995 92.5691 156.828C92.6894 156.661 92.7641 156.466 92.7859 156.261C92.9442 154.798 92.3839 151.779 92.1602 151.191C91.6789 149.925 57.8536 152.144 57.8536 152.144Z" fill="black"/>
<path d="M74.1526 155.25C84.0987 155.25 92.1616 153.432 92.1616 151.19C92.1616 148.948 84.0987 147.131 74.1526 147.131C64.2065 147.131 56.1436 148.948 56.1436 151.19C56.1436 153.432 64.2065 155.25 74.1526 155.25Z" fill="#FBD56F"/>
<path d="M64.6896 143.611L62.9781 142.658C62.9781 142.658 62.1776 145.998 62.4393 148.379C62.4651 148.62 62.5644 148.848 62.7237 149.031C62.8831 149.214 63.0949 149.344 63.3305 149.403C67.2676 150.381 86.0323 154.547 98.936 148.679C99.1231 148.594 99.2848 148.461 99.4051 148.295C99.5253 148.128 99.6 147.932 99.6219 147.728C99.7801 146.265 99.2198 143.246 98.9961 142.658C98.5148 141.392 64.6896 143.611 64.6896 143.611Z" fill="#FBD56F"/>
<path opacity="0.1" d="M64.6896 143.611L62.9781 142.658C62.9781 142.658 62.1776 145.998 62.4393 148.379C62.4651 148.62 62.5644 148.848 62.7237 149.031C62.8831 149.214 63.0949 149.344 63.3305 149.403C67.2676 150.381 86.0323 154.547 98.936 148.679C99.1231 148.594 99.2848 148.461 99.4051 148.295C99.5253 148.128 99.6 147.932 99.6219 147.728C99.7801 146.265 99.2198 143.246 98.9961 142.658C98.5148 141.392 64.6896 143.611 64.6896 143.611Z" fill="black"/>
<path d="M80.9885 146.717C90.9346 146.717 98.9976 144.899 98.9976 142.657C98.9976 140.415 90.9346 138.598 80.9885 138.598C71.0424 138.598 62.9795 140.415 62.9795 142.657C62.9795 144.899 71.0424 146.717 80.9885 146.717Z" fill="#FBD56F"/>
<path d="M68.0626 133.484L66.3512 132.531C66.3512 132.531 65.5507 135.871 65.8123 138.252C65.8381 138.493 65.9374 138.721 66.0968 138.904C66.2562 139.088 66.468 139.217 66.7035 139.276C70.6406 140.254 89.4054 144.42 102.309 138.553C102.496 138.467 102.658 138.335 102.778 138.168C102.898 138.001 102.973 137.806 102.995 137.601C103.153 136.138 102.593 133.119 102.369 132.531C101.888 131.265 68.0626 133.484 68.0626 133.484Z" fill="#FBD56F"/>
<path opacity="0.1" d="M68.0626 133.484L66.3512 132.531C66.3512 132.531 65.5507 135.871 65.8123 138.252C65.8381 138.493 65.9374 138.721 66.0968 138.904C66.2562 139.088 66.468 139.217 66.7035 139.276C70.6406 140.254 89.4054 144.42 102.309 138.553C102.496 138.467 102.658 138.335 102.778 138.168C102.898 138.001 102.973 137.806 102.995 137.601C103.153 136.138 102.593 133.119 102.369 132.531C101.888 131.265 68.0626 133.484 68.0626 133.484Z" fill="black"/>
<path d="M84.3596 136.588C94.3057 136.588 102.369 134.77 102.369 132.528C102.369 130.286 94.3057 128.469 84.3596 128.469C74.4135 128.469 66.3506 130.286 66.3506 132.528C66.3506 134.77 74.4135 136.588 84.3596 136.588Z" fill="#FBD56F"/>
<path d="M98.463 187.546L96.7515 186.593C96.7515 186.593 95.9511 189.934 96.2127 192.314C96.2385 192.556 96.3378 192.784 96.4972 192.967C96.6566 193.15 96.8683 193.28 97.1039 193.339C101.041 194.317 119.806 198.482 132.709 192.615C132.897 192.53 133.058 192.397 133.178 192.23C133.299 192.063 133.373 191.868 133.395 191.664C133.554 190.2 132.993 187.182 132.77 186.593C132.288 185.328 98.463 187.546 98.463 187.546Z" fill="#FBD56F"/>
<path opacity="0.1" d="M98.463 187.546L96.7515 186.593C96.7515 186.593 95.9511 189.934 96.2127 192.314C96.2385 192.556 96.3378 192.784 96.4972 192.967C96.6566 193.15 96.8683 193.28 97.1039 193.339C101.041 194.317 119.806 198.482 132.709 192.615C132.897 192.53 133.058 192.397 133.178 192.23C133.299 192.063 133.373 191.868 133.395 191.664C133.554 190.2 132.993 187.182 132.77 186.593C132.288 185.328 98.463 187.546 98.463 187.546Z" fill="black"/>
<path d="M114.76 190.652C124.706 190.652 132.769 188.835 132.769 186.593C132.769 184.351 124.706 182.533 114.76 182.533C104.814 182.533 96.751 184.351 96.751 186.593C96.751 188.835 104.814 190.652 114.76 190.652Z" fill="#FBD56F"/>
<path d="M104.546 179.671L102.835 178.718C102.835 178.718 102.034 182.059 102.296 184.439C102.322 184.681 102.421 184.909 102.58 185.092C102.74 185.275 102.951 185.405 103.187 185.464C107.124 186.442 125.889 190.607 138.792 184.74C138.98 184.655 139.141 184.522 139.261 184.355C139.382 184.188 139.456 183.993 139.478 183.789C139.637 182.325 139.076 179.307 138.853 178.718C138.371 177.453 104.546 179.671 104.546 179.671Z" fill="#FBD56F"/>
<path opacity="0.1" d="M104.546 179.671L102.835 178.718C102.835 178.718 102.034 182.059 102.296 184.439C102.322 184.681 102.421 184.909 102.58 185.092C102.74 185.275 102.951 185.405 103.187 185.464C107.124 186.442 125.889 190.607 138.792 184.74C138.98 184.655 139.141 184.522 139.261 184.355C139.382 184.188 139.456 183.993 139.478 183.789C139.637 182.325 139.076 179.307 138.853 178.718C138.371 177.453 104.546 179.671 104.546 179.671Z" fill="black"/>
<path d="M120.843 182.781C130.789 182.781 138.852 180.964 138.852 178.722C138.852 176.48 130.789 174.662 120.843 174.662C110.897 174.662 102.834 176.48 102.834 178.722C102.834 180.964 110.897 182.781 120.843 182.781Z" fill="#FBD56F"/>
<path d="M97.8097 171.478L96.0982 170.525C96.0982 170.525 95.2977 173.866 95.5594 176.246C95.5852 176.488 95.6845 176.715 95.8438 176.898C96.0032 177.082 96.215 177.212 96.4506 177.271C100.388 178.248 119.152 182.414 132.056 176.547C132.243 176.461 132.405 176.329 132.525 176.162C132.645 175.995 132.72 175.8 132.742 175.595C132.9 174.132 132.34 171.113 132.116 170.525C131.635 169.259 97.8097 171.478 97.8097 171.478Z" fill="#FBD56F"/>
<path opacity="0.1" d="M97.8097 171.478L96.0982 170.525C96.0982 170.525 95.2977 173.866 95.5594 176.246C95.5852 176.488 95.6845 176.715 95.8438 176.898C96.0032 177.082 96.215 177.212 96.4506 177.271C100.388 178.248 119.152 182.414 132.056 176.547C132.243 176.461 132.405 176.329 132.525 176.162C132.645 175.995 132.72 175.8 132.742 175.595C132.9 174.132 132.34 171.113 132.116 170.525C131.635 169.259 97.8097 171.478 97.8097 171.478Z" fill="black"/>
<path d="M114.107 174.584C124.053 174.584 132.116 172.766 132.116 170.524C132.116 168.282 124.053 166.465 114.107 166.465C104.161 166.465 96.0977 168.282 96.0977 170.524C96.0977 172.766 104.161 174.584 114.107 174.584Z" fill="#FBD56F"/>
<path d="M112.963 164.902L111.252 163.949C111.252 163.949 110.451 167.289 110.713 169.67C110.738 169.911 110.838 170.139 110.997 170.322C111.157 170.506 111.368 170.635 111.604 170.694C115.541 171.672 134.306 175.838 147.209 169.971C147.397 169.885 147.558 169.752 147.678 169.586C147.799 169.419 147.873 169.223 147.895 169.019C148.054 167.556 147.493 164.537 147.27 163.949C146.788 162.683 112.963 164.902 112.963 164.902Z" fill="#FBD56F"/>
<path opacity="0.1" d="M112.963 164.902L111.252 163.949C111.252 163.949 110.451 167.289 110.713 169.67C110.738 169.911 110.838 170.139 110.997 170.322C111.157 170.506 111.368 170.635 111.604 170.694C115.541 171.672 134.306 175.838 147.209 169.971C147.397 169.885 147.558 169.752 147.678 169.586C147.799 169.419 147.873 169.223 147.895 169.019C148.054 167.556 147.493 164.537 147.27 163.949C146.788 162.683 112.963 164.902 112.963 164.902Z" fill="black"/>
<path d="M129.261 168.008C139.207 168.008 147.27 166.19 147.27 163.948C147.27 161.706 139.207 159.889 129.261 159.889C119.315 159.889 111.252 161.706 111.252 163.948C111.252 166.19 119.315 168.008 129.261 168.008Z" fill="#FBD56F"/>
<path d="M102.725 160.482L101.013 159.529C101.013 159.529 100.213 162.869 100.474 165.25C100.5 165.491 100.6 165.719 100.759 165.902C100.918 166.086 101.13 166.215 101.366 166.274C105.303 167.252 124.067 171.418 136.971 165.551C137.158 165.465 137.32 165.333 137.44 165.166C137.56 164.999 137.635 164.804 137.657 164.599C137.815 163.136 137.255 160.117 137.031 159.529C136.55 158.263 102.725 160.482 102.725 160.482Z" fill="#FBD56F"/>
<path opacity="0.1" d="M102.725 160.482L101.013 159.529C101.013 159.529 100.213 162.869 100.474 165.25C100.5 165.491 100.6 165.719 100.759 165.902C100.918 166.086 101.13 166.215 101.366 166.274C105.303 167.252 124.067 171.418 136.971 165.551C137.158 165.465 137.32 165.333 137.44 165.166C137.56 164.999 137.635 164.804 137.657 164.599C137.815 163.136 137.255 160.117 137.031 159.529C136.55 158.263 102.725 160.482 102.725 160.482Z" fill="black"/>
<path d="M119.022 163.588C128.968 163.588 137.031 161.77 137.031 159.528C137.031 157.286 128.968 155.469 119.022 155.469C109.076 155.469 101.013 157.286 101.013 159.528C101.013 161.77 109.076 163.588 119.022 163.588Z" fill="#FBD56F"/>
<path d="M109.561 151.949L107.849 150.996C107.849 150.996 107.049 154.336 107.31 156.717C107.336 156.958 107.435 157.186 107.595 157.369C107.754 157.552 107.966 157.682 108.202 157.741C112.139 158.719 130.903 162.885 143.807 157.017C143.994 156.932 144.156 156.799 144.276 156.632C144.396 156.466 144.471 156.27 144.493 156.066C144.651 154.603 144.091 151.584 143.867 150.996C143.386 149.73 109.561 151.949 109.561 151.949Z" fill="#FBD56F"/>
<path opacity="0.1" d="M109.561 151.949L107.849 150.996C107.849 150.996 107.049 154.336 107.31 156.717C107.336 156.958 107.435 157.186 107.595 157.369C107.754 157.552 107.966 157.682 108.202 157.741C112.139 158.719 130.903 162.885 143.807 157.017C143.994 156.932 144.156 156.799 144.276 156.632C144.396 156.466 144.471 156.27 144.493 156.066C144.651 154.603 144.091 151.584 143.867 150.996C143.386 149.73 109.561 151.949 109.561 151.949Z" fill="black"/>
<path d="M125.858 155.054C135.804 155.054 143.867 153.237 143.867 150.995C143.867 148.753 135.804 146.936 125.858 146.936C115.912 146.936 107.849 148.753 107.849 150.995C107.849 153.237 115.912 155.054 125.858 155.054Z" fill="#FBD56F"/>
<path d="M112.932 141.82L111.22 140.867C111.22 140.867 110.42 144.207 110.681 146.588C110.707 146.829 110.807 147.057 110.966 147.24C111.125 147.423 111.337 147.553 111.573 147.612C115.51 148.59 134.275 152.756 147.178 146.888C147.365 146.803 147.527 146.67 147.647 146.504C147.768 146.337 147.842 146.141 147.864 145.937C148.022 144.474 147.462 141.455 147.238 140.867C146.757 139.601 112.932 141.82 112.932 141.82Z" fill="#FBD56F"/>
<path opacity="0.1" d="M112.932 141.82L111.22 140.867C111.22 140.867 110.42 144.207 110.681 146.588C110.707 146.829 110.807 147.057 110.966 147.24C111.125 147.423 111.337 147.553 111.573 147.612C115.51 148.59 134.275 152.756 147.178 146.888C147.365 146.803 147.527 146.67 147.647 146.504C147.768 146.337 147.842 146.141 147.864 145.937C148.022 144.474 147.462 141.455 147.238 140.867C146.757 139.601 112.932 141.82 112.932 141.82Z" fill="black"/>
<path d="M129.23 144.928C139.176 144.928 147.239 143.11 147.239 140.868C147.239 138.626 139.176 136.809 129.23 136.809C119.284 136.809 111.221 138.626 111.221 140.868C111.221 143.11 119.284 144.928 129.23 144.928Z" fill="#FBD56F"/>
<path d="M221.479 211.437C218.972 211.348 218.883 210.377 215.66 208.698C213.84 207.751 211.078 205 209.018 202.786C208.854 202.609 208.694 202.435 208.539 202.266C209.084 202.255 209.393 202.249 209.393 202.249C209.393 202.249 208.587 195.181 209.303 193.503C210.019 191.824 209.482 181.841 209.482 181.841C209.482 181.841 209.93 174.244 209.124 172.477C208.318 170.71 209.393 159.402 209.393 159.402C209.393 159.402 210.109 152.687 210.288 138.994C210.467 125.301 202.409 124.859 202.409 124.859C202.409 124.859 201.335 124.776 199.704 124.62C199.547 124.605 199.382 124.589 199.215 124.573C200.272 122.362 200.887 120.707 200.887 120.707C200.887 120.707 199.545 107.897 199.186 105.688C198.828 103.479 196.68 94.3798 196.68 94.3798C196.68 94.3798 195.158 90.4926 194.262 87.7539C193.367 85.0152 190.681 81.8348 190.681 81.8348C190.681 81.8348 185.847 72.2936 184.504 70.88C183.881 70.2245 183.007 69.3976 182.249 68.6997C182.113 68.5737 181.982 68.4543 181.855 68.3385C182.058 67.3429 182.165 66.3303 182.176 65.3143C182.176 65.3143 177.162 60.367 176.804 59.1302C176.446 57.8933 171.701 53.2994 171.701 53.2994C171.701 53.2994 169.015 48.3521 165.971 48.2637C164.533 48.1822 163.09 48.2259 161.66 48.3944C162.285 46.0804 163.024 43.6563 163.688 41.5761C163.762 41.3442 163.835 41.1182 163.907 40.8955C166.339 39.2506 168.248 36.9416 169.406 34.2433C169.47 34.0998 169.527 33.9548 169.585 33.8098C169.617 33.8106 169.649 33.8159 169.681 33.8155C169.808 33.814 169.933 33.8026 170.058 33.7813C171.06 33.6092 171.908 32.4776 171.446 31.5845C171.476 31.6349 171.519 31.6764 171.57 31.7046C171.622 31.7329 171.68 31.7468 171.738 31.745C172.072 31.7339 172.48 31.2507 172.558 30.8256C172.571 30.7519 172.579 30.6773 172.59 30.6032C172.604 30.511 172.62 30.4189 172.631 30.3262C172.641 30.2391 172.647 30.1518 172.655 30.0644C172.662 29.9743 172.669 29.8842 172.674 29.7939C172.678 29.7093 172.681 29.6249 172.682 29.5402C172.684 29.4429 172.684 29.3456 172.682 29.2483C172.68 29.1704 172.679 29.0926 172.676 29.0147C172.67 28.8963 172.66 28.7782 172.649 28.6602C172.645 28.6117 172.644 28.5629 172.639 28.5146L172.638 28.5216C172.585 28.0388 172.489 27.5619 172.349 27.0968C171.854 25.4547 170.817 23.8262 171.217 22.1591C171.221 22.1411 171.229 22.1248 171.233 22.107L171.234 22.1102C171.567 20.8165 172.687 19.8766 173.372 18.7207C173.437 18.6104 173.494 18.4967 173.551 18.3826C173.561 18.3617 173.574 18.3417 173.584 18.3207C173.625 18.2348 173.66 18.1465 173.696 18.0587C173.72 18.0023 173.745 17.9467 173.767 17.8896C173.795 17.8125 173.819 17.7341 173.844 17.6559C173.867 17.5848 173.892 17.514 173.912 17.442C173.931 17.3727 173.946 17.3026 173.963 17.2326C173.983 17.1483 174.003 17.0642 174.019 16.979C174.031 16.918 174.04 16.8566 174.049 16.7951C174.064 16.6986 174.078 16.602 174.088 16.5048C174.094 16.4521 174.098 16.3994 174.102 16.3466C174.111 16.2381 174.117 16.1296 174.119 16.0206C174.121 15.977 174.121 15.9334 174.121 15.8898C174.122 15.7707 174.119 15.6516 174.112 15.5326C174.11 15.4968 174.108 15.4612 174.106 15.4254C174.097 15.2985 174.083 15.1721 174.067 15.0457C174.064 15.0275 174.064 15.0091 174.061 14.9908L174.06 14.9959C173.908 13.8857 173.466 12.8353 172.778 11.9509C171.994 11.0178 171.003 10.2801 169.885 9.79626C168.766 9.31246 167.55 9.09587 166.334 9.16364C165.661 9.23956 164.982 9.25204 164.307 9.20091C163.183 9.03619 162.233 8.32221 161.337 7.63224C158.837 5.70677 156.338 3.78131 153.838 1.85584C153.002 1.12892 152.042 0.558127 151.003 0.170645C149.944 -0.153679 148.673 -0.0417792 147.889 0.732451C146.485 2.11807 147.377 4.50255 146.814 6.38134C146.325 8.00864 144.754 9.11144 143.126 9.66111C141.499 10.2108 139.758 10.3314 138.086 10.7293C137.589 10.8099 137.123 11.0241 136.738 11.349C136.305 11.8747 136.094 12.5487 136.152 13.2273C136.141 14.8912 136.541 16.532 137.316 18.0047C137.632 18.6047 138.015 19.2108 138.351 19.8256C138.379 19.8764 138.406 19.9273 138.433 19.9781C138.471 20.0487 138.508 20.1192 138.544 20.19C138.602 20.3049 138.658 20.42 138.711 20.5356C138.733 20.5854 138.754 20.6356 138.775 20.6856C138.81 20.7674 138.844 20.8493 138.875 20.9314C138.895 20.9838 138.915 21.0361 138.933 21.0885C138.967 21.1852 138.997 21.2822 139.025 21.3793C139.204 21.9507 139.221 22.5605 139.073 23.1409C138.816 24.0905 138.074 24.8221 137.42 25.564C136.887 26.1436 136.507 26.8476 136.316 27.6118L136.313 27.6288C136.276 27.8065 136.269 27.989 136.292 28.1689C136.296 28.1913 136.298 28.2139 136.303 28.2355C136.311 28.2756 136.322 28.3151 136.336 28.3537C136.346 28.3818 136.358 28.4093 136.371 28.436C136.384 28.4675 136.4 28.4981 136.417 28.5275C136.45 28.5768 136.488 28.622 136.531 28.6618C136.551 28.6784 136.572 28.694 136.594 28.7084C136.63 28.7353 136.669 28.7589 136.709 28.779C136.734 28.7911 136.759 28.8026 136.785 28.8127C136.845 28.8349 136.906 28.8516 136.969 28.8628C136.986 28.866 137.001 28.8716 137.02 28.8742C137.115 28.8865 137.212 28.8906 137.308 28.8864C137.336 28.8855 137.366 28.8821 137.395 28.88C137.487 28.873 137.579 28.8614 137.67 28.8452C137.703 28.8393 137.736 28.834 137.771 28.8268C137.903 28.7996 138.041 28.7661 138.193 28.7188C138.696 28.5669 139.185 28.3735 139.656 28.1405C139.655 28.1943 139.652 28.2474 139.652 28.3013C139.652 28.3941 139.652 28.4913 139.661 28.5841C139.686 30.3166 140.013 32.0314 140.628 33.6514C141.588 36.176 143.198 38.4016 145.297 40.1022C145.271 40.2548 145.242 40.4081 145.211 40.5619C144.78 42.6804 143.877 44.806 143.32 44.6417C142.775 44.5201 142.219 44.4591 141.661 44.4596C141.491 44.4546 141.328 44.4524 141.172 44.4514L141.172 44.4508C140.666 44.3923 140.155 44.3923 139.65 44.4508C139.424 44.4663 139.197 44.435 138.984 44.359C137.537 43.9031 135.999 43.8168 134.511 44.108C131.415 44.7424 126.706 45.9032 125.415 47.292C123.445 49.4123 120.58 51.4442 117.357 60.2787C117.357 60.2787 115.746 65.6677 114.492 66.3745C114.768 66.2313 115.052 66.1037 115.343 65.9922C115.176 66.2841 114.947 66.5354 114.671 66.7279C115.125 66.4958 115.597 66.2992 116.081 66.1399C115.103 71.8958 116.551 88.3603 116.551 88.3603C116.551 88.3603 115.387 91.1994 116.909 92.878C117.814 93.8755 118.305 95.431 118.557 96.532C118.486 96.6423 118.413 96.7565 118.336 96.8747V96.8764C117.531 98.1256 116.453 99.7547 115.746 100.652C114.492 102.243 114.85 107.278 114.85 107.278C114.85 107.278 114.582 109.664 113.686 110.547C112.791 111.43 112.97 114.699 112.97 114.699L110.642 123.269C110.642 123.269 108.494 125.212 108.494 126.096C108.494 126.979 106.793 129.453 106.793 129.453C106.793 129.453 104.196 133.693 106.793 133.075C107.739 132.798 108.627 132.351 109.414 131.757L109.413 131.82C109.409 131.976 109.406 132.134 109.403 132.294C109.33 136.913 109.833 143.411 113.239 143.411C118.521 143.411 132.129 149.684 132.129 149.684C134.905 151.804 138.665 151.097 138.665 151.097C138.665 151.097 132.04 157.723 132.219 160.462C132.398 163.2 128.459 167.706 128.459 167.706L116.283 191.471C116.351 193.127 116.644 194.765 117.155 196.342C117.098 196.392 117.038 196.441 116.981 196.492C112.302 200.767 111.896 209.228 111.896 209.228L110.821 213.557L127.116 220.713C127.116 220.713 148.244 221.155 151.915 220.183C155.586 219.211 154.78 215.147 149.946 214.352C145.111 213.557 143.947 211.437 142.336 210.465C141.249 209.809 137.388 205.572 134.992 202.887C134.956 202.846 134.923 202.808 134.887 202.768L135.442 199.687C136.516 199.157 138.128 193.856 138.128 193.856C138.128 193.856 138.128 191.736 139.202 191.117C140.276 190.499 142.515 184.138 142.515 184.138C142.515 184.138 147.349 176.099 147.081 175.039C146.812 173.979 150.572 168.589 150.572 168.589C150.572 168.589 156.929 162.405 156.66 161.301C156.392 160.197 161.763 154.543 161.763 154.543C163.704 153.061 165.322 151.198 166.517 149.069C167.001 148.991 167.52 148.908 168.068 148.816C175.098 147.664 186.779 145.581 188.085 145.001C189.875 144.206 189.517 147.74 188.801 150.744C188.085 153.748 187.548 168.148 188.353 170.003C189.159 171.858 188.801 174.862 188.801 174.862L187.727 191.029L188.443 194.475C188.443 194.475 186.026 196.418 187.01 197.567C187.995 198.715 187.1 203.662 187.1 203.662C187.185 203.631 187.285 203.6 187.397 203.57C187.311 203.764 187.229 203.964 187.156 204.173C185.768 208.129 186.563 214.617 186.563 214.617V219.741C186.563 219.741 211.362 220.183 216.824 220.183C222.285 220.183 229.805 217.533 230.253 215.412C230.701 213.292 223.986 211.525 221.479 211.437ZM150.944 119.466L149.32 119.602C149.858 119.524 150.401 119.478 150.944 119.466ZM160.849 51.655C161.076 50.6331 161.352 49.5338 161.656 48.4063L160.849 51.655ZM163.912 121.943C162.363 122.556 160.639 122.558 159.088 121.949L159.077 121.943C159.077 121.943 159.167 115.759 159.883 113.197C160.6 110.635 161.584 105.953 161.584 105.953C161.584 105.953 162.39 99.5038 163.196 96.5884C164.001 93.6731 167.135 77.4176 168.747 76.3574C170.358 75.2972 171.253 77.1525 171.253 77.1525C171.253 77.1525 171.494 77.1476 171.898 77.1029C171.973 77.2724 172.059 77.4527 172.154 77.6437C174.065 81.5044 179.669 89.4325 179.669 89.4325C181.332 90.4581 182.74 91.8476 183.787 93.4963C185.309 96.0583 185.757 102.066 185.757 102.066C185.757 102.066 189.159 115.406 190.771 117.261C191.576 118.189 191.218 118.742 190.66 119.062C189.518 119.687 188.548 120.583 187.834 121.671C187.605 122.035 187.362 122.435 187.116 122.861C186.5 122.718 185.948 122.57 185.488 122.415C181.102 120.942 166.329 120.883 163.912 121.943Z" fill="url(#paint0_linear)"/>
<path d="M185.976 214.667V219.749C185.976 219.749 210.242 220.187 215.586 220.187C220.93 220.187 228.289 217.558 228.727 215.456C229.165 213.353 222.595 211.601 220.142 211.514C217.689 211.426 217.601 210.462 214.448 208.798C212.667 207.859 209.964 205.131 207.949 202.935C206.395 201.241 205.249 199.862 205.249 199.862C205.249 199.862 192.196 199.599 188.429 201.702C187.561 202.187 186.962 203.137 186.556 204.311C185.198 208.234 185.976 214.667 185.976 214.667Z" fill="#684A40"/>
<path opacity="0.1" d="M186.556 204.311C189.292 203.359 205.315 202.99 207.949 202.935C206.395 201.241 205.249 199.862 205.249 199.862C205.249 199.862 192.196 199.599 188.429 201.702C187.561 202.187 186.962 203.137 186.556 204.311Z" fill="black"/>
<path d="M116.154 123.293C116.154 123.293 116.661 123.6 117.57 124.148C117.735 124.246 117.912 124.355 118.101 124.469C118.677 124.818 119.369 125.233 120.16 125.709C131.17 132.345 161.205 150.332 162.848 150.188C163.279 150.151 164.574 149.957 166.361 149.666C166.834 149.589 167.342 149.507 167.878 149.415C174.757 148.273 186.188 146.207 187.465 145.633C189.217 144.844 188.867 148.348 188.166 151.327C187.465 154.306 186.94 168.585 187.728 170.425C188.516 172.265 188.166 175.243 188.166 175.243L187.115 191.275L187.816 194.692C187.816 194.692 185.45 196.619 186.414 197.758C187.378 198.897 186.502 203.803 186.502 203.803C189.305 202.751 208.315 202.401 208.315 202.401C208.315 202.401 207.527 195.393 208.228 193.728C208.928 192.064 208.403 182.164 208.403 182.164C208.403 182.164 208.841 174.63 208.052 172.878C207.264 171.126 208.315 159.912 208.315 159.912C208.315 159.912 209.016 153.254 209.191 139.675C209.367 126.097 201.482 125.659 201.482 125.659C201.482 125.659 200.431 125.576 198.835 125.422C195.712 125.122 190.509 124.55 187.032 123.794C186.32 123.647 185.616 123.461 184.925 123.235C180.632 121.774 166.177 121.716 163.812 122.768C162.297 123.376 160.607 123.377 159.091 122.773L159.081 122.768L157.241 119.789L139.669 121.287L137.807 121.447L120.508 122.922L119.319 123.023L116.154 123.293Z" fill="#005B82"/>
<path opacity="0.1" d="M186.59 136.734C191.694 139.222 196.565 130.402 198.835 125.425C195.713 125.125 190.509 124.552 187.033 123.797C184.747 127.634 181.696 134.35 186.59 136.734Z" fill="black"/>
<path d="M171.258 77.1283C171.365 77.7306 171.574 78.3102 171.877 78.8419C173.746 82.6702 179.231 90.5319 179.231 90.5319C180.862 91.5526 182.24 92.9306 183.26 94.5618C184.75 97.1023 185.188 103.06 185.188 103.06C185.188 103.06 188.517 116.288 190.094 118.128C190.882 119.048 190.532 119.596 189.985 119.913C188.865 120.536 187.915 121.424 187.22 122.501C184.923 126.194 181.256 133.52 186.414 136.034C193.423 139.451 199.993 121.544 199.993 121.544C199.993 121.544 198.679 108.841 198.329 106.651C197.978 104.461 195.876 95.4378 195.876 95.4378C195.876 95.4378 194.386 91.5832 193.51 88.8674C192.634 86.1516 190.006 82.9979 190.006 82.9979C190.006 82.9979 185.275 73.5365 183.961 72.1348C183.352 71.4848 182.496 70.6648 181.755 69.9727C180.899 69.172 180.194 68.543 180.194 68.543C180.194 68.543 171.171 75.0258 171.258 77.1283Z" fill="#FDB797"/>
<path d="M111.862 213.619L127.807 220.715C127.807 220.715 148.481 221.153 152.073 220.189C155.665 219.225 154.877 215.195 150.146 214.407C145.415 213.618 144.276 211.516 142.699 210.552C141.636 209.902 137.858 205.701 135.514 203.038C134.386 201.755 133.588 200.828 133.588 200.828C133.588 200.828 130.522 192.681 122.025 194.52C120.474 194.856 119.044 195.608 117.89 196.697C113.311 200.935 112.914 209.326 112.914 209.326L111.862 213.619Z" fill="#684A40"/>
<path opacity="0.1" d="M118.102 124.472C118.678 124.82 119.37 125.236 120.16 125.712C131.171 132.347 161.205 150.335 162.849 150.191C163.28 150.154 164.574 149.96 166.362 149.669C166.835 149.592 167.343 149.509 167.879 149.418C167.9 149.385 167.919 149.352 167.939 149.318C168.821 147.778 169.495 146.127 169.945 144.409C171.784 137.401 162.673 132.057 162.673 132.057L160.746 130.559C158.556 126.87 142.787 123.384 142.787 123.384L140.755 122.019L139.67 121.29L139.384 121.099L136.917 119.441L124.565 120.317L120.896 122.676L120.509 122.925L119.148 123.801L118.102 124.472Z" fill="black"/>
<path opacity="0.1" d="M117.889 196.697C121.242 208.296 135.252 204.508 135.252 204.508L135.513 203.038C134.385 201.755 133.588 200.828 133.588 200.828C133.588 200.828 130.521 192.681 122.024 194.52C120.473 194.856 119.043 195.608 117.889 196.697Z" fill="black"/>
<path d="M114.227 144.056C119.396 144.056 132.712 150.276 132.712 150.276C135.428 152.378 139.107 151.677 139.107 151.677C139.107 151.677 132.624 158.248 132.8 160.964C132.975 163.679 129.12 168.147 129.12 168.147L117.206 191.713C118.082 208.446 135.252 203.803 135.252 203.803L135.953 199.86C137.005 199.335 138.581 194.079 138.581 194.079C138.581 194.079 138.581 191.976 139.633 191.363C140.684 190.749 142.874 184.442 142.874 184.442C142.874 184.442 147.605 176.47 147.342 175.419C147.079 174.367 150.759 169.023 150.759 169.023C150.759 169.023 156.979 162.891 156.716 161.796C156.453 160.701 161.709 155.094 161.709 155.094C163.613 153.62 165.196 151.773 166.361 149.666C167.243 148.125 167.918 146.474 168.367 144.757C169.85 139.113 164.229 134.547 161.984 132.986C161.441 132.607 161.096 132.404 161.096 132.404L159.169 130.906C158.174 129.228 154.368 127.593 150.515 126.309C147.736 125.382 144.931 124.637 143.139 124.19C141.953 123.896 141.21 123.731 141.21 123.731L139.177 122.366L138.462 121.886L137.807 121.447L135.34 119.789L129.844 120.178L122.988 120.665L119.319 123.023L117.57 124.148L110.723 128.55C110.723 128.55 110.542 130.235 110.485 132.497C110.481 132.672 110.478 132.849 110.474 133.031C110.402 137.612 110.895 144.056 114.227 144.056Z" fill="#005B82"/>
<path d="M140.597 45.9417L142.436 52.5121C142.436 52.5121 145.678 63.8132 146.028 64.6017C146.379 65.3901 154.876 73.3622 155.227 73.5375C155.577 73.7127 160.205 76.3408 160.205 76.3408C160.205 76.3408 160.571 61.8859 160.22 57.6809C160.19 56.757 160.266 55.8328 160.448 54.9265C161.007 51.6308 162.421 46.7985 163.593 43.077C164.574 39.9583 165.389 37.6192 165.389 37.6192C165.389 37.6192 144.889 36.7432 145.59 38.7581C145.855 39.5202 145.769 40.794 145.513 42.0713C145.091 44.1721 144.208 46.2799 143.663 46.117C143.13 45.9965 142.585 45.9359 142.039 45.9365C141.282 45.9137 140.597 45.9417 140.597 45.9417Z" fill="#FDB797"/>
<path opacity="0.1" d="M145.512 42.0713C148.016 44.1616 151.128 45.3885 154.385 45.5696C157.642 45.7508 160.871 44.8767 163.592 43.077C164.573 39.9583 165.388 37.6192 165.388 37.6192C165.388 37.6192 144.888 36.7432 145.589 38.7581C145.853 39.5203 145.767 40.794 145.512 42.0713Z" fill="black"/>
<path d="M170.383 29.9095C170.384 31.5169 170.128 33.1142 169.626 34.6409C169.499 35.0349 169.353 35.4224 169.187 35.8018C168.007 38.5968 166.016 40.9733 163.47 42.6238C160.924 44.2743 157.942 45.1229 154.908 45.0596C151.875 44.9964 148.93 44.0243 146.456 42.2691C143.981 40.514 142.09 38.0565 141.027 35.2148C140.425 33.6066 140.105 31.9068 140.081 30.1899C140.072 30.0979 140.072 30.0015 140.072 29.9095C140.072 25.89 141.669 22.0351 144.511 19.1929C147.353 16.3507 151.208 14.7539 155.228 14.7539C159.247 14.7539 163.102 16.3507 165.945 19.1929C168.787 22.0351 170.383 25.89 170.383 29.9095H170.383Z" fill="#FDB797"/>
<path opacity="0.1" d="M140.597 45.94L142.436 52.5104C142.436 52.5104 145.678 63.8115 146.028 64.5999C146.379 65.3884 154.876 73.3605 155.227 73.5357C155.577 73.7109 160.205 76.3391 160.205 76.3391C160.205 76.3391 160.571 61.8842 160.22 57.6791C160.19 56.7553 160.266 55.8311 160.448 54.9248L159.257 59.7816L159.344 69.5058L160.045 70.0315L158.468 72.3968V70.6447C158.468 70.6447 152.861 65.2132 151.985 62.9354C151.109 60.6577 147.956 56.5332 147.956 56.5332C147.956 56.5332 144.364 50.4955 144.276 49.4442C144.208 48.6242 142.699 46.7284 142.039 45.9347C141.282 45.9119 140.597 45.94 140.597 45.94Z" fill="black"/>
<path opacity="0.1" d="M171.258 77.1283C171.365 77.7306 171.574 78.3102 171.877 78.8419C173.792 78.6456 180.319 77.4279 181.755 69.9727C180.899 69.172 180.194 68.543 180.194 68.543C180.194 68.543 171.171 75.0258 171.258 77.1283Z" fill="black"/>
<path opacity="0.1" d="M110.475 133.032C112.242 131.781 113.925 130.074 114.928 129.601C116.418 128.9 118.695 126.622 118.695 126.622C118.695 126.622 119.274 126.23 120.16 125.709C121.786 124.756 124.451 123.376 126.492 123.206C128.322 123.053 134.398 122.664 139.178 122.366C142.636 122.149 145.415 121.979 145.415 121.979C145.415 121.979 151.11 119.964 153.562 121.278C155.319 122.158 157.171 122.834 159.082 123.293C159.082 123.293 159.083 123.102 159.092 122.773L159.082 122.768L157.242 119.789L137.808 121.447L135.341 119.789L122.988 120.665L119.319 123.023L116.155 123.293C116.155 123.293 116.661 123.6 117.571 124.148L110.723 128.55C110.723 128.55 110.513 130.507 110.475 133.032Z" fill="black"/>
<path d="M107.92 133.808C108.848 133.532 109.717 133.089 110.485 132.501V132.499C112.25 131.25 113.926 129.548 114.929 129.077C116.418 128.376 118.696 126.098 118.696 126.098C118.696 126.098 123.339 122.945 126.493 122.682C127.353 122.61 129.15 122.486 131.311 122.345C133.522 122.198 136.11 122.034 138.463 121.888C139.819 121.802 141.096 121.722 142.176 121.655C144.11 121.536 145.415 121.455 145.415 121.455C145.415 121.455 151.11 119.44 153.563 120.754C155.319 121.635 157.171 122.311 159.082 122.769C159.082 122.769 159.169 116.637 159.87 114.096C160.571 111.556 161.535 106.913 161.535 106.913C161.535 106.913 162.323 100.518 163.112 97.6267C163.9 94.7357 166.966 78.6163 168.543 77.565C170.12 76.5137 170.996 78.3534 170.996 78.3534C170.996 78.3534 181.509 78.1782 181.684 66.6143C181.684 66.6143 176.778 61.7084 176.428 60.4819C176.077 59.2554 171.434 54.7 171.434 54.7C171.434 54.7 168.806 49.7941 165.827 49.7064C164.42 49.6255 163.008 49.6689 161.608 49.8361L159.082 60.1315L159.169 69.8557L159.87 70.3814L158.293 72.7467V70.9946C158.293 70.9946 152.687 65.563 151.811 63.2853C150.934 61.0076 147.781 56.8831 147.781 56.8831C147.781 56.8831 144.189 50.8453 144.101 49.7941C144.014 48.7428 141.561 45.9254 141.561 45.9254C141.066 45.8674 140.566 45.8674 140.071 45.9254C139.85 45.9407 139.628 45.9097 139.42 45.8343C138.005 45.3823 136.499 45.2967 135.043 45.5855C132.013 46.2145 127.405 47.3656 126.142 48.7428C124.215 50.8453 121.411 52.8602 118.258 61.6208L135.253 67.7531L133.799 70.518L120.273 96.2249C120.273 96.2249 119.824 96.9556 119.216 97.9105V97.9122C118.428 99.1509 117.373 100.766 116.681 101.656C115.454 103.233 115.805 108.227 115.805 108.227C115.805 108.227 115.542 110.592 114.666 111.468C113.79 112.344 113.965 115.586 113.965 115.586L111.687 124.084C111.687 124.084 109.585 126.011 109.585 126.887C109.585 127.763 107.92 130.216 107.92 130.216C107.92 130.216 105.38 134.421 107.92 133.808Z" fill="#0074A7"/>
<path opacity="0.1" d="M197.627 140.115C197.627 140.115 192.108 141.955 190.619 144.583C189.129 147.211 197.627 140.115 197.627 140.115Z" fill="black"/>
<path opacity="0.1" d="M194.824 134.334C194.649 134.597 187.265 142.006 187.728 143.795C188.191 145.585 194.824 134.334 194.824 134.334Z" fill="black"/>
<path opacity="0.1" d="M154.263 139.59C154.263 139.59 146.028 143.473 145.327 145.167C144.627 146.861 154.263 139.59 154.263 139.59Z" fill="black"/>
<path opacity="0.1" d="M153.738 144.584C153.738 144.584 146.306 147.738 145.291 148.526C144.276 149.315 153.738 144.584 153.738 144.584Z" fill="black"/>
<path opacity="0.1" d="M150.321 151.33C150.321 151.33 147.029 153.783 145.214 151.856C143.4 149.928 150.321 151.33 150.321 151.33Z" fill="black"/>
<path opacity="0.1" d="M162.674 87.3789C162.497 87.6417 151.547 107.353 148.656 108.842C145.765 110.332 162.674 87.3789 162.674 87.3789Z" fill="black"/>
<path opacity="0.1" d="M162.147 94.8262C162.147 95.2642 151.46 118.129 149.707 118.392C147.955 118.655 162.147 94.8262 162.147 94.8262Z" fill="black"/>
<path opacity="0.1" d="M121.498 109.543C121.498 109.543 116.336 120.566 114.315 121.194C112.293 121.823 121.498 109.543 121.498 109.543Z" fill="black"/>
<path opacity="0.1" d="M120.624 104.637C120.624 104.637 118.844 108.491 117.763 108.491C116.682 108.491 120.624 104.637 120.624 104.637Z" fill="black"/>
<path opacity="0.1" d="M170.383 29.9095C170.384 31.5169 170.128 33.1141 169.626 34.6409C169.499 35.0349 169.353 35.4224 169.188 35.8018C168.409 35.6838 167.676 35.3619 167.063 34.8687C166.412 34.4279 165.869 33.8471 165.473 33.1689C165.174 32.4462 164.915 31.7077 164.697 30.9566C164.348 30.1088 163.778 29.3697 163.047 28.816C162.316 28.2622 161.45 27.9137 160.54 27.8067C161.043 28.6654 160.242 29.8438 159.256 29.9971C158.27 30.1461 157.311 29.559 156.632 28.8274C155.953 28.0958 155.462 27.2065 154.788 26.4749C154.109 25.7433 153.149 25.1563 152.163 25.3052C151.292 25.4367 150.617 26.1025 149.885 26.5976C149.158 27.0926 148.137 27.4256 147.432 26.8955C147.038 26.602 146.845 26.1026 146.468 25.7828C145.5 24.9723 143.993 25.809 143.279 26.8561C142.179 28.477 141.509 29.4583 140.081 30.1899C140.072 30.0979 140.072 30.0015 140.072 29.9095C140.072 25.89 141.669 22.0351 144.511 19.1929C147.353 16.3507 151.208 14.7539 155.228 14.7539C159.247 14.7539 163.102 16.3507 165.945 19.1929C168.787 22.0351 170.383 25.89 170.383 29.9095Z" fill="black"/>
<path d="M143.282 26.4203C143.995 25.3725 145.501 24.5347 146.472 25.3492C146.849 25.6654 147.041 26.1653 147.434 26.4613C148.138 26.9918 149.16 26.6589 149.888 26.1621C150.617 25.6653 151.293 25.0024 152.165 24.8698C153.15 24.7198 154.111 25.3074 154.788 26.0396C155.465 26.7718 155.956 27.6602 156.633 28.3922C157.311 29.1242 158.272 29.7113 159.258 29.5604C160.243 29.4096 161.047 28.23 160.54 27.3711C161.451 27.4784 162.316 27.8269 163.047 28.3806C163.778 28.9344 164.347 29.6732 164.697 30.5207C164.915 31.2717 165.174 32.0102 165.473 32.7327C165.87 33.4109 166.414 33.9912 167.065 34.431C167.869 35.0202 168.843 35.5172 169.825 35.3463C170.807 35.1754 171.638 34.0501 171.182 33.164C171.496 33.6406 172.169 32.9767 172.271 32.4152C172.493 31.1838 172.424 29.9175 172.069 28.7177C171.585 27.0893 170.569 25.4745 170.96 23.8213C171.27 22.5125 172.389 21.5727 173.068 20.4116C174.271 18.3534 173.952 15.5807 172.488 13.6985C171.727 12.776 170.76 12.0452 169.665 11.5651C168.569 11.0851 167.377 10.8691 166.182 10.9346C165.524 11.0099 164.86 11.0222 164.2 10.9715C163.1 10.8082 162.17 10.1002 161.293 9.41603L153.955 3.68796C153.139 2.96835 152.199 2.40222 151.182 2.01687C150.145 1.69527 148.901 1.80622 148.134 2.57397C146.76 3.94798 147.633 6.31251 147.082 8.17559C146.604 9.78926 145.066 10.8828 143.474 11.4279C141.882 11.973 140.178 12.0926 138.542 12.4872C138.054 12.5676 137.598 12.7802 137.222 13.1017C136.798 13.6253 136.592 14.2927 136.649 14.9642C136.638 16.6124 137.029 18.2384 137.788 19.7017C138.638 21.3359 139.985 23.0156 139.508 24.7949C139.256 25.7365 138.53 26.462 137.89 27.1977C136.504 28.7926 136.036 31.1492 138.645 30.326C141.158 29.533 141.864 28.5053 143.282 26.4203Z" fill="#3D414D"/>
<g opacity="0.1">
<path opacity="0.1" d="M172.272 30.6901C172.17 31.2515 171.496 31.9154 171.183 31.4388C171.639 32.325 170.808 33.4502 169.826 33.6211C168.844 33.792 167.87 33.295 167.066 32.7058C166.414 32.2661 165.87 31.6857 165.473 31.0075C165.174 30.285 164.915 29.5466 164.697 28.7956C164.348 27.948 163.778 27.2092 163.047 26.6555C162.317 26.1018 161.451 25.7532 160.541 25.6459C161.048 26.5048 160.244 27.6844 159.258 27.8353C158.272 27.9861 157.311 27.399 156.634 26.667C155.957 25.935 155.466 25.0467 154.789 24.3145C154.112 23.5822 153.151 22.9946 152.165 23.1446C151.294 23.2773 150.617 23.9401 149.889 24.4369C149.161 24.9338 148.139 25.2666 147.435 24.7361C147.042 24.4401 146.849 23.9402 146.473 23.6241C145.502 22.8095 143.996 23.6473 143.283 24.6951C141.864 26.7801 141.159 27.8078 138.646 28.6008C137.821 28.8611 137.305 28.8023 137.027 28.5513C136.475 29.818 136.726 30.9335 138.646 30.328C141.159 29.535 141.864 28.5073 143.283 26.4223C143.996 25.3745 145.502 24.5367 146.473 25.3512C146.849 25.6674 147.042 26.1673 147.435 26.4633C148.139 26.9938 149.161 26.6609 149.889 26.1641C150.617 25.6673 151.294 25.0044 152.165 24.8718C153.151 24.7218 154.112 25.3094 154.789 26.0416C155.466 26.7739 155.957 27.6622 156.634 28.3942C157.311 29.1262 158.272 29.7133 159.258 29.5625C160.244 29.4116 161.048 28.232 160.541 27.3731C161.451 27.4804 162.317 27.8289 163.047 28.3827C163.778 28.9364 164.348 29.6752 164.697 30.5227C164.915 31.2737 165.174 32.0122 165.473 32.7347C165.87 33.4129 166.414 33.9932 167.066 34.433C167.87 35.0222 168.844 35.5191 169.826 35.3482C170.808 35.1774 171.639 34.0521 171.183 33.166C171.496 33.6426 172.17 32.9787 172.272 32.4172C172.408 31.6611 172.435 30.8893 172.351 30.1256C172.331 30.3145 172.306 30.503 172.272 30.6901Z" fill="black"/>
<path opacity="0.1" d="M139.487 23.1352C139.494 23.1126 139.504 23.0914 139.51 23.0686C139.986 21.2894 138.639 19.6097 137.79 17.9754C137.194 16.823 136.824 15.567 136.701 14.2754C136.668 14.5039 136.651 14.7344 136.651 14.9652C136.64 16.6134 137.031 18.2393 137.79 19.7026C138.371 20.8197 139.183 21.9582 139.487 23.1352Z" fill="black"/>
<path opacity="0.1" d="M173.069 18.6863C172.391 19.8473 171.272 20.7871 170.962 22.0959C170.842 22.6497 170.848 23.2232 170.978 23.7746C171.304 22.4917 172.399 21.5596 173.069 20.4134C173.702 19.2908 173.939 17.9885 173.744 16.7148C173.649 17.4094 173.42 18.0789 173.069 18.6863Z" fill="black"/>
</g>
<path opacity="0.1" d="M119.216 97.912V97.9137C119.332 98.3972 119.422 98.8868 119.484 99.3803C119.484 99.3803 126.405 115.587 127.281 116.551C127.551 116.847 128.567 118.305 129.844 120.181C130.307 120.859 130.803 121.593 131.311 122.347C133.96 126.279 136.917 130.743 136.917 130.743L143.4 136.437C143.4 136.437 157.503 137.566 161.985 132.989C161.442 132.611 161.096 132.408 161.096 132.408L159.169 130.909C158.174 129.231 154.368 127.596 150.515 126.312C146.966 126.338 144.062 126.626 144.062 126.626L143.139 124.194L142.175 121.657L137.275 108.754C137.275 108.754 134.114 92.4595 133.063 91.671C132.011 90.8826 132.274 88.4296 132.274 88.4296C132.274 88.4296 134.202 81.5088 133.501 80.5451C132.8 79.5814 134.64 72.4854 134.64 72.4854C134.457 71.7926 134.173 71.1303 133.799 70.5195L120.272 96.2265C120.272 96.2265 119.824 96.9571 119.216 97.912Z" fill="black"/>
<path d="M134.816 71.958C134.816 71.958 132.976 79.054 133.677 80.0177C134.378 80.9813 132.451 87.9022 132.451 87.9022C132.451 87.9022 132.188 90.3551 133.239 91.1436C134.29 91.932 137.451 108.227 137.451 108.227L144.238 126.098C144.238 126.098 165.478 123.996 163.288 130.654C161.098 137.312 143.576 135.91 143.576 135.91L137.094 130.216C137.094 130.216 128.333 116.987 127.457 116.024C126.581 115.06 119.66 98.8529 119.66 98.8529C119.66 98.8529 119.31 95.6115 117.82 93.9469C116.331 92.2824 117.47 89.4671 117.47 89.4671C117.47 89.4671 115.63 68.2785 117.558 65.738C119.485 63.1974 132.801 64.3363 134.816 71.958Z" fill="#FDB797"/>
<path opacity="0.1" d="M123.951 58.6442L118.432 61.9732C118.432 61.9732 116.855 67.3171 115.629 68.018C115.629 68.018 126.667 61.8856 134.99 75.99C134.99 75.99 134.727 74.1503 135.866 73.2743C137.005 72.3982 136.742 68.6312 136.742 68.6312C137.045 68.036 137.308 67.4214 137.53 66.7915C138.319 64.8641 134.201 53.8259 123.951 58.6442Z" fill="black"/>
<path d="M123.778 58.2946L118.258 61.6236C118.258 61.6236 116.682 66.9675 115.455 67.6683C115.455 67.6683 126.493 61.536 134.816 75.6405C134.816 75.6405 134.553 73.8007 135.692 72.9247C136.831 72.0486 136.568 68.2816 136.568 68.2816C136.871 67.6864 137.134 67.0718 137.356 66.4419C138.145 64.5145 134.027 53.4763 123.778 58.2946Z" fill="#00628D"/>
<path d="M74.585 211.714C83.6719 211.714 91.0382 203.895 91.0382 194.25C91.0382 184.604 83.6719 176.785 74.585 176.785C65.4982 176.785 58.1318 184.604 58.1318 194.25C58.1318 203.895 65.4982 211.714 74.585 211.714Z" fill="#FBD56F"/>
<path opacity="0.1" d="M74.585 211.714C83.6719 211.714 91.0382 203.895 91.0382 194.25C91.0382 184.604 83.6719 176.785 74.585 176.785C65.4982 176.785 58.1318 184.604 58.1318 194.25C58.1318 203.895 65.4982 211.714 74.585 211.714Z" fill="black"/>
<path d="M77.4229 211.715C86.5097 211.715 93.8761 204.071 93.8761 194.64C93.8761 185.209 86.5097 177.564 77.4229 177.564C68.3361 177.564 60.9697 185.209 60.9697 194.64C60.9697 204.071 68.3361 211.715 77.4229 211.715Z" fill="#FBD56F"/>
<defs>
<linearGradient id="paint0_linear" x1="167.956" y1="220.813" x2="167.956" y2="0" gradientUnits="userSpaceOnUse">
<stop stop-color="#808080" stop-opacity="0.25"/>
<stop offset="0.53514" stop-color="#808080" stop-opacity="0.12"/>
<stop offset="1" stop-color="#808080" stop-opacity="0.1"/>
</linearGradient>
</defs>
</svg>
