<svg width="52" height="61" viewBox="0 0 52 61" fill="none" xmlns="http://www.w3.org/2000/svg">
<path d="M25.5273 3.24867C25.5273 1.45525 26.9915 0.000954628 28.7973 0.000954628C30.603 0.000954628 32.0674 1.45525 32.0674 3.24867C32.0674 5.04208 30.603 6.49609 28.7973 6.49609C26.9915 6.49609 25.5273 5.04208 25.5273 3.24867Z" fill="url(#paint0_linear)"/>
<path d="M32.065 10.8462H25.5249C25.0511 10.8462 24.6676 10.4647 24.6676 9.99419C24.6676 9.52406 25.0511 9.14327 25.5249 9.14327H32.065C32.539 9.14327 32.9234 9.52406 32.9234 9.99419C32.9234 10.4647 32.539 10.8462 32.065 10.8462ZM17.9539 18.5206C17.3226 18.5206 16.8099 18.013 16.8099 17.3851C16.8099 16.7579 17.3226 16.2491 17.9539 16.2491C18.5859 16.2491 19.0977 16.7579 19.0977 17.3851C19.0977 18.013 18.5859 18.5206 17.9539 18.5206ZM9.00494 19.1449C8.95466 17.6683 9.62603 16.3127 10.531 15.2254C10.8727 14.8154 10.4676 14.7364 10.2264 14.4494C10.0082 14.1914 9.85302 13.6943 9.52677 13.9229C6.93802 15.7386 5.68159 19.024 6.89324 22.2367C7.99577 25.16 10.8971 26.3479 13.5185 25.9074C15.4484 25.5816 16.8769 25.383 17.9853 27.2876C18.7222 28.5566 19.9619 30.6898 20.5185 31.6484C20.7534 32.0504 20.8933 32.1406 21.251 32.1406C22.3215 32.1406 24.9669 32.1406 25.1377 32.1406C25.4334 32.1406 25.5094 31.9211 25.5805 31.5421C25.8628 30.0347 27.1953 28.8929 28.7948 28.8929C30.4135 28.8929 31.7575 30.0606 32.0194 31.5932C32.0917 32.0218 32.1982 32.1406 32.5036 32.1406C32.6282 32.1406 35.2789 32.1406 36.3455 32.1406C36.6159 32.1406 36.785 32.1406 37.0186 31.7372C37.1312 31.5435 43.1122 21.2557 43.1122 21.2557L43.1249 21.232C43.6122 21.9522 44.4712 22.2577 45.1143 22.2444C45.2632 22.2409 45.3151 22.0752 45.1889 21.9522C44.6031 21.3809 44.1864 20.5734 44.1244 19.4715C44.0985 19.0051 44.1623 18.5583 44.238 18.0304C44.7495 14.492 43.0986 10.8385 39.7905 8.94119C38.3585 8.12081 36.7942 7.73064 35.2516 7.73204H22.3391C20.7966 7.73064 19.2325 8.12081 17.8006 8.94119C14.3621 10.9126 12.721 14.7791 13.4305 18.4443C13.7065 19.8651 13.6954 21.5445 12.3805 22.1563C10.9225 22.8345 9.10392 22.0123 9.00494 19.1449Z" fill="url(#paint1_linear)"/>
<path d="M12.7577 9.80252C12.6379 8.9337 11.8343 8.34221 10.9587 8.44706C10.0648 8.55406 9.44733 9.36901 9.59377 10.2332C9.73134 11.0431 10.2868 11.1697 10.6476 12.0658C10.8447 12.5555 10.8989 13.0614 10.805 13.4896C10.7677 13.6602 10.8369 13.7102 10.9338 13.6431C12.4443 12.6065 12.8868 10.7471 12.7577 9.80252Z" fill="url(#paint2_linear)"/>
<path d="M5.98226 44.2331C5.98226 43.1359 5.18953 42.1769 4.02074 42.1769C2.81045 42.1769 2.08688 43.1079 2.08688 44.2331C2.08688 45.3307 2.8799 46.2891 4.04869 46.2891C5.25868 46.2891 5.98226 45.3586 5.98226 44.2331ZM0 44.2331C0 42.0936 1.72523 40.3567 4.04869 40.3567C6.35803 40.3567 8.06913 42.0658 8.06913 44.2331C8.06913 46.3726 6.34419 48.1094 4.02074 48.1094C1.71111 48.1094 0 46.4002 0 44.2331Z" fill="#14BC1F"/>
<path d="M16.4816 47.9414H14.367V45.0932H11.7649V47.9414H9.65039V40.4952H11.7649V43.357H14.367V40.4952H16.4816V47.9414Z" fill="#14BC1F"/>
<path d="M25.3724 40.4959V47.9422H23.2576V42.3018H21.3655C21.3655 47.2341 20.5169 48.0254 18.6527 48.0254C18.3744 48.0254 17.8594 47.9703 17.5811 47.9003L17.7205 46.1919C17.8038 46.2051 18.0683 46.2332 18.1657 46.2332C18.9591 46.2332 19.3757 45.775 19.3757 40.4959H25.3724Z" fill="#14BC1F"/>
<path d="M31.7351 45.3171V44.9424C31.3738 44.7753 30.9006 44.6651 30.386 44.6651C29.4814 44.6651 28.925 45.0256 28.925 45.7205C28.925 46.2899 29.3981 46.6233 30.0796 46.6233C31.0675 46.6233 31.7351 46.0815 31.7351 45.3171ZM26.8799 45.776C26.8799 44.1507 28.1184 43.4 29.8851 43.4C30.6361 43.4 31.179 43.5251 31.7078 43.7059V43.5814C31.7078 42.7056 31.1649 42.2197 30.1073 42.2197C29.3004 42.2197 28.7302 42.3724 28.0481 42.6221L27.5196 41.0105C28.3409 40.649 29.1477 40.4135 30.4136 40.4135C31.5683 40.4135 32.4028 40.7188 32.9316 41.2468C33.4886 41.8025 33.7384 42.6221 33.7384 43.6221V47.9432H31.6936V47.1375C31.179 47.7072 30.4692 48.082 29.4396 48.082C28.0345 48.082 26.8799 47.2762 26.8799 45.776Z" fill="#14BC1F"/>
<path d="M36.8598 37.675L38.0978 37.4523C38.279 38.0222 38.6124 38.383 39.1968 38.383C39.7809 38.383 40.1155 38.0222 40.2959 37.4523L41.5341 37.675C41.3396 39.0085 40.4771 39.7864 39.1968 39.7864C37.9171 39.7864 37.0546 39.0085 36.8598 37.675ZM42.6052 47.9414H40.5604V43.6066L37.6526 47.9414H35.6631V40.4952H37.7082V44.843L40.616 40.4952H42.6052V47.9414Z" fill="#14BC1F"/>
<path d="M51.4292 47.9414H49.3147V45.0932H46.7129V47.9414H44.5986V40.4952H46.7129V43.357H49.3147V40.4952H51.4292V47.9414Z" fill="#14BC1F"/>
<path d="M12.4261 53.0851V60.532H10.3113V54.8911H8.41921C8.41921 59.8233 7.57057 60.6152 5.70645 60.6152C5.42808 60.6152 4.91313 60.5596 4.63477 60.4901L4.77424 58.781C4.85752 58.7954 5.12206 58.8224 5.21946 58.8224C6.01277 58.8224 6.42974 58.3644 6.42974 53.0851H12.4261Z" fill="#14BC1F"/>
<path d="M19.2602 56.2257C19.1352 55.281 18.5784 54.6417 17.688 54.6417C16.8114 54.6417 16.2415 55.2673 16.074 56.2257H19.2602ZM14.001 56.8231C14.001 54.6974 15.5179 52.9464 17.688 52.9464C20.1786 52.9464 21.3195 54.8781 21.3195 56.9895C21.3195 57.1571 21.3053 57.3511 21.2915 57.5456H16.1017C16.3109 58.504 16.9789 59.0045 17.9246 59.0045C18.6344 59.0045 19.149 58.7818 19.7334 58.2401L20.9437 59.3092C20.2484 60.1718 19.2461 60.6992 17.8969 60.6992C15.6562 60.6992 14.001 59.1296 14.001 56.8231Z" fill="#14BC1F"/>
<path d="M24.118 50.2661L25.3563 50.0435C25.5375 50.6133 25.8709 50.9749 26.4556 50.9749C27.04 50.9749 27.374 50.6133 27.5544 50.0435L28.7923 50.2661C28.5978 51.5999 27.7356 52.3775 26.4556 52.3775C25.1759 52.3775 24.3128 51.5999 24.118 50.2661ZM29.864 60.5332H27.8189V56.1985L24.9113 60.5332H22.9219V53.0863H24.967V57.4347L27.8751 53.0863H29.864V60.5332Z" fill="#14BC1F"/>
<path d="M31.8545 53.0863H33.969V56.1429L36.6403 53.0863H39.075L36.3343 56.1429L39.4231 60.5332H36.9184L34.9286 57.6987L33.969 58.7409V60.5332H31.8545V53.0863Z" fill="#14BC1F"/>
<path d="M44.6922 57.9074V57.5321C44.3308 57.3656 43.8576 57.2543 43.3427 57.2543C42.4387 57.2543 41.882 57.6159 41.882 58.3108C41.882 58.8802 42.3552 59.213 43.0364 59.213C44.0245 59.213 44.6922 58.6718 44.6922 57.9074ZM39.8369 58.3659C39.8369 56.7407 41.0749 55.99 42.8419 55.99C43.5934 55.99 44.136 56.1151 44.6648 56.2965V56.1714C44.6648 55.2956 44.1222 54.8095 43.0646 54.8095C42.2578 54.8095 41.6872 54.9621 41.0054 55.2118L40.4766 53.6003C41.2976 53.2393 42.1048 53.0034 43.3709 53.0034C44.5256 53.0034 45.3601 53.3093 45.8892 53.8367C46.4456 54.3928 46.6958 55.2118 46.6958 56.2121V60.5336H44.651V59.7272C44.136 60.2971 43.4266 60.6719 42.397 60.6719C40.9916 60.6719 39.8369 59.8667 39.8369 58.3659Z" fill="#14BC1F"/>
<defs>
<linearGradient id="paint0_linear" x1="34.1873" y1="8.60145" x2="49.0693" y2="23.5868" gradientUnits="userSpaceOnUse">
<stop stop-color="#14BC1F"/>
<stop offset="1" stop-color="#2F8084"/>
</linearGradient>
<linearGradient id="paint1_linear" x1="25.1651" y1="17.5588" x2="40.0481" y2="32.5452" gradientUnits="userSpaceOnUse">
<stop stop-color="#14BC1F"/>
<stop offset="1" stop-color="#2F8084"/>
</linearGradient>
<linearGradient id="paint2_linear" x1="21.527" y1="21.1738" x2="36.4097" y2="36.1599" gradientUnits="userSpaceOnUse">
<stop stop-color="#5AC147"/>
<stop offset="1" stop-color="#2F8084"/>
</linearGradient>
</defs>
</svg>
