<svg width="459" height="185" viewBox="0 0 459 185" fill="none" xmlns="http://www.w3.org/2000/svg">
<path d="M216.18 94.3031C231.955 94.3031 244.743 81.5151 244.743 65.7404C244.743 49.9657 231.955 37.1777 216.18 37.1777C200.406 37.1777 187.618 49.9657 187.618 65.7404C187.618 81.5151 200.406 94.3031 216.18 94.3031Z" fill="#FBD56F"/>
<path d="M181.141 184.36L147.59 151.302L139.27 143.103L114.436 118.635L83.6521 151.497L53 184.223" fill="#F2F9FD"/>
<path d="M346.367 184.559H119.524L147.59 154.135L199.444 93.3136L202.939 89.2149L249.844 34.1953L282.3 85.5994L283.15 86.9448L324.441 152.332L346.367 184.559Z" fill="#F2F9FD"/>
<path d="M458.701 184.36L402.671 118.248L375.203 85.8398L348.655 119.126L324.441 149.497L296.746 184.222" fill="#F2F9FD"/>
<path opacity="0.1" d="M139.27 143.103L124.486 153.016L107.031 146.14L83.6523 151.497L114.436 118.635L139.27 143.103Z" fill="#626673"/>
<path opacity="0.1" d="M282.3 85.5994L277.348 94.3007L266.243 82.667L254.076 94.3007L247.199 81.08L236.09 94.3007L232.916 85.841L225.515 94.3007L212.29 85.841L202.939 89.2149L249.844 34.1953L282.3 85.5994Z" fill="#626673"/>
<path opacity="0.1" d="M402.671 118.248L388.955 135.031L377.848 121.808L360.922 135.56L348.656 119.126L375.203 85.8398L402.671 118.248Z" fill="#626673"/>
<path d="M458.701 183.977H53V184.81H458.701V183.977Z" fill="#D7DEE6"/>
<path d="M145.242 33.4786C143.004 31.2319 140.238 29.5834 137.197 28.6846C134.156 27.7857 130.938 27.6652 127.838 28.3342C124.739 29.0032 121.857 30.4402 119.457 32.5133C117.058 34.5863 115.218 37.229 114.106 40.1986L148.869 38.5879C147.953 36.6948 146.727 34.9679 145.242 33.4786Z" fill="#F2F9FD"/>
<path d="M220.218 5.57035C217.98 3.32369 215.213 1.67524 212.173 0.776372C209.132 -0.122495 205.914 -0.242967 202.814 0.426017C199.714 1.095 196.833 2.532 194.433 4.60506C192.034 6.67812 190.193 9.32079 189.082 12.2904L223.845 10.6797C222.929 8.78656 221.703 7.05969 220.218 5.57035Z" fill="#F2F9FD"/>
<path d="M352.258 75.1309C350.02 72.8842 347.254 71.2358 344.213 70.3369C341.172 69.4381 337.954 69.3176 334.854 69.9866C331.755 70.6555 328.873 72.0925 326.473 74.1656C324.074 76.2386 322.234 78.8813 321.122 81.8509L355.885 80.2402C354.969 78.3471 353.743 76.6202 352.258 75.1309Z" fill="#F2F9FD"/>
<path d="M76.8941 71.8672C76.8941 71.8672 60.7735 80.5476 60.1534 87.9879C59.5334 95.4282 50.233 114.029 50.233 114.029C50.233 114.029 13.6516 103.489 13.0315 102.868C12.4115 102.248 9.9314 114.029 9.9314 114.029L22.9519 115.889L47.1329 124.569C47.1329 124.569 52.7132 132.63 62.0135 121.469C71.3139 110.309 94.8749 86.1278 94.8749 86.1278L76.8941 71.8672Z" fill="#005B82"/>
<path d="M73.7939 102.248C73.7939 102.248 94.2548 122.089 93.6348 126.429C93.0147 130.77 83.7144 166.111 83.7144 166.111L91.1547 169.831L96.1149 166.731L106.035 123.949C106.035 123.949 109.77 118.71 102.632 112.649C95.4949 106.589 90.5346 85.5078 90.5346 85.5078L73.7939 102.248Z" fill="#004F71"/>
<path d="M124.636 50.7864C124.636 50.7864 114.096 45.8262 112.856 47.0662C111.616 48.3063 115.336 63.1869 115.336 63.1869C115.336 63.1869 125.256 57.6066 126.496 57.6066C127.736 57.6066 124.636 50.7864 124.636 50.7864Z" fill="#FDB797"/>
<path d="M130.766 62.8758C136.588 62.8758 141.307 58.1566 141.307 52.3353C141.307 46.514 136.588 41.7949 130.766 41.7949C124.945 41.7949 120.226 46.514 120.226 52.3353C120.226 58.1566 124.945 62.8758 130.766 62.8758Z" fill="#FDA177"/>
<path d="M131.766 62.8758C137.588 62.8758 142.307 58.1566 142.307 52.3353C142.307 46.514 137.588 41.7949 131.766 41.7949C125.945 41.7949 121.226 46.514 121.226 52.3353C121.226 58.1566 125.945 62.8758 131.766 62.8758Z" fill="#FDB797"/>
<path d="M118.436 57.6056C118.436 57.6056 115.336 45.2051 114.096 45.2051C112.855 45.2051 101.075 47.0652 93.6347 55.7455C86.1944 64.4259 78.1341 69.3861 75.654 71.2461C73.174 73.1062 71.3139 74.9663 75.654 76.8263C79.9942 78.6864 84.9544 83.6466 86.8145 86.7468C88.6746 89.8469 101.075 86.1268 101.075 86.1268C101.075 86.1268 106.655 75.5864 108.515 75.5864C110.375 75.5864 120.296 61.3257 118.436 57.6056Z" fill="#0074A7"/>
<path d="M99.8349 71.2461C99.8349 71.2461 91.1545 83.0265 91.1545 91.7069C91.1545 100.387 96.1147 114.648 96.1147 114.648C96.1147 114.648 100.455 135.729 104.175 128.288C107.895 120.848 101.695 110.928 101.695 110.928L99.2149 88.6068L104.175 76.8263L99.8349 71.2461Z" fill="#FDB797"/>
<path d="M14.9843 103.583C14.9843 103.583 8.0712 98.5276 7.45117 100.388C6.83114 102.248 -2.46925 123.329 0.630885 124.569C3.73102 125.809 13.0314 113.408 13.6514 113.408C14.2715 113.408 13.2171 103.058 14.9843 103.583Z" fill="#684A40"/>
<path d="M94.8747 163.01C94.8747 163.01 104.175 167.97 106.035 167.97C107.895 167.97 111.615 170.45 107.275 171.69C102.935 172.93 83.7142 174.79 83.0942 172.93C82.4742 171.07 83.0942 166.11 83.0942 166.11C83.0942 166.11 94.8747 164.87 94.8747 163.01Z" fill="#684A40"/>
<path d="M143.991 52.1461C144.275 51.3832 144.377 50.5646 144.288 49.7555C144.23 47.9743 144.107 46.0258 142.896 44.7184C142.276 44.0486 141.404 43.596 140.967 42.7946C140.737 42.2332 140.55 41.6552 140.407 41.0656C140.099 40.3616 139.628 39.7413 139.032 39.2564C138.436 38.7716 137.732 38.4361 136.981 38.2779C135.475 37.9762 133.931 37.9197 132.408 38.1106C130.223 38.1542 128.057 38.5354 125.989 39.2407C124.956 39.6023 124.02 40.1954 123.252 40.9745C122.484 41.7537 121.905 42.6983 121.558 43.7359C121.375 44.5456 121.288 45.3739 121.299 46.2038L121.208 49.656C121.554 49.9606 121.986 50.1506 122.444 50.1999C122.902 50.2492 123.364 50.1555 123.767 49.9314C124.607 49.558 125.319 48.9306 126.173 48.5879C126.584 48.38 127.052 48.3119 127.505 48.3941C127.958 48.4762 128.372 48.7041 128.684 49.0431C128.852 49.3492 128.998 49.6664 129.121 49.9927C130.823 53.3812 135.396 49.7749 137.771 49.8268C139.896 49.8732 142.434 55.4862 143.991 52.1461Z" fill="#2F2E41"/>
<path d="M110.269 174.834C125.72 174.834 128.209 169.078 128.312 168.82L127.163 168.353C127.138 168.411 124.492 174.144 107.918 173.551C91.8291 172.976 66.9354 173.472 63.6089 173.543C62.6764 171.964 58.4949 165.56 52.5913 166.742L52.8347 167.958C58.507 166.82 62.6661 174.388 62.7079 174.465L62.8877 174.798L63.2674 174.791C63.5404 174.785 90.7295 174.179 107.873 174.79C108.704 174.82 109.503 174.834 110.269 174.834Z" fill="#3D414D"/>
<path d="M110.193 180.99H110.558C111.827 180.99 112.855 179.961 112.855 178.692V178.328C112.855 177.059 111.827 176.03 110.558 176.03H110.193C108.924 176.03 107.895 177.059 107.895 178.328V178.692C107.895 179.961 108.924 180.99 110.193 180.99Z" fill="#3D414D"/>
<path d="M67.4114 180.99H67.7758C69.0449 180.99 70.0737 179.961 70.0737 178.692V178.328C70.0737 177.059 69.0449 176.03 67.7758 176.03H67.4114C66.1423 176.03 65.1135 177.059 65.1135 178.328V178.692C65.1135 179.961 66.1423 180.99 67.4114 180.99Z" fill="#3D414D"/>
<path d="M116.576 56.3652C116.576 56.3652 113.628 71.2909 110.452 74.0585C107.275 76.8261 106.528 79.5071 104.422 80.3367C102.315 81.1662 94.8748 72.4859 94.8748 71.8659C94.8748 71.2458 116.576 56.3652 116.576 56.3652Z" fill="#00628D"/>
<path d="M179.301 183.303H23.301V185.303H179.301V183.303Z" fill="#D7DEE6"/>
</svg>
