<svg width="106" height="58" viewBox="0 0 106 58" fill="none" xmlns="http://www.w3.org/2000/svg">
<path d="M48.8286 16.5222V21.8492H48.1933V16.5222H46.4697V15.9609H50.5512V16.5231L48.8286 16.5222Z" fill="#333333"/>
<path d="M52.0386 21.8492V15.9609H55.735V16.5231H52.6748V18.5987H55.2792V19.1618H52.6748V21.288H55.735V21.8492H52.0386Z" fill="#333333"/>
<path d="M60.7792 21.8492V16.5222H57.9609V21.8492H57.3256V15.9609H61.4182V21.8492H60.7792Z" fill="#333333"/>
<path d="M66.9015 21.8492V16.5222H64.8775V18.5371C64.8775 21.0212 64.2757 21.8492 63.1381 21.8492H62.8404V21.2871H62.9995C63.7353 21.2871 64.2617 20.7994 64.2617 18.3503V15.9609H67.5396V21.8492H66.9015Z" fill="#333333"/>
<path d="M73.1131 21.8492V17.0429L70.0854 21.8492H69.4836V15.9609H70.1189V20.758L73.1466 15.9609H73.7484V21.8492H73.1131Z" fill="#333333"/>
<path d="M79.8679 23.2725V21.8492H75.6952V15.9609H76.3277V21.288H79.1461V15.9609H79.7813V21.288H80.4929V23.2734L79.8679 23.2725Z" fill="#333333"/>
<path d="M85.8906 21.8492L85.4144 20.5179H82.8099L82.3365 21.8492H81.6593L83.8508 15.9609H84.3856L86.5678 21.8492H85.8906ZM84.1233 16.8617L83.0071 19.9714H85.2321L84.1233 16.8617Z" fill="#333333"/>
<path d="M48.93 32.3515C48.6479 32.3548 48.3681 32.3024 48.1068 32.1973C47.8455 32.0923 47.608 31.9367 47.4083 31.7397C46.8502 31.1877 46.8502 30.6062 46.8502 29.3577C46.8502 28.1092 46.8502 27.5286 47.4083 26.9748C47.6081 26.778 47.8456 26.6225 48.1069 26.5174C48.3682 26.4124 48.648 26.3599 48.93 26.3629C50.0006 26.3629 50.7903 27.007 50.9959 28.1166H50.3447C50.1857 27.3962 49.675 26.9205 48.9309 26.9205C48.7402 26.9184 48.551 26.9539 48.3744 27.025C48.1977 27.0961 48.0372 27.2013 47.9022 27.3345C47.5301 27.7145 47.4845 28.1202 47.4845 29.3531C47.4845 30.5859 47.5264 30.9898 47.9022 31.3707C48.0372 31.5039 48.1977 31.6092 48.3744 31.6802C48.551 31.7513 48.7402 31.7869 48.9309 31.7848C49.675 31.7848 50.2024 31.3128 50.3615 30.5933H50.9968C50.8033 31.7066 49.9922 32.3515 48.93 32.3515Z" fill="#333333"/>
<path d="M56.6735 29.3577C56.6735 30.5317 56.6558 31.1978 56.1154 31.7397C55.708 32.132 55.1618 32.3516 54.5932 32.3516C54.0246 32.3516 53.4784 32.132 53.071 31.7397C52.5278 31.2024 52.5129 30.5317 52.5129 29.3577V28.8977C52.5129 28.1948 52.5632 27.4744 53.071 26.9702C53.4784 26.5778 54.0246 26.3583 54.5932 26.3583C55.1618 26.3583 55.708 26.5778 56.1154 26.9702C56.6335 27.4826 56.6735 28.2279 56.6735 28.9474V29.3577ZM56.0373 29.043C56.0373 28.3484 56.0122 27.7357 55.6197 27.3474C55.4847 27.2135 55.3244 27.1073 55.1478 27.0349C54.9713 26.9624 54.782 26.9251 54.5909 26.9251C54.3998 26.9251 54.2105 26.9624 54.034 27.0349C53.8575 27.1073 53.6971 27.2135 53.5622 27.3474C53.1436 27.7605 53.1436 28.3732 53.1436 29.1875V29.7736C53.1436 30.4111 53.1771 30.9908 53.5622 31.3707C53.6971 31.5046 53.8575 31.6108 54.034 31.6833C54.2105 31.7557 54.3998 31.793 54.5909 31.793C54.782 31.793 54.9713 31.7557 55.1478 31.6833C55.3244 31.6108 55.4847 31.5046 55.6197 31.3707C56.0289 30.9659 56.0373 30.3283 56.0373 29.6503V29.043Z" fill="#333333"/>
<path d="M62.6098 33.7251V32.3018H58.4362V26.4136H59.0715V31.7397H61.8898V26.4117H62.5261V31.7397H63.2367V33.7251H62.6098Z" fill="#333333"/>
<path d="M68.4037 32.3018V27.4955L65.376 32.3018H64.7742V26.4136H65.4095V31.2116L68.4363 26.4136H69.039V32.3018H68.4037Z" fill="#333333"/>
<path d="M74.6887 32.3018L74.2116 30.9705H71.6072L71.1309 32.3018H70.4528L72.6443 26.4136H73.1791L75.3622 32.3018H74.6887ZM72.9215 27.3143L71.8053 30.424H74.0302L72.9215 27.3143Z" fill="#333333"/>
<path d="M80.4743 32.3018V26.9748H78.4503V28.9934C78.4503 31.4775 77.8485 32.3055 76.7109 32.3055H76.4095V31.7397H76.5686C77.3043 31.7397 77.8318 31.2521 77.8318 28.8029V26.4108H81.1096V32.2991L80.4743 32.3018Z" fill="#333333"/>
<path d="M85.2888 32.3018H83.0564V26.4136H83.6917V28.8379H85.2888C86.405 28.8379 87.1286 29.5334 87.1286 30.5749C87.1286 31.6164 86.3929 32.3018 85.2888 32.3018ZM85.2311 29.3982H83.6917V31.7397H85.2311C86.0255 31.7397 86.4859 31.3091 86.4859 30.5731C86.4859 29.837 86.0255 29.3982 85.2311 29.3982Z" fill="#333333"/>
<path d="M92.1226 32.3018V29.6135H89.2959V32.3018H88.6597V26.4136H89.2959V29.0532H92.1226V26.4117H92.7579V32.3L92.1226 32.3018Z" fill="#333333"/>
<path d="M96.9381 32.3018H94.7057V26.4136H95.341V28.8379H96.939C98.0552 28.8379 98.7779 29.5334 98.7779 30.5749C98.7779 31.6164 98.0412 32.3018 96.9381 32.3018ZM95.34 29.3982V31.7397H96.8841C97.6785 31.7397 98.138 31.3091 98.138 30.5731C98.138 29.837 97.6738 29.3982 96.8841 29.3982H95.34ZM99.5769 32.3018V26.4136H100.212V32.3018H99.5769Z" fill="#333333"/>
<path d="M105.264 32.3018L103.817 29.8288L102.362 32.3018H101.642L103.466 29.2832L101.759 26.4117H102.496L103.817 28.7367L105.138 26.4117H105.874L104.16 29.2832L106 32.3018H105.264Z" fill="#333333"/>
<path d="M48.8286 37.1321V42.4582H48.1933V37.1321H46.4697V36.5699H50.5512V37.1321H48.8286Z" fill="#333333"/>
<path d="M52.0386 42.4582V36.5699H55.735V37.1321H52.6748V39.2095H55.2792V39.7717H52.6748V41.8979H55.735V42.4582H52.0386Z" fill="#333333"/>
<path d="M60.5858 42.4582L59.1384 39.986L57.6837 42.4582H56.9637L58.7878 39.4386L57.0809 36.5699H57.8176L59.1384 38.8949L60.4602 36.5699H61.1959L59.4817 39.4404L61.3215 42.4582H60.5858Z" fill="#333333"/>
<path d="M66.2095 42.4582V39.7717H63.3827V42.4582H62.7474V36.5699H63.3827V39.2095H66.2095V36.5699H66.8448V42.4582H66.2095Z" fill="#333333"/>
<path d="M72.7838 39.514C72.7838 40.6889 72.7661 41.3541 72.2257 41.897C71.8183 42.2893 71.2721 42.5088 70.7035 42.5088C70.1349 42.5088 69.5887 42.2893 69.1813 41.897C68.6372 41.3587 68.6232 40.6889 68.6232 39.514V39.0595C68.6232 38.3557 68.6735 37.6362 69.1813 37.1275C69.5887 36.7351 70.1349 36.5156 70.7035 36.5156C71.2721 36.5156 71.8183 36.7351 72.2257 37.1275C72.7438 37.6399 72.7838 38.3852 72.7838 39.1056V39.514ZM72.1476 39.1994C72.1476 38.5048 72.1234 37.892 71.7299 37.5038C71.595 37.3699 71.4346 37.2637 71.2581 37.1912C71.0816 37.1188 70.8923 37.0815 70.7012 37.0815C70.5101 37.0815 70.3208 37.1188 70.1443 37.1912C69.9678 37.2637 69.8074 37.3699 69.6724 37.5038C69.2539 37.9169 69.2539 38.5296 69.2539 39.3438V39.9317C69.2539 40.5684 69.2874 41.1471 69.6724 41.528C69.8074 41.6619 69.9678 41.7681 70.1443 41.8406C70.3208 41.913 70.5101 41.9503 70.7012 41.9503C70.8923 41.9503 71.0816 41.913 71.2581 41.8406C71.4346 41.7681 71.595 41.6619 71.7299 41.528C72.1401 41.1223 72.1476 40.4847 72.1476 39.8075V39.1994Z" fill="#333333"/>
<path d="M77.909 42.4582V37.1321H75.8849V39.1506C75.8849 41.6348 75.2831 42.4628 74.1456 42.4628H73.8451V41.9006H74.0032C74.739 41.9006 75.2664 41.4121 75.2664 38.9639V36.5699H78.5443V42.4582H77.909Z" fill="#333333"/>
<path d="M84.4861 39.514C84.4861 40.6889 84.4693 41.3541 83.928 41.897C83.5206 42.2893 82.9744 42.5088 82.4058 42.5088C81.8372 42.5088 81.291 42.2893 80.8836 41.897C80.3394 41.3587 80.3255 40.6889 80.3255 39.514V39.0595C80.3255 38.3557 80.3748 37.6362 80.8836 37.1275C81.291 36.7351 81.8372 36.5156 82.4058 36.5156C82.9744 36.5156 83.5206 36.7351 83.928 37.1275C84.4461 37.6399 84.4861 38.3852 84.4861 39.1056V39.514ZM83.8508 39.1994C83.8508 38.5048 83.8257 37.892 83.4322 37.5038C83.2972 37.3699 83.1369 37.2637 82.9604 37.1912C82.7839 37.1188 82.5946 37.0815 82.4035 37.0815C82.2123 37.0815 82.0231 37.1188 81.8465 37.1912C81.67 37.2637 81.5097 37.3699 81.3747 37.5038C80.9571 37.9169 80.9571 38.5296 80.9571 39.3438V39.9317C80.9571 40.5684 80.9906 41.1471 81.3747 41.528C81.5097 41.6619 81.67 41.7681 81.8465 41.8406C82.0231 41.913 82.2123 41.9503 82.4035 41.9503C82.5946 41.9503 82.7839 41.913 82.9604 41.8406C83.1369 41.7681 83.2972 41.6619 83.4322 41.528C83.8424 41.1223 83.8508 40.4847 83.8508 39.8075V39.1994Z" fill="#333333"/>
<path d="M86.9231 37.1321V42.4582H86.2878V36.5699H89.867V37.1321H86.9231Z" fill="#333333"/>
<path d="M94.9894 42.4582V37.6537L91.9617 42.4582H91.359V36.5699H91.9943V41.3679L95.0238 36.5699H95.6265V42.4582H94.9894Z" fill="#333333"/>
<path d="M101.2 42.4582V37.6537L98.1733 42.4582H97.5706V36.5699H98.2058V41.3679L101.234 36.5699H101.835V42.4582H101.2ZM99.7034 36.2019C99.0086 36.2019 98.5323 35.8964 98.4821 35.1595H99.017C99.0504 35.5652 99.296 35.7713 99.7034 35.7713C100.111 35.7713 100.355 35.5652 100.389 35.1595H100.925C100.874 35.8918 100.397 36.2019 99.7034 36.2019Z" fill="#333333"/>
<path d="M4.84213 10.8441C4.84193 11.1161 4.76937 11.3832 4.63178 11.6185L8.80377 14.0048C8.94076 13.7691 9.13799 13.5734 9.37559 13.4373C9.61319 13.3012 9.88279 13.2296 10.1572 13.2296C10.4317 13.2296 10.7013 13.3012 10.9389 13.4373C11.1765 13.5734 11.3737 13.7691 11.5107 14.0048L15.6827 11.6167C15.5446 11.3816 15.4718 11.1144 15.4718 10.8423C15.4718 10.5703 15.5446 10.3031 15.6827 10.0679L14.5755 9.43249C14.3895 9.74667 14.2679 10.0941 14.2175 10.455C14.1672 10.8158 14.1892 11.1829 14.2822 11.5353L12.1463 12.7641C11.6159 12.2489 10.9027 11.9604 10.16 11.9604C9.41725 11.9604 8.70411 12.2489 8.17364 12.7641L6.03598 11.5372C6.15793 11.0806 6.15793 10.6004 6.03598 10.1438L8.16902 8.92415C8.47878 9.2253 8.85405 9.45213 9.26602 9.58722C9.67799 9.72231 10.1157 9.76207 10.5456 9.70346C10.9755 9.64484 11.3861 9.48941 11.746 9.24908C12.1058 9.00876 12.4053 8.68993 12.6215 8.31707L11.5144 7.68164C11.3774 7.9173 11.1802 8.11303 10.9425 8.24913C10.7049 8.38522 10.4354 8.45688 10.1609 8.45688C9.88648 8.45688 9.61688 8.38522 9.37928 8.24913C9.14168 8.11303 8.94445 7.9173 8.80746 7.68164L4.63086 10.0688C4.76942 10.3041 4.84234 10.5717 4.84213 10.8441Z" fill="url(#paint0_linear)"/>
<path d="M14.57 4.37761L15.6771 3.74219C15.8141 3.97826 16.0115 4.17436 16.2493 4.31072C16.4872 4.44709 16.7571 4.51889 17.0319 4.51889C17.3067 4.51889 17.5767 4.44709 17.8145 4.31072C18.0524 4.17436 18.2498 3.97826 18.3868 3.74219L19.4939 4.37761C19.1216 5.01472 18.5138 5.48328 17.7991 5.68412V8.12525C18.5131 8.32586 19.1205 8.7937 19.493 9.42992L18.3858 10.0653C18.2488 9.82969 18.0516 9.63396 17.814 9.49786C17.5764 9.36177 17.3068 9.29011 17.0324 9.29011C16.7579 9.29011 16.4884 9.36177 16.2508 9.49786C16.0131 9.63396 15.8159 9.82969 15.6789 10.0653L14.5718 9.42992C14.9438 8.79354 15.5509 8.32537 16.2648 8.12433V5.6832C15.5504 5.48215 14.9428 5.01405 14.57 4.37761ZM21.4507 5.49303C21.1987 5.92108 21.0659 6.40775 21.0659 6.90331C21.0659 7.39887 21.1987 7.88555 21.4507 8.31359L22.5578 7.67816C22.4198 7.44285 22.347 7.17551 22.347 6.90331C22.347 6.63111 22.4198 6.36377 22.5578 6.12846L21.4507 5.49303ZM11.7191 6.90468C11.7193 7.1767 11.6467 7.44391 11.5088 7.67908L12.6159 8.31359C12.8677 7.88565 13.0004 7.39915 13.0004 6.90377C13.0004 6.40839 12.8677 5.92188 12.6159 5.49395L11.5088 6.13394C11.6461 6.36804 11.7187 6.6339 11.7191 6.90468Z" fill="url(#paint1_linear)"/>
<path d="M21.0641 14.773C21.0646 14.2787 21.197 13.7932 21.4479 13.366L22.5551 14.0014C22.4173 14.2366 22.3448 14.5038 22.3448 14.7758C22.3448 15.0478 22.4173 15.3149 22.5551 15.5502L21.4479 16.1856C21.1958 15.7568 21.0633 15.2693 21.0641 14.773ZM17.0342 12.3895C16.7598 12.3896 16.4901 12.318 16.2525 12.1818C16.0149 12.0457 15.8177 11.8499 15.6808 11.6142L11.5088 14.0023C11.6468 14.2376 11.7194 14.505 11.7194 14.7771C11.7194 15.0493 11.6468 15.3167 11.5088 15.552L12.6159 16.1874C12.9911 15.5527 13.0966 14.7964 12.9093 14.0846L15.0442 12.8631C15.3849 13.1916 15.8028 13.4307 16.2602 13.5589V18.2756L17.0324 18.7172L17.8037 18.2756V13.5543C18.5179 13.3535 19.1253 12.8853 19.4976 12.2487L18.3905 11.6133C18.2534 11.8495 18.0557 12.0457 17.8176 12.182C17.5795 12.3183 17.3092 12.3899 17.0342 12.3895Z" fill="url(#paint2_linear)"/>
<path d="M0.810277 17.3056L1.9174 17.941C2.0542 17.7047 2.25151 17.5084 2.48939 17.3718C2.72728 17.2353 2.99732 17.1634 3.27223 17.1634C3.54714 17.1634 3.81718 17.2353 4.05507 17.3718C4.29296 17.5084 4.49027 17.7047 4.62707 17.941L5.73419 17.3056C5.3621 16.6681 4.75425 16.1992 4.03937 15.9982V13.558C4.49862 13.4302 4.91805 13.19 5.25905 12.8594L7.3921 14.0809C7.29881 14.4341 7.27671 14.802 7.32705 15.1636C7.37739 15.5252 7.49919 15.8734 7.68548 16.1883L8.7926 15.5483C8.65461 15.3132 8.58192 15.046 8.58192 14.7739C8.58192 14.5019 8.65461 14.2347 8.7926 13.9996L4.62061 11.6133C4.48368 11.8492 4.28643 12.0451 4.04873 12.1813C3.81103 12.3176 3.54129 12.3893 3.2667 12.3893C2.9921 12.3893 2.72236 12.3176 2.48466 12.1813C2.24696 12.0451 2.04971 11.8492 1.91278 11.6133L0.805664 12.2487C1.17848 12.8878 1.78818 13.3575 2.50509 13.558V15.9991C1.79037 16.1999 1.18255 16.6685 0.810277 17.3056Z" fill="url(#paint3_linear)"/>
<path d="M6.12655 18.7143C6.1264 19.2104 5.99332 19.6976 5.74091 20.126L4.63379 19.4905C4.77186 19.2552 4.84459 18.9879 4.84459 18.7157C4.84459 18.4435 4.77186 18.1761 4.63379 17.9408L5.74091 17.3054C5.99313 17.7329 6.12622 18.2191 6.12655 18.7143ZM10.1565 21.0997C10.4312 21.0996 10.701 21.1713 10.9388 21.3076C11.1766 21.4439 11.3739 21.6399 11.5108 21.8759L17.0363 18.7143L16.2641 18.2727L12.1465 20.6316C11.8364 20.3307 11.4609 20.1043 11.0488 19.9696C10.6367 19.8349 10.1989 19.7955 9.76908 19.8545C9.33923 19.9134 8.92872 20.0692 8.56903 20.3097C8.20934 20.5503 7.91003 20.8693 7.69405 21.2423L8.80117 21.8777C8.93795 21.6413 9.13531 21.4448 9.37329 21.3082C9.61127 21.1716 9.88143 21.0996 10.1565 21.0997ZM10.1565 17.6016C10.6562 17.6009 11.147 17.4699 11.5796 17.2218C12.0121 16.9737 12.3712 16.6173 12.6207 16.1882L11.5136 15.5527C11.3766 15.7884 11.1794 15.9841 10.9418 16.1202C10.7042 16.2563 10.4346 16.328 10.1602 16.328C9.88572 16.328 9.61612 16.2563 9.37852 16.1202C9.14092 15.9841 8.94369 15.7884 8.8067 15.5527L7.69958 16.1927C7.94903 16.62 8.30717 16.9749 8.73828 17.2221C9.16939 17.4693 9.65838 17.6002 10.1565 17.6016Z" fill="url(#paint4_linear)"/>
<path d="M1.71284 18.7127C1.71274 18.4414 1.78499 18.1748 1.92227 17.9401L0.815153 17.3047C0.563341 17.7328 0.430664 18.2194 0.430664 18.715C0.430664 19.2105 0.563341 19.6971 0.815153 20.1252L1.92227 19.4852C1.78479 19.2506 1.71252 18.984 1.71284 18.7127Z" fill="#B70E0C"/>
<path d="M8.80416 23.4241L4.63309 25.8113C4.49642 25.5746 4.29905 25.3778 4.06097 25.241C3.82289 25.1042 3.55255 25.0321 3.27733 25.0321C3.00211 25.0321 2.73177 25.1042 2.49369 25.241C2.25561 25.3778 2.05824 25.5746 1.92157 25.8113L0.814453 25.1759C1.03012 24.8025 1.32928 24.483 1.68897 24.242C2.04866 24.0011 2.45931 23.845 2.88935 23.7859C3.3194 23.7267 3.7574 23.766 4.16972 23.9008C4.58204 24.0356 4.9577 24.2622 5.26784 24.5633L7.40273 23.3428C7.21615 22.631 7.32129 21.8751 7.69519 21.2399L8.80231 21.8753C8.66433 22.1107 8.59165 22.378 8.59165 22.6502C8.59165 22.9224 8.66433 23.1897 8.80231 23.425L8.80416 23.4241ZM3.27779 21.5371C3.77717 21.5366 4.26765 21.4061 4.70002 21.1585C5.13239 20.9109 5.49144 20.5549 5.74113 20.1263L4.63401 19.4863C4.49709 19.7218 4.29999 19.9174 4.06255 20.0533C3.82511 20.1893 3.55572 20.2609 3.28148 20.2609C3.00725 20.2609 2.73785 20.1893 2.50042 20.0533C2.26298 19.9174 2.06588 19.7218 1.92895 19.4863L0.821834 20.1218C1.07038 20.55 1.42803 20.9062 1.85902 21.1545C2.29001 21.4029 2.77923 21.5348 3.27779 21.5371Z" fill="#E5005B"/>
<path d="M31.5645 15.9973V13.5561C32.2791 13.3549 32.8865 12.886 33.2584 12.2487L32.1513 11.6133C32.0145 11.8496 31.8172 12.0459 31.5793 12.1825C31.3414 12.319 31.0714 12.3909 30.7965 12.3909C30.5216 12.3909 30.2515 12.319 30.0136 12.1825C29.7757 12.0459 29.5784 11.8496 29.4416 11.6133L25.2715 14.0005C25.4095 14.2358 25.4821 14.5031 25.4821 14.7753C25.4821 15.0475 25.4095 15.3148 25.2715 15.5502L26.3786 16.1856C26.5656 15.871 26.688 15.5228 26.7387 15.1611C26.7893 14.7994 26.7673 14.4314 26.6738 14.0782L28.805 12.8549C29.146 13.1848 29.565 13.4246 30.0238 13.5525V15.9945C29.3096 16.1953 28.7021 16.6635 28.3299 17.3001L29.437 17.9355C29.5739 17.6997 29.7712 17.5037 30.0089 17.3675C30.2466 17.2312 30.5163 17.1595 30.7909 17.1595C31.0655 17.1595 31.3353 17.2312 31.573 17.3675C31.8107 17.5037 32.0079 17.6997 32.1448 17.9355L33.252 17.3001C32.8807 16.6659 32.2759 16.1989 31.5645 15.9973Z" fill="url(#paint5_linear)"/>
<path d="M32.3568 18.7124C32.3566 18.9844 32.2841 19.2515 32.1465 19.4868L33.2536 20.1223C33.5056 19.694 33.6384 19.2072 33.6384 18.7115C33.6384 18.2158 33.5056 17.729 33.2536 17.3008L32.1465 17.9362C32.2843 18.1721 32.3569 18.4398 32.3568 18.7124Z" fill="#00A8B0"/>
<path d="M29.4375 19.4838L28.3304 20.1192C28.0784 19.6911 27.9456 19.2045 27.9456 18.7089C27.9456 18.2134 28.0784 17.7267 28.3304 17.2986L29.4375 17.9341C29.2995 18.1694 29.2267 18.4367 29.2267 18.7089C29.2267 18.9811 29.2995 19.2485 29.4375 19.4838ZM21.923 20.623L17.8017 18.2678L17.0332 18.7112L22.5577 21.8719C22.6944 21.6355 22.8916 21.4392 23.1294 21.3026C23.3672 21.166 23.6372 21.0941 23.9121 21.0941C24.187 21.0941 24.4569 21.166 24.6948 21.3026C24.9326 21.4392 25.1298 21.6355 25.2665 21.8719L26.3736 21.2364C26.0017 20.5992 25.3942 20.1303 24.6797 19.929V17.4861C25.3929 17.2853 25.9996 16.8178 26.3717 16.1823L25.2646 15.5469C25.1275 15.7821 24.9303 15.9774 24.6929 16.1132C24.4555 16.249 24.1862 16.3205 23.9121 16.3205C23.638 16.3205 23.3687 16.249 23.1313 16.1132C22.8938 15.9774 22.6967 15.7821 22.5596 15.5469L21.4524 16.1823C21.8246 16.8178 22.4313 17.2853 23.1445 17.4861V19.929C22.6853 20.0558 22.2654 20.2944 21.923 20.623Z" fill="url(#paint6_linear)"/>
<path d="M33.2574 25.175L32.1503 25.8104C32.0133 25.5745 31.8161 25.3786 31.5784 25.2424C31.3407 25.1061 31.071 25.0344 30.7964 25.0344C30.5218 25.0344 30.252 25.1061 30.0143 25.2424C29.7766 25.3786 29.5794 25.5745 29.4424 25.8104L25.2695 23.4232C25.4075 23.1879 25.4802 22.9205 25.4802 22.6484C25.4802 22.3762 25.4075 22.1089 25.2695 21.8735L26.3766 21.2381C26.5629 21.5522 26.6847 21.8996 26.735 22.2605C26.7854 22.6214 26.7633 22.9885 26.67 23.3409L28.8068 24.5633C29.1168 24.263 29.492 24.037 29.9038 23.9026C30.3155 23.7683 30.7528 23.729 31.1822 23.788C31.6116 23.8469 32.0217 24.0025 32.3811 24.2427C32.7405 24.483 33.0396 24.8016 33.2555 25.1741L33.2574 25.175ZM30.7931 21.5334C31.2927 21.533 31.7834 21.4023 32.216 21.1545C32.6485 20.9067 33.0077 20.5506 33.2574 20.1218L32.1503 19.4863C32.0132 19.722 31.8158 19.9177 31.5782 20.0537C31.3405 20.1898 31.0708 20.2614 30.7964 20.2614C30.5219 20.2614 30.2522 20.1898 30.0146 20.0537C29.7769 19.9177 29.5796 19.722 29.4424 19.4863L28.3353 20.1218C28.5844 20.55 28.9426 20.9059 29.3741 21.1538C29.8056 21.4017 30.2953 21.5329 30.7941 21.5343L30.7931 21.5334Z" fill="url(#paint7_linear)"/>
<path d="M17.0343 23.7643C16.2917 23.7641 15.5786 24.0523 15.0479 24.567L12.9121 23.3455C13.034 22.8893 13.034 22.4094 12.9121 21.9531L17.0343 19.5933L21.1555 21.9494C21.0621 22.3028 21.0401 22.671 21.0907 23.0328C21.1414 23.3946 21.2638 23.743 21.4508 24.0578L22.5579 23.4223C22.4198 23.187 22.3471 22.9197 22.3471 22.6475C22.3471 22.3753 22.4198 22.108 22.5579 21.8726L17.0343 18.7129L11.5098 21.8754C11.6477 22.1107 11.7204 22.3781 11.7204 22.6502C11.7204 22.9224 11.6477 23.1898 11.5098 23.4251L15.6827 25.8123C15.8196 25.5764 16.0169 25.3805 16.2546 25.2442C16.4923 25.108 16.762 25.0362 17.0366 25.0362C17.3112 25.0362 17.5809 25.108 17.8186 25.2442C18.0563 25.3805 18.2536 25.5764 18.3905 25.8123L19.4976 25.1723C19.2475 24.7443 18.8883 24.3889 18.456 24.1418C18.0236 23.8947 17.5334 23.7645 17.0343 23.7643Z" fill="url(#paint8_linear)"/>
<path d="M26.3794 29.1135L25.2722 29.7535C25.1356 29.5172 24.9383 29.3208 24.7005 29.1843C24.4627 29.0477 24.1927 28.9758 23.9179 28.9758C23.643 28.9758 23.373 29.0477 23.1352 29.1843C22.8974 29.3208 22.7002 29.5172 22.5635 29.7535L21.4564 29.1181C21.7054 28.6885 22.0645 28.3315 22.4972 28.0833C22.9299 27.8351 23.4211 27.7044 23.9211 27.7044C24.4211 27.7044 24.9122 27.8351 25.345 28.0833C25.7777 28.3315 26.1367 28.6885 26.3858 29.1181L26.3794 29.1135ZM29.2293 26.5864C29.229 26.3147 29.3016 26.0478 29.4396 25.813L25.2667 23.4258C25.1296 23.661 24.9324 23.8563 24.695 23.9921C24.4576 24.1279 24.1883 24.1994 23.9142 24.1994C23.64 24.1994 23.3707 24.1279 23.1333 23.9921C22.8959 23.8563 22.6988 23.661 22.5616 23.4258L21.4545 24.0612C21.6708 24.4337 21.9703 24.7521 22.3301 24.9922C22.6898 25.2322 23.1002 25.3874 23.5298 25.4459C23.9594 25.5044 24.3969 25.4647 24.8086 25.3297C25.2204 25.1948 25.5954 24.9682 25.9051 24.6674L28.0391 25.8889C27.9458 26.2423 27.9237 26.6105 27.9741 26.9724C28.0244 27.3343 28.1462 27.6828 28.3325 27.9981L29.4396 27.3581C29.3028 27.1235 29.2306 26.8574 29.2302 26.5864H29.2293ZM18.6 26.5864C18.6001 26.8585 18.5276 27.1257 18.3896 27.3608L19.4968 27.9963C19.7494 27.5683 19.8825 27.0814 19.8825 26.5855C19.8825 26.0897 19.7494 25.6028 19.4968 25.1748L18.3896 25.8148C18.5293 26.0495 18.6035 26.3167 18.6046 26.5892L18.6 26.5864Z" fill="url(#paint9_linear)"/>
<path d="M10.1546 27.6973C9.65419 27.6977 9.16277 27.8289 8.72982 28.0775C8.29688 28.3262 7.9377 28.6835 7.68848 29.1135L8.79559 29.7489C8.93227 29.5122 9.12964 29.3154 9.36771 29.1786C9.60579 29.0418 9.87613 28.9697 10.1514 28.9697C10.4266 28.9697 10.6969 29.0418 10.935 29.1786C11.1731 29.3154 11.3704 29.5122 11.5071 29.7489L12.6142 29.1135C12.3654 28.6845 12.0072 28.3279 11.5755 28.0794C11.1439 27.8308 10.6538 27.6991 10.1546 27.6973Z" fill="url(#paint10_linear)"/>
<path d="M5.73998 27.999C5.99275 27.57 6.12614 27.0823 6.12655 26.5855C6.12485 26.3507 6.09386 26.117 6.03429 25.8898L8.17011 24.6683C8.70089 25.1836 9.41434 25.4722 10.1574 25.4722C10.9004 25.4722 11.6139 25.1836 12.1447 24.6683L14.2796 25.8889C14.1862 26.2421 14.1641 26.6102 14.2144 26.972C14.2647 27.3337 14.3866 27.6821 14.5729 27.9972L15.6801 27.3618C15.542 27.1264 15.4693 26.8591 15.4693 26.5869C15.4693 26.3147 15.542 26.0474 15.6801 25.8121L11.5099 23.4258C11.3728 23.661 11.1756 23.8563 10.9382 23.9921C10.7008 24.1279 10.4315 24.1994 10.1574 24.1994C9.88326 24.1994 9.61397 24.1279 9.37655 23.9921C9.13914 23.8563 8.94197 23.661 8.80486 23.4258L4.63379 25.8139C4.77186 26.0492 4.84459 26.3165 4.84459 26.5887C4.84459 26.8609 4.77186 27.1283 4.63379 27.3636L5.73998 27.999Z" fill="url(#paint11_linear)"/>
<path d="M21.4492 8.31121L22.5563 7.67578C22.6933 7.91185 22.8907 8.10795 23.1286 8.24432C23.3664 8.38068 23.6364 8.45248 23.9112 8.45248C24.186 8.45248 24.4559 8.38068 24.6938 8.24432C24.9316 8.10795 25.129 7.91185 25.266 7.67578L29.4371 10.0621C29.299 10.2972 29.2262 10.5644 29.2262 10.8364C29.2262 11.1085 29.299 11.3757 29.4371 11.6108L25.2669 13.998C25.1301 13.7617 24.9328 13.5654 24.6949 13.4288C24.457 13.2923 24.187 13.2204 23.9121 13.2204C23.6372 13.2204 23.3671 13.2923 23.1292 13.4288C22.8914 13.5654 22.694 13.7617 22.5572 13.998L21.4501 13.3635C21.6659 12.9903 21.9651 12.6711 22.3247 12.4303C22.6844 12.1895 23.0949 12.0337 23.5248 11.9746C23.9548 11.9155 24.3926 11.9549 24.8048 12.0896C25.217 12.2244 25.5925 12.4509 25.9026 12.7519L28.0366 11.5313C27.9765 11.3047 27.9455 11.0716 27.9443 10.8374C27.9455 10.6019 27.9765 10.3676 28.0366 10.1398L25.9035 8.92103C25.5936 9.22246 25.2181 9.44948 24.8059 9.58464C24.3936 9.71979 23.9556 9.7595 23.5254 9.70069C23.0953 9.64189 22.6845 9.48615 22.3245 9.24543C21.9646 9.00472 21.6652 8.68543 21.4492 8.31212V8.31121ZM18.6039 10.841C18.6037 11.113 18.5311 11.3801 18.3936 11.6154L19.5007 12.2508C19.7527 11.8228 19.8855 11.3361 19.8855 10.8406C19.8855 10.345 19.7527 9.85833 19.5007 9.43028L18.3936 10.0657C18.5316 10.3012 18.6042 10.5687 18.6039 10.841Z" fill="url(#paint12_linear)"/>
<path d="M7.69043 5.49549C7.93957 5.06607 8.29856 4.70935 8.73121 4.4613C9.16385 4.21324 9.65485 4.08263 10.1547 4.08263C10.6545 4.08263 11.1455 4.21324 11.5782 4.4613C12.0108 4.70935 12.3698 5.06607 12.619 5.49549L11.5118 6.13548C11.375 5.89959 11.1779 5.70362 10.9402 5.56735C10.7026 5.43108 10.4329 5.35933 10.1584 5.35933C9.88383 5.35933 9.61414 5.43108 9.37651 5.56735C9.13889 5.70362 8.94173 5.89959 8.80493 6.13548L7.69043 5.49549ZM14.5702 1.55859C14.3178 1.98631 14.1847 2.4729 14.1847 2.96841C14.1847 3.46393 14.3178 3.95052 14.5702 4.37823L15.6774 3.74281C15.5393 3.5075 15.4666 3.24016 15.4666 2.96796C15.4666 2.69576 15.5393 2.42841 15.6774 2.1931L14.5702 1.55859Z" fill="url(#paint13_linear)"/>
<path d="M15.6819 2.19201C15.8189 1.95655 16.016 1.76099 16.2534 1.62501C16.4908 1.48903 16.7602 1.41744 17.0345 1.41744C17.3087 1.41744 17.5781 1.48903 17.8155 1.62501C18.053 1.76099 18.2501 1.95655 18.387 2.19201L19.4941 1.55201C19.245 1.12301 18.8861 0.766661 18.4537 0.518876C18.0214 0.271091 17.5307 0.140625 17.0312 0.140625C16.5318 0.140625 16.0411 0.271091 15.6087 0.518876C15.1763 0.766661 14.8175 1.12301 14.5684 1.55201L15.6819 2.19201Z" fill="#DEDC00"/>
<path d="M1.92043 10.0674C2.05736 9.8315 2.25461 9.63556 2.49231 9.49932C2.73001 9.36308 2.99975 9.29134 3.27435 9.29134C3.54894 9.29134 3.81868 9.36308 4.05638 9.49932C4.29408 9.63556 4.49133 9.8315 4.62826 10.0674L8.80025 7.67927C8.66227 7.44393 8.58959 7.1766 8.58959 6.90442C8.58959 6.63224 8.66227 6.36491 8.80025 6.12956L7.69313 5.49414C7.31843 6.12901 7.21293 6.88518 7.39975 7.59698L5.2584 8.82121C4.94833 8.52113 4.57309 8.29534 4.1614 8.16112C3.74971 8.02691 3.31249 7.98782 2.88321 8.04685C2.45393 8.10588 2.04397 8.26147 1.68472 8.50171C1.32547 8.74195 1.02644 9.06046 0.810547 9.43286L1.92043 10.0674Z" fill="url(#paint14_linear)"/>
<path d="M1.71316 10.8415C1.71337 10.5695 1.78593 10.3024 1.92352 10.0671L0.816398 9.43164C0.564414 9.85985 0.431641 10.3467 0.431641 10.8424C0.431641 11.3381 0.564414 11.8249 0.816398 12.2531L1.92352 11.6131C1.7864 11.3786 1.71386 11.1125 1.71316 10.8415Z" fill="#EC6608"/>
<path d="M30.7941 8.01481C30.0513 8.01449 29.338 8.30306 28.8077 8.81846L26.6719 7.59699C26.765 7.24449 26.7868 6.87724 26.7361 6.51635C26.6855 6.15546 26.5633 5.80806 26.3766 5.49414L25.2695 6.12957C25.4072 6.365 25.4798 6.63229 25.4798 6.90442C25.4798 7.17654 25.4072 7.44384 25.2695 7.67927L29.4406 10.0655C29.5776 9.8301 29.7748 9.63457 30.0124 9.49862C30.2499 9.36267 30.5193 9.2911 30.7936 9.2911C31.0679 9.2911 31.3373 9.36267 31.5748 9.49862C31.8123 9.63457 32.0095 9.8301 32.1466 10.0655L33.2537 9.43012C33.0048 9.00129 32.6466 8.64481 32.2149 8.39641C31.7832 8.14801 31.2932 8.01642 30.7941 8.01481Z" fill="url(#paint15_linear)"/>
<path d="M32.3579 10.8413C32.3582 11.113 32.286 11.3798 32.1484 11.6148L33.2556 12.2502C33.5076 11.8222 33.6403 11.3355 33.6403 10.84C33.6403 10.3444 33.5076 9.85773 33.2556 9.42969L32.1484 10.0651C32.2865 10.3009 32.3587 10.5688 32.3579 10.8413Z" fill="#76B82A"/>
<path d="M26.3769 5.48871L25.2697 6.12414C25.1326 5.88891 24.9355 5.69358 24.698 5.55778C24.4606 5.42198 24.1913 5.35048 23.9172 5.35048C23.6431 5.35048 23.3738 5.42198 23.1364 5.55778C22.899 5.69358 22.7018 5.88891 22.5647 6.12414L21.4576 5.48871C21.7067 5.05971 22.0655 4.70336 22.4979 4.45557C22.9303 4.20779 23.421 4.07732 23.9204 4.07732C24.4199 4.07732 24.9106 4.20779 25.343 4.45557C25.7753 4.70336 26.1342 5.05971 26.3833 5.48871H26.3769ZM18.604 2.9653C18.604 3.2366 18.5318 3.50311 18.3945 3.73786L19.5016 4.37329C19.7536 3.94525 19.8864 3.45857 19.8864 2.96301C19.8864 2.46745 19.7536 1.98078 19.5016 1.55273L18.3945 2.19273C18.532 2.4274 18.6042 2.69396 18.604 2.9653Z" fill="url(#paint16_linear)"/>
<path d="M25.2666 31.2963C25.4046 31.0611 25.4773 30.7939 25.4773 30.5219C25.4773 30.2498 25.4046 29.9826 25.2666 29.7475L26.3737 29.1075C26.6263 29.5355 26.7594 30.0224 26.7594 30.5182C26.7594 31.014 26.6263 31.5009 26.3737 31.929L25.2666 31.2963ZM33.2572 27.9948L32.1501 27.3594C32.0132 27.5952 31.8159 27.7912 31.5782 27.9274C31.3405 28.0637 31.0708 28.1354 30.7962 28.1354C30.5216 28.1354 30.2519 28.0637 30.0142 27.9274C29.7765 27.7912 29.5792 27.5952 29.4423 27.3594L28.3352 27.9994C28.5844 28.4286 28.9433 28.7851 29.3759 29.033C29.8084 29.2809 30.2993 29.4114 30.799 29.4114C31.2986 29.4114 31.7895 29.2809 32.222 29.033C32.6546 28.7851 33.0136 28.4286 33.2628 27.9994L33.2572 27.9948Z" fill="url(#paint17_linear)"/>
<path d="M32.3568 26.5846C32.3566 26.8565 32.2841 27.1236 32.1465 27.359L33.2536 27.9944C33.5056 27.5663 33.6384 27.0797 33.6384 26.5841C33.6384 26.0885 33.5056 25.6019 33.2536 25.1738L32.1465 25.8093C32.2846 26.0447 32.3571 26.3122 32.3568 26.5846Z" fill="#0090D7"/>
<path d="M0.814075 27.9987L1.92119 27.3633C2.05843 27.5981 2.25554 27.793 2.49276 27.9285C2.72999 28.064 2.99899 28.1354 3.2728 28.1354C3.54661 28.1354 3.81561 28.064 4.05284 27.9285C4.29006 27.793 4.48717 27.5981 4.62441 27.3633L5.73153 27.9987C5.48208 28.427 5.12323 28.7828 4.69106 29.0301C4.25888 29.2774 3.76863 29.4076 3.26957 29.4076C2.77052 29.4076 2.28026 29.2774 1.84809 29.0301C1.41592 28.7828 1.05707 28.427 0.807617 27.9987H0.814075ZM8.59158 30.5212C8.59117 30.2504 8.66277 29.9842 8.79917 29.7496L7.69205 29.1141C7.44033 29.5423 7.3077 30.0289 7.3077 30.5244C7.3077 31.0199 7.44033 31.5065 7.69205 31.9347L8.79917 31.2947C8.66201 31.0596 8.59007 30.7927 8.59066 30.5212H8.59158Z" fill="url(#paint18_linear)"/>
<path d="M1.71264 26.5829C1.71221 26.3119 1.78415 26.0457 1.92115 25.8112L0.814031 25.1758C0.562311 25.6039 0.429688 26.0906 0.429688 26.5861C0.429688 27.0816 0.562311 27.5682 0.814031 27.9963L1.92115 27.3609C1.78337 27.1244 1.71142 26.8559 1.71264 26.5829Z" fill="url(#paint19_linear)"/>
<path d="M32.9211 41.8188H17.8062V34.8968L21.9246 32.5389C22.2344 32.8395 22.6095 33.0659 23.0212 33.2007C23.4328 33.3354 23.8702 33.3751 24.2997 33.3165C24.7292 33.2579 25.1395 33.1026 25.4991 32.8626C25.8587 32.6226 26.1581 32.3042 26.3743 31.9318L25.2672 31.2918C25.1654 31.4694 25.0291 31.6254 24.8662 31.7506C24.7033 31.8758 24.517 31.9678 24.3181 32.0213C24.1191 32.0749 23.9115 32.0889 23.707 32.0626C23.5026 32.0363 23.3054 31.9702 23.1269 31.868C22.9484 31.7659 22.792 31.6297 22.6668 31.4674C22.5416 31.3051 22.45 31.1199 22.3973 30.9224C22.3447 30.7249 22.3319 30.519 22.3599 30.3166C22.3879 30.1142 22.456 29.9192 22.5603 29.743L21.4532 29.1076C21.2674 29.4219 21.1459 29.7694 21.0957 30.1302C21.0456 30.491 21.0676 30.8581 21.1607 31.2104L17.8099 33.1304V29.3014C18.5236 29.1006 19.1306 28.6328 19.5028 27.9968L18.3957 27.3613C18.2588 27.5972 18.0615 27.7931 17.8238 27.9294C17.5861 28.0656 17.3164 28.1374 17.0418 28.1374C16.7672 28.1374 16.4975 28.0656 16.2598 27.9294C16.0221 27.7931 15.8248 27.5972 15.6879 27.3613L14.5808 27.9968C14.9532 28.633 15.5606 29.1008 16.2747 29.3014V33.1323L12.9238 31.2123C12.9833 30.9856 13.0143 30.7525 13.016 30.5183C13.0159 30.0241 12.8838 29.5386 12.6332 29.1113L11.526 29.7467C11.7334 30.1024 11.7897 30.5252 11.6825 30.922C11.5753 31.3189 11.3134 31.6573 10.9545 31.8628C10.5955 32.0683 10.1689 32.1241 9.76844 32.0178C9.36799 31.9116 9.02651 31.6521 8.81914 31.2964L7.71202 31.9364C7.9292 32.3055 8.22834 32.6208 8.58675 32.8584C8.94516 33.096 9.35345 33.2496 9.78065 33.3075C10.2079 33.3655 10.6428 33.3264 11.0524 33.193C11.4621 33.0597 11.8358 32.8357 12.1451 32.538L16.2654 34.8968V41.8188H1.14865C1.01236 41.8188 0.881652 41.8725 0.78528 41.968C0.688907 42.0635 0.634766 42.193 0.634766 42.3281C0.634766 42.4632 0.688907 42.5927 0.78528 42.6882C0.881652 42.7837 1.01236 42.8374 1.14865 42.8374H16.2368C16.1371 43.4435 15.8354 43.9991 15.3797 44.4154C14.4027 45.3233 12.6655 45.7237 10.3553 45.5738C9.4113 45.5022 8.46192 45.5554 7.53211 45.732C7.48465 45.7324 7.4377 45.7417 7.39372 45.7594L7.38173 45.7649C4.73572 46.3546 3.69133 48.0177 3.49943 49.1395C3.48288 49.2392 3.50689 49.3414 3.5662 49.4237C3.62551 49.5059 3.71529 49.5615 3.81589 49.5783C3.83723 49.5819 3.85883 49.5837 3.88047 49.5838C3.97151 49.5835 4.05952 49.5514 4.12892 49.493C4.19831 49.4346 4.24463 49.3537 4.25965 49.2647C4.27442 49.1815 4.50691 47.9299 5.98953 47.0814C5.85944 47.4471 5.8253 47.8494 5.79209 48.2572C5.74504 48.8414 5.69061 49.5034 5.3354 50.2266C5.3103 50.272 5.29477 50.3219 5.28974 50.3734C5.28472 50.425 5.2903 50.477 5.30617 50.5263C5.32203 50.5756 5.34783 50.6212 5.38202 50.6603C5.4162 50.6995 5.45805 50.7313 5.50502 50.7539C5.552 50.7766 5.60313 50.7895 5.6553 50.792C5.70747 50.7944 5.7596 50.7863 5.80853 50.7682C5.85746 50.7501 5.90217 50.7224 5.93994 50.6866C5.97772 50.6509 6.00777 50.6079 6.02828 50.5603C6.44714 49.7082 6.50895 48.9374 6.55969 48.3185C6.63535 47.3932 6.67686 46.8812 7.66128 46.4753C8.03968 46.4002 8.42285 46.351 8.80807 46.3281C8.36245 46.8702 8.26373 47.619 8.16225 48.3953C8.01832 49.5143 7.83934 50.9059 6.6418 52.312C6.60897 52.3508 6.58416 52.3955 6.56877 52.4437C6.55339 52.492 6.54775 52.5427 6.55216 52.5931C6.55657 52.6435 6.57095 52.6925 6.59449 52.7374C6.61802 52.7823 6.65024 52.8221 6.68932 52.8547C6.72839 52.8872 6.77355 52.9118 6.82221 52.927C6.87088 52.9423 6.92209 52.9479 6.97294 52.9435C7.02379 52.9391 7.07326 52.9249 7.11855 52.9016C7.16384 52.8782 7.20405 52.8463 7.23688 52.8076C8.58203 51.2304 8.77762 49.7137 8.93354 48.4949C9.10606 47.1546 9.23338 46.5475 10.359 46.3409C12.8952 46.4954 14.7616 46.0382 15.9075 44.974C16.0255 44.8621 16.1362 44.7427 16.2387 44.6165C15.9231 45.5244 15.2755 46.5557 13.9442 47.6675C13.2621 48.2285 12.5303 48.7273 11.7576 49.1578C10.5638 49.8572 9.70114 50.3628 9.3893 52.1145C9.3716 52.2143 9.39461 52.317 9.45325 52.4C9.5119 52.4829 9.60139 52.5394 9.70206 52.5571C9.72424 52.5614 9.7468 52.5636 9.76941 52.5635C9.85995 52.5633 9.94751 52.5314 10.0167 52.4736C10.0859 52.4157 10.1323 52.3355 10.1477 52.2471C10.3977 50.841 11.0205 50.4771 12.1488 49.8151L12.4754 49.6231C12.2217 50.2183 12.0934 50.8117 11.9735 51.3603C11.6967 52.6403 11.4605 53.7374 9.94378 54.7266C9.87396 54.7715 9.82067 54.8375 9.79191 54.9149C9.76316 54.9922 9.76048 55.0767 9.78428 55.1557C9.80808 55.2347 9.85707 55.3039 9.92392 55.353C9.99077 55.4021 10.0719 55.4284 10.1551 55.4279C10.2297 55.4275 10.3027 55.406 10.3654 55.3657C12.1516 54.2055 12.4459 52.8396 12.731 51.5203C12.7632 51.3685 12.7955 51.2195 12.8306 51.0695C12.9118 51.4746 13.0299 51.8732 13.1443 52.2581C13.398 53.1093 13.66 53.9897 13.5133 54.8181C13.4956 54.9179 13.5186 55.0205 13.5773 55.1035C13.6359 55.1865 13.7254 55.243 13.8261 55.2606C13.8483 55.2642 13.8709 55.266 13.8934 55.2661C13.984 55.2661 14.0717 55.2345 14.141 55.1768C14.2104 55.1191 14.257 55.039 14.2726 54.9506C14.4507 53.9449 14.1628 52.9767 13.8842 52.0396C13.4589 50.6106 13.0917 49.3763 14.4461 48.2435C15.5809 47.2936 16.2664 46.3829 16.6806 45.5482C16.7673 46.5475 16.8845 47.427 17.0044 48.2179C17.2812 50.0318 16.8199 50.5886 16.2977 51.235C15.7755 51.8814 15.1731 52.6119 15.2829 54.4734C15.2887 54.5706 15.3318 54.6619 15.4033 54.7287C15.4748 54.7954 15.5693 54.8326 15.6676 54.8327H15.6906C15.7927 54.8266 15.8881 54.7806 15.9559 54.7048C16.0237 54.629 16.0584 54.5297 16.0523 54.4286C15.96 52.8633 16.4112 52.3056 16.8928 51.7159C17.0858 51.4921 17.2604 51.2533 17.415 51.0019C17.6512 53.1047 17.4344 54.7212 15.5698 57.3159C15.5106 57.3983 15.4868 57.5007 15.5038 57.6005C15.5207 57.7003 15.577 57.7893 15.6602 57.848C15.7434 57.9067 15.8467 57.9302 15.9474 57.9134C16.0481 57.8966 16.1379 57.8408 16.1972 57.7584C18.7325 54.2275 18.4243 52.2937 17.9141 49.0929C17.7444 48.0295 17.5451 46.8026 17.427 45.3068C17.8495 46.18 18.4243 46.8346 18.9622 47.4435C20.3202 48.9813 21.4929 50.3088 19.7695 54.7458C19.7327 54.8403 19.7353 54.9453 19.7767 55.0379C19.818 55.1305 19.8947 55.203 19.99 55.2396C20.0342 55.2562 20.081 55.2649 20.1283 55.2652C20.2064 55.2652 20.2827 55.2418 20.347 55.1981C20.4114 55.1543 20.461 55.0923 20.4891 55.0201C21.3794 52.7289 21.5307 51.1546 21.2964 49.9642C21.8259 50.648 22.1728 51.576 21.9855 53.3269C21.98 53.3767 21.9845 53.4271 21.9987 53.4753C22.0129 53.5234 22.0365 53.5683 22.0682 53.6073C22.0999 53.6464 22.1391 53.6789 22.1835 53.7029C22.2279 53.727 22.2766 53.7421 22.3269 53.7475H22.3684C22.4634 53.7473 22.555 53.7125 22.6257 53.6495C22.6963 53.5866 22.7411 53.5 22.7513 53.4064C22.8142 52.8648 22.821 52.3183 22.7716 51.7754C23.2652 52.2773 23.8049 52.7445 24.2542 52.9959C24.3433 53.0453 24.4486 53.0578 24.5469 53.0305C24.6453 53.0033 24.7288 52.9386 24.7792 52.8505C24.8041 52.8069 24.8201 52.7587 24.8262 52.7089C24.8323 52.6591 24.8285 52.6086 24.8148 52.5602C24.8012 52.5119 24.7781 52.4667 24.7468 52.4273C24.7155 52.3878 24.6766 52.3549 24.6325 52.3303C23.8317 51.8832 22.5705 50.5018 22.1415 49.8298C22.1354 49.8201 22.1287 49.8109 22.1212 49.8023C21.7964 49.2986 21.3988 48.9228 21.014 48.5681C20.7325 48.3181 20.4712 48.0467 20.2326 47.7562C20.2289 47.7519 20.2249 47.748 20.2206 47.7443C20.001 47.4645 19.7685 47.1957 19.537 46.9379C18.9769 46.3043 18.4068 45.6579 18.023 44.7683C18.8413 45.4778 20.0887 45.742 21.4264 45.891H21.4394C23.327 46.0968 23.5992 47.4453 23.9147 49.0087C24.0466 49.6606 24.1832 50.3372 24.4544 50.9287C24.497 51.0208 24.5747 51.0922 24.6705 51.1275C24.7662 51.1627 24.8722 51.1588 24.9651 51.1166C25.0579 51.0744 25.1301 50.9974 25.1656 50.9025C25.2012 50.8076 25.1972 50.7026 25.1547 50.6106C24.9212 50.104 24.7995 49.5006 24.6703 48.8625C24.5983 48.5086 24.5236 48.1466 24.4277 47.7909C24.7524 47.9573 25.0901 48.0935 25.4259 48.227C26.3098 48.579 27.0727 48.8826 27.3984 49.6679C27.4274 49.7381 27.4769 49.7981 27.5405 49.8403C27.6041 49.8825 27.6789 49.9049 27.7555 49.9047C27.8052 49.9048 27.8544 49.8952 27.9003 49.8764C27.9948 49.8379 28.0701 49.7638 28.1095 49.6704C28.149 49.577 28.1494 49.4718 28.1107 49.3781C27.6623 48.2938 26.6705 47.8988 25.7119 47.5176C24.9462 47.2131 24.2238 46.9251 23.7615 46.3061C23.7043 46.2293 23.6425 46.1544 23.577 46.0821C25.9952 46.3006 28.3173 46.7139 28.9641 49.0755C28.9858 49.1562 29.0336 49.2276 29.1003 49.2787C29.167 49.3297 29.2488 49.3576 29.3331 49.358C29.3674 49.3578 29.4015 49.3532 29.4346 49.3443C29.533 49.3173 29.6167 49.2529 29.6674 49.165C29.718 49.0771 29.7315 48.973 29.7049 48.8753C28.8478 45.7402 25.6612 45.4824 22.85 45.2538C19.965 45.0197 18.1152 44.7619 17.8495 42.8319H32.9211C33.0574 42.8319 33.1881 42.7782 33.2845 42.6827C33.3808 42.5872 33.435 42.4577 33.435 42.3226C33.435 42.1875 33.3808 42.058 33.2845 41.9625C33.1881 41.867 33.0574 41.8134 32.9211 41.8134V41.8188Z" fill="#213A8F"/>
<defs>
<linearGradient id="paint0_linear" x1="4.63086" y1="10.8432" x2="15.6827" y2="10.8432" gradientUnits="userSpaceOnUse">
<stop stop-color="#EC6608"/>
<stop offset="1" stop-color="#F9B000"/>
</linearGradient>
<linearGradient id="paint1_linear" x1="11.5088" y1="6.90377" x2="22.5606" y2="6.90377" gradientUnits="userSpaceOnUse">
<stop stop-color="#FFED00"/>
<stop offset="1" stop-color="#BCCF00"/>
</linearGradient>
<linearGradient id="paint2_linear" x1="11.5088" y1="15.1634" x2="22.5606" y2="15.1634" gradientUnits="userSpaceOnUse">
<stop stop-color="#EC6608"/>
<stop offset="1" stop-color="#C8D400"/>
</linearGradient>
<linearGradient id="paint3_linear" x1="0.810277" y1="14.7785" x2="8.8009" y2="14.7785" gradientUnits="userSpaceOnUse">
<stop stop-color="#E40428"/>
<stop offset="1" stop-color="#EC6608"/>
</linearGradient>
<linearGradient id="paint4_linear" x1="4.63102" y1="18.7152" x2="17.0363" y2="18.7152" gradientUnits="userSpaceOnUse">
<stop stop-color="#B70E0C"/>
<stop offset="1" stop-color="#C80973"/>
</linearGradient>
<linearGradient id="paint5_linear" x1="25.2669" y1="14.7758" x2="33.2584" y2="14.7758" gradientUnits="userSpaceOnUse">
<stop stop-color="#65B32E"/>
<stop offset="1" stop-color="#C8D400"/>
</linearGradient>
<linearGradient id="paint6_linear" x1="17.0332" y1="18.7094" x2="29.4375" y2="18.7094" gradientUnits="userSpaceOnUse">
<stop stop-color="#0081A7"/>
<stop offset="1" stop-color="#76B82A"/>
</linearGradient>
<linearGradient id="paint7_linear" x1="25.2668" y1="22.6488" x2="33.2574" y2="22.6488" gradientUnits="userSpaceOnUse">
<stop stop-color="#76B82A"/>
<stop offset="1" stop-color="#0081A7"/>
</linearGradient>
<linearGradient id="paint8_linear" x1="11.5079" y1="22.2621" x2="22.5607" y2="22.2621" gradientUnits="userSpaceOnUse">
<stop stop-color="#C80973"/>
<stop offset="1" stop-color="#007BC4"/>
</linearGradient>
<linearGradient id="paint9_linear" x1="18.3896" y1="26.5874" x2="29.4405" y2="26.5874" gradientUnits="userSpaceOnUse">
<stop stop-color="#213A8F"/>
<stop offset="1" stop-color="#009FE3"/>
</linearGradient>
<linearGradient id="paint10_linear" x1="7.6894" y1="28.7231" x2="12.6216" y2="28.7231" gradientUnits="userSpaceOnUse">
<stop stop-color="#831F82"/>
<stop offset="1" stop-color="#5C2483"/>
</linearGradient>
<linearGradient id="paint11_linear" x1="507.571" y1="1302.28" x2="1830.91" y2="1302.28" gradientUnits="userSpaceOnUse">
<stop stop-color="#831F82"/>
<stop offset="1" stop-color="#5C2483"/>
</linearGradient>
<linearGradient id="paint12_linear" x1="18.388" y1="10.8374" x2="29.4407" y2="10.8374" gradientUnits="userSpaceOnUse">
<stop stop-color="#C8D400"/>
<stop offset="1" stop-color="#65B32E"/>
</linearGradient>
<linearGradient id="paint13_linear" x1="7.69043" y1="3.84521" x2="15.6811" y2="3.84521" gradientUnits="userSpaceOnUse">
<stop stop-color="#FDC300"/>
<stop offset="1" stop-color="#FFD500"/>
</linearGradient>
<linearGradient id="paint14_linear" x1="0.810547" y1="7.78075" x2="8.80025" y2="7.78075" gradientUnits="userSpaceOnUse">
<stop stop-color="#EF7D00"/>
<stop offset="1" stop-color="#FFD500"/>
</linearGradient>
<linearGradient id="paint15_linear" x1="25.2668" y1="7.77618" x2="33.2565" y2="7.77618" gradientUnits="userSpaceOnUse">
<stop stop-color="#BCCF00"/>
<stop offset="1" stop-color="#FFED00"/>
</linearGradient>
<linearGradient id="paint16_linear" x1="18.3881" y1="3.83844" x2="26.3769" y2="3.83844" gradientUnits="userSpaceOnUse">
<stop stop-color="#C8D400"/>
<stop offset="1" stop-color="#A2C617"/>
</linearGradient>
<linearGradient id="paint17_linear" x1="2177.99" y1="1501.82" x2="2870.54" y2="1501.82" gradientUnits="userSpaceOnUse">
<stop stop-color="#213A8F"/>
<stop offset="1" stop-color="#009FE3"/>
</linearGradient>
<linearGradient id="paint18_linear" x1="0.814075" y1="29.649" x2="8.80378" y2="29.649" gradientUnits="userSpaceOnUse">
<stop stop-color="#E50071"/>
<stop offset="1" stop-color="#831F82"/>
</linearGradient>
<linearGradient id="paint19_linear" x1="-4.70864" y1="26.5865" x2="5.93538" y2="26.5865" gradientUnits="userSpaceOnUse">
<stop stop-color="#E94190"/>
<stop offset="1" stop-color="#A71680"/>
</linearGradient>
</defs>
</svg>
