<svg viewBox="0 0 722 544" fill="none" xmlns="http://www.w3.org/2000/svg">
<path d="M245.129 421.913C245.129 421.913 226.961 360.234 248.536 314.837C257.592 295.784 260.6 274.396 256.412 253.72C254.412 243.906 251.517 234.297 247.762 225.012" stroke="#535461" stroke-width="2" stroke-miterlimit="10"/>
<path d="M261.18 196.358C261.18 203.916 247.494 225.834 247.494 225.834C247.494 225.834 233.808 203.916 233.808 196.358C233.808 192.728 235.25 189.247 237.816 186.681C240.383 184.114 243.864 182.672 247.494 182.672C251.124 182.672 254.605 184.114 257.172 186.681C259.738 189.247 261.18 192.728 261.18 196.358Z" fill="#14BC1F"/>
<path d="M283.805 238.201C279.698 244.548 256.295 255.507 256.295 255.507C256.295 255.507 256.719 229.67 260.826 223.323C261.803 221.814 263.067 220.512 264.547 219.492C266.027 218.472 267.694 217.753 269.451 217.377C271.209 217.001 273.024 216.975 274.791 217.3C276.559 217.625 278.246 218.295 279.755 219.272C281.263 220.249 282.565 221.514 283.585 222.994C284.605 224.474 285.324 226.14 285.7 227.898C286.076 229.655 286.102 231.47 285.777 233.238C285.452 235.006 284.782 236.692 283.805 238.201Z" fill="#14BC1F"/>
<path d="M282.818 309.773C276.072 313.174 250.365 310.828 250.365 310.828C250.365 310.828 263.733 288.754 270.492 285.334C273.729 283.735 277.467 283.479 280.891 284.623C284.315 285.767 287.148 288.218 288.774 291.441C290.4 294.665 290.686 298.4 289.571 301.834C288.455 305.267 286.028 308.121 282.818 309.773Z" fill="#14BC1F"/>
<path d="M269.88 363.738C263.802 368.231 238.052 370.266 238.052 370.266C238.052 370.266 247.538 346.226 253.61 341.732C255.053 340.638 256.699 339.842 258.453 339.389C260.206 338.935 262.032 338.835 263.824 339.092C265.616 339.35 267.34 339.96 268.895 340.889C270.449 341.817 271.804 343.045 272.881 344.501C273.958 345.957 274.735 347.612 275.168 349.37C275.6 351.129 275.68 352.955 275.401 354.745C275.123 356.534 274.492 358.25 273.545 359.794C272.599 361.338 271.355 362.678 269.887 363.738H269.88Z" fill="#14BC1F"/>
<path d="M227.536 256.992C232.959 262.259 258.216 267.714 258.216 267.714C258.216 267.714 252.031 242.625 246.608 237.358C244 234.851 240.506 233.479 236.889 233.541C233.272 233.603 229.827 235.095 227.307 237.689C224.786 240.284 223.396 243.771 223.438 247.388C223.481 251.005 224.954 254.457 227.536 256.992Z" fill="#14BC1F"/>
<path d="M213.225 320.301C219.971 323.702 245.678 321.355 245.678 321.355C245.678 321.355 232.266 299.263 225.52 295.861C223.913 295.034 222.159 294.534 220.358 294.388C218.557 294.243 216.745 294.455 215.026 295.014C213.308 295.572 211.717 296.465 210.346 297.641C208.974 298.818 207.849 300.254 207.036 301.867C206.222 303.48 205.736 305.239 205.605 307.041C205.475 308.843 205.702 310.653 206.275 312.367C206.847 314.08 207.753 315.664 208.941 317.026C210.128 318.387 211.574 319.5 213.194 320.301H213.225Z" fill="#14BC1F"/>
<path d="M207.739 383.742C213.817 388.235 239.567 390.27 239.567 390.27C239.567 390.27 230.081 366.23 224.009 361.736C221.088 359.629 217.454 358.757 213.895 359.311C210.336 359.865 207.138 361.8 204.996 364.696C202.854 367.592 201.94 371.216 202.453 374.781C202.965 378.346 204.862 381.566 207.732 383.742H207.739Z" fill="#14BC1F"/>
<path opacity="0.25" d="M261.18 196.358C261.18 203.916 247.494 225.834 247.494 225.834C247.494 225.834 233.808 203.916 233.808 196.358C233.808 192.728 235.25 189.247 237.816 186.681C240.383 184.114 243.864 182.672 247.494 182.672C251.124 182.672 254.605 184.114 257.172 186.681C259.738 189.247 261.18 192.728 261.18 196.358Z" fill="black"/>
<path opacity="0.25" d="M283.805 238.201C279.698 244.548 256.295 255.507 256.295 255.507C256.295 255.507 256.719 229.67 260.826 223.323C261.803 221.814 263.067 220.512 264.547 219.492C266.027 218.472 267.694 217.753 269.451 217.377C271.209 217.001 273.024 216.975 274.791 217.3C276.559 217.625 278.246 218.295 279.755 219.272C281.263 220.249 282.565 221.514 283.585 222.994C284.605 224.474 285.324 226.14 285.7 227.898C286.076 229.655 286.102 231.47 285.777 233.238C285.452 235.006 284.782 236.692 283.805 238.201Z" fill="black"/>
<path opacity="0.25" d="M282.818 309.773C276.072 313.174 250.365 310.828 250.365 310.828C250.365 310.828 263.733 288.754 270.492 285.334C273.729 283.735 277.467 283.479 280.891 284.623C284.315 285.767 287.148 288.218 288.774 291.441C290.4 294.665 290.686 298.4 289.571 301.834C288.455 305.267 286.028 308.121 282.818 309.773Z" fill="black"/>
<path opacity="0.25" d="M269.88 363.738C263.802 368.231 238.052 370.266 238.052 370.266C238.052 370.266 247.538 346.226 253.61 341.732C255.053 340.638 256.699 339.842 258.453 339.389C260.206 338.935 262.032 338.835 263.824 339.092C265.616 339.35 267.34 339.96 268.895 340.889C270.449 341.817 271.804 343.045 272.881 344.501C273.958 345.957 274.735 347.612 275.168 349.37C275.6 351.129 275.68 352.955 275.401 354.745C275.123 356.534 274.492 358.25 273.545 359.794C272.599 361.338 271.355 362.678 269.887 363.738H269.88Z" fill="black"/>
<path opacity="0.25" d="M227.536 256.992C232.959 262.259 258.216 267.714 258.216 267.714C258.216 267.714 252.031 242.625 246.608 237.358C244 234.851 240.506 233.479 236.889 233.541C233.272 233.603 229.827 235.095 227.307 237.689C224.786 240.284 223.396 243.771 223.438 247.388C223.481 251.005 224.954 254.457 227.536 256.992Z" fill="black"/>
<path opacity="0.25" d="M213.225 320.301C219.971 323.702 245.678 321.355 245.678 321.355C245.678 321.355 232.266 299.263 225.52 295.861C223.913 295.034 222.159 294.534 220.358 294.388C218.557 294.243 216.745 294.455 215.026 295.014C213.308 295.572 211.717 296.465 210.346 297.641C208.974 298.818 207.849 300.254 207.036 301.867C206.222 303.48 205.736 305.239 205.605 307.041C205.475 308.843 205.702 310.653 206.275 312.367C206.847 314.08 207.753 315.664 208.941 317.026C210.128 318.387 211.574 319.5 213.194 320.301H213.225Z" fill="black"/>
<path opacity="0.25" d="M207.739 383.742C213.817 388.235 239.567 390.27 239.567 390.27C239.567 390.27 230.081 366.23 224.009 361.736C221.088 359.629 217.454 358.757 213.895 359.311C210.336 359.865 207.138 361.8 204.996 364.696C202.854 367.592 201.94 371.216 202.453 374.781C202.965 378.346 204.862 381.566 207.732 383.742H207.739Z" fill="black"/>
<path d="M593.609 388.75C593.609 388.75 575.442 327.077 596.998 281.681C606.053 262.628 609.061 241.24 604.874 220.564C602.874 210.75 599.979 201.14 596.224 191.855" stroke="#535461" stroke-width="2" stroke-miterlimit="10"/>
<path d="M609.661 163.19C609.661 170.748 595.974 192.666 595.974 192.666C595.974 192.666 582.288 170.748 582.288 163.19C582.288 159.56 583.73 156.079 586.297 153.513C588.863 150.946 592.345 149.504 595.974 149.504C599.604 149.504 603.085 150.946 605.652 153.513C608.219 156.079 609.661 159.56 609.661 163.19Z" fill="#14BC1F"/>
<path d="M632.283 205.06C628.177 211.407 604.773 222.366 604.773 222.366C604.773 222.366 605.198 196.529 609.304 190.182C610.281 188.673 611.546 187.372 613.026 186.351C614.506 185.331 616.172 184.613 617.93 184.237C619.688 183.86 621.502 183.834 623.27 184.159C625.038 184.485 626.724 185.155 628.233 186.132C629.742 187.109 631.044 188.373 632.064 189.853C633.084 191.333 633.802 192.999 634.178 194.757C634.555 196.515 634.581 198.329 634.256 200.097C633.93 201.865 633.26 203.552 632.283 205.06Z" fill="#14BC1F"/>
<path d="M631.322 276.609C624.575 280.011 598.869 277.664 598.869 277.664C598.869 277.664 612.281 255.571 619.027 252.17C620.639 251.291 622.41 250.746 624.237 250.566C626.064 250.386 627.908 250.575 629.66 251.123C631.412 251.67 633.036 252.564 634.435 253.751C635.834 254.939 636.981 256.396 637.805 258.036C638.63 259.675 639.117 261.464 639.236 263.296C639.356 265.127 639.106 266.964 638.501 268.697C637.896 270.43 636.949 272.023 635.715 273.383C634.482 274.742 632.988 275.839 631.322 276.609Z" fill="#14BC1F"/>
<path d="M618.361 330.569C612.282 335.062 586.532 337.097 586.532 337.097C586.532 337.097 596.018 313.056 602.091 308.563C603.533 307.451 605.182 306.638 606.941 306.172C608.701 305.705 610.537 305.595 612.34 305.846C614.143 306.098 615.878 306.707 617.443 307.637C619.008 308.567 620.371 309.801 621.453 311.264C622.536 312.728 623.315 314.394 623.746 316.162C624.177 317.931 624.25 319.768 623.963 321.566C623.675 323.364 623.031 325.086 622.069 326.632C621.107 328.178 619.846 329.516 618.361 330.569Z" fill="#14BC1F"/>
<path d="M576.035 223.846C581.458 229.113 606.715 234.568 606.715 234.568C606.715 234.568 600.53 209.492 595.126 204.193C593.835 202.94 592.311 201.953 590.639 201.288C588.967 200.624 587.18 200.296 585.382 200.322C583.583 200.348 581.807 200.728 580.155 201.44C578.503 202.153 577.007 203.184 575.754 204.474C574.5 205.765 573.513 207.289 572.849 208.961C572.185 210.633 571.856 212.419 571.882 214.218C571.908 216.017 572.288 217.793 573.001 219.445C573.713 221.097 574.744 222.592 576.035 223.846Z" fill="#14BC1F"/>
<path d="M561.706 287.133C568.452 290.534 594.158 288.188 594.158 288.188C594.158 288.188 580.772 266.095 574.031 262.693C572.425 261.866 570.671 261.366 568.87 261.22C567.069 261.075 565.257 261.287 563.538 261.846C561.82 262.404 560.229 263.297 558.857 264.473C557.486 265.65 556.361 267.086 555.547 268.699C554.734 270.312 554.247 272.071 554.117 273.873C553.986 275.675 554.214 277.485 554.786 279.199C555.359 280.913 556.265 282.496 557.453 283.858C558.64 285.219 560.086 286.333 561.706 287.133Z" fill="#14BC1F"/>
<path d="M556.22 350.578C562.299 355.071 588.049 357.106 588.049 357.106C588.049 357.106 578.563 333.066 572.49 328.572C569.569 326.465 565.935 325.593 562.376 326.147C558.817 326.701 555.62 328.636 553.478 331.532C551.336 334.428 550.422 338.052 550.934 341.617C551.446 345.182 553.343 348.402 556.214 350.578H556.22Z" fill="#14BC1F"/>
<path opacity="0.25" d="M609.661 163.19C609.661 170.748 595.974 192.666 595.974 192.666C595.974 192.666 582.288 170.748 582.288 163.19C582.288 159.56 583.73 156.079 586.297 153.513C588.863 150.946 592.345 149.504 595.974 149.504C599.604 149.504 603.085 150.946 605.652 153.513C608.219 156.079 609.661 159.56 609.661 163.19Z" fill="black"/>
<path opacity="0.25" d="M632.283 205.06C628.177 211.407 604.773 222.366 604.773 222.366C604.773 222.366 605.198 196.529 609.304 190.182C610.281 188.673 611.546 187.372 613.026 186.351C614.506 185.331 616.172 184.613 617.93 184.237C619.688 183.86 621.502 183.834 623.27 184.159C625.038 184.485 626.724 185.155 628.233 186.132C629.742 187.109 631.044 188.373 632.064 189.853C633.084 191.333 633.802 192.999 634.178 194.757C634.555 196.515 634.581 198.329 634.256 200.097C633.93 201.865 633.26 203.552 632.283 205.06Z" fill="black"/>
<path opacity="0.25" d="M631.322 276.609C624.575 280.011 598.869 277.664 598.869 277.664C598.869 277.664 612.281 255.571 619.027 252.17C620.639 251.291 622.41 250.746 624.237 250.566C626.064 250.386 627.908 250.575 629.66 251.123C631.412 251.67 633.036 252.564 634.435 253.751C635.834 254.939 636.981 256.396 637.805 258.036C638.63 259.675 639.117 261.464 639.236 263.296C639.356 265.127 639.106 266.964 638.501 268.697C637.896 270.43 636.949 272.023 635.715 273.383C634.482 274.742 632.988 275.839 631.322 276.609Z" fill="black"/>
<path opacity="0.25" d="M618.361 330.569C612.282 335.062 586.532 337.097 586.532 337.097C586.532 337.097 596.018 313.056 602.091 308.563C603.533 307.451 605.182 306.638 606.941 306.172C608.701 305.705 610.537 305.595 612.34 305.846C614.143 306.098 615.878 306.707 617.443 307.637C619.008 308.567 620.371 309.801 621.453 311.264C622.536 312.728 623.315 314.394 623.746 316.162C624.177 317.931 624.25 319.768 623.963 321.566C623.675 323.364 623.031 325.086 622.069 326.632C621.107 328.178 619.846 329.516 618.361 330.569Z" fill="black"/>
<path opacity="0.25" d="M576.035 223.846C581.458 229.113 606.715 234.568 606.715 234.568C606.715 234.568 600.53 209.492 595.126 204.193C593.835 202.94 592.311 201.953 590.639 201.288C588.967 200.624 587.18 200.296 585.382 200.322C583.583 200.348 581.807 200.728 580.155 201.44C578.503 202.153 577.007 203.184 575.754 204.474C574.5 205.765 573.513 207.289 572.849 208.961C572.185 210.633 571.856 212.419 571.882 214.218C571.908 216.017 572.288 217.793 573.001 219.445C573.713 221.097 574.744 222.592 576.035 223.846Z" fill="black"/>
<path opacity="0.25" d="M561.706 287.133C568.452 290.534 594.158 288.188 594.158 288.188C594.158 288.188 580.772 266.095 574.031 262.693C572.425 261.866 570.671 261.366 568.87 261.22C567.069 261.075 565.257 261.287 563.538 261.846C561.82 262.404 560.229 263.297 558.857 264.473C557.486 265.65 556.361 267.086 555.547 268.699C554.734 270.312 554.247 272.071 554.117 273.873C553.986 275.675 554.214 277.485 554.786 279.199C555.359 280.913 556.265 282.496 557.453 283.858C558.64 285.219 560.086 286.333 561.706 287.133Z" fill="black"/>
<path opacity="0.25" d="M556.22 350.578C562.299 355.071 588.049 357.106 588.049 357.106C588.049 357.106 578.563 333.066 572.49 328.572C569.569 326.465 565.935 325.593 562.376 326.147C558.817 326.701 555.62 328.636 553.478 331.532C551.336 334.428 550.422 338.052 550.934 341.617C551.446 345.182 553.343 348.402 556.214 350.578H556.22Z" fill="black"/>
<g opacity="0.1">
<path opacity="0.1" d="M107.797 495.84C114.724 493.343 108.646 495.378 107.447 495.777C107.558 495.821 107.677 495.842 107.797 495.84Z" fill="#00FFFF"/>
</g>
<g opacity="0.1">
<path opacity="0.1" d="M107.448 495.767L107.261 495.711V495.836L107.448 495.767Z" fill="#00FFFF"/>
</g>
<path opacity="0.1" d="M582.452 418.102C582.452 418.029 582.452 417.95 582.495 417.871C582.539 417.792 582.495 417.829 582.495 417.811C582.508 417.659 582.508 417.507 582.495 417.356C582.495 417.356 581.661 415.798 580.689 413.659C579.363 410.72 577.787 406.677 577.787 404.029C577.787 404.029 563.234 354.466 553.395 349.054C553.395 349.054 545.3 335.023 545.387 327.127C545.398 324.603 545.19 322.083 544.764 319.593C543.326 310.884 540.928 294.212 543.12 291.163C545.904 287.291 550.543 270.442 539.465 257.721L541.408 257.43C541.408 257.43 541.302 257.303 541.128 257.054L541.408 257.012C541.408 257.012 537.123 252.006 537.123 240.945C537.186 234.576 538.662 226.255 543.12 215.776C543.71 214.386 544.249 213.01 544.739 211.649C546.814 210.645 548.708 209.318 550.344 207.722L550.543 207.522L550.774 207.309C554.865 203.309 557.343 198 559.068 192.613C560.652 187.66 561.665 182.552 562.088 177.382C562.549 171.764 562.306 166.122 562.088 160.492C561.808 153.922 561.466 147.158 558.763 141.165C557.698 138.819 556.272 136.601 555.618 134.116C555.255 132.41 555.004 130.683 554.865 128.946C553.974 122.14 550.661 115.541 545.231 111.171C539.801 106.801 532.21 104.856 525.416 106.686C521.53 107.735 518.062 109.904 514.83 112.28C513.445 113.295 512.138 114.407 510.919 115.607C507.015 119.334 504.069 124.219 506.896 129.353C507.104 129.724 507.326 130.088 507.563 130.443C506.07 132.762 505.117 135.37 504.77 138.085C504.423 140.8 504.692 143.556 505.557 146.159C506.421 148.763 507.861 151.15 509.775 153.154C511.689 155.158 514.031 156.729 516.636 157.758L517.14 158.619H517.196C518.672 161.273 520.279 164.589 520.702 167.104C518.854 168.385 517.18 169.89 515.72 171.582C510.683 177.431 507.924 181.401 506.417 183.988C504.992 186.386 503.339 188.649 501.479 190.746C499.193 193.376 496.497 198.509 496.497 208.061C496.497 208.76 496.497 209.485 496.497 210.237C484.435 223.018 437.394 213.649 437.394 213.649C431.727 211.503 425.133 214.091 422.044 215.612C421.792 215.733 421.571 215.908 421.397 216.123C421.224 216.339 421.103 216.59 421.043 216.857C420.983 217.124 420.986 217.402 421.051 217.668C421.117 217.934 421.243 218.182 421.421 218.394C426.403 224.237 438.658 220.734 438.658 220.734C438.658 220.734 482.735 228.23 486.16 230.727C488.489 232.43 492.605 231.043 494.996 229.982L494.504 230.521L495.127 230.224L491.739 259.879H491.789L491.739 260.297C491.739 260.297 492.524 260.23 493.776 260.145L494.822 262.782H494.735L495.818 265.279L496.709 267.333C494.05 276.691 483.332 315.211 484.46 324.005C484.46 324.005 477.61 339.829 480.182 348.581C480.182 348.581 470.766 414.386 464.775 417.72L465.616 418.089C459.221 421.647 445.29 428.338 435.675 425.217C435.675 425.217 429.685 426.883 439.1 432.714C439.1 432.714 477.616 442.707 482.753 439.38L481.9 424.974L482.336 425.126C482.398 424.314 482.959 418.356 485.325 415.641C485.325 415.641 500.731 374.823 499.878 353.999L514.257 320.181C515.814 324.06 517.464 327.351 519.133 329.43L525.124 344.423L534.969 356.92C534.969 356.92 565.781 404.399 563.614 418.562L564.336 418.738C561.453 423.732 554.279 433.968 543.924 433.968C543.924 433.968 534.938 443.132 551.627 441.883C551.627 441.883 572.594 440.635 588 432.301L582.452 418.102Z" fill="#5717C2"/>
<path d="M473.378 413.777C473.378 413.777 453.525 427.014 441.118 422.877C441.118 422.877 435.327 424.53 444.426 430.322C444.426 430.322 481.653 440.251 486.615 436.937L485.366 415.431L473.378 413.777Z" fill="white"/>
<path d="M566.854 413.775C566.854 413.775 558.997 431.562 545.76 431.562C545.76 431.562 537.072 440.661 553.205 439.419C553.205 439.419 573.469 438.171 588.36 429.908L581.239 411.348L566.854 413.775Z" fill="white"/>
<path d="M496.125 255.984L499.245 264.054L519.497 262.606L517.425 248.957L496.125 255.984Z" fill="#FDB797"/>
<path d="M500.676 264.051C500.676 264.051 487.027 312.468 488.269 322.372C488.269 322.372 481.653 338.087 484.131 346.774C484.131 346.774 475.032 412.123 469.24 415.424C469.24 415.424 486.091 423.051 486.609 422.87C492.4 420.804 486.197 422.87 486.197 422.87C486.197 422.87 486.609 416.254 489.093 413.358C489.093 413.358 503.983 372.824 503.153 352.148L523.006 304.167L500.676 264.051Z" fill="#252A62"/>
<path opacity="0.1" d="M500.676 264.051C500.676 264.051 487.027 312.468 488.269 322.372C488.269 322.372 481.653 338.087 484.131 346.774C484.131 346.774 475.032 412.123 469.24 415.424C469.24 415.424 486.091 423.051 486.609 422.87C492.4 420.804 486.197 422.87 486.197 422.87C486.197 422.87 486.609 416.254 489.093 413.358C489.093 413.358 503.983 372.824 503.153 352.148L523.006 304.167L500.676 264.051Z" fill="black"/>
<path d="M498.198 261.565L507.298 283.071C507.298 283.071 514.331 318.226 521.776 327.738L527.568 342.628L537.085 355.042C537.085 355.042 566.867 402.192 564.795 416.253C564.795 416.253 583.406 421.245 582.994 415.004C582.994 415.004 578.444 406.317 578.444 401.767C578.444 401.767 564.383 352.551 554.866 347.172C554.866 347.172 547.052 333.236 547.127 325.397C547.131 322.888 546.923 320.382 546.503 317.908C545.111 309.258 542.796 292.707 544.918 289.68C547.814 285.543 552.775 266.52 538.714 253.695L498.198 261.565Z" fill="#252A62"/>
<path opacity="0.1" d="M582.981 415.02C582.981 415.02 578.431 406.333 578.431 401.783C578.431 401.783 564.37 352.567 554.853 347.187C554.853 347.187 547.039 333.251 547.114 325.413C547.118 322.903 546.909 320.398 546.49 317.924C545.098 309.274 542.783 292.723 544.905 289.696C547.8 285.558 552.762 266.536 538.701 253.711L536.305 254.179C549.748 266.992 544.873 285.608 542.015 289.696C539.157 293.784 544.512 323.197 544.512 323.197C542.446 330.231 551.957 347.187 551.957 347.187C561.468 352.567 575.535 401.783 575.535 401.783C575.535 406.333 580.085 415.02 580.085 415.02C580.222 417.067 578.281 417.897 575.622 418.09C579.629 418.321 583.168 417.76 582.981 415.02Z" fill="black"/>
<path d="M517.221 153.619C517.221 153.619 525.078 165.614 523.012 169.333L543.277 164.341C543.277 164.341 537.897 158.549 539.139 144.488L517.221 153.619Z" fill="#FDB797"/>
<path opacity="0.1" d="M546.171 162.305C546.171 162.305 529.215 158.56 518.462 171.404C513.594 177.208 510.929 181.152 509.469 183.724C508.093 186.104 506.496 188.35 504.701 190.433C502.011 193.609 498.715 200.456 500.263 214.417L495.271 259.083C495.271 259.083 509.749 257.835 513.469 259.083C517.189 260.331 543.251 256.187 543.251 256.187C543.251 256.187 532.91 243.78 544.905 214.828C556.9 185.877 546.171 162.305 546.171 162.305Z" fill="black"/>
<path d="M546.171 161.895C546.171 161.895 529.215 158.15 518.462 170.994C513.594 176.798 510.929 180.742 509.469 183.314C508.093 185.694 506.496 187.94 504.701 190.023C502.011 193.199 498.715 200.045 500.263 214.006L495.271 258.673C495.271 258.673 509.749 257.424 513.469 258.673C517.189 259.921 543.251 255.777 543.251 255.777C543.251 255.777 532.91 243.37 544.905 214.418C556.9 185.467 546.171 161.895 546.171 161.895Z" fill="#F55F44"/>
<path opacity="0.1" d="M525.701 200.133C525.701 200.133 509.568 223.312 502.135 227.449L497.997 229.515C497.997 229.515 524.047 200.133 525.701 200.133Z" fill="black"/>
<path d="M510.605 188.365C510.605 188.365 521.215 184.189 525.765 198.032C525.95 198.594 525.982 199.195 525.856 199.773C525.731 200.351 525.454 200.886 525.053 201.321L500.264 228.069C500.264 228.069 493.231 232.207 489.923 229.723C486.615 227.239 444.015 219.794 444.015 219.794C444.015 219.794 432.188 223.27 427.358 217.472C427.183 217.264 427.058 217.019 426.992 216.756C426.926 216.492 426.921 216.217 426.977 215.952C427.033 215.686 427.148 215.436 427.315 215.222C427.481 215.007 427.695 214.834 427.938 214.714C430.247 213.547 434.098 214.221 438.641 213.659C442.129 213.243 445.659 213.316 449.126 213.877C463.312 216.099 496.732 219.769 501.918 206.145C508.533 188.783 510.605 188.365 510.605 188.365Z" fill="#FDB797"/>
<path opacity="0.1" d="M510.398 188.565C510.398 188.565 523.217 186.499 526.113 199.318V198.488C526.113 198.488 522.393 184.433 510.398 188.565Z" fill="black"/>
<path opacity="0.1" d="M539.582 145.352L517.633 154.451C517.633 154.451 518.625 155.961 519.805 158.077C521.945 158.938 524.903 158.383 527.35 158.383C532.343 158.383 535.994 157.066 539.345 153.833C539.039 151.349 539.251 148.778 539.582 145.352Z" fill="black"/>
<path d="M526.319 158.58C536.598 158.58 544.93 150.248 544.93 139.97C544.93 129.692 536.598 121.359 526.319 121.359C516.041 121.359 507.709 129.692 507.709 139.97C507.709 150.248 516.041 158.58 526.319 158.58Z" fill="#FDB797"/>
<path opacity="0.1" d="M526.351 137.454C526.757 138.89 525.565 140.219 524.704 141.436C521.69 145.698 522.245 151.503 523.624 156.533C524.298 158.998 525.309 161.619 527.512 162.911C529.272 163.941 531.438 163.897 533.41 164.415C536.961 165.345 539.832 168.16 541.523 171.399C543.214 174.638 543.82 178.376 544.02 182.046C544.623 192.66 542.071 203.216 536.686 212.383C542.21 213.325 547.92 210.81 551.883 206.835C555.846 202.859 558.23 197.592 559.896 192.243C561.427 187.326 562.407 182.255 562.817 177.122C563.26 171.542 563.029 165.938 562.817 160.346C562.549 153.824 562.237 147.128 559.603 141.155C558.573 138.821 557.2 136.624 556.564 134.153C556.212 132.46 555.968 130.746 555.834 129.023C554.972 122.264 551.771 115.711 546.522 111.367C541.274 107.024 533.94 105.126 527.375 106.917C523.63 107.96 520.273 110.113 517.165 112.472C512.135 116.298 506.362 122.457 509.913 129.01C513.002 134.746 519.83 138.478 526.351 137.454Z" fill="black"/>
<path d="M526.763 137.045C527.169 138.48 525.977 139.81 525.116 141.027C522.101 145.289 522.657 151.093 524.036 156.123C524.71 158.589 525.721 161.21 527.924 162.502C529.684 163.531 531.85 163.488 533.822 164.006C537.373 164.936 540.244 167.75 541.935 170.989C543.626 174.228 544.232 177.967 544.431 181.636C545.035 192.258 542.479 202.821 537.086 211.992C542.609 212.934 548.32 210.419 552.283 206.444C556.246 202.468 558.63 197.201 560.296 191.853C561.827 186.936 562.806 181.864 563.217 176.731C563.66 171.152 563.429 165.547 563.217 159.955C562.948 153.434 562.636 146.737 560.003 140.764C558.973 138.43 557.6 136.234 556.963 133.762C556.612 132.069 556.368 130.356 556.233 128.632C555.372 121.873 552.17 115.32 546.922 110.977C541.673 106.633 534.34 104.736 527.774 106.527C524.03 107.569 520.672 109.722 517.564 112.081C512.534 115.907 506.761 122.067 510.312 128.62C513.42 134.336 520.235 138.068 526.763 137.045Z" fill="#72351C"/>
<path opacity="0.1" d="M528.598 229.518C528.598 229.518 536.455 229.518 539.351 225.773L528.598 229.518Z" fill="black"/>
<path opacity="0.1" d="M528.598 232.413C528.598 232.413 536.455 232.413 539.351 228.668L528.598 232.413Z" fill="black"/>
<path opacity="0.1" d="M536.042 184.848C536.042 184.848 534.793 194.777 530.25 199.327L536.042 184.848Z" fill="black"/>
<g opacity="0.1">
<path opacity="0.1" d="M356.722 432.682V432.582L356.573 432.632L356.722 432.682Z" fill="url(#paint0_linear)"/>
</g>
<g opacity="0.1">
<path opacity="0.1" d="M356.286 432.684C356.382 432.686 356.477 432.669 356.567 432.634C355.606 432.297 350.744 430.699 356.286 432.684Z" fill="url(#paint1_linear)"/>
</g>
<path opacity="0.1" d="M417.903 216.238C414.759 214.713 408.05 212.108 402.285 214.262C402.285 214.262 346.995 225.153 340.024 207.558C339.697 206.734 339.38 205.942 339.074 205.181C339.213 204.027 339.273 202.866 339.254 201.705C339.278 200.277 339.176 198.849 338.949 197.439C338.585 195.375 337.787 193.41 336.607 191.673C335.236 189.388 334.113 186.964 333.259 184.443C331.917 180.81 329.816 177.5 327.092 174.733C324.369 171.966 321.086 169.805 317.461 168.392C317.566 165.762 319.436 161.878 321.132 158.86H321.188L321.704 157.995C325.273 156.644 328.349 154.254 330.53 151.139C332.712 148.023 333.896 144.325 333.93 140.53C333.929 136.873 332.828 133.299 330.768 130.269C336.614 129.337 334.613 124.398 330.998 120.163C330.296 119.342 329.548 118.563 328.755 117.829C325.225 114.374 320.781 111.985 315.939 110.939C315.361 110.816 314.777 110.723 314.193 110.643C310.715 109.453 307.01 109.065 303.359 109.508C299.708 109.952 296.207 111.217 293.121 113.205C292.367 111.081 290.965 109.245 289.109 107.953C287.253 106.661 285.037 105.978 282.771 106.001C276.757 106.001 271.887 110.686 271.887 116.496C271.887 122.305 276.757 126.991 282.771 126.991H283.392C282.989 128.643 282.781 130.335 282.771 132.035C282.771 142.604 290.306 151.482 300.495 153.964L300.675 154.131C300.675 154.303 300.644 154.482 300.619 154.655L300.662 154.692C300.274 157.801 299.287 160.807 297.755 163.545L297.37 163.453C289.337 169.009 286.43 177.436 286.498 186.215C286.455 193.673 288.53 201.476 291.468 207.823C292.547 210.361 293.081 213.094 293.034 215.849C292.878 225.356 288.474 236.765 285.479 243.445C284.293 246.094 267.091 287.433 267.091 287.433L267.482 287.334L267.091 288.272C270.855 287.223 274.893 287.704 278.323 288.624C280.683 289.24 283.144 289.383 285.561 289.043C287.978 288.704 290.303 287.89 292.4 286.648C292.86 288.634 293.652 290.529 294.742 292.254C296.972 295.341 294.537 312.084 293.071 320.844C292.641 323.349 292.434 325.886 292.45 328.426C292.53 336.371 284.305 350.484 284.305 350.484C274.291 355.93 259.487 405.776 259.487 405.776C259.487 408.443 257.884 412.505 256.536 415.462C255.554 417.617 254.672 419.167 254.672 419.167C254.659 419.319 254.659 419.471 254.672 419.623C254.672 419.623 254.672 419.667 254.672 419.685C254.682 419.764 254.697 419.842 254.715 419.92L249 434.249C264.674 442.626 286.007 443.886 286.007 443.886C302.986 445.121 293.847 435.928 293.847 435.928C283.286 435.928 276.018 425.63 273.079 420.611L273.819 420.432C271.644 406.189 303.017 358.436 303.017 358.436L313.031 345.866L319.126 330.722C320.822 328.636 322.505 325.327 324.096 321.425L338.72 355.417C337.85 376.364 353.524 417.413 353.524 417.413C355.953 420.142 356.499 426.137 356.562 426.952L357.003 426.803L356.133 441.293C361.358 444.645 400.545 434.588 400.545 434.588C410.125 428.723 404.031 427.05 404.031 427.05C394.252 430.187 380.076 423.457 373.59 419.883L374.441 419.512C368.347 416.16 358.767 349.978 358.767 349.978C361.382 341.181 354.418 325.283 354.418 325.283C355.214 319.171 350.206 298.644 346.168 283.5C351.352 283.456 356.521 282.931 361.606 281.932C361.283 281.728 360.985 281.512 360.656 281.314C361.277 281.197 361.606 281.123 361.606 281.123C348.15 272.573 340.484 243.692 337.173 227.332C338.001 228.031 338.893 228.651 339.838 229.184L344.187 231.277L343.69 230.74C346.119 231.808 350.306 233.209 352.679 231.487C356.164 228.974 401.005 221.436 401.005 221.436C401.005 221.436 413.43 224.961 418.543 219.084C418.733 218.871 418.87 218.616 418.942 218.34C419.014 218.065 419.019 217.776 418.956 217.498C418.894 217.22 418.766 216.961 418.583 216.741C418.399 216.522 418.166 216.35 417.903 216.238Z" fill="#5717C2"/>
<path d="M307.731 155.067C320.067 155.067 330.067 145.067 330.067 132.731C330.067 120.395 320.067 110.395 307.731 110.395C295.395 110.395 285.395 120.395 285.395 132.731C285.395 145.067 295.395 155.067 307.731 155.067Z" fill="#FFC533"/>
<path d="M324.483 154.861C324.483 154.861 316.625 166.856 318.691 170.576L298.427 165.583C298.427 165.583 303.806 159.791 302.564 145.73L324.483 154.861Z" fill="#FDB797"/>
<path opacity="0.1" d="M302.146 146.59L324.064 155.689C324.064 155.689 323.071 157.199 321.892 159.315C319.751 160.176 316.793 159.621 314.347 159.621C309.354 159.621 305.703 158.304 302.351 155.071C302.664 152.587 302.426 150.016 302.146 146.59Z" fill="black"/>
<path d="M315.383 159.818C325.661 159.818 333.993 151.486 333.993 141.208C333.993 130.93 325.661 122.598 315.383 122.598C305.105 122.598 296.772 130.93 296.772 141.208C296.772 151.486 305.105 159.818 315.383 159.818Z" fill="#FDB797"/>
<path d="M285.395 127.768C291.106 127.768 295.736 123.138 295.736 117.427C295.736 111.716 291.106 107.086 285.395 107.086C279.684 107.086 275.054 111.716 275.054 117.427C275.054 123.138 279.684 127.768 285.395 127.768Z" fill="#FFC533"/>
<path opacity="0.1" d="M328.601 131.227C323.945 131.146 318.653 130.21 315.164 133.287C312.668 135.496 311.994 139.066 311.145 142.299C309.897 147.154 307.039 152.49 302.071 153.214C299.038 153.657 295.986 152.147 293.833 149.963C291.68 147.778 290.288 144.97 288.971 142.218C287.654 139.465 286.369 136.601 286.475 133.549C286.606 129.923 288.722 126.684 290.881 123.782C292.183 121.96 293.634 120.248 295.218 118.664C297.664 116.308 300.576 114.489 303.767 113.325C306.958 112.161 310.357 111.678 313.746 111.907C317.135 112.135 320.438 113.071 323.444 114.653C326.449 116.235 329.09 118.428 331.197 121.092C335.073 125.792 337.001 131.371 328.601 131.227Z" fill="black"/>
<path d="M328.19 130.821C323.534 130.74 318.242 129.804 314.753 132.881C312.257 135.09 311.583 138.66 310.734 141.893C309.486 146.748 306.628 152.084 301.66 152.808C298.627 153.251 295.575 151.741 293.422 149.556C291.269 147.372 289.877 144.564 288.56 141.811C287.243 139.059 285.958 136.195 286.064 133.143C286.195 129.517 288.31 126.278 290.47 123.376C291.772 121.553 293.223 119.842 294.807 118.258C297.253 115.901 300.165 114.083 303.356 112.919C306.547 111.755 309.946 111.272 313.335 111.501C316.723 111.729 320.027 112.665 323.032 114.247C326.038 115.828 328.679 118.022 330.786 120.686C334.656 125.385 336.59 130.965 328.19 130.821Z" fill="#FFC533"/>
<path d="M368.324 415.02C368.324 415.02 388.176 428.257 400.583 424.119C400.583 424.119 406.375 425.773 397.276 431.564C397.276 431.564 360.048 441.494 355.087 438.18L356.335 416.673L368.324 415.02Z" fill="#4A6B60"/>
<path d="M274.848 415.018C274.848 415.018 282.705 432.804 295.942 432.804C295.942 432.804 304.63 441.903 288.497 440.661C288.497 440.661 268.233 439.413 253.342 431.15L260.463 412.59L274.848 415.018Z" fill="#4A6B60"/>
<path d="M341.027 265.293C341.027 265.293 354.676 313.685 353.434 323.608C353.434 323.608 360.05 339.323 357.572 348.01C357.572 348.01 366.671 413.359 372.463 416.66C372.463 416.66 355.612 424.287 355.094 424.106C349.303 422.04 355.506 424.106 355.506 424.106C355.506 424.106 355.094 417.49 352.61 414.594C352.61 414.594 337.72 374.06 338.55 353.384L318.697 305.403L341.027 265.293Z" fill="#3AD29F"/>
<path opacity="0.1" d="M341.027 265.293C341.027 265.293 354.676 313.685 353.434 323.608C353.434 323.608 360.05 339.323 357.572 348.01C357.572 348.01 366.671 413.359 372.463 416.66C372.463 416.66 355.612 424.287 355.094 424.106C349.303 422.04 355.506 424.106 355.506 424.106C355.506 424.106 355.094 417.49 352.61 414.594C352.61 414.594 337.72 374.06 338.55 353.384L318.697 305.403L341.027 265.293Z" fill="black"/>
<path d="M343.511 262.81L334.411 284.316C334.411 284.316 327.378 319.471 319.933 328.982L314.141 343.873L304.63 356.28C304.63 356.28 274.848 403.43 276.92 417.491C276.92 417.491 258.31 422.484 258.722 416.243C258.722 416.243 263.271 407.555 263.271 403.006C263.271 403.006 277.332 353.79 286.849 348.41C286.849 348.41 294.663 334.474 294.588 326.636C294.584 324.126 294.793 321.621 295.212 319.146C296.604 310.497 298.919 293.946 296.797 290.919C293.902 286.781 288.94 267.759 303.001 254.934L343.511 262.81Z" fill="#3AD29F"/>
<path opacity="0.1" d="M258.741 416.258C258.741 416.258 263.291 407.571 263.291 403.021C263.291 403.021 277.351 353.805 286.869 348.426C286.869 348.426 294.682 334.49 294.608 326.651C294.603 324.142 294.812 321.636 295.232 319.162C296.623 310.512 298.939 293.961 296.817 290.934C293.921 286.797 288.96 267.774 303.02 254.949L305.417 255.417C291.93 268.236 296.811 286.884 299.669 290.941C302.527 294.997 297.173 324.442 297.173 324.442C299.238 331.475 289.727 348.432 289.727 348.432C280.216 353.812 266.149 403.027 266.149 403.027C266.149 407.577 261.599 416.265 261.599 416.265C261.462 418.312 263.403 419.142 266.062 419.335C262.074 419.566 258.535 419.004 258.741 416.258Z" fill="black"/>
<path opacity="0.1" d="M299.269 164.559L314.641 168.341C318.931 169.401 322.89 171.515 326.159 174.489C329.428 177.464 331.904 181.206 333.363 185.378C334.171 187.862 335.236 190.255 336.54 192.518C337.664 194.245 338.42 196.184 338.762 198.216C339.386 202.266 339.336 208.825 335.092 216.265C335.092 216.265 342.088 268.794 360.256 280.789C360.256 280.789 342.525 284.871 326.985 279.822C316.569 276.44 305.142 277.862 296.218 284.253L295.831 284.534C293.764 286.078 291.375 287.133 288.843 287.621C286.31 288.108 283.7 288.015 281.208 287.349C277.95 286.444 274.112 285.969 270.536 287.005C270.536 287.005 286.881 246.196 288.011 243.575C291.818 234.719 298.059 217.444 293.69 207.621C287.618 193.947 285.396 173.683 299.269 164.559Z" fill="black"/>
<path d="M299.269 163.754L314.641 167.536C318.931 168.597 322.89 170.71 326.159 173.685C329.428 176.659 331.904 180.402 333.363 184.574C334.171 187.058 335.236 189.45 336.54 191.713C337.664 193.44 338.42 195.38 338.762 197.411C339.386 201.462 339.336 208.021 335.092 215.46C335.092 215.46 342.088 267.99 360.256 279.985C360.256 279.985 342.525 284.066 326.985 279.017C316.569 275.635 305.142 277.058 296.218 283.449L295.831 283.729C293.763 285.27 291.373 286.322 288.84 286.806C286.308 287.29 283.698 287.194 281.208 286.525C277.95 285.62 274.112 285.146 270.536 286.182C270.536 286.182 286.881 245.373 288.011 242.751C291.818 233.889 298.059 216.615 293.69 206.766C287.618 193.117 285.396 173.683 299.269 163.754Z" fill="#535461"/>
<path opacity="0.1" d="M316.008 201.379C316.008 201.379 332.141 224.539 339.586 228.677L343.724 230.742C343.724 230.742 317.662 201.379 316.008 201.379Z" fill="black"/>
<path d="M331.097 189.599C331.097 189.599 320.487 185.424 315.937 199.266C315.752 199.828 315.72 200.429 315.846 201.007C315.971 201.586 316.248 202.12 316.649 202.555L341.438 229.31C341.438 229.31 348.471 233.448 351.779 230.964C355.087 228.48 397.687 221.034 397.687 221.034C397.687 221.034 409.433 224.486 414.294 218.769C414.475 218.56 414.605 218.313 414.677 218.047C414.749 217.781 414.76 217.502 414.709 217.231C414.658 216.96 414.546 216.704 414.383 216.481C414.219 216.259 414.008 216.077 413.764 215.948C411.199 214.656 406.506 214.7 401.457 214.269C399.711 214.118 397.952 214.198 396.227 214.506C385.43 216.422 345.488 222.376 339.784 207.386C333.169 190.011 331.097 189.599 331.097 189.599Z" fill="#FDB797"/>
<path opacity="0.1" d="M331.31 189.809C331.31 189.809 318.491 187.743 315.596 200.562V199.732C315.596 199.732 319.315 185.671 331.31 189.809Z" fill="black"/>
<path d="M414.102 412.32C414.102 412.32 404.266 378.931 415.974 354.354C420.935 344.08 422.431 332.474 420.236 321.277C419.152 315.969 417.583 310.772 415.55 305.75" stroke="#535461" stroke-width="2" stroke-miterlimit="10"/>
<path d="M422.795 290.208C422.795 294.302 415.387 306.166 415.387 306.166C415.387 306.166 407.979 294.308 407.979 290.208C407.979 289.235 408.171 288.271 408.544 287.372C408.916 286.473 409.462 285.656 410.15 284.968C410.838 284.279 411.655 283.733 412.554 283.361C413.454 282.989 414.417 282.797 415.391 282.797C416.364 282.797 417.328 282.989 418.227 283.361C419.126 283.733 419.943 284.279 420.631 284.968C421.319 285.656 421.865 286.473 422.238 287.372C422.61 288.271 422.802 289.235 422.802 290.208H422.795Z" fill="#14BC1F"/>
<path d="M435.039 312.874C432.817 316.307 420.148 322.236 420.148 322.236C420.148 322.236 420.379 308.25 422.601 304.811C423.13 303.994 423.815 303.29 424.616 302.738C425.417 302.186 426.32 301.797 427.271 301.593C428.223 301.39 429.205 301.376 430.162 301.552C431.119 301.728 432.032 302.091 432.849 302.62C433.665 303.149 434.37 303.834 434.922 304.636C435.474 305.437 435.863 306.339 436.066 307.291C436.27 308.242 436.284 309.224 436.107 310.181C435.931 311.138 435.568 312.051 435.039 312.868V312.874Z" fill="#14BC1F"/>
<path d="M434.503 351.612C430.852 353.485 416.916 352.18 416.916 352.18C416.916 352.18 424.174 340.223 427.831 338.375C428.7 337.937 429.647 337.675 430.617 337.602C431.587 337.53 432.562 337.65 433.486 337.954C434.41 338.259 435.265 338.742 436.002 339.377C436.74 340.012 437.344 340.786 437.783 341.655C438.221 342.524 438.483 343.47 438.556 344.441C438.628 345.411 438.508 346.386 438.204 347.31C437.899 348.234 437.416 349.089 436.781 349.826C436.146 350.563 435.372 351.168 434.503 351.606V351.612Z" fill="#14BC1F"/>
<path d="M427.5 380.831C424.211 383.265 410.263 384.364 410.263 384.364C410.263 384.364 415.399 371.351 418.688 368.917C419.47 368.339 420.359 367.92 421.303 367.685C422.247 367.449 423.228 367.402 424.191 367.546C425.153 367.69 426.077 368.023 426.911 368.524C427.745 369.025 428.472 369.686 429.051 370.468C429.63 371.25 430.048 372.139 430.284 373.083C430.519 374.027 430.566 375.009 430.422 375.971C430.278 376.933 429.946 377.858 429.444 378.692C428.943 379.526 428.282 380.253 427.5 380.831Z" fill="#14BC1F"/>
<path d="M404.59 323.041C407.523 325.893 421.203 328.845 421.203 328.845C421.203 328.845 417.852 315.258 414.919 312.412C414.231 311.694 413.405 311.122 412.491 310.729C411.577 310.337 410.594 310.133 409.599 310.129C408.604 310.125 407.619 310.321 406.702 310.706C405.785 311.091 404.955 311.657 404.261 312.369C403.567 313.082 403.024 313.927 402.664 314.854C402.304 315.781 402.134 316.771 402.165 317.765C402.195 318.759 402.426 319.737 402.843 320.64C403.259 321.543 403.853 322.353 404.59 323.022V323.041Z" fill="#14BC1F"/>
<path d="M396.834 357.313C400.485 359.186 414.421 357.881 414.421 357.881C414.421 357.881 407.157 345.924 403.531 344.083C402.662 343.644 401.715 343.382 400.745 343.31C399.775 343.237 398.8 343.357 397.876 343.661C396.952 343.966 396.097 344.449 395.36 345.084C394.623 345.719 394.018 346.493 393.58 347.362C393.142 348.231 392.879 349.177 392.807 350.148C392.734 351.118 392.854 352.093 393.158 353.017C393.463 353.941 393.947 354.796 394.582 355.533C395.216 356.27 395.99 356.875 396.859 357.313H396.834Z" fill="#14BC1F"/>
<path d="M393.863 391.659C397.152 394.093 411.1 395.192 411.1 395.192C411.1 395.192 405.964 382.179 402.675 379.745C401.095 378.577 399.116 378.084 397.172 378.375C395.229 378.665 393.48 379.716 392.312 381.296C391.143 382.876 390.65 384.856 390.941 386.799C391.232 388.742 392.283 390.491 393.863 391.659Z" fill="#14BC1F"/>
<path opacity="0.5" d="M422.795 290.208C422.795 294.302 415.387 306.166 415.387 306.166C415.387 306.166 407.979 294.308 407.979 290.208C407.979 289.235 408.171 288.271 408.544 287.372C408.916 286.473 409.462 285.656 410.15 284.968C410.838 284.279 411.655 283.733 412.554 283.361C413.454 282.989 414.417 282.797 415.391 282.797C416.364 282.797 417.328 282.989 418.227 283.361C419.126 283.733 419.943 284.279 420.631 284.968C421.319 285.656 421.865 286.473 422.238 287.372C422.61 288.271 422.802 289.235 422.802 290.208H422.795Z" fill="white"/>
<path opacity="0.5" d="M435.039 312.874C432.817 316.307 420.148 322.236 420.148 322.236C420.148 322.236 420.379 308.25 422.601 304.811C423.13 303.994 423.815 303.29 424.616 302.738C425.417 302.186 426.32 301.797 427.271 301.593C428.223 301.39 429.205 301.376 430.162 301.552C431.119 301.728 432.032 302.091 432.849 302.62C433.665 303.149 434.37 303.834 434.922 304.636C435.474 305.437 435.863 306.339 436.066 307.291C436.27 308.242 436.284 309.224 436.107 310.181C435.931 311.138 435.568 312.051 435.039 312.868V312.874Z" fill="white"/>
<path opacity="0.5" d="M434.503 351.612C430.852 353.485 416.916 352.18 416.916 352.18C416.916 352.18 424.174 340.223 427.831 338.375C428.7 337.937 429.647 337.675 430.617 337.602C431.587 337.53 432.562 337.65 433.486 337.954C434.41 338.259 435.265 338.742 436.002 339.377C436.74 340.012 437.344 340.786 437.783 341.655C438.221 342.524 438.483 343.47 438.556 344.441C438.628 345.411 438.508 346.386 438.204 347.31C437.899 348.234 437.416 349.089 436.781 349.826C436.146 350.563 435.372 351.168 434.503 351.606V351.612Z" fill="white"/>
<path opacity="0.5" d="M427.5 380.831C424.211 383.265 410.263 384.364 410.263 384.364C410.263 384.364 415.399 371.351 418.688 368.917C419.47 368.339 420.359 367.92 421.303 367.685C422.247 367.449 423.228 367.402 424.191 367.546C425.153 367.69 426.077 368.023 426.911 368.524C427.745 369.025 428.472 369.686 429.051 370.468C429.63 371.25 430.048 372.139 430.284 373.083C430.519 374.027 430.566 375.009 430.422 375.971C430.278 376.933 429.946 377.858 429.444 378.692C428.943 379.526 428.282 380.253 427.5 380.831Z" fill="white"/>
<path opacity="0.5" d="M404.59 323.041C407.523 325.893 421.203 328.845 421.203 328.845C421.203 328.845 417.852 315.258 414.919 312.412C414.231 311.694 413.405 311.122 412.491 310.729C411.577 310.337 410.594 310.133 409.599 310.129C408.604 310.125 407.619 310.321 406.702 310.706C405.785 311.091 404.955 311.657 404.261 312.369C403.567 313.082 403.024 313.927 402.664 314.854C402.304 315.781 402.134 316.771 402.165 317.765C402.195 318.759 402.426 319.737 402.843 320.64C403.259 321.543 403.853 322.353 404.59 323.022V323.041Z" fill="white"/>
<path opacity="0.5" d="M396.834 357.313C400.485 359.186 414.421 357.881 414.421 357.881C414.421 357.881 407.157 345.924 403.531 344.083C402.662 343.644 401.715 343.382 400.745 343.31C399.775 343.237 398.8 343.357 397.876 343.661C396.952 343.966 396.097 344.449 395.36 345.084C394.623 345.719 394.018 346.493 393.58 347.362C393.142 348.231 392.879 349.177 392.807 350.148C392.734 351.118 392.854 352.093 393.158 353.017C393.463 353.941 393.947 354.796 394.582 355.533C395.216 356.27 395.99 356.875 396.859 357.313H396.834Z" fill="white"/>
<path opacity="0.5" d="M393.863 391.659C397.152 394.093 411.1 395.192 411.1 395.192C411.1 395.192 405.964 382.179 402.675 379.745C401.095 378.577 399.116 378.084 397.172 378.375C395.229 378.665 393.48 379.716 392.312 381.296C391.143 382.876 390.65 384.856 390.941 386.799C391.232 388.742 392.283 390.491 393.863 391.659Z" fill="white"/>
<path fill-rule="evenodd" clip-rule="evenodd" d="M421.486 216.468C446.82 216.468 467.357 195.931 467.357 170.597C467.357 145.264 446.82 124.727 421.486 124.727C396.152 124.727 375.615 145.264 375.615 170.597C375.615 195.931 396.152 216.468 421.486 216.468ZM427.176 144.04C424.52 143.653 422.121 145.402 421.82 147.947C421.518 150.492 423.426 152.87 426.082 153.257C428.738 153.644 431.137 151.895 431.438 149.35C431.74 146.805 429.831 144.427 427.176 144.04ZM429.815 160.688L420.246 159.301C419.553 159.2 419.056 158.582 419.135 157.919C419.214 157.256 419.839 156.801 420.532 156.902L430.101 158.289C430.794 158.39 431.293 159.008 431.214 159.67C431.135 160.333 430.508 160.789 429.815 160.688ZM407.879 168.506C406.955 168.372 406.29 167.548 406.396 166.664C406.501 165.78 407.337 165.172 408.261 165.306C409.185 165.44 409.849 166.266 409.743 167.149C409.638 168.034 408.804 168.64 407.879 168.506ZM394.68 167.487C394.855 165.396 396.065 163.629 397.572 162.289C397.989 161.919 397.789 161.714 397.532 161.452L397.532 161.452C397.439 161.356 397.338 161.253 397.257 161.131C397.187 161.027 397.125 160.903 397.064 160.778C396.884 160.413 396.706 160.053 396.322 160.241C392.229 162.25 389.838 166.612 391.071 171.395C392.193 175.747 396.238 178.036 400.148 177.972C403.026 177.922 405.15 177.946 406.451 180.864C406.908 181.889 407.528 183.283 408.108 184.587L408.114 184.6C408.632 185.763 409.117 186.853 409.425 187.545C409.701 188.161 409.891 188.318 410.414 188.394L416.101 189.218C416.533 189.281 416.681 188.988 416.849 188.469C417.515 186.405 419.657 185.079 421.997 185.419C424.365 185.762 426.136 187.692 426.261 189.907C426.295 190.526 426.431 190.716 426.878 190.781L432.499 191.596C432.895 191.653 433.142 191.689 433.552 191.17L444.229 177.697L444.251 177.666C444.843 178.784 446.049 179.397 446.992 179.514C447.21 179.541 447.314 179.319 447.15 179.119C446.389 178.19 445.915 176.963 446.01 175.398C446.05 174.735 446.219 174.12 446.418 173.392C447.761 168.516 445.96 163.018 441.438 159.644C439.481 158.184 437.258 157.303 435.001 156.977L416.108 154.238C413.851 153.909 411.497 154.126 409.264 154.978C403.902 157.026 400.851 162.125 401.273 167.439C401.438 169.499 401.14 171.863 399.113 172.446C396.866 173.092 394.343 171.548 394.68 167.487ZM399.729 152.782C401.044 152.821 402.134 153.838 402.164 155.105C402.195 156.481 401.223 159.041 398.809 160.196C398.654 160.271 398.56 160.185 398.644 159.949C398.856 159.358 398.862 158.624 398.653 157.882C398.478 157.26 398.215 156.86 397.974 156.495C397.69 156.064 397.439 155.681 397.403 155.038C397.333 153.773 398.386 152.742 399.729 152.782Z" fill="#14BC1F"/>
<defs>
<linearGradient id="paint0_linear" x1="433.413" y1="505.363" x2="433.413" y2="505.347" gradientUnits="userSpaceOnUse">
<stop stop-color="#808080" stop-opacity="0.25"/>
<stop offset="0.54" stop-color="#808080" stop-opacity="0.12"/>
<stop offset="1" stop-color="#808080" stop-opacity="0.1"/>
</linearGradient>
<linearGradient id="paint1_linear" x1="1834.56" y1="1146.65" x2="1834.56" y2="1145.12" gradientUnits="userSpaceOnUse">
<stop stop-color="#808080" stop-opacity="0.25"/>
<stop offset="0.54" stop-color="#808080" stop-opacity="0.12"/>
<stop offset="1" stop-color="#808080" stop-opacity="0.1"/>
</linearGradient>
</defs>
</svg>
