<svg viewBox="0 0 385 297" fill="none" xmlns="http://www.w3.org/2000/svg">
<path d="M318.989 207.032C310.771 235.143 288.414 265.726 257.635 277.198C226.856 288.671 187.599 281.135 149.683 271.776C111.767 262.417 75.1924 251.235 44.8357 225.139C14.6028 199.073 -9.47976 157.962 3.68263 119.211C16.845 80.4599 67.1844 43.9367 123.801 21.7223C180.383 -0.558191 243.208 -8.59592 276.124 11.5052C309.095 31.5038 312.034 79.6116 316.587 116.515C321.107 153.353 327.118 178.957 318.989 207.032Z" fill="#F2F9FD"/>
<path d="M125.281 132.484C125.281 140.999 123.253 149.392 119.366 156.968C115.478 164.545 109.842 171.086 102.925 176.052C101.036 177.415 99.0583 178.652 97.0058 179.754C85.7629 185.773 72.7471 187.6 60.2818 184.909C57.6279 184.34 55.0222 183.565 52.488 182.593C43.3561 179.102 35.3519 173.182 29.3402 165.473C23.3286 157.763 19.5382 148.558 18.3787 138.85C17.2191 129.143 18.7346 119.303 22.7612 110.395C26.7878 101.486 33.1725 93.8477 41.2252 88.3043C49.278 82.761 58.6926 79.5238 68.4516 78.9425C78.2105 78.3613 87.9428 80.4582 96.5966 85.0066C105.25 89.555 112.497 96.3819 117.552 104.75C122.608 113.117 125.28 122.707 125.281 132.484Z" fill="white"/>
<path d="M63.4434 126.095C63.4434 126.095 64.9853 133.419 64.9853 134.19C64.9853 134.961 72.3096 138.431 72.3096 138.431L78.8629 137.274L81.1759 130.336C81.1759 130.336 77.321 124.553 77.321 122.24L63.4434 126.095Z" fill="#FDB797"/>
<path d="M68.736 129.462C75.5488 129.462 81.0717 123.939 81.0717 117.127C81.0717 110.314 75.5488 104.791 68.736 104.791C61.9232 104.791 56.4004 110.314 56.4004 117.127C56.4004 123.939 61.9232 129.462 68.736 129.462Z" fill="#69280A" fill-opacity="0.05"/>
<path d="M68.2614 128.986C75.0742 128.986 80.5971 123.463 80.5971 116.65C80.5971 109.837 75.0742 104.314 68.2614 104.314C61.4486 104.314 55.9258 109.837 55.9258 116.65C55.9258 123.463 61.4486 128.986 68.2614 128.986Z" fill="#FDB797"/>
<path d="M71.6445 186.121C67.8245 186.123 64.0151 185.717 60.2813 184.91C60.0961 181.137 59.9727 176.979 59.9727 176.979L56.2135 166.071L48.4102 143.444L64.4772 131.179C64.4772 131.179 68.4548 137.658 74.2361 135.731C75.8439 135.243 77.2565 134.26 78.2725 132.922C79.2885 131.584 79.856 129.959 79.894 128.279L98.9086 134.962L95.624 161.614L95.4389 163.105L97.0053 179.756C89.2102 183.947 80.4951 186.135 71.6445 186.121Z" fill="#D7DEE6"/>
<path d="M57.5643 106.712C57.5643 106.712 61.4808 98.2258 68.9874 100.184C76.4941 102.142 80.737 105.08 81.0634 108.017C81.3897 110.954 80.9002 115.361 80.9002 115.361C80.9002 115.361 80.0843 109.323 74.8622 110.628C69.6402 111.934 61.4808 110.954 61.4808 110.954L60.1753 122.704C60.1753 122.704 58.7066 120.583 57.0747 121.888C55.4428 123.194 52.3422 109.323 57.5643 106.712Z" fill="#72351C"/>
<path d="M41.2998 176.712L43.7822 155.78C43.3978 147.682 48.4101 143.443 48.4101 143.443H54.1914L58.4301 157.707L56.2134 166.07L53.4225 176.593L52.6488 177.751C52.6488 177.751 53.4225 178.905 53.0333 179.294C52.6488 179.678 52.2643 181.221 52.2643 181.221C52.2643 181.221 52.345 181.772 52.4874 182.593C48.5376 181.084 44.7818 179.11 41.2998 176.712Z" fill="#D7DEE6"/>
<path d="M112.404 167.347C109.606 170.619 106.423 173.542 102.925 176.052C102.399 175.117 101.957 174.137 101.606 173.123L95.6252 161.613L91.5859 153.847L92.3549 133.803L98.9099 134.961C98.9099 134.961 102.764 138.815 104.307 143.443L107.392 157.317L112.4 167.342L112.404 167.347Z" fill="#D7DEE6"/>
<path d="M106.294 107.327C114.945 107.327 121.958 100.314 121.958 91.6636C121.958 83.0128 114.945 76 106.294 76C97.6437 76 90.6309 83.0128 90.6309 91.6636C90.6309 100.314 97.6437 107.327 106.294 107.327Z" fill="#14BC1F"/>
<path d="M106.921 83.8603C107.048 82.8922 107.945 82.2115 108.925 82.3403C109.904 82.4691 110.595 83.3586 110.467 84.3267C110.34 85.2948 109.443 85.9752 108.463 85.8465C107.484 85.7177 106.794 84.8284 106.921 83.8603Z" fill="white"/>
<path d="M109.925 88.4308L106.379 87.9644C106.122 87.9306 105.941 87.6974 105.975 87.4434C106.008 87.1896 106.243 87.0114 106.5 87.0452L110.046 87.5116C110.303 87.5454 110.485 87.7783 110.451 88.0321C110.418 88.2861 110.182 88.4646 109.925 88.4308ZM101.729 91.5672C101.387 91.5222 101.145 91.2117 101.189 90.8727C101.234 90.5342 101.548 90.296 101.89 90.3411C102.233 90.3861 102.474 90.6973 102.43 91.0359C102.385 91.3748 102.072 91.6123 101.729 91.5672ZM96.8322 91.2661C96.9098 90.4654 97.3701 89.7815 97.938 89.2591C98.1524 89.0622 97.9384 88.9906 97.8279 88.8185C97.7279 88.6637 97.6791 88.3842 97.4859 88.4844C95.9533 89.2799 95.0388 90.9638 95.4677 92.7845C95.858 94.4412 97.3468 95.2893 98.7995 95.2385C99.8691 95.2002 100.658 95.1949 101.124 96.3021C101.433 97.0397 101.954 98.2796 102.188 98.8367C102.286 99.0705 102.356 99.1292 102.55 99.1547C103.13 99.231 104.565 99.4197 104.657 99.4319C104.818 99.4529 104.874 99.3399 104.94 99.1404C105.2 98.3468 106.003 97.8254 106.871 97.9395C107.748 98.0549 108.394 98.7811 108.428 99.6271C108.436 99.8636 108.486 99.9354 108.651 99.9571C108.719 99.966 110.156 100.155 110.734 100.231C110.881 100.25 110.973 100.262 111.128 100.061C111.203 99.9648 115.176 94.8379 115.176 94.8379L115.185 94.8259C115.398 95.2495 115.842 95.4756 116.192 95.5143C116.273 95.5231 116.313 95.4373 116.253 95.3619C115.976 95.0118 115.807 94.5461 115.852 93.9469C115.871 93.6933 115.937 93.4566 116.016 93.1771C116.544 91.3035 115.908 89.2135 114.249 87.9534C113.531 87.4084 112.711 87.0863 111.874 86.977L104.873 86.0562C104.036 85.9454 103.161 86.0445 102.326 86.3852C100.322 87.2042 99.1572 89.1744 99.2817 91.2035C99.3304 91.9901 99.2052 92.8959 98.4488 93.1324C97.61 93.3945 96.6823 92.821 96.8322 91.2661Z" fill="white"/>
<path d="M99.5322 86.49C99.5289 86.0124 99.1352 85.6358 98.653 85.63C98.1607 85.624 97.768 86.0199 97.7861 86.4969C97.8032 86.9439 98.0954 87.0518 98.2274 87.5612C98.2995 87.8397 98.293 88.1166 98.2116 88.3411C98.1793 88.4305 98.2133 88.4625 98.2706 88.4331C99.1632 87.9813 99.5352 87.0091 99.5322 86.49Z" fill="white"/>
<path d="M214 215.551C214.002 223.832 211.667 231.945 207.264 238.958C202.86 245.97 196.568 251.598 189.109 255.195C189.105 255.195 189.105 255.195 189.101 255.199C187.764 255.844 186.394 256.42 184.997 256.923C184.775 257.009 184.55 257.087 184.32 257.161C183.853 257.328 183.378 257.48 182.899 257.624C181.914 257.928 180.914 258.197 179.901 258.43H179.897L179.87 258.438L179.807 258.45C179.675 258.481 179.539 258.512 179.402 258.539C178.647 258.707 177.884 258.851 177.113 258.971C174.763 259.357 172.385 259.55 170.004 259.548C168.726 259.548 167.457 259.493 166.207 259.384C166.14 259.381 166.072 259.375 166.005 259.365C162.578 259.055 159.199 258.345 155.936 257.25C155.454 257.087 154.971 256.916 154.496 256.733C146.982 253.904 140.386 249.073 135.421 242.763C130.456 236.453 127.313 228.906 126.331 220.938C125.348 212.969 126.565 204.884 129.849 197.558C133.133 190.231 138.359 183.943 144.96 179.374C151.562 174.805 159.288 172.13 167.302 171.638C175.315 171.145 183.311 172.855 190.422 176.581C197.534 180.308 203.49 185.909 207.646 192.778C211.802 199.647 213.999 207.523 214 215.551Z" fill="white"/>
<path d="M164.775 216.047C164.775 216.047 175.095 211.55 179.942 216.3C184.789 221.05 166.964 219.486 164.775 216.047Z" fill="#3F3D56"/>
<path d="M182.593 194.723C179.126 188.864 172.265 188.59 172.265 188.59C172.265 188.59 165.579 187.736 161.29 196.66C157.293 204.978 151.776 213.009 160.402 214.956L161.96 210.107L162.925 215.318C164.154 215.406 165.386 215.427 166.616 215.381C175.854 215.082 184.652 215.468 184.369 212.153C183.992 207.746 185.93 200.361 182.593 194.723Z" fill="#2F2E41"/>
<path d="M184.32 257.163C184.55 257.089 184.776 257.011 184.997 256.925L184.947 256.855L184.32 256.82L180.263 256.602H180.259L179.578 256.567L176.35 256.392L169.322 256.01L165.557 255.808L165.366 255.796H165.32L162.668 255.652L161.804 255.605L160.982 258.619C162.64 258.968 164.317 259.217 166.005 259.367C166.072 259.377 166.14 259.383 166.207 259.386C167.457 259.495 168.727 259.55 170.004 259.55C172.385 259.552 174.763 259.359 177.113 258.973C177.884 258.853 178.647 258.709 179.403 258.541C179.539 258.514 179.675 258.483 179.807 258.452L179.87 258.44L179.897 258.432H179.901C180.913 258.199 181.913 257.93 182.899 257.626L184.32 257.163Z" fill="#2F2E41"/>
<path d="M166.495 207.449C166.495 207.449 168.058 217.768 164.931 219.019C161.804 220.27 171.185 225.586 171.185 225.586H176.501L179.941 218.393C179.941 218.393 176.814 212.765 178.69 207.449C180.566 202.133 166.495 207.449 166.495 207.449Z" fill="#FDD4CE"/>
<path d="M184.32 257.165V220.581C184.32 220.581 183.923 216.824 180.773 217.801C180.451 217.904 180.138 218.035 179.838 218.191C179.317 218.473 178.819 218.797 178.351 219.16C178.172 219.297 177.989 219.444 177.798 219.604C177.783 219.616 177.767 219.631 177.751 219.643C171.81 224.646 168.999 221.208 168.372 220.581C168.142 220.356 167.543 219.713 166.869 218.989V218.985C166.577 218.674 166.273 218.346 165.985 218.027C165.094 217.066 164.307 216.205 164.307 216.205L161.181 218.705L161.944 237.658L162.123 242.128V242.132L162.181 243.522V243.53L162.668 255.654L162.742 257.484C163.8 257.82 164.875 258.104 165.962 258.333C166.281 258.399 166.62 258.465 166.966 258.527C169.676 259.018 173.087 259.271 175.252 258.107C175.689 257.872 176.148 257.681 176.622 257.534C177.564 257.252 178.544 257.116 179.527 257.133C179.737 257.137 179.943 257.145 180.15 257.157H180.154C181.082 257.223 182.001 257.38 182.899 257.628L184.32 257.165Z" fill="#3F3D56"/>
<path d="M169.321 256.01C168.614 256.918 167.825 257.759 166.966 258.525C166.701 258.766 166.436 259 166.168 259.23C166.113 259.276 166.059 259.319 166.004 259.366C162.577 259.056 159.198 258.346 155.936 257.252C155.453 257.088 154.97 256.917 154.495 256.734C154.796 255.973 155.031 255.187 155.2 254.386C157.353 244.294 151.092 228.977 150.547 226.52C150.348 225.637 151.08 224.41 152.252 223.106C154.81 220.267 159.463 217.059 161.18 216.203C162.482 215.62 163.94 215.486 165.327 215.821H165.331C165.765 215.91 166.192 216.038 166.604 216.203V216.207C166.608 216.265 166.651 216.709 166.724 217.468C166.763 217.885 166.81 218.391 166.869 218.983V218.986C166.974 220.092 167.106 221.471 167.262 223.044V223.047C168.2 232.738 169.898 249.605 170.56 252.474C170.805 253.537 170.26 254.768 169.321 256.01Z" fill="#D7DEE6"/>
<path d="M184.319 257.165C184.549 257.091 184.775 257.013 184.997 256.927C186.394 256.424 187.763 255.848 189.101 255.202C187.099 249.354 193.014 230.763 194.707 225.008V225C194.906 224.327 195.046 223.829 195.108 223.552C195.735 220.737 186.196 218.082 185.885 217.455C185.643 216.98 181.769 216.501 179.943 216.302C179.379 216.24 179.009 216.205 179.009 216.205C178.526 216.579 178.156 217.653 177.868 219.215C177.841 219.339 177.817 219.472 177.798 219.604C177.591 220.811 177.432 222.271 177.303 223.91C176.595 232.85 176.836 246.975 176.19 252.792C176.059 253.994 176.113 255.208 176.349 256.394C176.42 256.778 176.511 257.159 176.622 257.534C176.758 258.024 176.922 258.505 177.112 258.975C177.883 258.854 178.647 258.71 179.402 258.543C179.538 258.516 179.674 258.484 179.807 258.453L179.869 258.442L179.896 258.434H179.9C180.913 258.2 181.912 257.932 182.898 257.628L184.319 257.165Z" fill="#D7DEE6"/>
<path d="M181.974 204.476C182.319 204.476 182.599 203.916 182.599 203.225C182.599 202.535 182.319 201.975 181.974 201.975C181.629 201.975 181.349 202.535 181.349 203.225C181.349 203.916 181.629 204.476 181.974 204.476Z" fill="#F5CBC5"/>
<path d="M163.525 204.476C163.87 204.476 164.15 203.916 164.15 203.225C164.15 202.535 163.87 201.975 163.525 201.975C163.179 201.975 162.899 202.535 162.899 203.225C162.899 203.916 163.179 204.476 163.525 204.476Z" fill="#F5CBC5"/>
<path d="M184.319 257.162C184.549 257.088 184.775 257.01 184.997 256.925C186.394 256.421 187.764 255.846 189.101 255.2C189.1 255.202 189.101 255.204 189.101 255.206C189.102 255.208 189.103 255.21 189.105 255.212C189.104 255.206 189.105 255.201 189.108 255.196C191.445 242.862 193.921 229.666 194.707 225.006V224.998C194.844 224.188 194.929 223.639 194.953 223.394C195.264 220.268 187.446 220.268 187.446 220.268L186.2 226.563L184.319 236.075L183.673 239.342L180.259 256.602L180.15 257.155L179.896 258.432H179.9C180.913 258.198 181.912 257.929 182.898 257.626L184.319 257.162Z" fill="#D7DEE6"/>
<path d="M166.005 259.367C162.578 259.057 159.199 258.348 155.936 257.253C155.691 256.307 155.446 255.349 155.2 254.387C152.16 242.454 149.298 229.827 149.298 227.46C149.298 225.502 150.664 224.088 152.253 223.107C153.765 222.224 155.406 221.583 157.116 221.207C157.116 221.207 158.113 225.354 159.546 231.334C160.313 234.527 161.2 238.241 162.123 242.127V242.131C163.198 246.639 164.323 251.374 165.366 255.797C165.534 256.513 165.7 257.219 165.865 257.915V257.93C165.867 257.935 165.868 257.941 165.869 257.946C165.9 258.074 165.931 258.203 165.962 258.331C166.032 258.635 166.102 258.935 166.168 259.231C166.184 259.281 166.196 259.332 166.207 259.387C166.139 259.384 166.072 259.377 166.005 259.367Z" fill="#D7DEE6"/>
<path opacity="0.2" d="M158.835 230.432L165.871 257.947C165.871 257.947 162.587 233.871 158.835 230.432Z" fill="black"/>
<path opacity="0.2" d="M177.113 258.973L179.403 258.529V258.541C178.647 258.708 177.884 258.852 177.113 258.973Z" fill="black"/>
<path opacity="0.2" d="M186.2 226.564L184.32 236.076L183.674 239.343L180.263 256.603H180.259L180.154 257.156H180.15L179.901 258.433H179.897L179.87 258.44L179.807 258.452L179.402 258.53C179.437 258.094 179.48 257.627 179.527 257.132C179.543 256.949 179.558 256.762 179.578 256.568C180.31 248.613 181.871 234.873 184.32 229.119C184.896 227.764 185.523 226.853 186.2 226.564Z" fill="black"/>
<path d="M172.75 213.231C177.758 213.231 181.819 209.171 181.819 204.162C181.819 199.154 177.758 195.094 172.75 195.094C167.742 195.094 163.682 199.154 163.682 204.162C163.682 209.171 167.742 213.231 172.75 213.231Z" fill="#510F06" fill-opacity="0.05"/>
<path d="M172.75 212.449C177.758 212.449 181.819 208.389 181.819 203.381C181.819 198.373 177.758 194.312 172.75 194.312C167.742 194.312 163.682 198.373 163.682 203.381C163.682 208.389 167.742 212.449 172.75 212.449Z" fill="#FDD4CE"/>
<path d="M181.06 194.156L174.282 190.605L164.922 192.058L162.985 200.611L167.806 200.426L169.153 197.284V200.374L171.377 200.289L172.668 195.285L173.476 200.611L181.383 200.45L181.06 194.156Z" fill="#2F2E41"/>
<path d="M200.372 195.697C207.468 195.697 213.22 189.945 213.22 182.849C213.22 175.752 207.468 170 200.372 170C193.276 170 187.523 175.752 187.523 182.849C187.523 189.945 193.276 195.697 200.372 195.697Z" fill="#14BC1F"/>
<path d="M202.326 179.576L199.485 180.312C199.28 180.365 199.07 180.243 199.018 180.04C198.965 179.837 199.089 179.629 199.295 179.576L202.135 178.84C202.341 178.787 202.55 178.908 202.603 179.112C202.656 179.315 202.531 179.523 202.326 179.576ZM197.057 184.481C196.782 184.552 196.503 184.39 196.433 184.119C196.362 183.848 196.528 183.57 196.802 183.499C197.077 183.428 197.356 183.591 197.426 183.862C197.497 184.133 197.331 184.41 197.057 184.481ZM193.24 185.758C193.053 185.125 193.193 184.463 193.464 183.891C193.567 183.676 193.382 183.687 193.245 183.59C193.121 183.503 192.998 183.306 192.882 183.441C191.961 184.517 191.783 186.079 192.669 187.332C193.475 188.472 194.868 188.659 195.957 188.174C196.759 187.816 197.357 187.569 198.052 188.268C198.514 188.734 199.291 189.517 199.64 189.869C199.787 190.016 199.858 190.039 200.013 189.999C200.478 189.879 201.627 189.581 201.701 189.562C201.83 189.529 201.838 189.425 201.827 189.254C201.78 188.57 202.231 187.927 202.926 187.747C203.629 187.565 204.343 187.918 204.629 188.552C204.708 188.729 204.767 188.768 204.9 188.734C204.954 188.72 206.105 188.422 206.569 188.302C206.686 188.271 206.759 188.252 206.816 188.052C206.843 187.955 208.289 182.835 208.289 182.835L208.292 182.823C208.584 183.08 208.991 183.115 209.269 183.037C209.333 183.019 209.337 182.941 209.269 182.902C208.95 182.721 208.679 182.419 208.529 181.949C208.465 181.751 208.443 181.55 208.416 181.314C208.242 179.726 207.116 178.332 205.467 177.884C204.754 177.69 204.031 177.698 203.361 177.872L197.753 179.324C197.083 179.497 196.448 179.841 195.918 180.357C194.645 181.596 194.365 183.452 195.084 184.957C195.363 185.54 195.546 186.268 195.043 186.68C194.486 187.137 193.604 186.986 193.24 185.758Z" fill="white"/>
<path d="M330.174 34.9746H330.174C318.567 34.9746 309.158 45.4166 309.158 58.2974V74.6627H314.191L317.105 68.5992L316.377 74.6627H348.728L351.377 69.1504L350.715 74.6627H354.357V61.813C354.357 46.9906 343.53 34.9746 330.174 34.9746Z" fill="#2F2E41"/>
<path d="M320.029 64.3881C320.029 64.3881 326.589 79.6935 317.843 82.7546L326.589 111.616L341.457 110.742L345.393 101.121L344.518 86.6902L343.206 77.0697C343.206 77.0697 334.023 79.2562 334.897 63.0762L320.029 64.3881Z" fill="#FDB797"/>
<path d="M316.531 82.3181C316.531 82.3181 302.1 81.0062 303.412 91.5014C304.724 101.996 306.036 104.183 306.036 104.183L307.348 119.926L299.477 124.736H292.043C292.043 124.736 269.303 129.984 280.673 135.668C292.043 141.353 295.978 131.295 295.978 131.295C295.978 131.295 316.968 131.295 318.28 127.797C319.592 124.299 316.531 82.3181 316.531 82.3181Z" fill="#FDB797"/>
<path d="M344.519 77.946C344.519 77.946 358.075 73.1357 358.949 83.6308C359.824 94.126 359.824 95.0006 359.824 95.0006L362.448 109.869C362.448 109.869 367.695 122.988 367.695 126.923C367.695 130.859 371.631 143.103 371.631 143.103C371.631 143.103 376.879 160.158 371.194 159.721C365.509 159.283 364.634 141.354 364.634 141.354L352.827 117.74L349.329 103.309L344.519 77.946Z" fill="#FDB797"/>
<path d="M318.717 80.5681H315.218L314.781 98.9346C314.781 98.9346 309.096 106.806 316.093 113.803L317.842 125.172L349.765 123.861L351.951 112.054C351.951 112.054 356.324 102.433 350.202 93.687L344.517 75.7578H341.456C341.456 75.7578 348.546 101.899 333.585 102.433C321.341 102.87 318.717 80.5681 318.717 80.5681Z" fill="#14BC1F"/>
<path d="M319.592 122.986L316.968 131.732C316.968 131.732 262.306 285.661 278.923 289.596C295.541 293.532 318.718 298.78 320.904 294.844C323.091 290.908 334.46 175.899 334.46 175.899C334.46 175.899 332.711 296.156 338.396 296.156C344.081 296.156 381.688 297.03 383.875 291.346C386.061 285.661 364.197 133.481 351.515 129.983L348.017 122.111L319.592 122.986Z" fill="#626673"/>
<path d="M351.077 118.615L316.531 119.927C316.531 119.927 314.954 131.734 316.531 131.734C316.968 131.734 352.827 134.795 352.389 129.548C351.952 124.3 351.077 118.615 351.077 118.615Z" fill="#3D414D"/>
<path opacity="0.2" d="M326.787 70.2714C333.573 70.2714 339.074 64.7703 339.074 57.9843C339.074 51.1984 333.573 45.6973 326.787 45.6973C320.001 45.6973 314.5 51.1984 314.5 57.9843C314.5 64.7703 320.001 70.2714 326.787 70.2714Z" fill="#795240"/>
<path d="M326.787 69.3964C333.573 69.3964 339.074 63.8953 339.074 57.1093C339.074 50.3234 333.573 44.8223 326.787 44.8223C320.001 44.8223 314.5 50.3234 314.5 57.1093C314.5 63.8953 320.001 69.3964 326.787 69.3964Z" fill="#FDB797"/>
<path d="M336.148 41.3988C335.137 40.0408 333.826 38.934 332.318 38.1644C330.81 37.3948 329.145 36.983 327.452 36.9609H327.039C319.084 36.9609 312.635 44.1595 312.635 53.0394V53.0394H315.3L315.731 49.7627L316.362 53.0394H332.171L333.496 50.2673L333.165 53.0394H336.275C337.726 60.247 335.641 67.4546 330.019 74.6622H335.317L337.966 69.1179L337.304 74.6622H347.403L349.39 61.9103C349.39 52.3602 343.841 44.262 336.148 41.3988Z" fill="#2F2E41"/>
<path d="M339.052 42.7427C343.399 42.7427 346.923 39.2186 346.923 34.8714C346.923 30.5241 343.399 27 339.052 27C334.705 27 331.181 30.5241 331.181 34.8714C331.181 39.2186 334.705 42.7427 339.052 42.7427Z" fill="#2F2E41"/>
<path d="M275.725 68.426C275.741 67.5266 276.493 66.811 277.402 66.8279C278.312 66.8449 279.036 67.588 279.019 68.4875C279.003 69.3869 278.251 70.1024 277.342 70.0854C276.432 70.0684 275.708 69.3255 275.725 68.426Z" fill="white"/>
<path d="M257.428 88.1359C257.432 95.8848 255.44 103.504 251.643 110.259C247.846 117.014 242.373 122.677 235.751 126.701C234.952 127.189 234.137 127.648 233.307 128.087C232.068 128.742 230.794 129.341 229.492 129.873V129.877C229.077 130.048 228.661 130.212 228.242 130.368C228.046 130.444 227.846 130.52 227.647 130.592C222.722 132.367 217.527 133.273 212.292 133.272C208.855 133.274 205.428 132.886 202.079 132.114C200.339 131.711 198.625 131.204 196.946 130.596H196.942C194.811 129.824 192.741 128.892 190.751 127.808C190.232 127.528 189.72 127.236 189.217 126.933C188.866 126.725 188.522 126.513 188.179 126.298C181.545 122.106 176.119 116.258 172.435 109.329C168.751 102.401 166.937 94.6315 167.172 86.788C167.406 78.9445 169.682 71.2977 173.773 64.6019C177.865 57.9062 183.632 52.3927 190.504 48.6054C197.377 44.8181 205.118 42.8879 212.964 43.005C220.81 43.1222 228.49 45.2828 235.246 49.2736C242.003 53.2644 247.602 58.9476 251.492 65.7626C255.382 72.5776 257.428 80.2889 257.428 88.1359Z" fill="white"/>
<path d="M207.089 81.5469C207.089 81.5469 207.357 88.4937 205.753 90.0968C204.15 91.6999 213.769 97.3108 213.769 97.3108L219.38 88.4937C219.38 88.4937 217.242 84.7531 217.777 81.5469L207.089 81.5469Z" fill="#D8B3B8"/>
<path d="M211.765 86.2627C217.077 86.2627 221.384 81.9563 221.384 76.6441C221.384 71.3318 217.077 67.0254 211.765 67.0254C206.453 67.0254 202.146 71.3318 202.146 76.6441C202.146 81.9563 206.453 86.2627 211.765 86.2627Z" fill="#43030C" fill-opacity="0.05"/>
<path d="M211.765 85.4209C217.077 85.4209 221.384 81.1145 221.384 75.8023C221.384 70.49 217.077 66.1836 211.765 66.1836C206.453 66.1836 202.146 70.49 202.146 75.8023C202.146 81.1145 206.453 85.4209 211.765 85.4209Z" fill="#D8B3B8"/>
<path d="M228.066 128.139C228.126 128.882 228.184 129.625 228.242 130.367C228.046 130.443 227.846 130.519 227.647 130.591C222.722 132.366 217.527 133.273 212.292 133.271C208.855 133.274 205.428 132.885 202.079 132.113C200.339 131.71 198.625 131.203 196.946 130.595L196.942 130.631C196.938 130.619 196.938 130.607 196.942 130.595C197.003 129.78 197.156 128.975 197.397 128.195V128.191C197.621 127.368 197.925 126.417 198.272 125.367C198.648 124.244 198.672 121.792 198.592 119.487C198.584 119.311 198.58 119.131 198.572 118.96C198.54 118.213 198.5 117.498 198.46 116.863C198.368 115.429 198.272 114.41 198.272 114.41L192.393 98.6445L206.592 88.2752C207.431 90.9953 209.229 90.8995 209.229 90.8995C216.85 91.4227 218.252 86.1582 218.296 85.9864V85.9824L231.936 94.9058L226.328 108.53C226.328 108.53 226.556 110.839 226.88 114.362C226.928 114.881 226.976 115.429 227.031 116C227.343 119.459 227.722 123.769 228.066 128.139Z" fill="#D7DEE6"/>
<path d="M198.939 116.947L198.659 118.977L198.591 119.488L197.405 128.155L197.397 128.191V128.195L196.946 130.596L196.942 130.632C196.938 130.62 196.938 130.608 196.942 130.596C194.811 129.824 192.741 128.892 190.751 127.808C190.231 127.528 189.72 127.237 189.217 126.933C189.549 125.899 189.941 124.886 190.391 123.898L191.206 117.555L191.458 115.613L198.46 116.864L198.939 116.947Z" fill="#D8B3B8"/>
<path d="M196.267 98.2441L192.393 98.6449C192.393 98.6449 189.855 117.481 190.657 117.481C191.458 117.481 200.542 119.619 200.81 119.085C201.077 118.55 196.267 98.2441 196.267 98.2441Z" fill="#D7DEE6"/>
<path d="M204.343 65.9409L202.609 65.3104C202.609 65.3104 206.235 61.6849 211.279 62.0002L209.86 60.5815C209.86 60.5815 213.328 59.3205 216.48 62.6307C218.138 64.3708 220.055 66.4162 221.251 68.7203H223.107L222.332 70.2703L225.045 71.8203L222.261 71.5419C222.525 72.8801 222.434 74.264 221.997 75.5563L221.367 77.2902C221.367 77.2902 218.845 72.2461 218.845 71.6155V73.1918C218.845 73.1918 217.111 71.7732 217.111 70.8274L216.165 71.9308L215.692 70.1969L209.86 71.9308L210.806 70.5121L207.18 70.985L208.599 69.2511C208.599 69.2511 204.501 71.3003 204.343 73.0342C204.185 74.7681 202.136 76.9749 202.136 76.9749L201.191 75.3986C201.191 75.3986 199.772 68.3053 204.343 65.9409Z" fill="#2F2E41"/>
<path d="M235.751 126.7C234.952 127.187 234.137 127.647 233.306 128.086C232.068 128.741 230.794 129.34 229.492 129.871V129.875C229.076 130.047 228.661 130.211 228.242 130.367C228.046 130.443 227.846 130.519 227.646 130.59L228.066 128.138L226.164 116.055L225.925 114.541L226.879 114.361L235.811 112.672V123.628C235.811 123.628 235.835 124.815 235.751 126.7Z" fill="#D8B3B8"/>
<path d="M226.727 94.2383L231.937 94.9062C231.937 94.9062 238.216 114.01 236.613 114.812C235.01 115.613 224.59 116.147 224.59 116.147L226.727 94.2383Z" fill="#D7DEE6"/>
<path d="M245.046 69.3626C252.325 69.3626 258.227 63.4611 258.227 56.1813C258.227 48.9015 252.325 43 245.046 43C237.766 43 231.864 48.9015 231.864 56.1813C231.864 63.4611 237.766 69.3626 245.046 69.3626Z" fill="#14BC1F"/>
<path d="M248.063 52.8205L245.054 52.7644C244.836 52.7603 244.663 52.5823 244.667 52.3667C244.671 52.1513 244.85 51.9802 245.069 51.9843L248.078 52.0404C248.296 52.0445 248.47 52.2222 248.466 52.4376C248.462 52.6531 248.281 52.8246 248.063 52.8205ZM241.505 56.215C241.214 56.2096 240.983 55.9727 240.988 55.685C240.993 55.3977 241.234 55.169 241.524 55.1745C241.815 55.1799 242.046 55.4174 242.041 55.7047C242.035 55.9923 241.795 56.2204 241.505 56.215ZM237.381 56.4243C237.371 55.7474 237.691 55.1321 238.117 54.6418C238.278 54.4569 238.092 54.4173 237.984 54.2837C237.885 54.1636 237.818 53.9346 237.666 54.0365C236.459 54.8461 235.853 56.3403 236.383 57.8225C236.866 59.1711 238.191 59.7402 239.401 59.5609C240.291 59.4282 240.95 59.3495 241.444 60.2315C241.772 60.8191 242.325 61.807 242.573 62.2509C242.677 62.4371 242.741 62.4796 242.905 62.4827C243.398 62.4919 244.615 62.5146 244.694 62.516C244.83 62.5186 244.867 62.4186 244.903 62.2457C245.046 61.5575 245.668 61.0459 246.404 61.0596C247.149 61.0735 247.758 61.62 247.865 62.3243C247.895 62.5213 247.943 62.5766 248.083 62.5792C248.141 62.5803 249.36 62.6031 249.851 62.6122C249.976 62.6145 250.053 62.616 250.164 62.4332C250.218 62.3454 253.058 57.6839 253.058 57.6839L253.064 57.6731C253.282 58.0072 253.675 58.1546 253.971 58.154C254.039 58.1537 254.064 58.0782 254.007 58.0208C253.743 57.7541 253.558 57.3805 253.539 56.8752C253.531 56.6614 253.564 56.4572 253.603 56.2161C253.869 54.5995 253.14 52.9117 251.635 52.0141C250.983 51.626 250.266 51.4339 249.556 51.4213L243.615 51.3104C242.905 51.2966 242.182 51.4619 241.516 51.8254C239.917 52.699 239.129 54.4562 239.424 56.1413C239.539 56.7945 239.519 57.5638 238.909 57.8327C238.232 58.1309 237.402 57.7386 237.381 56.4243Z" fill="white"/>
<path d="M239.188 52.1806C239.141 51.7815 238.776 51.5037 238.372 51.5442C237.96 51.5855 237.669 51.9536 237.729 52.3507C237.785 52.7229 238.04 52.7857 238.198 53.1992C238.284 53.4253 238.305 53.6575 238.258 53.8529C238.24 53.9307 238.271 53.9542 238.316 53.9243C239.02 53.4624 239.24 52.6144 239.188 52.1806Z" fill="white"/>
<path d="M28.4049 286.05C28.296 285.872 25.7276 281.583 24.8371 272.678C24.0204 264.508 24.5456 250.736 31.6876 231.526C45.2181 195.134 28.5695 165.771 28.3993 165.478L29.2207 165.002C29.2638 165.076 33.5598 172.563 36.0976 184.484C39.4509 200.288 38.2299 216.722 32.5776 231.857C19.0704 268.187 29.1123 285.386 29.2152 285.555L28.4049 286.05Z" fill="#099616"/>
<path d="M23.1139 163.341C26.5217 163.341 29.2844 160.578 29.2844 157.171C29.2844 153.763 26.5217 151 23.1139 151C19.706 151 16.9434 153.763 16.9434 157.171C16.9434 160.578 19.706 163.341 23.1139 163.341Z" fill="#14BC1F"/>
<path d="M42.5748 186.126C45.9827 186.126 48.7453 183.364 48.7453 179.956C48.7453 176.548 45.9827 173.785 42.5748 173.785C39.1669 173.785 36.4043 176.548 36.4043 179.956C36.4043 183.364 39.1669 186.126 42.5748 186.126Z" fill="#099616"/>
<path d="M29.2848 201.314C32.6926 201.314 35.4553 198.551 35.4553 195.143C35.4553 191.735 32.6926 188.973 29.2848 188.973C25.8769 188.973 23.1143 191.735 23.1143 195.143C23.1143 198.551 25.8769 201.314 29.2848 201.314Z" fill="#14BC1F"/>
<path d="M45.4234 214.13C48.8313 214.13 51.5939 211.367 51.5939 207.96C51.5939 204.552 48.8313 201.789 45.4234 201.789C42.0156 201.789 39.2529 204.552 39.2529 207.96C39.2529 211.367 42.0156 214.13 45.4234 214.13Z" fill="#14BC1F"/>
<path d="M24.5377 234.066C27.9456 234.066 30.7082 231.303 30.7082 227.895C30.7082 224.487 27.9456 221.725 24.5377 221.725C21.1298 221.725 18.3672 224.487 18.3672 227.895C18.3672 231.303 21.1298 234.066 24.5377 234.066Z" fill="#099616"/>
<path d="M32.1318 286.278C32.1318 286.278 25.9613 271.089 44.4728 259.697L32.1318 286.278Z" fill="#099616"/>
<path d="M24.5437 286.001C24.5437 286.001 21.7354 269.849 0 269.987L24.5437 286.001Z" fill="#099616"/>
</svg>
