<svg viewBox="0 0 435 333" fill="none" xmlns="http://www.w3.org/2000/svg">
<path d="M110.862 27.7955C77.208 48.1548 55.2392 87.1407 48.4616 127.787C41.7619 168.506 50.3313 210.885 72.4559 245.684C94.5805 280.41 130.26 307.628 168.511 314.631C206.839 321.634 247.661 308.494 292.767 297.232C337.873 285.969 387.264 276.439 413.05 248.066C438.758 219.693 440.784 172.404 422.71 137.245C404.637 102.085 366.386 79.127 331.719 58.912C297.052 38.6971 266.046 21.2978 227.873 13.4284C189.701 5.63123 144.517 7.36393 110.862 27.7955Z" fill="#F2F9FD"/>
<path d="M328.359 212.981L330.186 218.211L328.783 226.995C328.783 226.995 326.664 234.002 326.876 237.399C327.088 240.797 326.876 245.468 326.876 245.468C326.876 245.468 321.789 254.81 326.028 258.632C327.012 259.52 327.836 259.342 328.522 258.546C329.211 258.93 329.921 259.277 330.648 259.584L327.088 273.496L323.697 280.29C323.697 280.29 316.491 286.448 313.736 299.4C313.736 299.4 310.987 308.029 309.237 310.605C309.157 310.726 309.07 310.842 308.977 310.952C308.702 310.513 308.452 310.059 308.226 309.592L305.047 318.085C305.047 318.085 311.405 321.695 315.855 323.181C320.306 324.668 325.392 322.969 326.876 321.058C328.359 319.147 323.909 317.024 320.73 315.75C319.187 315.132 318.345 313.665 317.885 312.317C317.843 311.901 317.81 311.434 317.796 310.93C317.729 308.52 318.097 305.267 320.094 302.797C323.697 298.338 329.207 287.297 329.207 287.297C329.207 287.297 334.717 281.352 335.989 279.016L343.619 266.193C347.853 271.022 352.095 282.414 352.095 282.414L353.791 292.818C353.791 292.818 359.301 307.681 360.997 309.167C361.044 309.209 361.091 309.255 361.138 309.304C361.152 309.319 361.166 309.335 361.18 309.351C361.214 309.388 361.248 309.428 361.282 309.469C361.296 309.486 361.31 309.502 361.323 309.52C361.368 309.576 361.412 309.635 361.456 309.697C361.466 309.712 361.476 309.728 361.487 309.744C361.521 309.794 361.555 309.845 361.589 309.899C361.605 309.924 361.621 309.949 361.637 309.975C361.667 310.025 361.697 310.076 361.727 310.128C361.741 310.152 361.755 310.176 361.769 310.2C361.809 310.273 361.849 310.347 361.889 310.424C361.903 310.451 361.917 310.48 361.931 310.507C361.959 310.563 361.987 310.619 362.015 310.676C362.031 310.709 362.046 310.742 362.062 310.775C362.091 310.836 362.119 310.898 362.148 310.961C362.159 310.987 362.171 311.013 362.183 311.039C362.22 311.124 362.258 311.211 362.294 311.299C362.308 311.332 362.322 311.366 362.336 311.4C362.361 311.462 362.387 311.525 362.412 311.588C362.425 311.622 362.439 311.657 362.453 311.692C362.484 311.773 362.516 311.855 362.546 311.937C362.554 311.958 362.562 311.978 362.569 311.999C362.602 312.088 362.635 312.178 362.667 312.268C362.679 312.302 362.69 312.336 362.702 312.37C362.727 312.441 362.752 312.512 362.776 312.584C362.786 312.614 362.797 312.644 362.807 312.674C362.84 312.774 362.873 312.873 362.905 312.973C362.91 312.986 362.914 313 362.918 313.014C362.947 313.102 362.974 313.191 363.002 313.279C363.011 313.308 363.02 313.338 363.029 313.368C363.054 313.448 363.079 313.529 363.103 313.609C363.109 313.629 363.115 313.65 363.121 313.671C363.151 313.771 363.18 313.871 363.209 313.969C363.214 313.99 363.22 314.01 363.226 314.03C363.248 314.109 363.271 314.188 363.292 314.265C363.3 314.294 363.308 314.323 363.316 314.351C363.337 314.427 363.358 314.502 363.377 314.575C363.383 314.597 363.389 314.619 363.395 314.64C363.418 314.727 363.441 314.812 363.463 314.895C363.474 314.937 363.484 314.978 363.495 315.019C363.506 315.06 363.516 315.101 363.527 315.142C363.54 315.193 363.552 315.244 363.565 315.293L363.575 315.334C363.624 315.529 363.669 315.714 363.709 315.883C363.727 315.958 363.744 316.027 363.76 316.096C363.767 316.13 363.775 316.164 363.783 316.196L363.789 316.223C363.478 316.016 363.182 315.787 362.904 315.537C363.027 316.95 363.027 318.371 362.904 319.784C362.692 321.907 364.811 324.88 364.811 324.88C364.811 324.88 383.885 320.209 384.945 317.024C386.004 313.839 381.554 314.263 380.282 314.688C379.011 315.113 372.653 313.839 371.805 312.352C371.645 312.078 371.454 311.823 371.235 311.593C371.053 311.392 370.808 311.259 370.542 311.215C370.275 311.17 370.001 311.218 369.764 311.349C369.748 311.331 369.733 311.314 369.717 311.295C369.698 311.274 369.679 311.251 369.661 311.228C369.648 311.213 369.636 311.197 369.623 311.181C369.601 311.152 369.578 311.123 369.555 311.092L369.55 311.084C369.504 311.021 369.457 310.952 369.41 310.88C369.393 310.855 369.376 310.829 369.359 310.802C369.274 310.668 369.189 310.522 369.102 310.365L369.086 310.335C367.734 307.85 366.28 302.78 365.943 301.573L365.936 301.547C365.925 301.509 365.916 301.476 365.908 301.448L365.898 301.411L365.891 301.384L365.877 301.335L365.874 301.323L365.871 301.311L360.997 285.386C362.48 279.653 360.997 276.893 360.997 276.893L358.242 263.941L356.686 258.076C356.735 258.025 356.758 257.995 356.758 257.995C355.491 254.426 354.497 246.859 353.878 241.009C353.838 240.629 353.799 240.258 353.762 239.895L358.453 242.071C358.453 242.071 364.811 251.838 368.838 247.166C372.865 242.495 360.785 238.461 360.785 238.461L353.172 233.376C353.161 233.232 353.155 233.153 353.155 233.153L352.307 226.783C352.307 226.783 349.976 219.139 351.036 214.043C351.938 209.702 348.997 208.135 348.105 207.765C347.965 207.711 347.821 207.668 347.674 207.637C346.512 207.361 345.218 206.17 344.116 204.893C343.166 203.797 342.053 202.856 340.816 202.103C341.531 201.625 342.029 200.882 342.202 200.035C342.378 199.056 342.045 198.083 341.745 197.121C342.177 196.057 342.679 195.024 343.246 194.026C343.258 194.025 343.269 194.025 343.28 194.023C343.369 193.872 343.455 193.729 343.538 193.593C345.774 193.332 347.837 192.255 349.337 190.564C350.836 188.874 351.667 186.688 351.672 184.422C351.673 182.864 351.28 181.331 350.529 179.968C351.479 179.637 352.39 179.217 352.046 178.235C351.814 177.571 351.195 177.139 350.712 176.628C349.435 175.277 349.046 173.247 347.71 171.954C347.324 171.585 346.877 171.287 346.39 171.073C345.032 170.299 343.296 170.2 341.728 170.489C339.787 170.847 337.978 171.708 336.083 172.261C334.416 172.747 332.673 172.999 331.077 173.682C328.351 174.849 326.255 177.222 324.997 179.91C323.885 182.286 323.369 184.916 322.153 187.24C320.937 189.564 318.705 191.656 316.088 191.566C315.412 191.543 314.71 191.378 314.077 191.616C313.581 191.834 313.17 192.212 312.908 192.69C311.471 195.045 312.395 198.218 311.253 200.731C310.403 202.6 308.571 203.78 307.07 205.178C305.569 206.577 304.277 208.666 304.986 210.593C305.188 211.078 305.484 211.517 305.857 211.885C306.229 212.253 306.671 212.542 307.157 212.735C307.652 213.011 308.186 213.209 308.741 213.321C310.165 213.612 311.635 213.437 313.084 213.334C317.004 213.056 321.29 213.205 324.402 210.801C325.684 209.81 326.67 208.445 327.696 207.156C327.709 209.116 327.931 211.069 328.359 212.981ZM334.003 226.334C334.32 226.863 334.644 227.389 334.98 227.908C338.095 232.724 333.869 239.31 333.869 239.31C332.906 240.105 332.078 241.053 331.417 242.116C331.473 240.089 331.708 237.775 332.386 236.125C333.441 233.557 333.853 228.843 334.003 226.334Z" fill="url(#paint0_linear)"/>
<path d="M330.816 217.102L329.16 227.471C329.16 227.471 327.09 234.315 327.297 237.633C327.504 240.951 327.297 245.514 327.297 245.514C327.297 245.514 322.329 254.639 326.469 258.372C330.609 262.105 331.851 246.551 331.851 246.551C331.851 246.551 331.23 239.914 332.679 236.389C334.128 232.863 334.335 225.19 334.335 225.19L330.816 217.102Z" fill="#FDB797"/>
<path opacity="0.05" d="M330.816 217.102L329.16 227.471C329.16 227.471 327.09 234.315 327.297 237.633C327.504 240.951 327.297 245.514 327.297 245.514C327.297 245.514 322.329 254.639 326.469 258.372C330.609 262.105 331.851 246.551 331.851 246.551C331.851 246.551 331.23 239.914 332.679 236.389C334.128 232.863 334.335 225.19 334.335 225.19L330.816 217.102Z" fill="black"/>
<path d="M355.068 252.758L357.932 263.555L360.623 276.206C360.623 276.206 362.072 278.902 360.623 284.501L365.384 300.055C365.384 300.055 368.075 310.01 369.731 310.217C371.387 310.425 368.075 318.098 368.075 318.098L363.521 315.402C363.521 315.402 362.279 309.18 360.623 307.729C358.967 306.277 353.585 291.76 353.585 291.76L351.929 281.598C351.929 281.598 346.754 267.703 342.2 264.385C337.646 261.067 336.197 255.674 336.197 255.674L355.068 252.758Z" fill="#FDB797"/>
<path opacity="0.05" d="M336.197 255.674C336.197 255.674 337.646 261.066 342.2 264.384C346.754 267.702 351.929 281.597 351.929 281.597L353.585 291.759C353.585 291.759 358.967 306.276 360.623 307.728C361.838 308.794 362.832 312.429 363.272 314.288C363.434 314.962 363.521 315.401 363.521 315.401L368.075 318.097C368.075 318.097 371.387 310.424 369.731 310.217C369.474 310.186 369.193 309.918 368.899 309.491C367.305 307.164 365.384 300.055 365.384 300.055L360.623 284.501C362.072 278.901 360.623 276.205 360.623 276.205L357.932 263.554L355.069 252.758L336.197 255.674Z" fill="black"/>
<path d="M309.702 309.597L311.358 313.537L318.81 312.708C318.58 311.637 318.453 310.547 318.429 309.452C318.363 307.098 318.723 303.921 320.673 301.509C324.192 297.154 329.574 286.369 329.574 286.369C329.574 286.369 334.956 280.563 336.198 278.281L346.56 260.867L346.237 259.305L349.032 256.713H331.644L327.504 272.889L324.192 279.526C324.192 279.526 317.154 285.54 314.463 298.19C314.463 298.19 311.778 306.619 310.069 309.134C309.962 309.3 309.839 309.455 309.702 309.597Z" fill="#FDB797"/>
<path opacity="0.1" d="M363.272 314.289C363.434 314.963 363.521 315.403 363.521 315.403L368.075 318.099C368.075 318.099 371.387 310.425 369.731 310.218C369.474 310.187 369.193 309.919 368.899 309.492C368.684 309.621 368.516 309.817 368.42 310.05C368.325 310.282 368.307 310.54 368.369 310.784C368.434 311.094 368.544 311.392 368.696 311.67C369.317 312.707 366.626 314.366 366.626 314.366C365.719 315.533 364.247 314.917 363.272 314.289Z" fill="black"/>
<path d="M368.575 311.203C368.516 310.944 368.544 310.672 368.654 310.431C368.763 310.189 368.949 309.99 369.181 309.865C369.414 309.74 369.681 309.696 369.942 309.739C370.202 309.781 370.441 309.909 370.623 310.102C370.836 310.327 371.023 310.576 371.179 310.844C372.007 312.296 378.217 313.54 379.459 313.125C380.701 312.711 385.048 312.296 384.013 315.407C382.978 318.517 364.348 323.08 364.348 323.08C364.348 323.08 362.278 320.177 362.485 318.103C362.606 316.723 362.606 315.335 362.485 313.955C362.485 313.955 365.383 316.651 366.832 314.784C366.832 314.784 369.523 313.125 368.902 312.088C368.75 311.811 368.64 311.513 368.575 311.203Z" fill="#ECF6F9"/>
<path opacity="0.1" d="M309.702 309.596L311.358 313.536L318.81 312.707C318.58 311.636 318.453 310.546 318.429 309.451C318.355 309.302 318.247 309.174 318.113 309.077C317.979 308.979 317.823 308.917 317.66 308.893C317.497 308.87 317.33 308.886 317.175 308.942C317.019 308.998 316.879 309.09 316.767 309.212C316.382 309.627 315.993 310.064 315.705 310.425C314.877 311.462 312.186 310.84 312.186 310.84C311.489 311.072 310.661 310.064 310.069 309.133C309.962 309.299 309.839 309.454 309.702 309.596Z" fill="black"/>
<path d="M316.559 309.627C316.682 309.493 316.84 309.394 317.014 309.341C317.189 309.288 317.374 309.283 317.551 309.327C317.728 309.371 317.89 309.462 318.02 309.591C318.151 309.719 318.244 309.881 318.291 310.058C318.668 311.532 319.494 313.438 321.293 314.159C324.398 315.403 328.745 317.477 327.296 319.343C325.847 321.21 320.879 322.869 316.532 321.417C312.185 319.966 305.976 316.44 305.976 316.44L309.081 308.145C309.081 308.145 310.737 311.67 311.978 311.255C311.978 311.255 314.669 311.878 315.497 310.841C315.786 310.48 316.174 310.043 316.559 309.627Z" fill="#ECF6F9"/>
<path d="M344.684 193.048C344.684 193.048 339.716 199.892 340.958 204.662C342.2 209.432 331.022 201.551 331.022 201.551C332.797 199.784 334.149 197.633 334.974 195.261C335.799 192.889 336.076 190.359 335.783 187.863L344.684 193.048Z" fill="#FDB797"/>
<path d="M328.331 257.96C336.611 262.937 346.547 260.863 346.547 260.863L346.34 259.412C346.485 259.426 346.63 259.441 346.771 259.453C354.684 260.154 356.483 257.752 356.483 257.752C355.245 254.266 354.274 246.875 353.67 241.161C353.583 240.34 353.504 239.554 353.432 238.818C353.268 237.153 353.146 235.751 353.067 234.803C352.999 233.969 352.964 233.488 352.964 233.488L352.136 227.266C352.136 227.266 349.859 219.8 350.894 214.823C351.776 210.584 348.903 209.053 348.032 208.692C347.895 208.639 347.754 208.597 347.611 208.567C346.476 208.297 345.211 207.134 344.136 205.887C342.568 204.087 340.569 202.721 338.329 201.917C337.288 201.538 336.404 201.136 336.404 201.136C334.955 199.476 331.022 200.513 331.022 200.513C326.261 203.624 328.745 213.786 328.745 213.786L330.724 219.452C331.863 222.592 333.369 225.585 335.212 228.366C338.255 233.069 334.127 239.502 334.127 239.502C327.71 244.687 328.331 257.96 328.331 257.96Z" fill="#FF8AA1"/>
<path opacity="0.05" d="M346.028 248.315L346.769 259.451C354.683 260.152 356.482 257.751 356.482 257.751C355.244 254.265 354.273 246.873 353.669 241.16C353.582 240.339 353.503 239.553 353.431 238.816L346.028 248.315Z" fill="black"/>
<path opacity="0.1" d="M332.885 219.177C332.885 219.177 336.611 226.228 337.853 229.339C339.095 232.45 339.095 231.413 339.716 232.45C340.337 233.487 346.961 238.049 346.961 238.049L353.669 241.16C353.386 238.48 353.181 236.168 353.067 234.801L346.754 230.583C346.754 230.583 342.407 227.887 342.2 224.362C341.993 220.836 339.302 214.407 339.302 214.407C339.302 214.407 333.92 208.6 331.643 211.296C329.366 213.992 332.885 219.177 332.885 219.177Z" fill="black"/>
<path d="M339.302 213.37C339.302 213.37 341.993 219.799 342.2 223.324C342.407 226.85 346.754 229.546 346.754 229.546L360.415 238.671C360.415 238.671 372.214 242.611 368.281 247.174C364.348 251.737 358.138 242.197 358.138 242.197L346.961 237.012C346.961 237.012 340.337 232.449 339.716 231.413C339.095 230.376 339.095 231.413 337.853 228.302C336.611 225.191 332.885 218.14 332.885 218.14C332.885 218.14 329.366 212.955 331.643 210.259C333.92 207.563 339.302 213.37 339.302 213.37Z" fill="#FDB797"/>
<path opacity="0.1" d="M340.958 216.066C340.958 216.066 336.818 212.955 335.99 211.918C335.625 211.46 335.057 211.528 334.538 211.746C333.568 212.163 332.513 212.337 331.462 212.255C330.556 212.177 329.677 212.229 329.78 212.748C329.987 213.785 329.159 207.356 329.159 207.356L332.678 206.111L337.232 208.6L340.958 216.066Z" fill="black"/>
<path d="M340.958 215.65C340.958 215.65 336.818 212.539 335.99 211.502C335.625 211.044 335.057 211.112 334.538 211.33C333.568 211.747 332.513 211.921 331.462 211.839C330.556 211.761 329.677 211.813 329.78 212.332C329.987 213.369 329.159 206.94 329.159 206.94L332.678 205.695L337.232 208.184L340.958 215.65Z" fill="#FF8AA1"/>
<path opacity="0.1" d="M350.705 216.067C349.958 216.395 349.143 216.538 348.329 216.484C347.515 216.43 346.726 216.18 346.028 215.756" fill="black"/>
<path opacity="0.1" d="M337.129 188.378C337.284 187.139 335.751 189.713 335.576 188.275L344.477 193.459C344.477 193.459 343.969 194.16 343.319 195.267C342.982 195.306 342.643 195.325 342.304 195.326C339.626 195.326 338.778 190.237 337.129 188.378Z" fill="black"/>
<path d="M342.51 194.912C347.483 194.912 351.515 190.873 351.515 185.891C351.515 180.908 347.483 176.869 342.51 176.869C337.537 176.869 333.506 180.908 333.506 185.891C333.506 190.873 337.537 194.912 342.51 194.912Z" fill="#FDB797"/>
<path opacity="0.1" d="M346.55 186.049C346.546 186.62 346.436 187.186 346.226 187.716C345.85 188.42 345.038 188.741 344.359 189.16C341.608 190.857 340.793 194.677 341.669 197.792C341.979 198.894 342.468 200.013 342.265 201.14C341.916 203.077 339.714 204.082 337.757 204.254C335.799 204.426 333.751 204.108 331.92 204.823C328.846 206.025 327.493 209.637 324.88 211.655C321.84 214.003 317.654 213.858 313.826 214.129C312.41 214.23 310.974 214.401 309.584 214.117C308.193 213.833 306.821 212.993 306.33 211.66C305.637 209.778 306.899 207.737 308.365 206.371C309.831 205.005 311.621 203.853 312.451 202.027C313.566 199.573 312.664 196.474 314.068 194.174C314.323 193.707 314.724 193.338 315.21 193.125C315.828 192.892 316.514 193.053 317.173 193.076C319.73 193.164 321.91 191.121 323.097 188.851C324.285 186.581 324.789 184.012 325.875 181.692C327.104 179.066 329.151 176.748 331.813 175.608C333.373 174.941 335.075 174.695 336.703 174.22C338.554 173.68 340.32 172.84 342.216 172.49C344.112 172.14 346.259 172.371 347.645 173.713C348.95 174.976 349.33 176.958 350.577 178.279C351.049 178.778 351.654 179.2 351.881 179.848C352.418 181.384 349.811 181.514 348.941 182.129C348.295 182.58 347.749 183.162 347.337 183.836C346.926 184.511 346.658 185.264 346.55 186.049Z" fill="black"/>
<path d="M346.136 185.84C346.132 186.411 346.022 186.977 345.812 187.507C345.435 188.211 344.624 188.532 343.945 188.951C341.194 190.648 340.378 194.468 341.255 197.583C341.565 198.686 342.054 199.804 341.851 200.931C341.502 202.868 339.3 203.873 337.342 204.045C335.385 204.217 333.337 203.899 331.506 204.614C328.432 205.816 327.079 209.428 324.466 211.446C321.426 213.794 317.24 213.649 313.412 213.92C311.996 214.021 310.56 214.192 309.17 213.908C307.779 213.624 306.407 212.784 305.916 211.451C305.223 209.569 306.485 207.528 307.951 206.162C309.417 204.796 311.207 203.644 312.037 201.818C313.152 199.364 312.25 196.265 313.654 193.965C313.909 193.498 314.31 193.129 314.795 192.916C315.414 192.683 316.099 192.844 316.759 192.867C319.316 192.955 321.496 190.912 322.683 188.642C323.871 186.372 324.375 183.803 325.461 181.483C326.69 178.857 328.737 176.539 331.399 175.399C332.958 174.732 334.661 174.487 336.289 174.011C338.14 173.471 339.906 172.631 341.802 172.281C343.698 171.931 345.845 172.162 347.231 173.504C348.536 174.767 348.916 176.749 350.163 178.07C350.634 178.569 351.24 178.991 351.466 179.639C352.004 181.175 349.397 181.305 348.527 181.92C347.881 182.371 347.335 182.953 346.923 183.627C346.512 184.302 346.244 185.055 346.136 185.84Z" fill="#FFC533"/>
<path d="M140.456 244.834H131.283V323.897C131.283 323.897 190.488 343.45 248.024 323.897V244.834H140.456Z" fill="#626673"/>
<path opacity="0.1" d="M189.535 254.228C221.767 254.228 247.896 250.225 247.896 245.288C247.896 240.35 221.767 236.348 189.535 236.348C157.303 236.348 131.174 240.35 131.174 245.288C131.174 250.225 157.303 254.228 189.535 254.228Z" fill="#3D414D"/>
<path d="M189.535 254.228C221.767 254.228 247.896 250.225 247.896 245.288C247.896 240.35 221.767 236.348 189.535 236.348C157.303 236.348 131.174 240.35 131.174 245.288C131.174 250.225 157.303 254.228 189.535 254.228Z" fill="#3F3D56"/>
<path d="M257.377 150.253C242.654 205.039 192.226 238.97 192.226 238.97C192.226 238.97 165.668 184.074 180.39 129.288C195.113 74.501 245.541 40.5703 245.541 40.5703C245.541 40.5703 272.099 95.4661 257.377 150.253Z" fill="#099616"/>
<path d="M123.443 150.253C138.166 205.039 188.594 238.97 188.594 238.97C188.594 238.97 215.152 184.074 200.429 129.288C185.707 74.501 135.279 40.5703 135.279 40.5703C135.279 40.5703 108.721 95.4661 123.443 150.253Z" fill="#14BC1F"/>
<path d="M145.075 138.481C185.474 178.07 190.409 238.927 190.409 238.927C190.409 238.927 129.844 235.598 89.4447 196.009C49.0458 156.42 44.1113 95.5625 44.1113 95.5625C44.1113 95.5625 104.676 98.8914 145.075 138.481Z" fill="#32D13C"/>
<path d="M235.743 138.481C195.344 178.07 190.409 238.927 190.409 238.927C190.409 238.927 250.974 235.598 291.373 196.009C331.772 156.42 336.707 95.5625 336.707 95.5625C336.707 95.5625 276.141 98.8914 235.743 138.481Z" fill="#89E386"/>
<path d="M70.504 160.797C71.8234 165.617 76.4074 168.549 76.4074 168.549C76.4074 168.549 78.8522 163.667 77.5328 158.847C76.2134 154.028 71.6294 151.096 71.6294 151.096C71.6294 151.096 69.1846 155.978 70.504 160.797Z" fill="#14BC1F"/>
<path d="M95.1994 187.636C93.7792 192.427 96.1211 197.359 96.1211 197.359C96.1211 197.359 100.765 194.525 102.186 189.735C103.606 184.945 101.264 180.012 101.264 180.012C101.264 180.012 96.6196 182.846 95.1994 187.636Z" fill="#14BC1F"/>
<path d="M51.3029 207.188C52.6223 212.007 57.2062 214.94 57.2062 214.94C57.2062 214.94 59.651 210.058 58.3316 205.238C57.0122 200.418 52.4283 197.486 52.4283 197.486C52.4283 197.486 49.9835 202.368 51.3029 207.188Z" fill="#14BC1F"/>
<path d="M91.2077 121.734C96.1194 129.647 93.9304 139.817 86.3814 144.465C78.8325 149.114 68.7196 146.519 63.8078 138.606C58.8961 130.693 61.0851 120.523 68.6341 115.875C76.183 111.226 86.2959 113.821 91.2077 121.734Z" fill="white" stroke="#F1F1F1"/>
<path d="M69.7002 131.912L69.1327 131.248C68.9465 131.2 68.7895 131.198 68.5874 131.225C68.3853 131.252 68.1899 131.339 67.964 131.479C67.5122 131.757 67.2534 132.146 67.2248 132.654C67.2189 133.148 67.3845 133.667 67.7217 134.211L67.839 134.401C68.1909 134.968 68.5825 135.348 69.0509 135.55C69.5193 135.751 69.9608 135.708 70.4126 135.429C70.6159 135.304 70.8046 135.155 70.9187 134.986C71.0555 134.804 71.1244 134.663 71.1641 134.475L70.8225 133.672L71.6131 133.185L72.2876 134.273C72.2456 134.659 72.0918 135.015 71.8556 135.39C71.6047 135.741 71.3019 136.058 70.8953 136.309C70.195 136.741 69.4464 136.843 68.6867 136.625C67.9123 136.383 67.2905 135.883 66.792 135.079L66.6747 134.89C66.1761 134.085 66.0062 133.307 66.1354 132.508C66.2646 131.709 66.6681 131.101 67.391 130.655C67.7976 130.404 68.203 130.252 68.6445 130.209C69.0634 130.179 69.4518 130.201 69.839 130.322L70.5135 131.411L69.7002 131.912Z" fill="#006799"/>
<path d="M69.9149 129.589L69.5044 128.926L71.1309 127.923L74.298 133.033L74.8909 132.831L75.3014 133.494L73.2231 134.775L72.8126 134.113L73.2588 133.674L70.5756 129.345L69.9149 129.589Z" fill="#006799"/>
<path d="M74.26 131.258C73.8788 130.643 73.729 130.049 73.8333 129.461C73.915 128.888 74.2348 128.396 74.8221 128.034C75.4095 127.672 75.9786 127.582 76.5441 127.79C77.095 127.973 77.5836 128.358 77.9648 128.974L78.0088 129.044C78.39 129.66 78.5398 130.254 78.4356 130.841C78.3539 131.415 78.0194 131.883 77.4321 132.245C76.8447 132.607 76.2756 132.697 75.7247 132.513C75.1739 132.33 74.6853 131.944 74.304 131.329L74.26 131.258ZM75.3432 130.688C75.5778 131.067 75.8215 131.309 76.0811 131.476C76.3632 131.629 76.6026 131.612 76.8963 131.431C77.1674 131.264 77.2974 131.02 77.2783 130.738C77.2673 130.417 77.1365 130.106 76.9019 129.727L76.8579 129.656C76.638 129.301 76.3796 129.036 76.1347 128.892C75.8525 128.739 75.5759 128.746 75.3048 128.914C75.0337 129.081 74.9037 129.324 74.9374 129.631C74.9485 129.951 75.0793 130.263 75.2992 130.617L75.3432 130.688Z" fill="#006799"/>
<path d="M82.095 128.585C82.0768 128.857 82.0292 129.083 81.8992 129.327C81.7772 129.533 81.6178 129.729 81.3694 129.882C80.9627 130.133 80.5585 130.186 80.1487 130.079C79.7469 129.935 79.37 129.578 79.0181 129.011L77.9771 127.331L77.4745 127.477L77.064 126.815L78.5549 125.895L80.0798 128.356C80.2704 128.663 80.4476 128.848 80.6113 128.911C80.7749 128.974 80.9545 128.961 81.1578 128.836C81.3159 128.738 81.4594 128.617 81.5283 128.476C81.612 128.359 81.6663 128.195 81.6754 128.059L80.3118 125.858L79.7867 126.019L79.3761 125.356L80.8896 124.423L82.9424 127.735L83.4901 127.561L83.9006 128.223L82.5001 129.087L82.095 128.585Z" fill="#006799"/>
<path d="M86.5147 125.892C86.519 126.151 86.4488 126.39 86.3494 126.582C86.2499 126.774 86.0759 126.947 85.8726 127.072C85.3982 127.365 84.8969 127.413 84.4058 127.225C83.9002 127.014 83.4714 126.624 83.0901 126.009L83.0462 125.938C82.6503 125.299 82.4632 124.695 82.4851 124.126C82.5069 123.556 82.751 123.144 83.248 122.838C83.4513 122.712 83.6388 122.662 83.8556 122.659C84.0723 122.656 84.2812 122.691 84.4968 122.787L83.5877 121.32L82.9722 121.536L82.5617 120.874L84.1882 119.871L87.3553 124.981L87.9256 124.793L88.3361 125.455L86.9129 126.333L86.5147 125.892ZM84.1519 125.354C84.3718 125.709 84.6155 125.951 84.8605 126.094C85.1054 126.238 85.3447 126.221 85.6158 126.054C85.774 125.956 85.8948 125.849 85.9638 125.708C86.0328 125.568 86.0645 125.417 86.0589 125.257L84.9886 123.53C84.8328 123.43 84.6838 123.391 84.5269 123.39C84.3699 123.389 84.2051 123.425 84.0695 123.508C83.821 123.662 83.691 123.905 83.7247 124.212C83.7584 124.518 83.8812 124.867 84.1305 125.269L84.1745 125.34L84.1519 125.354Z" fill="#006799"/>
<path d="M69.9591 140.189C70.0799 140.082 70.2686 139.933 70.4945 139.793C70.7882 139.612 71.0581 139.544 71.2522 139.555C71.4238 139.58 71.6022 139.666 71.7195 139.855C71.8368 140.045 71.857 140.228 71.8173 140.416C71.7472 140.656 71.5573 140.904 71.2637 141.085C71.1733 141.14 71.083 141.196 71.0005 141.214L71.5137 142.042L71.22 142.223L69.9591 140.189ZM70.8911 140.987C70.9736 140.969 71.0639 140.914 71.1543 140.858C71.5157 140.635 71.639 140.33 71.4777 140.07C71.3018 139.786 71.0026 139.807 70.6863 140.002C70.5508 140.086 70.4604 140.141 70.4073 140.207L70.8911 140.987Z" fill="#006799"/>
<path d="M73.4447 139.968L73.5921 140.76L73.2758 140.955L72.7909 138.41L73.1523 138.187L75.2186 139.757L74.9023 139.952L74.258 139.467L73.4447 139.968ZM74.0582 139.296L73.4658 138.844C73.3326 138.73 73.2141 138.639 73.1182 138.535C73.1463 138.681 73.1971 138.813 73.2399 138.983L73.3805 139.714L74.0582 139.296Z" fill="#006799"/>
<path d="M76.5061 138.963L75.9636 138.088L74.485 137.365L74.8239 137.156L75.492 137.529C75.685 137.639 75.8261 137.715 75.9818 137.815C75.9616 137.632 75.9561 137.471 75.9438 137.25L75.9308 136.473L76.2696 136.264L76.2347 137.921L76.7772 138.796L76.5061 138.963Z" fill="#006799"/>
<path d="M79.9019 135.627C79.7034 135.357 79.4609 135.016 79.3142 134.779C79.3705 135.072 79.4414 135.387 79.5044 135.741L79.7136 136.985L79.4877 137.125L78.5025 136.392C78.2136 136.177 77.962 135.973 77.7329 135.754C77.8942 136.015 78.0769 136.36 78.2449 136.681L78.7197 137.598L78.426 137.779L77.3085 135.624L77.6925 135.387L78.715 136.13C78.9666 136.334 79.1889 136.491 79.3661 136.677C79.3019 136.422 79.2377 136.167 79.1894 135.837L78.9802 134.593L79.3642 134.356L80.7754 136.331L80.4817 136.512L79.9019 135.627Z" fill="#006799"/>
<path d="M82.5469 133.897L81.6433 134.455L82.0978 135.188L83.0918 134.575L83.2238 134.788L81.9135 135.596L80.6379 133.538L81.9029 132.758L82.0349 132.971L81.0861 133.556L81.482 134.195L82.3856 133.637L82.5469 133.897Z" fill="#006799"/>
<path d="M84.3451 134.129L83.0695 132.071L83.4084 131.862L84.799 132.443C85.1037 132.582 85.3938 132.698 85.6162 132.855C85.4176 132.585 85.2484 132.362 85.0431 132.031L84.5153 131.179L84.7864 131.012L86.062 133.07L85.7683 133.251L84.4003 132.656C84.0955 132.517 83.7908 132.378 83.5459 132.235C83.7297 132.481 83.8764 132.718 84.0963 133.073L84.6388 133.948L84.3451 134.129Z" fill="#006799"/>
<path d="M85.9044 130.65L85.7578 130.413L87.4746 129.354L87.6213 129.591L86.921 130.023L88.05 131.844L87.7563 132.026L86.6273 130.204L85.9044 130.65Z" fill="#006799"/>
<path d="M89.4256 130.538C89.6052 130.526 89.8299 130.485 90.0558 130.346C90.372 130.151 90.4422 129.911 90.3102 129.698C90.1929 129.509 90.0067 129.461 89.6317 129.561C89.1744 129.68 88.8312 129.63 88.6552 129.346C88.45 129.015 88.597 128.597 89.0488 128.318C89.2747 128.179 89.4848 128.115 89.627 128.092L89.6686 128.361C89.5716 128.356 89.3841 128.406 89.1808 128.531C88.8645 128.726 88.8542 128.961 88.9422 129.103C89.0595 129.293 89.2537 129.304 89.6432 129.227C90.1153 129.132 90.4212 129.172 90.5972 129.456C90.7878 129.764 90.6926 130.215 90.1505 130.549C89.9246 130.688 89.6321 130.771 89.4751 130.769L89.4256 130.538Z" fill="#006799"/>
<path d="M164.577 91.3669C164.577 100.488 157.232 107.876 148.18 107.876C139.127 107.876 131.783 100.488 131.783 91.3669C131.783 82.2458 139.127 74.8574 148.18 74.8574C157.232 74.8574 164.577 82.2458 164.577 91.3669Z" fill="white" stroke="#F1F1F1"/>
<path d="M154.969 94.3709C156.603 94.3709 157.928 93.0374 157.928 91.3925C157.928 89.7475 156.603 88.4141 154.969 88.4141C153.335 88.4141 152.011 89.7475 152.011 91.3925C152.011 93.0374 153.335 94.3709 154.969 94.3709Z" fill="#00EEBC"/>
<path d="M153.257 86.189L147.417 80.3105L140.624 87.1099C139.512 88.2321 138.888 89.7524 138.888 91.3375C138.888 92.9225 139.512 94.4429 140.624 95.565L142.298 97.2502C142.298 97.2502 153.344 86.189 153.257 86.189Z" fill="#00EEBC"/>
<path d="M144.936 88.1513L144.77 88.0239L144.595 87.8476C143.988 87.1929 143.657 86.3268 143.672 85.4314C143.686 84.536 144.045 83.6812 144.673 83.0469L140.624 87.1128L140.391 87.3675C139.382 88.5079 138.845 89.9931 138.888 91.5193C138.932 93.0455 139.553 94.4973 140.624 95.5777L147.379 102.377L153.218 96.4987C153.257 96.5183 148.196 91.4432 144.936 88.1513Z" fill="url(#paint1_linear)"/>
<path d="M155.008 94.4099C156.637 94.4099 157.957 93.0808 157.957 91.4413C157.957 89.8017 156.637 88.4727 155.008 88.4727C153.38 88.4727 152.06 89.8017 152.06 91.4413C152.06 93.0808 153.38 94.4099 155.008 94.4099Z" fill="#00EEBC"/>
<path d="M153.297 86.2749L147.458 80.3965L140.684 87.1665C139.572 88.287 138.948 89.8057 138.948 91.3891C138.948 92.9726 139.572 94.4913 140.684 95.6118L142.348 97.2871C142.348 97.2871 153.433 86.2749 153.297 86.2749Z" fill="#00EEBC"/>
<path d="M144.984 88.2393L144.818 88.0727L144.672 87.8964C144.057 87.2698 143.708 86.4264 143.699 85.545C143.69 84.6342 144.04 83.7568 144.672 83.1055L140.682 87.1714C140.596 87.2514 140.515 87.3365 140.439 87.4261C139.425 88.5615 138.883 90.0453 138.925 91.5713C138.967 93.0972 139.589 94.5488 140.663 95.6265L147.407 102.426L153.247 96.5475C153.295 96.567 148.244 91.5018 144.984 88.2393Z" fill="url(#paint2_linear)"/>
<path d="M247.153 93.3122C244.909 102.365 236.063 108.086 227.432 106.148C218.801 104.21 213.575 95.3307 215.82 86.2776C218.064 77.2245 226.91 71.5042 235.541 73.4419C244.172 75.3797 249.398 84.2591 247.153 93.3122Z" fill="white" stroke="#F1F1F1"/>
<path d="M225.63 98.5385L226.504 96.4658L225.783 96.2903L222.318 95.5359L228.767 80.2421C228.787 80.196 228.822 80.1568 228.866 80.1329C228.909 80.109 228.959 80.1015 229.007 80.1118L234.849 81.3838C236.788 81.8061 238.02 82.5157 238.508 83.4932C238.736 83.9517 238.842 84.4017 238.829 84.8689C238.815 85.3592 238.675 85.9177 238.397 86.576L238.377 86.6241L238.266 87.0603L238.544 87.3239C238.781 87.5356 238.956 87.757 239.074 87.9923C239.269 88.3844 239.343 88.8446 239.292 89.3601C239.24 89.8903 239.058 90.4951 238.752 91.158C238.399 91.9204 237.981 92.5602 237.51 93.0557C237.076 93.5124 236.583 93.8621 236.043 94.0988C235.528 94.3232 234.952 94.453 234.33 94.4811C233.726 94.5105 233.063 94.4472 232.358 94.2936L231.903 94.1946C231.578 94.1238 231.231 94.1764 230.928 94.3399C230.623 94.5077 230.381 94.7752 230.246 95.0959L230.162 95.2814L228.621 98.9343L228.56 99.0673C228.542 99.1097 228.524 99.1291 228.503 99.1401C228.484 99.1503 228.459 99.1544 228.437 99.1497L225.63 98.5385Z" fill="#253B80"/>
<path d="M239.132 86.8092C239.085 86.921 239.035 87.0348 238.982 87.1513C237.163 91.0842 234.163 91.9265 230.794 91.1931L229.079 90.8197C228.667 90.73 228.241 90.9643 228.069 91.3713L225.716 96.9499L225.05 98.5313C224.937 98.7985 225.079 99.0926 225.349 99.1512L228.391 99.8135C228.751 99.8919 229.127 99.6874 229.277 99.3317L229.348 99.1781L230.883 95.5372L230.973 95.3386C231.123 94.9814 231.499 94.777 231.859 94.8554L232.314 94.9545C235.262 95.5962 237.886 94.8588 239.477 91.4183C240.142 89.981 240.316 88.6979 239.795 87.6556C239.637 87.3411 239.414 87.06 239.132 86.8092Z" fill="#179BD7"/>
<path d="M238.338 86.3654C238.229 86.3036 238.114 86.2443 237.996 86.1875C237.877 86.1313 237.754 86.0776 237.626 86.0264C237.179 85.8464 236.677 85.6978 236.129 85.5784L231.503 84.5708C231.389 84.546 231.274 84.5491 231.165 84.5763C230.925 84.6361 230.713 84.8109 230.609 85.0589L227.975 91.3048L227.898 91.4871C228.072 91.0761 228.502 90.8394 228.918 90.93L230.65 91.3071C234.05 92.0479 237.079 91.1965 238.915 87.2248C238.969 87.1072 239.019 86.9921 239.067 86.8792C238.897 86.7281 238.708 86.589 238.498 86.4601C238.447 86.4282 238.393 86.3965 238.338 86.3654Z" fill="#222D65"/>
<path d="M230.579 85.0123C230.682 84.7669 230.892 84.5938 231.13 84.5352C231.239 84.5084 231.352 84.5052 231.465 84.5297L236.048 85.5274C236.59 85.6456 237.088 85.7927 237.531 85.9709C237.657 86.0216 237.779 86.0748 237.897 86.1304C238.014 86.1866 238.128 86.2454 238.236 86.3066C238.29 86.3374 238.343 86.3687 238.395 86.3998C238.603 86.5275 238.791 86.6658 238.959 86.8148C239.575 85.3493 239.608 84.2671 239.055 83.1605C238.446 81.942 236.985 81.159 234.971 80.7206L229.124 79.4477C228.713 79.3581 228.282 79.5917 228.111 79.9995L221.589 95.4605C221.461 95.7665 221.623 96.1032 221.931 96.1702L225.541 96.956L227.969 91.1966L230.579 85.0123Z" fill="#253B80"/>
<path d="M314.523 141.513C308.554 148.473 298.197 149.311 291.392 143.41C284.587 137.508 283.891 127.083 289.861 120.123C295.83 113.164 306.187 112.325 312.992 118.227C319.797 124.129 320.493 134.553 314.523 141.513Z" fill="white" stroke="#F1F1F1"/>
<path d="M311.887 131.423C311.919 131.087 311.951 130.75 311.983 130.414L299.761 128.08L297.785 122.36C297.467 122.552 297.203 122.74 296.944 122.983L299.024 129L311.887 131.423Z" fill="#1A9F29"/>
<path d="M298.266 129.839L296.152 123.696C295.995 123.82 295.842 123.998 295.714 124.147C292.369 128.047 292.753 133.936 296.634 137.302C300.485 140.642 306.337 140.215 309.707 136.285C310.703 135.123 311.383 133.792 311.701 132.406L298.266 129.839Z" fill="#1A9F29"/>
<path d="M311.922 129.344C311.895 128.957 311.817 128.629 311.764 128.271L301.283 126.303L299.588 121.452C299.292 121.558 298.969 121.695 298.647 121.831L300.486 127.172L311.922 129.344Z" fill="#1A9F29"/>
<path d="M311.452 127.192C311.315 126.813 311.178 126.434 310.986 126.06L302.803 124.525L301.561 121.003C301.231 121.029 300.905 121.11 300.549 121.165L302.007 125.394L311.452 127.192Z" fill="#1A9F29"/>
<path fill-rule="evenodd" clip-rule="evenodd" d="M194.082 67.0948C205.809 66.1125 214.364 55.5857 213.191 43.5827C212.018 31.5796 201.561 22.6456 189.835 23.6279C178.108 24.6102 169.553 35.137 170.726 47.1401C171.899 59.1431 182.356 68.0772 194.082 67.0948ZM193.485 32.6052C192.228 32.5511 191.182 33.4997 191.15 34.7235C191.117 35.9474 192.11 36.9836 193.368 37.0377C194.625 37.0919 195.671 36.1435 195.704 34.9196C195.736 33.6958 194.743 32.6594 193.485 32.6052ZM195.419 40.1937L190.89 39.9995C190.562 39.9854 190.304 39.714 190.312 39.3933C190.321 39.0728 190.593 38.8246 190.921 38.8387L195.45 39.0329C195.779 39.047 196.038 39.318 196.029 39.6385C196.02 39.9592 195.747 40.2078 195.419 40.1937ZM185.507 45.0059C185.07 44.9871 184.724 44.6259 184.735 44.1979C184.747 43.7704 185.111 43.4388 185.548 43.4575C185.986 43.4763 186.331 43.8384 186.32 44.2658C186.308 44.6939 185.944 45.0246 185.507 45.0059ZM179.298 45.1657C179.291 44.1577 179.78 43.2535 180.427 42.5393C180.606 42.3418 180.504 42.2537 180.373 42.1408C180.325 42.0997 180.273 42.0554 180.23 42.0013C180.193 41.955 180.159 41.8983 180.125 41.8419C180.026 41.6761 179.927 41.5125 179.755 41.6216C177.93 42.7824 176.999 44.9846 177.779 47.2105C178.489 49.2359 180.477 50.1318 182.3 49.9094C183.642 49.7446 184.635 49.6517 185.368 50.9829L186.305 52.6892L187.042 54.0306C187.197 54.3116 187.293 54.3773 187.54 54.3879L190.232 54.5033C190.437 54.5121 190.493 54.3647 190.549 54.1085C190.773 53.0893 191.716 52.3506 192.824 52.3981C193.945 52.4462 194.854 53.282 195.007 54.3345C195.05 54.6288 195.121 54.713 195.333 54.7221L197.993 54.8362C198.18 54.8442 198.297 54.8492 198.467 54.5812L202.878 47.6175L202.888 47.6016C203.212 48.107 203.801 48.3408 204.247 48.3509C204.35 48.3529 204.389 48.2415 204.304 48.1539C203.908 47.7471 203.635 47.1842 203.612 46.4313C203.603 46.1126 203.655 45.81 203.717 45.4524C204.136 43.0556 203.06 40.5162 200.804 39.1246C199.827 38.5229 198.751 38.2105 197.683 38.1656L188.741 37.7821C187.673 37.7354 186.583 37.9549 185.576 38.4716C183.159 39.7133 181.952 42.3001 182.376 44.8196C182.541 45.7962 182.502 46.9407 181.581 47.3187C180.559 47.7377 179.314 47.1232 179.298 45.1657ZM181.044 37.9014C181.66 37.8555 182.213 38.2836 182.281 38.881C182.354 39.5306 182.009 40.7886 180.93 41.4527C180.861 41.4957 180.813 41.4595 180.842 41.3439C180.916 41.054 180.888 40.7066 180.758 40.366C180.65 40.0804 180.51 39.9041 180.382 39.7433C180.231 39.553 180.097 39.3844 180.053 39.0822C179.967 38.4871 180.415 37.9482 181.044 37.9014Z" fill="#14BC1F"/>
<defs>
<linearGradient id="paint0_linear" x1="344.946" y1="324.88" x2="344.946" y2="170.34" gradientUnits="userSpaceOnUse">
<stop stop-color="#808080" stop-opacity="0.25"/>
<stop offset="0.53514" stop-color="#808080" stop-opacity="0.12"/>
<stop offset="1" stop-color="#808080" stop-opacity="0.1"/>
</linearGradient>
<linearGradient id="paint1_linear" x1="140.576" y1="87.2793" x2="151.558" y2="98.1892" gradientUnits="userSpaceOnUse">
<stop stop-color="#00A9F9"/>
<stop offset="0.99" stop-color="#0B89EA"/>
</linearGradient>
<linearGradient id="paint2_linear" x1="165.423" y1="221.633" x2="372.289" y2="375.004" gradientUnits="userSpaceOnUse">
<stop stop-color="#00A9F9"/>
<stop offset="0.99" stop-color="#0B89EA"/>
</linearGradient>
</defs>
</svg>
